<svg width="40" height="40" viewBox="0 0 40 40" fill="none" xmlns="http://www.w3.org/2000/svg">
<rect width="40" height="40" rx="11.4286" fill="#4FC4B2"/>
<path d="M22.3176 11.3112C23.9291 11.227 25.3044 12.4637 25.391 14.075C25.4776 15.6864 24.243 17.0635 22.6317 17.1525C21.0171 17.2417 19.6366 16.0038 19.5497 14.3891C19.4629 12.7744 20.7028 11.3957 22.3176 11.3112ZM24.1092 15.5101C24.6275 14.9043 24.695 13.9227 24.3087 13.2321C24.1318 13.3017 23.935 13.451 23.7456 13.5371C22.9622 13.8933 22.075 13.9013 21.2797 13.5748C21.0738 13.4937 20.7477 13.271 20.6296 13.2318C20.366 13.8425 20.2765 14.3528 20.5322 15.002C20.7392 15.516 21.14 15.9279 21.6483 16.1486C22.1558 16.3621 22.7265 16.3699 23.2398 16.1702C23.5834 16.032 23.8838 15.804 24.1092 15.5101ZM21.1901 12.576C21.6458 12.8703 22.0939 13.0012 22.6406 12.9621C23.0454 12.9242 23.4052 12.8143 23.7422 12.5792C23.3616 12.2866 22.8171 12.1019 22.337 12.1582C21.8084 12.2114 21.6338 12.2898 21.1901 12.576Z" fill="white"/>
<path d="M30.3887 19.956C31.5392 19.9261 32.4969 20.8329 32.5296 21.9833C32.5622 23.1336 31.6575 24.0935 30.5072 24.1286C29.3532 24.1641 28.3898 23.2559 28.357 22.1018C28.3242 20.9477 29.2345 19.9863 30.3887 19.956ZM30.5632 23.2853C31.2483 23.2192 31.7507 22.611 31.6862 21.9258C31.6219 21.2405 31.0152 20.7365 30.3298 20.799C29.6416 20.8616 29.1353 21.4713 29.1999 22.1592C29.2645 22.8471 29.8754 23.3518 30.5632 23.2853Z" fill="white"/>
<path d="M5.71387 11.3255C5.77903 11.2109 5.87488 11.0467 6.00767 11.0257C6.51425 10.9454 6.56372 11.3524 6.56793 11.734C6.56961 11.8854 6.60642 12.1551 6.63325 12.2891C6.87143 13.505 7.58679 14.5748 8.61948 15.2595C9.32859 15.7295 9.96521 15.9118 10.7986 16.0114C11.0086 15.3961 11.4718 14.98 12.1298 14.9237C12.3302 14.9065 12.5266 14.9099 12.7273 14.9098L13.5757 14.9096C14.0613 14.9096 15.1548 14.8596 15.5679 15.0037C15.9538 15.1378 16.2695 15.4216 16.4439 15.791C16.6526 16.2321 16.5969 16.9083 16.5966 17.404L16.5967 21.1159C16.5965 21.5631 16.614 22.027 16.5597 22.4727C16.5077 22.8988 16.3005 23.3434 16.0571 23.6967C15.9697 23.8236 15.8549 23.9413 15.7676 24.0693C15.7436 24.3283 15.759 24.8405 15.759 25.1189L15.7593 27.1107C15.7596 29.0602 15.7396 31.0428 15.7599 32.9892C16.1444 33.1386 16.5503 33.2543 16.9492 33.391C17.2584 33.4969 17.5359 33.6417 17.3826 34.0408C17.345 34.1386 17.2376 34.2046 17.149 34.2544L17.113 34.2748H16.9023C16.823 34.2262 16.6145 34.1654 16.5156 34.1329L15.711 33.8677C15.4404 33.7792 14.9381 33.6866 14.9283 33.3402C14.9191 33.0139 14.9214 32.6837 14.9216 32.3569L14.9218 24.6795C14.7477 24.7472 14.5983 24.8031 14.4191 24.8578C13.8459 25.0324 12.9396 24.9683 12.4138 24.6697C12.4033 25.4347 12.4112 26.2172 12.4112 26.9832L12.4118 32.5799C12.4118 32.8316 12.4767 33.4967 12.2421 33.6227C11.816 33.8516 11.2751 33.9599 10.8179 34.1321C10.6998 34.1764 10.5354 34.2112 10.4295 34.2748H10.2112C10.0949 34.2071 9.96009 34.121 9.92097 33.9822C9.78723 33.5078 10.3214 33.4087 10.6512 33.3C10.9592 33.201 11.266 33.0983 11.5717 32.9923C11.592 31.0594 11.5738 29.0896 11.5738 27.154L11.5739 25.1874C11.5741 24.8498 11.5791 24.4939 11.5683 24.1568C11.539 23.9527 11.3104 23.7751 11.1974 23.598C10.7611 22.9139 10.7356 22.3628 10.7363 21.5757L10.7372 20.5615L10.7356 16.8588C10.5437 16.8271 10.3525 16.8074 10.1589 16.7715C9.6948 16.6853 9.24406 16.5386 8.81815 16.3351C7.44807 15.6788 6.41239 14.4825 5.95888 13.0326C5.89918 12.8444 5.85367 12.6499 5.81438 12.4565C5.78042 12.2893 5.77784 12.0631 5.71387 11.9078V11.3255ZM15.7616 17.99L12.8022 17.9849L12.0477 17.988C11.9215 17.989 11.6938 17.9975 11.5772 17.9784C11.5568 18.8262 11.5742 19.7368 11.5743 20.5892L11.5734 21.4984C11.5731 21.8154 11.5619 22.1697 11.6302 22.478C11.7129 22.8522 11.8972 23.1964 12.1629 23.4725C12.5481 23.874 13.0789 24.103 13.6353 24.1079C14.2484 24.1187 14.7146 23.8921 15.1563 23.4831C15.9295 22.592 15.7386 21.9206 15.7591 20.8307C15.7768 19.8878 15.7403 18.9316 15.7616 17.99ZM13.2481 17.1399C13.5218 17.1414 13.8097 17.1475 14.0823 17.1405C14.0838 16.6914 14.0752 16.2045 14.0874 15.7582C13.9054 15.7568 13.4057 15.7693 13.2524 15.7473C13.2357 16.2002 13.2528 16.6837 13.2481 17.1399ZM11.6256 17.1384C11.8864 17.1429 12.1472 17.1439 12.408 17.1415L12.4119 16.2399C12.4122 16.1394 12.4194 15.8607 12.4019 15.7749C12.3775 15.7531 12.3884 15.7579 12.357 15.752C12.2241 15.7616 12.1127 15.7613 11.9872 15.8191C11.464 16.06 11.5876 16.6022 11.5729 17.0662C11.5716 17.1102 11.5754 17.1109 11.6003 17.1377L11.6256 17.1384ZM14.9221 17.1399C15.1972 17.1413 15.4816 17.1464 15.756 17.1418C15.7608 16.6585 15.8719 15.9714 15.2679 15.7958C15.1539 15.7626 15.0427 15.7615 14.9267 15.7443C14.9122 16.205 14.927 16.6779 14.9221 17.1399Z" fill="white"/>
<path d="M25.3492 19.0931C26.5434 18.9956 27.5527 18.4468 28.3252 17.5381C28.8458 16.9132 29.1762 16.1521 29.2772 15.345C29.2938 15.2055 29.3012 15.0665 29.3126 14.9271C29.3199 14.8396 29.3307 14.7016 29.363 14.6209C29.4774 14.335 29.9036 14.3039 30.071 14.5539C30.137 14.6525 30.1529 14.7648 30.1537 14.8801C30.1314 16.2051 29.5872 17.4923 28.648 18.4299C27.9258 19.1563 27.0054 19.6534 26.0019 19.8589C25.8655 19.8868 25.5566 19.9401 25.4252 19.9431C25.4043 20.1432 25.4043 20.2654 25.2593 20.411C25.1121 20.5589 24.777 20.5312 24.6748 20.3679C24.427 19.962 24.7631 19.3949 24.3468 19.0359C24.2362 18.9405 24.1386 18.879 23.9891 18.8622C23.4825 18.8052 22.9379 18.8792 22.4333 18.8445C22.4641 19.2369 22.4564 19.5999 22.4564 19.9927L22.4557 21.348L24.7423 21.3502C24.8218 21.3502 24.9018 21.3494 24.9813 21.3502C25.7586 21.3585 26.4465 21.2474 27.0463 21.8536C27.3563 22.1676 27.5287 22.5919 27.5261 23.033C27.5234 23.4847 27.3384 23.9161 27.0128 24.2293C26.5102 24.7117 25.9708 24.7217 25.3183 24.7058C25.2941 24.7051 25.2698 24.704 25.2456 24.7023C25.1293 24.9865 25.034 25.1919 24.8486 25.447C24.7695 25.5557 24.6538 25.6803 24.5844 25.7798C24.5687 25.9516 24.5757 26.1749 24.5759 26.3525L24.5764 27.2798C24.5768 27.9122 24.554 28.6867 24.5795 29.3071C24.779 29.5404 25.009 29.7806 25.218 30.0074L26.2123 31.0896C26.3201 31.2069 27.0318 31.9521 27.0484 32.0483C27.1382 32.5698 27.0639 33.2966 27.0873 33.8424C27.0983 34.0983 26.928 34.1852 26.7535 34.2975H26.5847C26.165 34.1027 26.2667 33.9094 26.2487 33.5171C26.2318 33.1489 26.2801 32.7254 26.2398 32.3653C26.1635 32.2614 25.9158 32.0055 25.8181 31.8993L24.5099 30.4751C24.2956 30.2414 24.0781 30.0141 23.8694 29.7745C23.6869 29.5651 23.7448 29.3283 23.7378 29.0701C23.7331 28.8972 23.7395 28.7174 23.7396 28.5436L23.7378 26.3811C23.6001 26.4334 23.4612 26.4853 23.3214 26.531C22.6999 26.7347 21.8146 26.6788 21.2316 26.3714C21.2205 26.9913 21.2282 27.6327 21.2282 28.2541L21.2292 32.7332C21.2295 33.6456 21.3008 33.6068 20.4204 33.897L19.6235 34.1583C19.5214 34.1917 19.3335 34.2453 19.2466 34.2975H19.0283C18.8933 34.216 18.7743 34.1458 18.7299 33.9786C18.7024 33.8742 18.7184 33.7633 18.7743 33.6711C18.8496 33.5493 18.9803 33.4868 19.1107 33.4413C19.5332 33.2939 19.9689 33.1691 20.3888 33.015L20.3913 26.5617C20.3914 26.3891 20.4013 25.9324 20.3814 25.7809C20.052 25.3559 19.9239 25.2481 19.7247 24.7092C19.0242 24.7028 18.4531 24.7443 17.9144 24.1948C17.6041 23.8797 17.4331 23.4533 17.4397 23.0112C17.4431 22.5532 17.6339 22.1165 17.9676 21.8029C18.3184 21.4702 18.6499 21.3989 19.106 21.3481L19.1063 19.5499C18.8587 19.5577 18.6467 19.5619 18.3971 19.5389C17.8606 19.4894 17.8749 18.7794 18.3524 18.7115C18.5883 18.678 18.9049 18.6963 19.1533 18.6985C19.3403 18.1972 19.5732 17.8325 20.0821 17.5984C20.486 17.4161 20.9456 17.4006 21.3607 17.5555C21.5502 17.6259 21.6877 17.7095 21.843 17.8387C21.8888 17.8769 21.987 17.964 22.0305 17.9925L22.0521 17.9946C22.2124 18.009 22.4182 18.0034 22.5819 18.0031L23.4107 18.0017C24.0788 18.001 24.541 17.9908 25.0442 18.545C25.1859 18.701 25.274 18.8981 25.3492 19.0931ZM19.1097 22.193C18.8927 22.2212 18.7586 22.2396 18.5772 22.3819C18.3475 22.5623 18.241 22.8629 18.2831 23.1513C18.3155 23.3718 18.4363 23.5698 18.6179 23.6993C18.8986 23.9009 19.2586 23.8624 19.5901 23.8624H25.0583C25.225 23.8624 25.3932 23.8622 25.5597 23.8622C25.9022 23.8624 26.1848 23.8711 26.4442 23.6126C26.6017 23.4579 26.6905 23.2463 26.6905 23.0253C26.6908 22.7979 26.5976 22.5804 26.4327 22.4237C26.2484 22.2464 26.0623 22.2061 25.8164 22.1973C25.5809 22.189 25.3454 22.1924 25.1099 22.1926L23.1395 22.1947C22.7906 22.1949 22.4412 22.1991 22.0925 22.1902C21.9347 22.1863 21.7934 22.1404 21.6937 22.0097C21.624 21.9183 21.6236 21.7809 21.6177 21.6705C21.6146 20.968 21.6198 20.2644 21.6195 19.5618C21.6192 19.3415 21.6297 19.1124 21.5798 18.8968C21.4912 18.5149 21.0785 18.2388 20.6917 18.3007C20.3387 18.3358 20.0113 18.5961 19.9665 18.9619C19.9252 19.2998 19.9439 19.6779 19.9443 20.0224L19.9458 21.9719C19.946 22.269 20.0136 22.7492 19.7662 22.9406C19.5555 23.1036 19.2305 23.0094 19.139 22.7577C19.0883 22.6055 19.106 22.3607 19.1097 22.193ZM23.8547 25.2985C23.9817 25.1792 24.0675 25.092 24.1695 24.9487C24.2205 24.8769 24.2848 24.7687 24.3374 24.7061L21.885 24.7049C21.4951 24.7049 21.0358 24.7169 20.6522 24.7032C20.7056 24.9458 21.1311 25.3378 21.351 25.4797C21.8249 25.7795 22.3984 25.8792 22.9458 25.757C23.2966 25.6783 23.5774 25.5225 23.8547 25.2985Z" fill="white"/>
<path d="M28.3595 26.6504C28.3655 25.6169 28.9873 24.9873 30.0194 24.9771L30.6747 24.9763C31.2405 24.9769 31.6547 25.0015 32.0924 25.4259C32.4382 25.7611 32.5483 26.1812 32.5502 26.6506C33.1928 26.6293 33.7275 26.755 34.0825 27.3448C34.1807 27.5079 34.2238 27.6778 34.2786 27.8581V28.2384C34.1243 28.7338 34.0024 29.0075 33.5135 29.2867C33.267 29.4274 32.8263 29.481 32.5508 29.4418L32.5502 33.3426C32.5501 33.5227 32.555 33.6961 32.5406 33.8761C32.518 34.16 32.4189 34.1656 32.2154 34.2966H32.0466C31.7737 34.1695 31.7148 34.0798 31.7125 33.7776C31.7102 33.4891 31.7114 33.199 31.7114 32.9104L31.7112 30.699C31.3961 30.9016 31.1231 31.0445 30.7443 31.0971C30.1984 31.171 29.6454 31.0265 29.2054 30.6951C29.1754 31.6458 29.2215 32.6169 29.2019 33.5694C29.1942 33.941 29.2453 34.1109 28.8672 34.2966H28.6984C28.5092 34.1981 28.3885 34.1442 28.3729 33.9111C28.3601 33.7186 28.3634 33.5332 28.3634 33.3405L28.3633 32.387C28.3631 31.4131 28.3556 30.4259 28.3664 29.4531C27.8608 29.4531 27.4438 29.4199 27.06 29.0475C26.7948 28.7928 26.6433 28.4418 26.6398 28.074C26.6317 27.6933 26.7794 27.3259 27.049 27.0569C27.4449 26.659 27.841 26.653 28.3595 26.6504ZM32.7825 28.6036C32.982 28.5919 33.1261 28.5763 33.2779 28.4221C33.5025 28.2006 33.4697 27.8377 33.2436 27.6305C33.1402 27.5358 33.0211 27.5182 32.8866 27.5065C32.6512 27.486 32.4079 27.493 32.1717 27.4933L31.0375 27.4945L29.1484 27.4937C28.8227 27.4935 28.4623 27.4857 28.1403 27.4952C27.9403 27.5095 27.7587 27.5182 27.6151 27.6837C27.517 27.7961 27.4685 27.9433 27.4805 28.092C27.4934 28.2419 27.5667 28.38 27.6832 28.475C27.8941 28.6435 28.3484 28.6047 28.6137 28.6049L32.7825 28.6036ZM29.1981 26.6469C29.7825 26.6527 30.3669 26.6541 30.9513 26.6509C31.2037 26.6508 31.46 26.6531 31.7119 26.6505C31.7065 26.4005 31.6878 26.2108 31.4946 26.0215C31.4128 25.9408 31.3115 25.8829 31.2006 25.8533C31.0054 25.801 30.2038 25.8161 29.9664 25.8213C29.4198 25.856 29.2118 26.1166 29.1981 26.6469ZM31.3061 29.9401C31.4746 29.7717 31.5332 29.6656 31.6381 29.4502C30.8725 29.4418 30.0409 29.4696 29.2859 29.4461C29.3223 29.6571 29.5657 29.9285 29.7411 30.0506C30.0184 30.2427 30.3617 30.3147 30.6929 30.2501C30.9261 30.2057 31.1286 30.0961 31.3061 29.9401Z" fill="white"/>
<path d="M13.4285 5.70312H13.8746C14.2404 5.83388 14.3396 5.79584 14.6865 6.06341C15.035 6.33287 15.261 6.73076 15.3139 7.16809C15.3773 7.69439 15.2239 8.08661 14.904 8.49182C16.939 9.53128 17.1794 12.1773 15.3424 13.5312C14.7344 13.9706 13.9784 14.1546 13.2364 14.0438C11.6362 13.8042 10.5229 12.3031 10.7687 10.6978C10.8812 9.96461 11.2678 9.30139 11.8504 8.8421C12.0504 8.68539 12.2016 8.62214 12.3823 8.48993C12.3343 8.36715 12.159 8.16035 12.0902 7.96038C11.9344 7.52111 11.9641 7.0373 12.1727 6.62045C12.3473 6.27442 12.6403 5.9836 13.0027 5.83974C13.1305 5.78901 13.2942 5.74762 13.4285 5.70312ZM15.2971 12.4224C15.8126 11.8197 15.885 10.8306 15.4965 10.1442C15.3189 10.2145 15.1234 10.363 14.9335 10.4493C14.15 10.8055 13.2629 10.8136 12.4675 10.4872C12.2617 10.406 11.9356 10.1833 11.8174 10.144C11.5539 10.7548 11.4642 11.2651 11.7201 11.9143C11.927 12.4283 12.3279 12.8401 12.836 13.0609C13.3436 13.2744 13.9143 13.2822 14.4275 13.0825C14.7713 12.9443 15.0716 12.7163 15.2971 12.4224ZM13.5505 6.55338C13.0929 6.61323 12.7717 7.03435 12.8349 7.49148C12.8981 7.9486 13.3215 8.26678 13.7782 8.20025C14.2301 8.13442 14.5443 7.71625 14.4818 7.26381C14.4192 6.81137 14.0034 6.49413 13.5505 6.55338ZM12.3774 9.48652C12.8304 9.78723 13.283 9.90921 13.8284 9.87436C14.2332 9.83647 14.5933 9.72648 14.9301 9.4915C14.5518 9.20123 14.0044 9.01268 13.5277 9.07051C12.986 9.12542 12.8356 9.19888 12.3774 9.48652Z" fill="white"/>
</svg>
