<svg width="40" height="40" viewBox="0 0 40 40" fill="none" xmlns="http://www.w3.org/2000/svg">
<rect width="40" height="40" rx="11.4286" fill="#49A2CC"/>
<path d="M14.8435 5.71094H15.5863C15.7081 5.76085 15.886 5.77363 16.0175 5.80367C17.9955 6.25561 19.0086 8.02275 20.0892 9.55891C20.3713 9.19166 20.621 8.79237 20.8974 8.4143C21.7523 7.24494 22.8218 6.21369 24.3283 6.02208C25.1544 5.91701 26.1736 6.12588 26.9102 6.55582C27.0663 6.66154 27.104 6.91438 27.0132 7.07063C26.2591 8.36783 25.4436 9.63086 24.4588 10.7678C24.2543 11.004 24.0271 11.2344 23.8141 11.4643C24.4226 11.4834 25.0649 11.4516 25.6685 11.4731C28.2135 11.5637 30.3751 12.9662 30.8165 15.6002C30.8735 15.9405 30.8434 16.1887 30.4337 16.2548C30.0077 16.313 29.5757 16.3095 29.1479 16.3535C28.9378 16.3733 28.716 16.3657 28.5845 16.1749C28.5241 16.087 28.5012 15.9786 28.5206 15.8737C28.6094 15.3969 29.204 15.5279 29.5569 15.4796C29.6507 15.4668 29.8258 15.4639 29.9225 15.4659C29.2151 12.7752 27.0744 12.284 24.6307 12.3028C24.3166 12.3026 24.0027 12.3081 23.689 12.3196C23.4225 12.3316 23.0789 12.3292 22.8145 12.3645C22.7509 12.373 22.5598 12.5272 22.4885 12.5739C23.1646 12.8976 23.6393 13.2809 23.8977 14.02C24.0273 14.401 24.0605 14.8084 23.9942 15.2054C24.6964 15.3539 25.4084 15.451 26.1247 15.4961C26.4856 15.5223 26.8474 15.516 27.206 15.5613C27.4359 15.5904 27.6012 15.8276 27.5485 16.0487C27.5195 16.1676 27.4426 16.2693 27.3361 16.3296C27.1083 16.4563 25.8053 16.3051 25.478 16.2809C25.3468 16.2711 24.9992 16.2356 24.8795 16.2065C25.2077 16.582 25.5139 16.9074 25.8102 17.3034C26.966 18.848 27.129 20.7557 26.0747 22.4056C25.879 22.7121 25.7018 23.0958 25.2508 22.8061C23.8279 21.6353 22.1597 20.1297 21.1266 18.6279C20.8067 22.3698 21.3854 26.5261 22.5522 30.0865C23.0582 30.1228 23.7431 30.0884 24.2676 30.0985C24.2484 29.7669 24.2674 29.2783 24.2674 28.9291L24.2676 24.4925C24.2676 24.1674 24.2604 23.8334 24.2709 23.5085C24.2749 23.385 24.3119 23.2928 24.3873 23.1953C24.4737 23.084 24.6876 23.0667 24.8262 23.0657C25.168 23.0631 25.5158 23.0658 25.8597 23.066L29.0235 23.0646C29.2388 23.0646 29.454 23.058 29.6689 23.0718C30.0573 23.097 30.1272 23.2995 30.1294 23.6456L30.1293 29.287C30.1293 29.5304 30.1385 29.8531 30.1254 30.0897C30.7015 30.1094 31.3886 30.0571 31.9423 30.1244C33.0693 30.2619 34.0474 31.2035 34.2361 32.3213C34.2457 32.3747 34.2664 32.4523 34.2858 32.5021V33.9475C34.1905 34.1405 34.1545 34.1759 33.9611 34.2824H28.8472C28.7852 34.2487 28.717 34.2112 28.6636 34.1646C28.5002 34.0216 28.4798 33.7433 28.6341 33.5823C28.6965 33.5183 28.7778 33.4763 28.866 33.4623C29.0246 33.4376 29.2699 33.4441 29.4374 33.4442L33.4464 33.4441C33.46 32.6985 33.4724 32.0762 32.9122 31.504C32.4598 31.042 31.9907 30.9459 31.3717 30.94L9.23105 30.9389C8.87672 30.9388 8.5549 30.9329 8.20038 30.9658C7.36836 31.043 6.68988 31.7059 6.5806 32.5326C6.54054 32.8357 6.55143 33.1391 6.55188 33.4425L26.5976 33.4448C26.8673 33.4448 27.3198 33.3852 27.4843 33.6317C27.5495 33.7313 27.57 33.8537 27.5407 33.969C27.4948 34.1516 27.3837 34.1975 27.2365 34.2824H6.03937C5.85136 34.1745 5.8181 34.1628 5.71436 33.963V32.4697C5.74232 32.4163 5.81727 32.1062 5.84088 32.0218C5.96707 31.5876 6.20325 31.1934 6.52652 30.8774C6.95936 30.4533 7.52101 30.1854 8.12294 30.1159C8.36438 30.0893 8.64579 30.0958 8.89107 30.0958L9.87034 30.0986C9.85557 29.9432 9.86917 29.732 9.86931 29.5705L9.86956 27.6593C9.86921 27.3643 9.78369 26.7056 10.2976 26.7261C10.6705 26.7694 10.7166 27.0335 10.7096 27.3311C10.688 28.2457 10.7375 29.1777 10.7054 30.089C11.0904 30.1148 11.6821 30.097 12.0768 30.097L14.8927 30.0988C14.8789 29.9616 14.8911 29.5437 14.8914 29.3894L14.8922 25.3045C14.8921 24.8514 14.8814 24.3602 14.8946 23.9113C13.6561 23.9251 12.4114 23.8933 11.1722 23.9097C11.0171 23.9117 10.8635 23.9153 10.7083 23.9106L10.7103 24.7895C10.7105 24.994 10.7193 25.2012 10.6902 25.403C10.6807 25.5604 10.4845 25.7436 10.3231 25.7436C9.97291 25.7433 9.86184 25.4941 9.86971 25.1992C9.88619 24.5808 9.83016 23.9708 9.89844 23.3601C9.90844 23.2706 10.0268 23.1359 10.1149 23.1091C10.3691 23.0426 10.677 23.0643 10.9389 23.0643L14.0746 23.065C14.435 23.0646 14.7946 23.0636 15.1559 23.0656C15.4504 23.0671 15.7092 23.1374 15.7258 23.4872C15.7398 23.781 15.7325 24.0787 15.7321 24.373L15.732 28.6554C15.7322 29.1157 15.7436 29.6324 15.7278 30.0891C16.0308 30.1049 16.383 30.0968 16.6907 30.0967L18.2509 30.0977C18.219 30.0236 18.2031 29.9491 18.1804 29.8722C17.2171 26.6111 17.107 23.2348 17.6255 19.8838C17.4095 20.0939 17.2025 20.3269 16.9871 20.5389C16.4288 21.0866 15.8487 21.6116 15.2483 22.1127C14.6632 22.6 14.4029 22.9741 13.9158 22.1186C13.5063 21.3993 13.2396 20.7376 13.2149 19.9005C13.1671 18.2776 14.06 17.0449 15.1251 15.9309C14.9219 15.969 14.7173 15.9743 14.5142 16.0012C14.0325 16.0651 13.5703 16.0783 13.086 16.0915C12.1851 16.1225 11.2831 16.1047 10.384 16.0382C10.1019 16.0199 9.79297 16.028 9.51671 15.967C9.42977 15.9478 9.32935 15.9136 9.26364 15.8511C9.17771 15.7694 9.15625 15.6406 9.15901 15.5273C9.16422 15.3133 9.22912 15.0819 9.28525 14.8754C9.52624 13.9893 9.9638 13.1791 10.645 12.5528C12.143 11.1754 14.2801 11.1146 16.1987 11.1936C15.1253 10.1286 14.1741 8.78294 13.3979 7.48085C13.2443 7.22312 12.7802 6.65708 12.9964 6.38244C13.2389 6.07446 13.907 5.93236 14.2805 5.82237C14.4572 5.77016 14.673 5.76567 14.8435 5.71094ZM25.1071 23.9124L25.1065 29.3717C25.1065 29.59 25.1147 29.8757 25.103 30.0898C25.5077 30.103 25.9313 30.0971 26.3374 30.0971L28.2939 30.0965C28.6226 30.0968 28.9623 30.0929 29.29 30.0985C29.2743 29.8292 29.2891 29.4276 29.2893 29.1469L29.2891 25.0628C29.289 24.707 29.2762 24.2588 29.2918 23.9114L26.1482 23.9099C25.8307 23.9111 25.4179 23.9255 25.1071 23.9124ZM17.9308 16.322C18.7702 16.2349 19.3798 15.4835 19.2921 14.6441C19.2044 13.8048 18.4526 13.1956 17.6133 13.2839C16.7748 13.372 16.1663 14.123 16.2539 14.9616C16.3416 15.8002 17.0921 16.4091 17.9308 16.322ZM19.1669 9.71196C19.0833 9.55741 18.971 9.41405 18.8738 9.27087C18.026 8.02206 16.9369 6.58178 15.2751 6.5554C15.1855 6.55398 15.0774 6.55443 14.9878 6.5671C14.7682 6.59167 14.6019 6.6114 14.3845 6.66503C14.2416 6.70028 14.0875 6.75653 13.95 6.7874C14.8045 8.22094 15.7768 9.64803 16.9973 10.8003C17.1842 10.9768 17.3988 11.1369 17.5864 11.3129C17.6349 11.1634 17.6825 11.0361 17.7515 10.8942C18.074 10.3129 18.5181 9.89902 19.1669 9.71196ZM21.5045 13.2838C20.6651 13.3704 20.055 14.1216 20.1424 14.9611C20.2298 15.8005 20.9817 16.4098 21.8209 16.3216C22.6591 16.2335 23.2675 15.483 23.1802 14.6447C23.0928 13.8064 22.343 13.1974 21.5045 13.2838ZM20.9166 9.84461C21.5612 10.2217 21.9408 10.6262 22.1535 11.3706C22.187 11.4875 22.2032 11.6113 22.2324 11.7268C22.2815 11.6841 22.3356 11.6345 22.3861 11.5946C23.7024 10.564 24.7244 9.17476 25.616 7.77235C25.7644 7.53883 25.9073 7.30084 26.0546 7.06646C25.5221 6.92343 25.1266 6.7849 24.5422 6.84583C24.289 6.87495 24.0546 6.90889 23.8131 6.99718C22.5041 7.4756 21.6693 8.74992 20.9166 9.84461ZM19.8698 13.263C20.1646 12.9276 20.4525 12.7223 20.8808 12.5701C21.0185 12.5211 21.1778 12.4943 21.3166 12.452C21.4405 12.0464 21.4127 11.6272 21.2113 11.2506C21.0211 10.8964 20.6989 10.6316 20.3145 10.5137C20.0962 10.4484 19.9353 10.4449 19.7102 10.4595C19.5354 10.4877 19.4025 10.5083 19.2369 10.5796C18.613 10.848 18.2507 11.5412 18.3571 12.2071C18.3727 12.3045 18.4006 12.4068 18.4249 12.5032C18.5506 12.5785 18.7077 12.6245 18.8433 12.6889C19.2325 12.8735 19.4411 13.1422 19.7268 13.4389C19.7725 13.3816 19.8216 13.3174 19.8698 13.263ZM19.6966 17.8234C19.9151 17.8136 20.138 17.7996 20.3557 17.7917C20.3921 17.5951 20.4754 17.0464 20.4771 16.8563C20.2669 16.7235 20.1227 16.6198 19.9503 16.4371C19.895 16.3785 19.7586 16.2134 19.7056 16.1721C19.6422 16.2541 19.2466 16.6579 19.2321 16.6873C19.0779 16.9994 19.0165 17.4653 18.894 17.8112C19.1477 17.819 19.4468 17.8342 19.6966 17.8234ZM18.2267 21.7815C18.2067 22.1716 18.1744 22.567 18.1602 22.9556C18.1463 23.3379 18.1692 23.7379 18.1439 24.1201C18.2847 24.1253 18.4257 24.1288 18.5666 24.1309C19.2078 24.1451 19.757 24.1166 20.3918 24.1104C20.3161 23.2906 20.2598 22.585 20.2178 21.7626L20.0093 21.7746C19.555 21.7991 19.1252 21.8304 18.67 21.8034C18.5267 21.7949 18.3694 21.8005 18.2267 21.7815ZM20.3465 24.9563C19.8062 24.9654 19.2637 24.989 18.7249 24.9785C18.5619 24.9753 18.3396 24.9807 18.1805 24.9672C18.2585 26.1021 18.3654 26.9032 18.5789 28.0166C18.6932 28.0271 18.8079 28.0325 18.9227 28.0331C19.2177 28.0364 19.5247 28.0434 19.819 28.0368C20.2368 28.0273 20.6699 27.9915 21.0874 27.9895C21.0246 27.7726 20.9769 27.488 20.9249 27.2634C20.7481 26.5008 20.6365 25.7274 20.502 24.9561L20.3465 24.9563ZM18.3168 20.9438C18.8376 20.9611 19.3841 20.9888 19.9037 20.9316C19.9992 20.9229 20.0987 20.9121 20.1943 20.9088C20.1978 20.1558 20.2264 19.4032 20.2799 18.6521C19.7159 18.6654 19.256 18.6558 18.7016 18.6536C18.5987 19.1785 18.4897 19.6998 18.4192 20.2299C18.3876 20.4676 18.3507 20.7062 18.3168 20.9438ZM21.2487 28.8203C20.6612 28.8613 20.0725 28.8824 19.4835 28.8835C19.2863 28.8842 18.9673 28.8912 18.7765 28.8744C18.8143 29.0043 19.0969 30.0396 19.1344 30.0826C19.1576 30.0866 19.1779 30.091 19.2014 30.0931C20.0153 30.1071 20.8547 30.0974 21.6704 30.0974C21.5829 29.881 21.3988 29.0939 21.2918 28.8365C21.2901 28.8327 21.2589 28.8202 21.2487 28.8203ZM24.4362 21.0103C24.6519 21.2068 24.871 21.3994 25.0935 21.5879C25.1816 21.6628 25.3437 21.8058 25.4352 21.8634C25.5422 21.6318 25.638 21.4576 25.7304 21.2164C26.0192 20.4616 26.0306 19.6648 25.7448 18.9063C25.3988 17.9887 24.7012 17.2155 24.0104 16.5376C23.9356 16.4642 23.6729 16.1946 23.599 16.1585C23.306 16.629 22.6933 17.0137 22.1565 17.1225C21.9875 17.1568 21.8096 17.1746 21.6373 17.1735C21.5642 17.1742 21.3384 17.1494 21.2992 17.166C21.2439 17.2649 21.3148 17.3749 21.3657 17.4601C22.176 18.8165 23.2759 19.9495 24.4362 21.0103ZM15.9287 16.3194C15.0003 17.2653 14.024 18.393 14.0375 19.8006C14.0432 20.392 14.2641 21.0788 14.5729 21.5836C14.8948 21.3242 15.2159 21.0226 15.5356 20.7543C16.2704 20.0922 16.9592 19.3808 17.5973 18.6251C17.6596 18.5502 17.8962 18.2745 17.9221 18.2048C18.0162 17.9513 18.1604 17.3938 18.1997 17.1385C18.0642 17.1521 17.8855 17.1741 17.7512 17.1725C17.2385 17.1663 16.7404 17.0025 16.337 16.6833C16.237 16.6042 15.9953 16.3356 15.9287 16.3194ZM10.0676 15.1838C10.5216 15.1825 11.0245 15.2411 11.4821 15.2522C11.9314 15.2631 12.3887 15.2605 12.8387 15.2623C13.3128 15.2562 13.8151 15.2146 14.2895 15.1827C14.658 15.158 15.0439 15.0765 15.4146 15.045C15.3783 14.3523 15.5612 13.7155 16.0331 13.1961C16.3035 12.8985 16.6806 12.6547 17.0671 12.5372C17.1685 12.5063 17.433 12.4902 17.4994 12.4435C17.523 12.427 17.5305 12.3976 17.5251 12.3705C17.5039 12.2656 17.2976 12.1298 17.2016 12.0888C17.0735 12.0341 15.1482 12.0146 14.8206 12.0232C13.4474 12.0663 12.0401 12.3051 11.0397 13.348C10.4929 13.9181 10.2867 14.4524 10.0676 15.1838Z" fill="white"/>
<path d="M27.1219 27.2543C27.8111 27.2051 28.4097 27.7235 28.4597 28.4125C28.5096 29.1016 27.9918 29.7008 27.3027 29.7514C26.6127 29.802 26.0124 29.2833 25.9625 28.5933C25.9125 27.9033 26.4318 27.3036 27.1219 27.2543ZM27.2755 28.9079C27.4213 28.885 27.5437 28.7854 27.5956 28.6473C27.6476 28.5091 27.6212 28.3535 27.5265 28.2402C27.4319 28.1268 27.2835 28.0732 27.1383 28.0997C26.9176 28.1401 26.7702 28.3503 26.8078 28.5716C26.8453 28.7928 27.0539 28.9428 27.2755 28.9079Z" fill="white"/>
<path d="M27.1178 24.3403C27.8048 24.2889 28.4042 24.8025 28.4589 25.4891C28.5137 26.1759 28.0032 26.7778 27.3167 26.836C26.6254 26.8946 26.0184 26.3796 25.9632 25.6881C25.9081 24.9965 26.4259 24.392 27.1178 24.3403ZM27.2755 25.9939C27.4213 25.971 27.5435 25.8715 27.5956 25.7334C27.6476 25.5953 27.6212 25.4399 27.5268 25.3265C27.4323 25.2132 27.2842 25.1593 27.139 25.1856C26.918 25.2256 26.7704 25.4358 26.8078 25.6572C26.8452 25.8786 27.0537 26.0288 27.2755 25.9939Z" fill="white"/>
<path d="M12.7079 27.2543C13.397 27.2051 13.9957 27.7235 14.0456 28.4125C14.0955 29.1016 13.5777 29.7008 12.8887 29.7514C12.1987 29.802 11.5984 29.2833 11.5484 28.5933C11.4984 27.9033 12.0178 27.3036 12.7079 27.2543ZM12.8614 28.9079C13.0073 28.885 13.1296 28.7854 13.1815 28.6472C13.2335 28.5091 13.2071 28.3535 13.1124 28.2402C13.0178 28.1268 12.8694 28.0732 12.7242 28.0997C12.5034 28.1401 12.3561 28.3503 12.3937 28.5716C12.4312 28.7928 12.6397 28.9428 12.8614 28.9079Z" fill="white"/>
<path d="M12.7036 24.3403C13.3906 24.2889 13.99 24.8025 14.0447 25.4891C14.0995 26.1759 13.589 26.7778 12.9026 26.836C12.2113 26.8944 11.6043 26.3796 11.5491 25.6881C11.494 24.9965 12.0118 24.392 12.7036 24.3403ZM12.8613 25.9939C13.0071 25.971 13.1294 25.8715 13.1814 25.7334C13.2334 25.5953 13.2072 25.4399 13.1126 25.3265C13.0181 25.2132 12.87 25.1593 12.7247 25.1856C12.5038 25.2256 12.3562 25.4358 12.3936 25.6572C12.431 25.8786 12.6395 26.0288 12.8613 25.9939Z" fill="white"/>
</svg>
