<svg width="40" height="40" viewBox="0 0 40 40" fill="none" xmlns="http://www.w3.org/2000/svg">
<rect width="40" height="40" rx="11.4286" fill="#36243C"/>
<path d="M19.9976 7.97784C22.2337 7.82916 24.167 9.52152 24.3155 11.7577C24.4637 13.9939 22.7712 15.9269 20.535 16.075C18.2992 16.2232 16.3666 14.5309 16.2182 12.2951C16.0698 10.0593 17.7618 8.1265 19.9976 7.97784ZM19.0314 9.05358C19.3738 9.21089 20.5486 9.81389 20.6616 10.1427C20.6974 10.2472 20.6851 10.3687 20.6367 10.4673C20.5837 10.5753 20.4875 10.6516 20.3729 10.6865C20.2548 10.7225 20.1507 10.6891 20.0461 10.6305C19.889 10.5424 19.7488 10.4212 19.5988 10.3213C19.2561 10.0929 18.4427 9.61241 18.0341 9.73732C18.0063 9.74581 18.0008 9.75506 17.9806 9.77445C17.883 10.0837 18.1162 10.5821 18.2566 10.8514C18.886 12.0585 20.793 14.0673 22.1711 14.317C22.3039 14.3372 22.5978 14.3908 22.5836 14.1657C22.5385 13.452 22.0535 12.7863 21.6388 12.2286C21.5197 12.0707 21.3521 11.9201 21.2869 11.7574C21.2299 11.6154 21.2948 11.4115 21.406 11.3116C21.4923 11.2352 21.6067 11.1985 21.7214 11.2106C21.9656 11.2358 22.1585 11.5335 22.3048 11.7189C22.7019 12.2219 22.9794 12.6994 23.2405 13.2806C23.3138 13.061 23.3766 12.8773 23.4223 12.6488C23.5611 11.9487 23.4631 11.2224 23.1433 10.5843C22.761 9.82263 22.0917 9.24403 21.2827 8.97592C20.8715 8.84113 20.519 8.80749 20.0922 8.82776C19.6695 8.84292 19.4205 8.92501 19.0314 9.05358ZM21.1107 15.1254C21.2357 15.0892 21.4019 15.0345 21.5251 15.0069C21.2543 14.8829 20.9857 14.7543 20.7312 14.5987C19.6172 13.9175 18.5386 12.853 17.8212 11.7671C17.6853 11.5568 17.5614 11.3389 17.4502 11.1145C17.4201 11.0523 17.3342 10.831 17.3003 10.8099C16.9853 11.4218 16.9965 12.369 17.2053 13.0158C17.4714 13.8369 18.0562 14.5167 18.8284 14.9025C19.515 15.2487 20.3496 15.3344 21.0984 15.1298C21.1024 15.1283 21.1066 15.1268 21.1107 15.1254Z" fill="white"/>
<path d="M32.4907 24.1067C32.7169 24.0665 32.933 24.2166 32.9744 24.4425C33.0158 24.6685 32.8671 24.8854 32.6414 24.9282C32.4139 24.9713 32.1947 24.821 32.1528 24.5931C32.1111 24.3653 32.2628 24.1471 32.4907 24.1067Z" fill="white"/>
<path d="M7.84015 11.5062C8.06631 11.4661 8.28242 11.6162 8.32384 11.8421C8.36528 12.068 8.21648 12.285 7.9908 12.3277C7.76326 12.3708 7.54409 12.2205 7.50232 11.9927C7.46055 11.7649 7.61213 11.5467 7.84015 11.5062Z" fill="white"/>
<path d="M25.4615 9.72468C25.6876 9.68457 25.9037 9.83462 25.9451 10.0605C25.9866 10.2865 25.8379 10.5034 25.6121 10.5462C25.3846 10.5893 25.1654 10.439 25.1237 10.2112C25.0819 9.98341 25.2335 9.76512 25.4615 9.72468Z" fill="white"/>
<path d="M12.0833 9.14153C12.3095 9.10142 12.5256 9.25148 12.567 9.4774C12.6084 9.70332 12.4596 9.9203 12.234 9.96304C12.0064 10.0061 11.7873 9.85584 11.7455 9.62805C11.7037 9.40025 11.8553 9.18197 12.0833 9.14153Z" fill="white"/>
<path d="M27.3727 14.2922C27.5988 14.2521 27.8149 14.4021 27.8564 14.6281C27.8978 14.854 27.7491 15.071 27.5234 15.1137C27.2958 15.1568 27.0766 15.0065 27.0349 14.7787C26.9931 14.5509 27.1447 14.3326 27.3727 14.2922Z" fill="white"/>
<path d="M7.79767 16.8686C7.81275 16.4565 7.78624 15.9852 7.81035 15.5872C7.85897 14.6611 8.271 13.7915 8.95696 13.1674C9.90308 12.2892 10.9334 12.2056 12.1458 12.2563C13.0814 12.2962 13.9622 12.709 14.5915 13.4024C15.2415 14.1149 15.5517 15.0173 15.5085 15.9776C15.9484 16.1762 16.1286 16.301 16.3993 16.7069C16.7191 16.5691 16.9754 16.4895 17.32 16.6272C17.5611 16.7233 17.7535 16.9122 17.8541 17.1515C17.9505 17.3886 17.9487 17.6543 17.8492 17.8901C17.723 18.19 17.5083 18.3446 17.2228 18.4757C17.8681 19.8097 18.4697 21.1857 19.1127 22.5221C19.1435 21.9759 19.1919 21.7723 19.5663 21.3544C19.5972 20.5674 19.5543 19.7654 19.5723 18.9776C19.5848 18.4312 19.4544 17.8044 19.8951 17.4008C20.023 17.2824 20.1826 17.2038 20.3544 17.1745C20.5335 17.1456 20.8493 17.1538 21.0385 17.1538L24.011 17.1538C25.1744 17.1543 26.0296 17.0687 26.9054 18.0134C27.8302 19.0109 27.5247 20.1451 27.5869 21.3619C27.9894 21.7765 27.9884 21.9875 28.0491 22.5183C28.16 22.2965 28.2719 22.0325 28.3792 21.8026L29.1727 20.0995C29.2903 19.8471 29.8839 18.6449 29.9056 18.4821C29.8747 18.4266 29.7526 18.3966 29.6687 18.3415C29.3107 18.1107 29.1461 17.6727 29.2634 17.2632C29.3305 17.0227 29.4937 16.7963 29.7165 16.6796C30.0765 16.4912 30.4111 16.5425 30.7577 16.7179L30.7681 16.698C31.1613 15.9616 32.1323 15.6984 32.8592 16.099C33.2213 16.2972 33.4879 16.6334 33.5985 17.0312C33.6699 17.2901 33.673 17.563 33.6073 17.8235C33.5455 18.0667 33.3737 18.3942 33.2617 18.6316L32.7928 19.636L32.1164 21.0646C32.0176 21.2726 31.9093 21.5006 31.8135 21.7091C31.5806 22.2161 30.8511 21.896 31.0332 21.4264C31.1645 21.0876 31.3491 20.7295 31.5066 20.3972L32.4462 18.3995C32.5558 18.1643 32.7757 17.7697 32.8064 17.5279C32.9039 16.7585 31.8627 16.4549 31.4962 17.1201C31.3901 17.3168 31.2888 17.6389 31.0379 17.6882C30.9015 17.7151 30.5525 17.5649 30.4434 17.4951C30.1501 17.3071 29.8756 17.5011 30.2314 17.6888C30.5093 17.8353 31.0257 17.9498 30.8845 18.3959C30.7377 18.7512 30.5544 19.1215 30.3884 19.4765L27.6826 25.2778C27.3722 25.9463 27.2134 26.3498 26.3636 26.3442C25.7462 26.3402 25.1138 26.3478 24.4954 26.3403C24.0448 26.3311 24.0551 25.9134 24.0685 25.5882C23.7792 25.5857 23.362 25.6003 23.0914 25.5871C23.094 25.9123 23.1244 26.2906 22.6726 26.3326C22.4428 26.3538 22.2167 26.3418 21.9858 26.3435C21.5664 26.3467 21.1466 26.3417 20.7273 26.3424C20.404 26.3429 20.1024 26.2557 19.8737 26.0168C19.8225 25.9642 19.7415 25.8558 19.7101 25.7895C19.5317 25.4135 19.3553 25.0325 19.1794 24.6554L16.9307 19.8332C16.7275 19.3981 16.509 18.9654 16.3206 18.5242C16.2847 18.4401 16.2496 18.3566 16.2521 18.2638C16.2554 18.1477 16.2939 18.0469 16.3797 17.9667C16.5156 17.8396 17.0623 17.6859 17.0812 17.5348C17.0853 17.5015 17.0719 17.4641 17.0498 17.4393C17.0264 17.4129 16.9905 17.4067 16.957 17.4088C16.6278 17.4301 16.2726 17.8822 15.9385 17.6006C15.8315 17.5105 15.7837 17.3759 15.7273 17.2524C15.5741 16.9168 15.3296 16.7387 14.9495 16.759C14.7852 16.7678 14.6266 16.8555 14.5178 16.9767C14.3961 17.1122 14.3255 17.3108 14.34 17.4937C14.3611 17.7597 14.936 18.8876 15.0928 19.2216L18.8319 27.1274C18.9777 27.4353 19.194 27.8498 19.2822 28.1708C19.3619 28.4607 19.3441 28.9167 19.344 29.2302L19.3428 30.2549L19.36 30.2368C19.5427 30.0433 19.69 29.6984 19.9741 29.6846C20.2956 29.6688 20.4466 30.0325 20.6381 30.244C21.8488 31.5805 24.0259 31.4707 25.0878 30.0112C25.214 29.8372 25.3308 29.6705 25.5709 29.6789C25.679 29.6826 25.833 29.7902 25.8926 29.8728C26.4162 30.5981 26.9328 30.93 27.8112 31.1408L27.8128 29.472C27.8126 29.1165 27.7794 28.5076 27.8677 28.1914C27.9807 27.7874 28.2857 27.2124 28.4724 26.818L29.317 25.0309C29.4516 24.7463 30.1699 23.1557 30.2852 23.037C30.3666 22.9529 30.4676 22.9036 30.5862 22.907C30.7035 22.9102 30.8184 22.9547 30.8976 23.043C30.9692 23.1225 31.0099 23.2318 31.0028 23.339C30.9893 23.542 30.5791 24.3222 30.4743 24.5433C30.1934 25.1362 29.8982 25.727 29.637 26.3287C30.0113 26.0988 30.3613 25.8494 30.6235 25.4851C30.7712 25.2796 30.886 25.092 31.1818 25.149C31.4189 25.1974 31.5342 25.4795 31.6828 25.6439C31.7651 25.7372 31.8604 25.8322 31.9524 25.9134C32.243 26.1708 32.5826 26.3668 32.9509 26.4897C33.2564 26.591 33.5417 26.6231 33.8602 26.6418C34.0921 26.6554 34.1915 26.762 34.2853 26.9593V27.1584C34.0869 27.5062 33.9487 27.4997 33.5667 27.4686C32.9482 27.416 32.3521 27.2121 31.8311 26.8749C31.5347 26.6835 31.3324 26.4869 31.0827 26.2458C30.6316 26.7616 30.0066 27.1348 29.3562 27.3286C29.2942 27.347 29.2027 27.3697 29.1456 27.3951C29.0511 27.5155 28.6982 28.2689 28.6782 28.4241C28.6381 28.7341 28.6437 29.298 28.6502 29.6259C28.66 30.1232 28.6348 30.6737 28.6522 31.163C29.4033 31.0408 30.0022 30.7645 30.5082 30.1733C30.7313 29.9127 30.9286 29.4894 31.3386 29.7682C31.4474 29.8436 31.5395 30.0126 31.6249 30.1179C31.8779 30.429 32.1929 30.6839 32.5499 30.8667C32.8085 30.9997 33.0861 31.0921 33.3728 31.1402C33.4683 31.157 33.5686 31.1679 33.6655 31.1734C33.9972 31.1925 34.1306 31.1861 34.2853 31.5062V31.7023C34.0799 32.0819 33.9082 32.0431 33.5294 32.0092C32.541 31.9205 31.7711 31.4866 31.0878 30.7908C29.5216 32.4458 27.1148 32.4396 25.548 30.7943C25.3528 30.9826 25.1959 31.1363 24.9767 31.2991C24.3225 31.783 23.528 32.0391 22.7147 32.0285C21.9057 32.0106 21.1236 31.7338 20.4835 31.2387C20.296 31.0925 20.1645 30.9451 19.9943 30.7966C19.8276 30.9605 19.6582 31.126 19.4724 31.2676C18.8232 31.7606 18.0308 32.0282 17.2156 32.0293C16.1039 32.0221 15.2145 31.5708 14.4502 30.7929C14.4018 30.8421 14.3535 30.8915 14.3041 30.9396C12.7877 32.42 10.5088 32.3731 9.0119 30.9017C8.97702 30.8674 8.94261 30.8325 8.90868 30.7973C8.75324 30.9413 8.59821 31.0932 8.43262 31.2245C7.91846 31.6334 7.30431 31.8975 6.65381 31.9893C6.23539 32.0447 5.96338 32.1321 5.71387 31.7241V31.4858C5.76793 31.4067 5.83542 31.2768 5.92005 31.239C6.09552 31.1606 6.33547 31.1831 6.54371 31.1521C6.87605 31.1054 7.19736 30.9996 7.49247 30.8399C7.86084 30.6412 8.21257 30.3386 8.46219 29.9908C8.67518 29.6939 8.93873 29.531 9.24531 29.8595C9.33217 29.9527 9.40452 30.0808 9.49036 30.1817C10.6701 31.5685 12.8898 31.5 13.9744 30.037C14.049 29.9364 14.1541 29.7793 14.2666 29.7252C14.3945 29.6626 14.5458 29.6706 14.6662 29.7467C14.7805 29.818 14.9281 30.0422 15.0179 30.1533C15.3352 30.5468 15.7927 30.8549 16.2673 31.0205C16.9993 31.2756 17.803 31.2271 18.499 30.8859C18.5165 30.717 18.5122 30.1581 18.508 29.9518C18.4988 29.5006 18.5393 28.8169 18.4742 28.3985C18.4512 28.2506 18.1213 27.5899 18.0314 27.4022C17.7466 27.4427 17.5498 27.4758 17.2593 27.4771C16.4037 27.4866 15.5712 27.2001 14.9027 26.6659C14.7379 26.5346 14.5983 26.3926 14.449 26.2447C12.8965 27.9068 10.471 27.8831 8.90907 26.2496C8.59943 26.5076 8.54025 26.6373 8.12927 26.8961C7.61609 27.2224 7.03159 27.4198 6.42563 27.4713C6.0599 27.4995 5.91478 27.5052 5.71387 27.1783V26.9374C5.80005 26.8015 5.89429 26.6666 6.0702 26.6467C6.31468 26.619 6.52488 26.6132 6.77389 26.5717C6.78942 26.2682 6.78345 25.9359 6.78351 25.6302L6.78354 24.1561C6.78347 23.6786 6.75098 23.0775 6.87279 22.6284C6.99802 22.1746 7.25039 21.7662 7.60011 21.4512C8.13524 20.9643 8.7793 20.8044 9.48108 20.8301C9.6375 20.8358 10.0277 20.8389 10.1661 20.8238C9.56878 20.6042 9.08938 20.2038 8.81744 19.6207C8.77333 19.5282 8.73777 19.4319 8.7112 19.3329C7.78456 19.2171 7.2758 18.6393 7.38885 17.6747C7.4352 17.2794 7.57167 17.1672 7.79767 16.8686ZM12.0896 26.6062C12.7955 26.4974 13.3622 26.1882 13.8401 25.6553C13.9872 25.4912 14.0941 25.3287 14.2503 25.1633C14.2559 24.8213 14.2571 24.4792 14.2537 24.1373C14.2533 23.8662 14.1913 23.4057 14.4526 23.251C14.6123 23.1564 14.8552 23.1808 14.9785 23.3252C15.1406 23.5151 15.0937 23.886 15.0931 24.1275L15.0913 25.1234C15.0911 25.2982 15.0844 25.5341 15.0972 25.7033C15.2896 25.9013 15.4609 26.056 15.7024 26.199L15.702 24.2312C15.7021 23.8911 15.7248 23.1928 15.6483 22.8859C15.5771 22.6052 15.4319 22.3485 15.228 22.1429C14.5682 21.478 13.6725 21.7135 12.827 21.6758C12.2487 21.6501 12.089 21.6411 12.1048 20.9932L12.1059 20.952C11.8499 20.9491 11.4429 20.9635 11.212 20.9483C11.2113 21.208 11.2342 21.6028 10.8775 21.6529C9.92492 21.7867 8.71861 21.3683 8.01002 22.2281C7.69655 22.6049 7.6237 22.9506 7.62028 23.4273L7.62024 26.211C7.75924 26.1486 8.13622 25.8754 8.20654 25.7266C8.24203 25.6515 8.23136 25.4008 8.23076 25.3025L8.22623 24.243C8.2257 24.0127 8.19169 23.7205 8.25375 23.4993C8.28481 23.3888 8.35276 23.2814 8.45847 23.2292C8.5588 23.1797 8.68019 23.1819 8.78444 23.2184C8.88474 23.2535 8.97726 23.3231 9.0189 23.4232C9.10596 23.6323 9.06526 24.8354 9.06472 25.1566L9.08231 25.1683C9.2191 25.2605 9.29693 25.3841 9.39654 25.5134C10.056 26.3699 11.0251 26.7297 12.0896 26.6062ZM16.5553 24.2919C16.5304 24.3908 16.5366 24.9936 16.539 25.1362C16.5468 25.5998 16.529 26.0897 16.5409 26.5501C16.9073 26.6462 17.2406 26.6513 17.614 26.6111L17.6302 26.5893C17.6142 26.4953 16.5737 24.3081 16.5553 24.2919ZM25.0986 24.5482C25.5981 24.2648 25.8834 23.8156 25.9081 23.2421C25.9355 22.6028 25.897 21.9283 25.9148 21.2934C25.9427 20.297 25.6922 20.377 24.8562 20.377L22.6023 20.3773C22.3781 20.3774 22.0965 20.3699 21.8779 20.3806C21.7366 20.3831 21.5678 20.3764 21.4475 20.4626C21.154 20.6732 21.2575 21.1055 21.2386 21.4169C21.2335 21.8901 21.2458 22.3701 21.2393 22.8441C21.225 23.4578 21.2896 23.9211 21.7681 24.3547C22.2881 24.8259 22.9057 24.7333 23.5518 24.7405C23.9796 24.7384 24.7443 24.7976 25.0986 24.5482ZM20.4036 23.0363C20.4046 22.721 20.4125 22.2082 20.3975 21.8747C20.3906 21.8679 20.3838 21.8611 20.3771 21.8541C20.004 21.9864 19.8578 22.3424 20.0013 22.7037C20.0314 22.7776 20.0766 22.8445 20.1341 22.9C20.2337 22.9721 20.2806 22.9979 20.4036 23.0363ZM26.6586 23.8913C26.3824 24.5282 26.1655 24.89 25.5386 25.2684C25.4491 25.3226 25.1303 25.4527 25.0968 25.4813C25.1155 25.4914 25.1102 25.4901 25.117 25.4908C25.3253 25.4907 26.5647 25.5254 26.65 25.448C26.6867 25.4146 26.7126 25.365 26.7356 25.3215C26.9325 24.9485 27.0981 24.5508 27.2764 24.1683C27.3495 24.0116 27.5084 23.7358 27.5419 23.5826L27.5246 23.5677C27.2645 23.7604 26.9891 23.8849 26.6586 23.8913ZM26.7411 20.6021C26.7547 20.4208 26.7446 20.2464 26.7478 20.0677C26.7575 19.5057 26.6892 19.0487 26.3139 18.6097C25.743 17.942 25.0879 17.9957 24.2948 17.9965L23.0063 17.9973L21.4368 17.9968C21.1331 17.9968 20.7859 17.9894 20.4858 18.0048C20.4231 18.06 20.4136 18.1333 20.4138 18.2138C20.4149 19.0158 20.3989 19.827 20.4102 20.6287C20.547 20.2129 20.7073 19.8847 21.1236 19.6769C21.2726 19.6031 21.4337 19.557 21.5993 19.5409C21.8153 19.5192 22.0904 19.5271 22.3133 19.5272L24.6917 19.5278C25.3175 19.5266 25.766 19.4459 26.2871 19.8556C26.6108 20.1531 26.5854 20.2446 26.7411 20.6021ZM14.4087 19.7961C14.0512 20.3428 13.759 20.5755 13.1628 20.8187C13.3816 20.8438 13.7366 20.8321 13.9628 20.8308C14.4146 20.8355 14.5808 20.8628 15.0102 21.0023C14.8112 20.6221 14.6465 20.2179 14.452 19.835C14.4439 19.8189 14.4241 19.8051 14.4087 19.7961ZM27.0331 22.8872C27.2581 22.6148 27.2753 22.1934 26.9801 21.9554C26.9148 21.9029 26.8366 21.875 26.7593 21.8435C26.751 21.9989 26.7358 22.9106 26.7718 23.0088C26.845 23.0249 26.9787 22.9339 27.0331 22.8872ZM20.505 23.8944C20.2568 23.8675 20.0413 23.8256 19.8202 23.7011C19.7563 23.6651 19.6664 23.5914 19.6051 23.5745C19.7186 23.8219 20.4005 25.3568 20.5146 25.4585C20.6569 25.5038 20.7859 25.4898 20.9318 25.4919C21.3165 25.4977 21.7176 25.4714 22.1007 25.5042C22.0465 25.4448 21.81 25.372 21.7232 25.3266C21.0875 24.9937 20.7426 24.5462 20.505 23.8944ZM8.38107 18.36C8.47649 18.4189 8.49874 18.43 8.60219 18.4693C8.60296 18.3243 8.61628 17.504 8.59102 17.4068C8.58454 17.4019 8.56735 17.3877 8.56087 17.3851C8.50197 17.4115 8.4416 17.4364 8.39241 17.4788C8.13733 17.6986 8.14586 18.1317 8.38107 18.36ZM11.2314 20.1051L12.0204 20.1058C12.5822 20.1056 13.0224 20.0959 13.4473 19.6751C13.6898 19.4351 13.8684 19.072 13.8753 18.7269C13.8827 18.3505 13.4355 17.9912 13.5051 17.3012C13.5222 17.1147 13.5741 16.9331 13.6581 16.7658C13.7882 16.511 14.0104 16.3749 13.742 16.0863C13.6349 15.9711 13.4334 15.9637 13.2886 15.9654C12.601 15.9734 12.5711 15.0775 13.3339 15.1118C13.8369 15.1344 14.1886 15.2655 14.499 15.6908C14.552 15.7663 14.5838 15.8643 14.6473 15.9315L14.6647 15.9313C14.6868 15.7731 14.6636 15.5176 14.6403 15.3583C14.4742 14.2255 13.5265 13.2716 12.3865 13.1252C12.0463 13.0816 11.6378 13.0831 11.2935 13.0978C10.5417 13.1471 9.98022 13.3293 9.43146 13.8747C8.78728 14.5149 8.64835 15.1849 8.63842 16.0565C8.79054 15.6791 8.99157 15.3829 9.38196 15.22C9.50417 15.1698 9.6329 15.1373 9.76426 15.1235C9.97765 15.0996 10.2819 15.1078 10.511 15.1127C10.7966 15.1189 11.2732 15.0528 11.5113 15.2223C11.649 15.3204 11.6953 15.5756 11.6103 15.7159C11.3891 16.1489 10.5466 15.9048 10.1398 15.9647C9.90586 15.9991 9.66189 15.9039 9.50353 16.1796C9.46941 16.2445 9.44164 16.3511 9.4405 16.4247C9.43043 17.0711 9.44349 17.7184 9.43743 18.365C9.4351 18.6136 9.43563 18.8622 9.51281 19.1012C9.63159 19.4664 9.89092 19.7691 10.2335 19.9427C10.5715 20.1153 10.8642 20.1081 11.2314 20.1051Z" fill="white"/>
<path d="M10.6866 18.4961C11.094 18.4941 11.1103 18.8782 11.6827 18.8747C12.2371 18.8713 12.2703 18.4712 12.6407 18.4977C12.7573 18.5058 12.8655 18.5615 12.9399 18.6516C13.0085 18.7364 13.0391 18.8458 13.0244 18.954C12.9982 19.156 12.8642 19.2518 12.7168 19.3702C12.5295 19.5054 12.3309 19.6057 12.1069 19.6646C11.6546 19.7807 11.1746 19.7102 10.7747 19.4691C10.5027 19.3085 10.1946 19.0766 10.36 18.7231C10.4272 18.5793 10.537 18.5221 10.6866 18.4961Z" fill="white"/>
<path d="M10.7529 16.8176C11.1488 16.7681 11.2761 17.0696 11.2657 17.4042C11.2565 17.7022 11.2526 17.9295 10.9237 18.0406C10.8283 18.0513 10.7553 18.05 10.6665 18.0081C10.5576 17.957 10.4758 17.8617 10.4417 17.7464C10.3963 17.5985 10.3928 17.1583 10.4824 17.0168C10.5604 16.8937 10.6163 16.853 10.7529 16.8176Z" fill="white"/>
<path d="M12.4048 16.8177C12.8037 16.7675 12.9291 17.0732 12.9182 17.4082C12.9086 17.7044 12.9037 17.9291 12.5761 18.0406C12.4806 18.0514 12.4076 18.0501 12.3186 18.0082C12.2098 17.957 12.1281 17.8618 12.094 17.7464C12.0486 17.5985 12.0452 17.1584 12.1348 17.0169C12.2126 16.894 12.2685 16.8532 12.4048 16.8177Z" fill="white"/>
<path d="M22.5639 23.0339C22.9398 23.0008 23.0244 23.4411 23.6167 23.4329C24.1815 23.4252 24.2651 23.0057 24.6081 23.0328C24.7269 23.0427 24.8367 23.1003 24.9121 23.1927C25.1434 23.4785 24.9052 23.7373 24.6833 23.9122C24.4903 24.0537 24.2973 24.1539 24.0656 24.2162C23.6037 24.3386 23.1122 24.272 22.6995 24.0312C22.5226 23.9295 22.2619 23.7503 22.2147 23.5402C22.154 23.2698 22.3118 23.095 22.5639 23.0339Z" fill="white"/>
<path d="M22.6091 21.322C23.0704 21.2576 23.1744 21.5999 23.1551 21.9797C23.1403 22.2717 23.1142 22.4394 22.8185 22.5565C22.3969 22.645 22.2733 22.2298 22.3028 21.9052C22.3281 21.6301 22.3052 21.4385 22.6091 21.322Z" fill="white"/>
<path d="M24.3551 21.2932C24.4539 21.2785 24.5305 21.2735 24.6267 21.3094C24.7282 21.347 24.8099 21.4243 24.8533 21.5235C24.896 21.6193 24.8999 21.7143 24.901 21.8172C24.9046 22.1337 24.914 22.3892 24.5735 22.5263C24.4913 22.5453 24.4147 22.5381 24.3356 22.5091C24.2312 22.4702 24.1468 22.391 24.1014 22.2893C24.0309 22.1334 24.0302 21.6922 24.1004 21.5292C24.1576 21.3963 24.2268 21.3442 24.3551 21.2932Z" fill="white"/>
</svg>
