<svg width="40" height="40" viewBox="0 0 40 40" fill="none" xmlns="http://www.w3.org/2000/svg">
<rect width="40" height="40" rx="11.4286" fill="#36243C"/>
<path d="M28.3915 17.4347C28.7132 17.4218 28.9598 17.43 29.2801 17.5046C30.0606 17.6848 30.7354 18.1721 31.1519 18.8562C31.2673 19.0431 31.459 19.3662 31.3989 19.5903C31.3692 19.6996 31.2965 19.7923 31.1974 19.8473C31.1012 19.9014 30.9873 19.915 30.8811 19.8848C30.6264 19.812 30.5968 19.5818 30.4886 19.3822C30.2179 18.8892 29.7649 18.5218 29.2266 18.3589C28.6917 18.1982 28.0476 18.2626 27.5569 18.5314C27.0582 18.8044 26.6879 19.2638 26.5272 19.8091C26.3622 20.3647 26.4272 20.9635 26.708 21.4706C26.9868 21.9733 27.4544 22.344 28.0074 22.5005C28.5958 22.6643 29.1603 22.5831 29.6879 22.2836C30.0004 22.1033 30.2813 21.813 30.4668 21.505C30.5841 21.3103 30.6203 21.0728 30.8877 21.0276C31.1138 20.9768 31.363 21.1481 31.3803 21.3843C31.4011 21.6679 31.0914 22.1029 30.9254 22.3087C30.4224 22.9337 29.6897 23.3307 28.8916 23.4106C28.1071 23.4861 27.3244 23.2502 26.7121 22.7541C26.0834 22.2477 25.687 21.508 25.6131 20.7042C25.5388 19.906 25.786 19.1113 26.3 18.4962C26.8421 17.8497 27.5572 17.505 28.3915 17.4347Z" fill="white"/>
<path d="M25.6028 22.9173C25.8733 22.8947 26.1278 23.0535 26.1119 23.3534C26.0942 23.535 25.921 23.7001 25.7959 23.8195C25.6408 23.9674 25.4922 24.1624 25.2863 24.2276C25.0949 24.2449 24.8966 24.1674 24.8218 23.9762C24.6894 23.6376 25.0462 23.3785 25.2487 23.1673C25.3569 23.0543 25.4495 22.9678 25.6028 22.9173Z" fill="white"/>
<path d="M31.9153 16.6228C32.38 16.5827 32.5553 17.0884 32.2252 17.389C32.0377 17.5597 31.8239 17.8541 31.5837 17.933C31.2111 17.9542 30.9575 17.6716 31.1461 17.3086C31.2199 17.1934 31.3265 17.0844 31.4248 16.9908C31.5834 16.8398 31.6978 16.6808 31.9153 16.6228Z" fill="white"/>
<path d="M28.4982 15.2266C29.1263 15.1466 29.0092 15.8011 29.0164 16.1993C29.0215 16.4879 28.9594 16.6093 28.6938 16.7321C28.2045 16.8091 28.1517 16.3543 28.1741 15.9884C28.1938 15.6677 28.098 15.3594 28.4982 15.2266Z" fill="white"/>
<path d="M31.425 22.9163C31.6754 22.9045 31.7137 22.9858 31.8952 23.1271C32.2194 23.3793 32.759 24.0009 32.0541 24.2306C31.7199 24.2492 31.6823 24.0558 31.4644 23.8946C31.1378 23.6531 30.8225 23.0726 31.425 22.9163Z" fill="white"/>
<path d="M25.147 16.6234C25.4494 16.6032 25.5207 16.7976 25.7213 16.9504C26.0442 17.1965 26.3728 17.7431 25.7764 17.9332C25.4012 17.9572 25.326 17.7052 25.0814 17.512C24.7519 17.2516 24.6269 16.7521 25.147 16.6234Z" fill="white"/>
<path d="M32.6208 20.0158C32.6893 20.0102 32.7846 20.0022 32.852 20.0063C33.166 20.026 33.6652 19.8992 33.7841 20.304C33.8166 20.4187 33.8001 20.5418 33.7387 20.6439C33.6719 20.7545 33.5826 20.805 33.461 20.8346C33.2591 20.8586 32.6822 20.8783 32.5051 20.7911C32.1716 20.627 32.2175 20.1126 32.6208 20.0158Z" fill="white"/>
<path d="M28.5758 24.1164C29.0617 24.1438 29.019 24.5216 29.0161 24.888C29.0133 25.234 29.0638 25.534 28.6388 25.6346C28.1113 25.6297 28.1755 25.1726 28.1736 24.7965C28.1719 24.4665 28.1687 24.1692 28.5758 24.1164Z" fill="white"/>
<path d="M23.7189 20.0166C23.8758 20.0023 24.0417 20.0076 24.1994 20.0053C24.452 20.0017 24.7616 19.9813 24.8753 20.2669C24.9192 20.3778 24.9143 20.502 24.8618 20.6091C24.8016 20.7327 24.7133 20.7894 24.5883 20.8322C24.3936 20.86 23.7814 20.8778 23.6155 20.7966C23.2845 20.6347 23.316 20.1269 23.7189 20.0166Z" fill="white"/>
<path d="M10.6229 5.71094H10.9693C11.0827 5.77371 11.4342 5.85452 11.5734 5.89517C11.8228 5.96924 12.069 6.05348 12.3116 6.1477C15.5611 7.39972 17.0113 9.94979 15.944 13.3498C16.3317 13.0456 16.703 12.7907 17.1472 12.5714C17.9768 12.1619 18.8761 11.9553 19.803 12.0647C21.5135 12.2656 22.9127 13.4473 23.9315 14.7648C24.1236 15.0132 24.3079 15.229 24.2674 15.5706C24.2211 15.961 23.8184 16.295 23.4233 16.2208C23.2115 16.181 22.9847 16.0852 22.7792 16.0107C22.5901 15.943 22.3994 15.8798 22.2074 15.8211C21.3182 15.5501 20.3994 15.3882 19.4711 15.3389C19.3011 15.3303 19.1065 15.3165 18.9389 15.3237C19.5743 15.5673 20.0656 15.8111 20.5646 16.2898C21.7497 17.4267 22.0393 19.1265 21.9534 20.6999C21.9425 20.8994 21.9286 21.2135 21.8587 21.3977C21.7937 21.5734 21.6602 21.7153 21.4887 21.7907C21.3039 21.8723 21.0802 21.8715 20.8945 21.7939C20.6193 21.6791 20.5013 21.3782 20.374 21.1307C20.2806 20.9494 20.1821 20.7708 20.0783 20.5951C19.5904 19.7695 18.9905 19.0154 18.2956 18.3544C18.1396 18.2067 17.8873 17.9806 17.7086 17.8566C18.148 18.627 18.2302 19.7023 17.9886 20.5448C17.7111 21.5205 17.0967 22.3739 16.3769 23.0746C16.0776 23.3546 15.7776 23.7328 15.3143 23.585C15.0105 23.4879 14.7897 23.1934 14.8352 22.874C14.8748 22.5963 14.9706 22.3181 15.0348 22.0428C15.1565 21.5293 15.2359 21.0066 15.2722 20.4801C15.3171 19.8065 15.2818 19.1301 15.167 18.4649C15.124 18.2213 15.0626 17.9876 15.0136 17.7469C14.9177 17.9826 14.8216 18.3869 14.747 18.6478C14.6255 19.0652 14.4955 19.4801 14.3572 19.8923C14.0879 20.6975 13.7889 21.4925 13.4607 22.2755C13.3134 22.6285 13.1557 22.9713 13.0061 23.3216C15.1248 23.5127 17.4804 24.405 19.2473 25.5718C19.595 25.8005 19.9333 26.0431 20.2613 26.2992C20.3949 26.4042 20.6772 26.6562 20.8022 26.7301L20.8068 26.7328C21.1645 26.733 21.5237 26.6395 21.8071 26.4182C22.1177 26.1756 22.266 25.966 22.6921 25.941C23.1489 25.9142 23.3779 26.1823 23.7088 26.4411C24.2638 26.8484 25.1338 26.8318 25.6716 26.4011C25.9516 26.1716 26.1204 25.9747 26.5038 25.9432C26.9937 25.9028 27.2126 26.1839 27.5661 26.451C27.8087 26.6342 28.1468 26.7206 28.4456 26.7333C28.8371 26.7536 29.2227 26.6311 29.5304 26.3885C29.8154 26.1666 29.9294 25.9891 30.3228 25.9457C30.8249 25.8905 31.0356 26.1691 31.3933 26.4427C31.7681 26.7296 32.388 26.8054 32.8323 26.6674C33.1458 26.57 33.3965 26.3419 33.7444 26.4282C33.8952 26.4633 33.972 26.5158 34.0837 26.6203C34.2115 26.7394 34.213 26.839 34.2853 26.9616V33.3163C34.1175 33.7335 34.0494 33.9562 33.5873 34.1871C33.5322 34.2146 33.3797 34.2521 33.3361 34.2824H16.3463C16.2894 34.2497 16.211 34.2051 16.1655 34.1589C15.9037 33.893 16.054 33.4696 16.4384 33.4528C16.7308 33.44 17.0179 33.4443 17.3093 33.4443H24.2605C24.2158 33.3446 24.1585 33.1525 24.1193 33.0403C24.0398 32.8161 23.9542 32.594 23.8627 32.3744C23.4381 31.3577 22.8903 30.397 22.2317 29.5138C20.3659 27.0091 17.6915 25.2267 14.6616 24.4688C14.2045 24.3548 13.7417 24.2648 13.2752 24.1992C13.0564 24.1689 12.8434 24.1571 12.6253 24.1251C11.4029 26.5388 10.1265 28.5798 8.34756 30.6416C7.99135 31.0548 7.62355 31.458 7.2446 31.8504C7.03914 32.0615 6.74102 32.3329 6.55806 32.5442C6.53866 32.7213 6.51884 33.1948 6.63221 33.3262C6.71015 33.4164 6.79635 33.4298 6.91297 33.4372C7.1451 33.452 7.39647 33.4455 7.62956 33.4455L13.1671 33.445L14.0224 33.4435C14.2519 33.4431 14.7266 33.3975 14.8582 33.636C15.0129 33.9162 14.8584 34.137 14.6098 34.2824H6.67881C6.58184 34.2394 6.47866 34.2104 6.37297 34.1602C6.13867 34.0522 5.9443 33.8585 5.82941 33.6279C5.78287 33.5345 5.76501 33.4265 5.71387 33.3302V24.976C5.78775 24.8541 5.81678 24.7017 5.88991 24.5744C5.97939 24.4184 6.09832 24.2952 6.2511 24.2006C6.70567 23.9192 8.09276 23.5949 8.6615 23.4858C8.87831 23.4442 9.10776 23.4263 9.31966 23.3666C9.32527 23.3651 9.33085 23.3634 9.33643 23.3617C9.55871 23.0672 9.8489 22.601 10.0463 22.2828C10.8569 20.9902 11.5526 19.6289 12.1252 18.2146C12.298 17.7888 12.556 17.1135 12.668 16.6809C12.4854 16.5888 12.3264 16.4611 12.1757 16.3244C11.0637 16.581 10.074 17.065 9.15024 17.7327C8.90428 17.9102 8.66673 18.099 8.43832 18.2986C8.26674 18.4507 8.10618 18.6211 7.91701 18.7506C7.64727 18.9352 7.32019 18.877 7.08503 18.6665C6.73425 18.3524 6.91026 17.8927 7.01896 17.5137C7.2874 16.632 7.70307 15.7783 8.3314 15.0959C8.90604 14.4739 9.67641 14.0675 10.5142 13.9444C10.6943 13.918 10.8897 13.9111 11.0726 13.9041C9.70717 13.2642 8.11275 13.0039 6.6194 13.0245C5.84785 13.0351 5.60659 12.095 6.107 11.7426C7.26808 10.946 8.70049 10.3348 10.1338 10.4365C11.4775 10.5318 12.401 11.1964 13.231 12.1739C13.1818 11.9441 13.056 11.5758 12.9745 11.3534C12.5234 10.1416 11.8811 9.00992 11.0721 8.00124C10.9177 7.80696 10.7584 7.61667 10.5943 7.43059C10.4327 7.2506 10.2269 7.0522 10.1054 6.8452C9.91134 6.51479 10.064 6.01228 10.3915 5.82165C10.4545 5.785 10.5322 5.76044 10.598 5.72466L10.6229 5.71094ZM32.5971 30.2613C32.8439 30.2121 33.2292 30.0999 33.4176 29.885C33.4343 29.8659 33.448 29.731 33.4477 29.6935C33.445 29.2877 33.4574 28.8654 33.4494 28.4608C33.4421 28.1038 33.4633 27.6875 33.4463 27.3378C32.725 27.6219 32.0746 27.6928 31.3397 27.3698C31.1475 27.2854 30.9665 27.1776 30.8011 27.0485C30.6706 26.9455 30.4801 26.7059 30.3191 26.833C30.1715 26.9495 30.0354 27.0711 29.877 27.1742C29.2101 27.6091 28.3763 27.701 27.6306 27.4222C27.2148 27.2672 26.9883 27.0695 26.6525 26.8055C26.5625 26.7348 26.4022 26.8952 26.3352 26.9477C26.234 27.0307 26.1394 27.1063 26.0286 27.1777C25.3956 27.5887 24.6109 27.6918 23.8933 27.4583C23.6099 27.3679 23.3495 27.2306 23.115 27.0467C22.9863 26.9459 22.8608 26.7753 22.6945 26.7902C22.5693 26.8675 22.4689 26.9764 22.353 27.0654C22.1208 27.2436 21.8504 27.3746 21.5756 27.4721C21.9619 27.8411 22.4411 28.4064 22.7619 28.821C22.9054 29.0077 23.0441 29.1978 23.178 29.3915C23.2493 29.4941 23.3464 29.6491 23.4269 29.7387C23.7447 30.0933 24.2196 30.2866 24.6929 30.2773C25.0319 30.2719 25.3788 30.1669 25.6493 29.9584C25.9057 29.7609 26.1027 29.5294 26.4455 29.4919C26.6256 29.4722 26.7754 29.4856 26.9478 29.5499C27.1881 29.6397 27.3387 29.8323 27.5413 29.9759C27.8214 30.173 28.1558 30.2785 28.4983 30.2778C28.8156 30.279 29.198 30.1822 29.4492 29.9888C29.8477 29.6822 30.0353 29.417 30.5993 29.4979C30.918 29.5437 31.0748 29.7342 31.3163 29.9248C31.6966 30.2249 32.1237 30.3128 32.5971 30.2613ZM6.75231 31.1489C9.84668 27.8412 12.1754 23.8934 13.5733 19.5851C13.7727 18.9912 13.9537 18.3911 14.1158 17.7859C14.1656 17.598 14.2501 17.3043 14.281 17.124C14.2016 17.0516 13.9982 16.8113 13.9099 16.818C13.7696 16.8546 13.6391 16.8707 13.4944 16.8799C13.3279 17.3655 13.1742 17.8444 12.9859 18.3235C11.9342 20.9992 10.3952 23.5156 8.61244 25.7651C8.18619 26.3045 7.74544 26.8324 7.29069 27.3482C7.11164 27.5513 6.70505 27.9708 6.55999 28.1649C6.54388 28.3262 6.55083 28.5451 6.55096 28.7119L6.55185 30.7144C6.5519 30.9199 6.5459 31.1708 6.56034 31.3725C6.62964 31.281 6.67259 31.2319 6.75231 31.1489ZM24.186 31.0728C24.5887 31.8516 24.869 32.6094 25.1378 33.4386C25.4388 33.4517 25.7628 33.4452 26.0658 33.445L32.0741 33.4448L32.7227 33.4466C33.2295 33.4484 33.4759 33.4879 33.4495 32.8771C33.4431 32.7287 33.4498 32.5413 33.4498 32.3891L33.4487 30.8779C32.3357 31.322 31.3922 31.1512 30.5155 30.3546C30.4957 30.3366 30.4254 30.3093 30.4014 30.3336C30.2097 30.4415 30.0607 30.5972 29.8679 30.7206C29.2054 31.1473 28.381 31.2386 27.6412 30.9671C27.4501 30.8956 27.2674 30.803 27.097 30.6909C26.9219 30.5777 26.7185 30.3376 26.5585 30.3196C26.4919 30.3553 26.4277 30.4062 26.3736 30.4558C25.8856 30.9029 25.2324 31.1505 24.5693 31.118C24.451 31.1122 24.3054 31.1045 24.186 31.0728ZM14.3695 13.5648C14.5574 13.7005 14.6777 13.796 14.8464 13.9617C14.8905 13.793 14.9598 13.6469 15.0138 13.4852C15.477 12.153 15.6783 10.7251 15.0435 9.40477C14.3988 8.06412 13.0423 7.27833 11.6868 6.81217C11.5535 6.76631 11.1262 6.62582 10.9967 6.61442L11.0043 6.62449C11.0552 6.69034 11.1134 6.75292 11.1691 6.81503C12.5559 8.36338 13.6118 10.2066 14.1199 12.2297C14.1903 12.5123 14.2489 12.7977 14.2957 13.0852C14.3196 13.2309 14.3393 13.4273 14.3695 13.5648ZM16.2767 17.2742C16.16 17.3319 15.9073 17.4299 15.8208 17.4807C15.8157 17.5936 15.8701 17.7712 15.9 17.8846C15.9832 18.2002 16.0323 18.5203 16.0699 18.8444C16.1711 19.7617 16.1409 20.6889 15.9805 21.5978C15.9287 21.8998 15.8546 22.1789 15.8015 22.4671C15.9086 22.3645 16.0697 22.1924 16.167 22.0785C16.8405 21.2704 17.3762 20.4044 17.2721 19.2944C17.2011 18.5378 16.8226 17.8607 16.3294 17.2976C16.3164 17.283 16.2954 17.2765 16.2767 17.2742ZM8.3641 17.2728C9.16762 16.6385 10.067 16.1363 11.0284 15.7848C11.2862 15.6916 11.4912 15.6362 11.7482 15.5576C11.6866 15.2362 11.6905 15.1013 11.7149 14.7806C11.3979 14.7621 11.2112 14.7323 10.8795 14.7568C10.7283 14.7765 10.579 14.7948 10.4296 14.8259C9.03694 15.116 8.21349 16.4399 7.83765 17.7137C8.00972 17.5649 8.18337 17.4102 8.3641 17.2728ZM13.3392 14.177C12.8336 14.2469 12.4785 14.7109 12.5432 15.2172C12.608 15.7235 13.0683 16.0833 13.5753 16.0238C13.9078 15.9847 14.1938 15.77 14.3241 15.4616C14.4545 15.1532 14.4092 14.7985 14.2054 14.5328C14.0017 14.267 13.6709 14.1312 13.3392 14.177ZM8.61628 24.3518C8.15081 24.4522 7.69023 24.5738 7.23602 24.7167C6.96199 24.8029 6.54605 24.875 6.55216 25.2144C6.55641 25.4509 6.54538 25.6892 6.55346 25.9259C6.55937 26.1147 6.53042 26.7613 6.56739 26.9058C6.69742 26.7667 6.83517 26.5929 6.9619 26.4468C7.42768 25.9075 7.87744 25.3545 8.31062 24.7886C8.35552 24.7302 8.59817 24.4216 8.61906 24.3729L8.61628 24.3518ZM17.037 16.3997C17.3207 16.542 17.6726 16.778 17.9298 16.9642C19.2741 17.9372 20.2792 19.1985 21.0716 20.6458L21.0891 20.6715C21.1152 20.6526 21.1134 20.6528 21.1155 20.6155C21.1835 19.4446 21.0271 18.1684 20.2782 17.2205C19.6475 16.4221 18.6917 16.0332 17.7059 15.9158C17.5311 15.8947 17.3321 15.8881 17.1607 15.8616C17.1295 16.07 17.1016 16.1993 17.037 16.3997ZM15.7243 16.6058C15.9629 16.5125 16.1401 16.3471 16.2417 16.1111C16.3404 15.8823 16.3441 15.6235 16.252 15.3919C16.0671 14.9318 15.6881 14.8038 15.2249 14.8182C15.2647 15.4695 15.148 15.8633 14.7265 16.3637C14.7151 16.3772 14.7536 16.4602 14.7759 16.4694C15.0518 16.6681 15.4062 16.707 15.7243 16.6058ZM13.0188 13.3913C12.9796 13.2702 12.8527 13.0865 12.7754 12.9768C12.3848 12.4228 11.9025 11.9263 11.2926 11.6151C10.7046 11.3151 10.1754 11.245 9.52981 11.2833C8.87395 11.3104 8.12288 11.5765 7.54135 11.8715C7.36041 11.9633 7.14618 12.0957 6.9693 12.1709C7.30967 12.2091 7.68684 12.2071 8.04865 12.2437C9.1257 12.3472 10.181 12.6125 11.1789 13.0307C11.5431 13.1908 11.8921 13.3593 12.235 13.5612C12.2968 13.5976 12.3583 13.632 12.4259 13.6564C12.6479 13.5224 12.7625 13.4511 13.0188 13.3913ZM16.2456 14.1787C16.3954 14.2831 16.5086 14.3627 16.641 14.4926C16.7064 14.5569 16.768 14.6347 16.8269 14.6918C17.1251 14.6425 17.4235 14.5887 17.7236 14.5541C18.71 14.4428 19.7069 14.4636 20.6878 14.616C21.2846 14.709 21.8743 14.8436 22.4524 15.019C22.7291 15.1017 23.0146 15.2116 23.28 15.2887C22.2158 13.9948 21.0495 12.8879 19.2541 12.8882C17.977 12.9457 17.2126 13.4144 16.2456 14.1787Z" fill="white"/>
</svg>
