<svg width="40" height="40" viewBox="0 0 40 40" fill="none" xmlns="http://www.w3.org/2000/svg">
<rect width="40" height="40" rx="11.4286" fill="#FF4A99"/>
<path d="M16.9059 5.71094H17.3624L17.3759 5.71658C17.5316 5.78023 17.7087 5.80982 17.8576 5.88772C18.7138 6.33558 19.3318 7.12225 19.8853 7.89167C19.9245 7.94619 19.964 8.00386 20.0071 8.05509C20.5452 7.26641 21.195 6.41234 22.0471 5.93516C22.2535 5.81964 22.4523 5.79223 22.6258 5.71094H23.0826C23.2218 5.78912 23.4138 5.80928 23.5982 5.94457C23.9348 6.18448 24.2275 6.58668 24.3087 6.99759C24.5526 8.23086 22.9318 8.92321 21.962 9.10742C22.914 9.91268 23.4876 10.7291 23.9793 11.8844C24.083 12.1277 24.2218 12.5886 24.3587 12.782C24.4046 12.8469 24.8468 13.1636 24.9389 13.239C25.5145 13.7074 26.0632 14.208 26.5824 14.7383C26.7998 14.9617 27.201 15.2894 26.9376 15.6135C26.5841 16.0483 26.2634 15.6199 26.0297 15.3769C25.8771 15.2185 25.7214 15.0631 25.5626 14.911C25.1251 14.4871 24.6268 14.07 24.1508 13.6887C24.0848 13.914 23.9712 14.2096 23.8907 14.4397L21.8707 20.2139C22.0802 20.398 22.3031 20.5665 22.5374 20.7181C23.5128 21.3431 24.6137 21.5776 25.6858 21.3408C27.5561 20.9279 28.509 19.055 27.5448 17.377C27.4651 17.2386 27.2466 16.8902 27.2226 16.7715C27.2 16.654 27.2271 16.5323 27.2973 16.4353C27.4354 16.2448 27.6989 16.2175 27.8801 16.3629C28.018 16.4709 28.0915 16.638 28.1784 16.7835C28.9357 18.0506 29.0137 19.5328 28.1011 20.7593C27.4923 21.5776 26.5519 22.0752 25.5427 22.2275C24.3116 22.4122 23.0637 22.0741 22.0332 21.3947C21.7324 21.1964 21.5054 20.9856 21.2239 20.7757C21.0046 20.7552 20.5904 20.7665 20.3627 20.7665C19.8344 20.7638 19.306 20.7665 18.7777 20.7744C18.6102 20.8866 18.4604 21.0349 18.2983 21.1571C17.9911 21.3884 17.1296 21.9549 16.7636 21.9473C16.6555 21.945 16.5502 21.9028 16.4775 21.8214C16.4029 21.7379 16.3667 21.6309 16.3726 21.5194C16.3782 21.4104 16.4244 21.291 16.5092 21.2192C16.6663 21.0861 16.9093 21.0279 17.0923 20.9307C17.4651 20.7323 17.8128 20.4898 18.1279 20.2086C17.987 19.8287 17.8512 19.4174 17.7169 19.0334L16.2409 14.8138C16.1135 14.4496 15.9702 14.0613 15.8559 13.6947C15.7137 13.7885 15.5103 13.9596 15.3782 14.0702C14.2025 15.0545 12.213 16.9486 12.0803 18.5546C12.0309 19.2217 12.2475 19.8811 12.6828 20.3891C13.22 21.0206 14.0115 21.3634 14.8297 21.4169C15.0419 21.4307 15.3217 21.4127 15.4674 21.5988C15.6017 21.7704 15.5647 22.0543 15.3871 22.1837C15.1771 22.338 14.8371 22.2655 14.5962 22.2448C13.5457 22.1166 12.5541 21.6254 11.9087 20.7705C11.3804 20.0709 11.1483 19.1916 11.2622 18.3224C11.5055 16.5934 13.2933 14.755 14.5604 13.6552C14.7789 13.4658 15.0018 13.2813 15.2287 13.1019C15.3024 13.0438 15.6416 12.8017 15.6718 12.7466C15.79 12.5306 15.8868 12.1909 15.9925 11.9496C16.4716 10.8569 17.0643 9.84891 18.0277 9.118C17.888 9.06547 17.7366 9.03294 17.5936 8.98807C16.9139 8.77479 16.1315 8.43938 15.7902 7.77228C15.4436 7.09462 15.8934 6.23034 16.5043 5.8787C16.6229 5.8104 16.7625 5.78096 16.8821 5.72274L16.9059 5.71094ZM19.2489 8.44291C18.8058 7.87602 17.8683 6.47976 17.0388 6.56703C16.7637 6.63057 16.4236 7.09362 16.526 7.34058C16.8046 8.0123 18.1316 8.27913 18.7458 8.38337C18.9121 8.40268 19.0834 8.42062 19.2489 8.44291ZM20.7571 8.44196C20.9901 8.41558 21.2102 8.39083 21.4418 8.35198C22.0841 8.23189 23.0266 7.99319 23.4249 7.45449C23.6596 7.13705 23.2171 6.51256 22.7871 6.56577C22.0265 6.66407 21.1946 7.85861 20.7571 8.44196ZM19.9941 10.3011C19.7265 11.3402 19.5412 12.264 19.4322 13.3412C19.4053 13.6299 19.3876 13.9194 19.3791 14.2093C19.3729 14.381 19.3793 14.5737 19.3484 14.7427C19.3099 14.9538 19.0518 15.114 18.8428 15.0527C18.4215 14.929 18.5287 14.411 18.5426 14.0682C18.5975 12.8978 18.7674 11.7355 19.0499 10.5983C19.1514 10.1787 19.2858 9.76475 19.3834 9.36233C18.3537 9.7126 17.735 10.4662 17.2105 11.38C16.9094 11.9358 16.6994 12.3935 16.5005 12.9995C16.7147 13.6246 16.9321 14.2486 17.1528 14.8715L18.329 18.2334C18.526 18.787 18.719 19.3421 18.9079 19.8984C19.1291 19.9226 19.4883 19.9128 19.7179 19.9127L21.0824 19.9117C21.2797 19.3818 21.4662 18.8277 21.6534 18.2922L23.2105 13.8418C23.2897 13.6155 23.444 13.2161 23.4987 13.0004C23.1593 11.8427 22.25 10.1862 21.1572 9.59081C20.9532 9.47973 20.8302 9.45036 20.6371 9.36829C20.6267 9.43892 20.7673 9.8894 20.7962 9.9963C21.1675 11.3669 21.4216 12.7824 21.4652 14.2036C21.469 14.3246 21.4849 14.6183 21.4611 14.7306C21.4438 14.8096 21.4036 14.8818 21.3455 14.9381C21.2657 15.017 21.1569 15.0664 21.0438 15.0641C20.9336 15.0622 20.8288 15.016 20.7532 14.9358C20.5724 14.7407 20.6387 14.278 20.6194 14.0174C20.601 13.7667 20.5865 13.516 20.5612 13.265C20.4824 12.5103 20.3571 11.7612 20.1859 11.022C20.1393 10.8181 20.0678 10.4913 19.9941 10.3011Z" fill="white"/>
<path d="M26.4054 24.9315C27.0505 23.9546 27.9644 22.6262 29.1717 22.3122C29.5029 22.226 29.9047 22.3197 30.1846 22.5089C30.8224 22.9399 31.2027 23.846 30.7017 24.5275C30.1502 25.2773 29.075 25.5861 28.1961 25.7563C27.9641 25.799 27.4221 25.8682 27.2037 25.8626C27.2572 26.1257 27.3771 26.4937 27.4489 26.7678C27.5971 27.3238 27.7208 27.8859 27.8196 28.4527C27.839 28.5625 27.9132 28.9782 27.9082 29.0833C27.9048 29.1551 27.881 29.2245 27.8396 29.2832C27.6465 29.559 27.164 29.5102 27.0936 29.1809C27.0257 28.8631 26.9818 28.534 26.9202 28.2132C26.8061 27.6384 26.6675 27.0686 26.5049 26.5056C26.4827 26.4288 26.4252 26.1532 26.364 26.1384C26.2649 26.1956 26.0364 26.4326 25.9489 26.5202C25.19 27.2801 24.5004 28.1066 23.8887 28.9894C23.7744 29.1511 23.6639 29.3153 23.5573 29.4821C23.4029 29.7242 23.2252 30.136 22.8735 30.047C22.7564 30.0167 22.6569 29.9399 22.5982 29.8341C22.4457 29.554 22.7232 29.2277 22.8746 28.9926C23.5026 28.0195 24.2201 27.107 25.0178 26.2673C25.1424 26.1364 25.3835 25.875 25.517 25.7766L15.6496 25.7744C15.2892 25.7744 14.8428 25.7864 14.4884 25.7702C14.9234 26.1749 15.4536 26.7727 15.8288 27.2259C17.1632 28.8137 18.1992 30.63 18.8868 32.5869C19.0482 33.0603 19.1639 33.4923 19.286 33.9752C19.763 33.9803 20.2399 33.9821 20.7168 33.9806C20.7956 33.6134 20.9018 33.2483 21.0148 32.8903C21.1237 32.545 21.6751 30.9283 21.9397 30.7558C22.0385 30.6914 22.1649 30.682 22.2772 30.7109C22.3859 30.7388 22.4728 30.802 22.529 30.8997C22.5933 31.0116 22.5919 31.129 22.5556 31.25C22.4915 31.464 22.3723 31.6681 22.284 31.8733C22.1395 32.2162 22.0081 32.5643 21.8898 32.917C21.7865 33.2249 21.6943 33.5363 21.6133 33.8506C21.5568 34.0791 21.512 34.3492 21.4339 34.5672C21.3824 34.7109 21.2535 34.75 21.1593 34.8167H18.835C18.5863 34.6613 18.5633 34.6361 18.501 34.345C17.9441 31.7451 16.5779 29.3422 14.8337 27.3549C14.4603 26.9294 14.0355 26.4749 13.6094 26.1053C13.566 26.3029 13.4937 26.5163 13.4391 26.7148C13.3371 27.0829 13.2447 27.4535 13.162 27.8264C13.1034 28.0887 13.0525 28.3527 13.0092 28.618C12.9806 28.7925 12.9655 28.9859 12.9149 29.1547C12.8844 29.2564 12.8381 29.3454 12.7451 29.4025C12.6485 29.4619 12.5052 29.4768 12.3965 29.4474C12.2903 29.4187 12.1774 29.3394 12.1266 29.2402C11.9591 28.9129 12.6595 26.3761 12.8096 25.8594C12.6643 25.8627 12.4792 25.845 12.3251 25.8259C11.1938 25.6858 9.1754 25.2462 9.06972 23.8506C9.0399 23.4567 9.30001 22.9795 9.56746 22.7127C10.4733 21.793 11.5714 22.5216 12.2874 23.2418C12.6268 23.5894 12.9367 23.9648 13.2138 24.364C13.3351 24.5365 13.4728 24.7618 13.5935 24.9233C14.0204 24.9447 14.5675 24.9291 15.0034 24.9291L26.4054 24.9315ZM27.363 25.0075C27.6034 24.986 27.8178 24.9647 28.0554 24.9184C28.6779 24.8132 29.5827 24.5643 30.0012 24.0622C30.0615 23.9898 30.119 23.8178 30.0858 23.7281C29.9382 23.3295 29.751 23.1078 29.3225 23.1458C28.6282 23.2804 27.7624 24.4415 27.363 25.0075ZM12.1604 24.9558C12.3182 24.9736 12.4878 24.9961 12.645 25.01C12.2081 24.4281 11.4194 23.2998 10.6499 23.1438C10.5957 23.1328 10.4712 23.1382 10.416 23.1431C10.1964 23.2139 10.0857 23.3857 9.97571 23.5745C9.70756 24.0346 10.3081 24.3747 10.6614 24.5386C11.1202 24.7515 11.6555 24.8746 12.1604 24.9558Z" fill="white"/>
</svg>
