<svg width="40" height="40" viewBox="0 0 40 40" fill="none" xmlns="http://www.w3.org/2000/svg">
<rect width="40" height="40" rx="11.4286" fill="#FFD800"/>
<path d="M21.5197 12.2056C21.8087 12.1903 22.0975 12.2385 22.3659 12.3467C22.8608 12.5468 23.2557 12.9353 23.464 13.4268C23.6702 13.9104 23.6741 14.4565 23.4746 14.9429C23.5478 14.9616 23.618 14.9872 23.6915 15.0129C25.7843 15.7429 27.8077 16.8566 29.2006 18.6218C29.3892 18.8608 29.1779 19.283 28.8569 19.2228C28.6396 19.1821 28.4223 19.1167 28.2055 19.0567L24.8527 18.1238C24.5492 18.0395 24.2196 17.9572 23.9213 17.8689C23.8898 18.0396 23.7819 18.3818 23.731 18.5614C23.9798 18.8431 24.2346 19.0951 24.376 19.4418C24.7067 20.2532 24.4318 20.7765 24.1327 21.5026C23.9759 21.8797 23.8213 22.2578 23.6687 22.6366C23.7342 22.8147 24.302 24.072 24.3728 24.1445C24.5046 24.2793 24.8409 24.4521 25.0151 24.5607C25.3404 24.7639 25.6632 24.9711 25.9835 25.1822C27.5501 26.222 30.9799 28.6314 31.7129 30.326C31.8362 30.611 31.9074 30.9524 31.786 31.2506C31.6908 31.4844 31.4919 31.6525 31.2614 31.7466C30.224 32.1703 27.8137 31.3354 26.8167 30.9237C26.7586 30.9069 26.6011 30.8404 26.5386 30.8158C26.3055 30.725 26.0741 30.6303 25.8442 30.5317C25.0474 30.1913 24.2609 29.8273 23.4855 29.4403C20.7046 28.0498 17.9236 26.3557 15.4572 24.4577C15.0981 24.1814 14.6564 23.8372 14.3354 23.5152C14.2446 23.4241 14.1549 23.257 14.1144 23.1327C14.0113 22.8196 14.039 22.4782 14.191 22.186C14.4809 21.6176 14.9893 21.5851 15.5405 21.4131C16.0123 21.2659 16.5006 21.1494 16.9695 20.9951C17.0457 20.7083 17.0717 20.4068 17.1653 20.1228C17.3458 19.5753 17.9452 19.3968 18.4255 19.1689L20.0455 18.4037C19.9884 18.2653 19.8273 17.9948 19.7535 17.8553C19.5378 17.448 19.2986 17.0432 19.0891 16.6326C18.9518 16.6191 18.7579 16.6253 18.6141 16.6253L15.1624 16.6266C14.9441 16.6261 14.7258 16.6267 14.5075 16.6284C14.3472 16.6294 14.1844 16.6353 14.0244 16.6163C13.7261 16.5809 13.5695 16.164 13.8038 15.9652C14.0281 15.7748 14.3569 15.6286 14.6189 15.491C16.2013 14.6602 17.8573 14.2926 19.6328 14.2475C19.6495 13.1032 20.3938 12.3264 21.5197 12.2056ZM23.5982 28.6394C24.9108 29.2905 26.2323 29.9113 27.6141 30.4043C28.2621 30.6356 29.0158 30.8788 29.6947 31.0028C30.0121 31.0573 30.7927 31.1793 31.0226 31.0029C31.3004 30.7898 30.4341 29.7762 30.2709 29.6024C28.9214 28.1656 27.3038 27.0025 25.6769 25.9032C25.5637 25.8267 25.0361 25.462 24.9486 25.4435C25.3246 26.2971 24.9309 26.6433 24.4662 27.3405L23.5982 28.6394ZM22.394 28.007C22.4912 27.5696 22.5531 27.1039 22.6444 26.6642C22.6528 26.6078 22.6784 26.4767 22.6625 26.4283C22.6014 26.2411 22.5107 26.047 22.433 25.8652L21.56 23.8235C21.5014 23.6864 21.3955 23.4131 21.3223 23.2999C21.1695 23.221 21.0064 23.1332 20.8524 23.0594C21.0378 23.3329 21.3232 23.6738 21.261 24.0064C21.2295 24.1695 21.1338 24.3131 20.9955 24.4049C20.929 24.4496 20.8546 24.4813 20.7762 24.498C20.3605 24.5897 19.885 24.6144 19.4535 24.6821C18.9306 24.756 18.388 24.823 17.8666 24.8876C17.3691 24.9491 17.0282 24.6031 17.1281 24.1233C17.1969 23.7928 18.0511 23.3257 18.3439 23.1709C18.3623 23.1608 18.3811 23.1514 18.4001 23.1424C18.2201 22.9527 17.1882 21.88 17.0404 21.802L16.9973 21.8016C16.4796 21.9268 15.9541 22.1078 15.4381 22.2465C15.2438 22.3104 14.9941 22.3344 14.8798 22.5279C14.7794 22.6978 14.8089 22.9273 14.9582 23.0564C17.2259 25.0165 19.7962 26.5392 22.394 28.007ZM23.5817 27.2819C23.8213 26.9188 24.1145 26.5131 24.321 26.1381C24.3952 26.0032 23.9779 25.177 23.8969 24.9987L22.9936 23.0092C22.7235 22.9562 22.2392 22.8627 21.9739 22.8391C22.1917 23.2839 22.3868 23.7997 22.5844 24.2603C22.6995 24.5289 23.4407 26.1841 23.4537 26.3391C23.4765 26.6119 23.267 27.4893 23.2179 27.828C23.3454 27.6505 23.4573 27.4625 23.5817 27.2819ZM18.4175 24.0412C18.7097 23.9975 19.0259 23.951 19.3188 23.9167C19.6561 23.8719 20.0736 23.8284 20.4025 23.7706C20.1784 23.4481 19.9517 23.0664 19.7372 22.7331C19.6252 22.5594 19.3897 22.2065 19.3014 22.0329C19.0242 21.9915 18.588 21.9491 18.3095 21.9403C18.312 21.9459 18.3143 21.9514 18.3169 21.9569C18.3452 22.0151 18.433 22.0801 18.4795 22.1265C18.6739 22.3207 19.2461 22.8361 19.3492 23.0308C19.395 23.1173 19.4123 23.2153 19.3819 23.3097C19.3042 23.5506 18.6472 23.8715 18.4175 24.0412ZM19.9959 21.7432C20.1039 21.8189 20.2231 21.8753 20.3408 21.9351C20.4849 22.0068 20.8327 22.1897 20.968 22.2377C20.9792 22.0898 21.1472 21.1057 21.1092 21.0579C20.8562 21.2091 20.2086 21.5774 19.9959 21.7432ZM23.0064 22.225C23.1493 21.8712 23.2942 21.5183 23.4414 21.1662C23.5438 20.918 23.7144 20.5505 23.7475 20.2951C23.7716 20.1137 23.7466 19.9293 23.6755 19.7607C23.6169 19.6222 23.2112 19.0638 23.1119 19.058C22.4406 19.0186 21.5749 18.9735 20.9156 18.9737C20.8486 18.9741 20.665 18.9699 20.6131 18.9932C19.7783 19.3682 18.9562 19.7754 18.1277 20.165C18.0749 20.1899 17.9895 20.2473 17.9471 20.2885C17.8061 20.4944 17.8064 20.8629 17.7283 21.1077C18.0662 21.1415 18.4045 21.1721 18.743 21.1996C19.3328 21.2513 19.1951 21.3079 19.695 21.0078L20.8437 20.3182C21.0497 20.1941 21.2985 20.03 21.5188 19.9362C21.5776 19.9113 21.69 19.9254 21.7538 19.9369C21.8633 19.9915 21.9482 20.0555 21.9883 20.1755C22.0495 20.3597 21.8154 21.7155 21.7743 22.013L23.0064 22.225ZM21.6053 12.9777C20.9311 12.9903 20.3948 13.5473 20.4078 14.2215C20.4207 14.8958 20.9779 15.4317 21.6522 15.4184C22.3259 15.4051 22.8615 14.8484 22.8485 14.1746C22.8355 13.5009 22.279 12.9652 21.6053 12.9777ZM20.81 18.1859C21.0205 18.2138 21.4267 18.215 21.6486 18.2204C22.1036 18.2302 22.5586 18.2443 23.0134 18.2628C23.0618 18.0926 23.1248 17.8875 23.1668 17.7197C23.3571 16.9615 23.4558 16.9098 24.1808 17.1415C25.1741 17.3932 26.1643 17.7072 27.1574 17.9653C27.3269 18.0093 27.4986 18.065 27.6684 18.105C26.2692 16.8873 24.8036 16.1796 23.0391 15.6081C22.5435 16.0228 22.1141 16.2442 21.4426 16.1817C20.9092 16.13 20.4189 15.8659 20.0823 15.4489C19.9768 15.3197 19.8889 15.177 19.8207 15.0248C19.697 15.0202 19.5863 15.0225 19.463 15.0255C18.2731 15.0532 16.7797 15.3456 15.694 15.8428C15.9962 15.8598 16.395 15.8477 16.7065 15.847L18.4021 15.8463C18.7157 15.846 19.081 15.8297 19.3901 15.8656C19.455 15.8732 19.5602 15.9427 19.5965 15.9939C19.7392 16.1953 19.8786 16.4757 19.9971 16.6938L20.81 18.1859Z" fill="black"/>
<path d="M19.5845 7.35334C21.2115 7.28125 22.9652 7.61648 24.4302 8.33244C25.6417 8.92464 26.8902 9.91179 27.3384 11.2305C27.6035 12 27.5446 12.8443 27.1753 13.5697C27.0834 13.7531 26.977 13.9289 26.8568 14.0953C26.66 14.3685 26.167 14.9459 25.8436 15.0939C25.7669 15.129 25.6134 15.0911 25.5413 15.044C25.4577 14.9894 25.3814 14.9121 25.3712 14.8047C25.3552 14.636 25.4168 14.4415 25.4433 14.2721C25.5217 13.7715 25.5257 13.2783 25.4018 12.785C25.2077 12.0117 24.67 11.3781 23.9865 10.9801C22.4943 10.1113 20.5187 10.1649 18.896 10.5752C16.579 11.1613 14.5063 12.6385 13.2802 14.7002C12.1193 16.6522 11.6883 19.2595 12.2495 21.4699C13.019 24.5012 15.4764 26.5761 17.968 28.2493C18.7884 28.7955 19.6233 29.3194 20.4719 29.8204C20.9964 30.1499 21.536 30.4571 22.065 30.7793C22.2874 30.9148 22.54 31.0444 22.742 31.2085C22.7913 31.2485 22.8296 31.2931 22.8542 31.352C22.8934 31.4458 22.8874 31.5485 22.8495 31.6415C22.8094 31.7392 22.7327 31.8219 22.6322 31.8579C22.4368 31.9278 21.7058 31.709 21.4679 31.6522C19.3355 31.1436 17.14 30.583 15.1709 29.5976C15.4828 30.0514 15.7619 30.5528 16.0643 31.0151C16.2921 31.3632 16.5148 31.72 16.7312 32.0747C16.8852 32.31 16.6822 32.6659 16.4118 32.657C16.2569 32.6518 15.9267 32.4657 15.7855 32.394C14.507 31.7608 13.3246 30.9497 12.2736 29.985C9.17429 27.11 7.76066 23.1073 8.24426 18.917C8.59898 15.8935 9.91604 13.0641 12.0012 10.8461C13.9687 8.72633 16.6947 7.47076 19.5845 7.35334ZM15.3208 31.2633C14.9826 30.765 14.6336 30.1866 14.3092 29.6737L13.979 29.152C13.8808 28.9977 13.6857 28.7479 13.7232 28.5631C13.7436 28.4565 13.8063 28.3629 13.8969 28.3032C14.1091 28.1661 14.3247 28.3071 14.5183 28.4105C14.9273 28.6287 15.3384 28.8332 15.7596 29.0272C16.8872 29.538 18.0529 29.9601 19.2461 30.2898C19.4688 30.3527 19.9491 30.4982 20.1666 30.5373C19.2806 29.9878 18.3614 29.4546 17.5035 28.861C14.7259 26.9734 12.0676 24.6638 11.3954 21.1902C10.934 18.6776 11.4913 15.9273 12.9354 13.8131C14.4413 11.6084 16.7661 10.193 19.3795 9.67454C21.9665 9.16136 25.5664 9.77248 26.1968 12.8378C26.2512 13.1025 26.2532 13.3375 26.2731 13.6027C26.5146 13.2183 26.6922 12.8526 26.7272 12.3901C26.8259 11.0874 25.7817 10.0323 24.7563 9.39483C23.4101 8.55804 21.8139 8.1697 20.2404 8.12084C20.0565 8.11514 19.8571 8.11069 19.6735 8.12057C16.9054 8.21246 14.3955 9.43311 12.5103 11.4465C10.1204 13.9964 8.82978 17.3843 8.91748 20.878C9.00268 24.1397 10.4079 27.227 12.8114 29.4335C13.4447 30.0225 14.5438 30.8555 15.3208 31.2633Z" fill="black"/>
</svg>
