<svg width="147" height="39" viewBox="0 0 147 39" fill="none" xmlns="http://www.w3.org/2000/svg">
<g clip-path="url(#clip0_494_6380)">
<path d="M0.727371 10.0416C0.93112 8.97879 2.05028 7.7589 2.9561 7.16444C4.84133 5.92718 6.96999 5.72578 9.14242 6.11885C12.9724 6.86133 15.3311 11.0174 14.2909 14.6551C14.0963 15.3088 13.8649 16.1572 13.3735 16.6515L13.3685 16.6834C13.7081 16.8462 14.1432 17.0232 14.4162 17.2632L14.4203 17.4067C13.8394 17.7642 12.8332 17.541 12.5355 17.6937C12.2633 18.0285 12.0301 18.2459 11.6369 18.4498L11.4146 18.6294C7.7615 21.0571 2.41974 19.7849 0.635008 15.7016C0.0371281 14.4562 -0.0500961 13.1698 0.086222 11.8221C0.117067 11.0996 0.377451 10.6381 0.727371 10.0416ZM6.8969 15.7595L8.70476 15.4825C8.78188 15.423 9.27188 15.1435 9.38096 15.0781C9.48532 14.9102 9.46938 14.9967 9.45173 14.8246C7.92258 13.899 8.58421 13.0733 9.57802 12.0227C8.93739 12.3432 7.73177 13.3972 7.43609 13.4056C7.9536 12.5757 8.88443 11.8448 9.85965 11.6048C9.06085 10.9066 8.62491 9.97353 7.29034 9.88726C6.3745 9.8281 5.78691 10.2719 5.14284 10.8244C4.46519 12.1527 4.49621 13.2118 5.02195 14.593C5.81175 15.4456 5.74544 15.6176 6.8969 15.7595Z" fill="#18C2BB"/>
<path d="M9.14313 6.11719C12.9731 6.85968 15.3318 11.0157 14.2916 14.6535C14.097 15.3072 13.8656 16.1556 13.3742 16.6498L13.3692 16.6817C13.1306 16.7564 11.5452 16.8227 11.2961 16.7212C10.7342 16.4652 11.0379 15.95 10.723 15.6663C10.3942 15.3701 10.0034 15.6554 9.47095 15.3886L9.38167 15.0764C9.48603 14.9086 9.47009 14.995 9.45244 14.823C7.92329 13.8974 8.58492 13.0716 9.57873 12.021C8.9381 12.3416 7.73248 13.3956 7.4368 13.404C7.95431 12.574 8.88515 11.8431 9.86036 11.6031C9.06156 10.9049 8.62562 9.97187 7.29106 9.88561C6.37521 9.82644 5.78762 10.2703 5.14355 10.8227C5.34602 8.7154 7.65374 8.94759 9.09558 8.51014L9.2331 8.46776C9.77631 8.82012 10.599 9.52813 11.2668 9.14908C11.3758 8.96429 11.3719 8.81056 11.3187 8.60119C10.9925 7.31534 10.1699 6.76854 9.14313 6.11719Z" fill="#FF6F00"/>
<path d="M10.2797 11.3984C10.5658 11.5067 10.7971 11.7811 10.9198 12.0438L11.2633 12.2561L11.0963 12.5531C10.6031 12.5984 10.1172 13.0675 9.70252 13.3973C10.4268 13.78 11.22 14.0141 11.2365 14.9061C11.0846 15.2007 11.1435 15.7075 11.1376 16.0642C11.2742 16.2538 11.3809 16.4049 11.5041 16.6071C11.4232 16.7279 11.4831 16.6776 11.2958 16.7204C10.7339 16.4645 11.0376 15.9492 10.7227 15.6656C10.394 15.3693 10.0031 15.6547 9.47067 15.3878L9.38139 15.0756C9.48575 14.9078 9.46981 14.9942 9.45216 14.8222C7.92302 13.8966 8.58464 13.0709 9.57846 12.0203C8.93782 12.3408 7.73221 13.3948 7.43652 13.4032C7.95404 12.5733 8.88487 11.8424 9.86009 11.6024C10.0456 11.667 9.97421 11.6586 10.1696 11.63L10.2797 11.3984Z" fill="#0A5050"/>
<path d="M11.2362 14.9097C11.888 15.0456 13.5282 14.7435 14.291 14.6562C14.0964 15.31 13.865 16.1584 13.3736 16.6526L13.3686 16.6845C13.13 16.7592 11.5446 16.8255 11.2955 16.7239C11.4828 16.6811 11.4228 16.7315 11.5038 16.6107C11.3806 16.4084 11.2739 16.2574 11.1373 16.0677C11.1432 15.7111 11.0843 15.2042 11.2362 14.9097Z" fill="#02E6D5"/>
<path d="M11.1377 16.0625C11.864 16.1682 12.6467 16.4661 13.374 16.6474L13.369 16.6793C13.1305 16.754 11.545 16.8203 11.2959 16.7187C11.4832 16.6759 11.4233 16.7263 11.5042 16.6054C11.381 16.4032 11.2744 16.2522 11.1377 16.0625Z" fill="#FF4440"/>
<path d="M10.2793 11.3984C10.2921 10.9838 10.2317 11.087 10.4296 10.774C10.7271 10.6784 10.584 10.6713 10.873 10.8034C11.2216 11.254 11.124 11.5259 10.9194 12.0437C10.7967 11.781 10.5655 11.5066 10.2793 11.3984Z" fill="#26473C"/>
<path d="M11.2637 12.2578C11.7964 12.5314 12.9693 13.0609 13.4007 13.3361C12.7587 13.2128 11.5779 12.9887 11.0967 12.5549L11.2637 12.2578Z" fill="#26473C"/>
<path d="M0.727539 10.0416C0.931288 8.97879 2.05045 7.7589 2.95627 7.16444C4.8415 5.92718 6.97015 5.72578 9.14259 6.11885C10.1694 6.7702 10.9919 7.317 11.3182 8.60285C11.3713 8.81222 11.3753 8.96595 11.2663 9.15073C10.5985 9.52978 9.77577 8.82178 9.23255 8.46942C8.91177 8.22992 9.0049 8.2248 8.66603 8.19996C7.62758 9.15946 7.28306 7.61255 6.04771 7.54063L5.98294 7.62296C6.10058 7.96299 6.15756 7.93823 6.07265 8.21431C5.31909 8.64925 4.63175 7.58964 3.67787 7.87143C3.62329 8.23907 3.91932 8.1361 3.7758 8.45079C2.01095 8.92768 1.91268 8.63524 0.727539 10.0416Z" fill="#CBF2F4"/>
<path d="M8.70533 15.4826C8.78244 15.423 9.27245 15.1436 9.38152 15.0781L9.4708 15.3903C10.0032 15.6571 10.3941 15.3718 10.7228 15.668C11.0377 15.9517 10.7341 16.4669 11.296 16.7229C11.545 16.8244 13.1305 16.7581 13.369 16.6834C13.7087 16.8462 14.1437 17.0233 14.4168 17.2633L14.4208 17.4068C13.8399 17.7643 12.8338 17.5411 12.536 17.6938C10.8482 17.4941 9.98591 17.3061 8.40159 16.8169C7.81416 16.3872 7.55318 16.331 6.89746 15.7595L8.70533 15.4826Z" fill="#FF562F"/>
<path d="M8.70507 15.4826C8.78218 15.423 9.27219 15.1436 9.38126 15.0781L9.47054 15.3903C9.26576 15.6613 9.02217 16.0574 8.73368 16.1992C8.50877 15.9953 8.63353 15.7587 8.70507 15.4826Z" fill="#2F3448"/>
<path d="M8.40147 16.8189C7.71243 16.7845 4.68293 15.4972 4.2313 14.9954C4.44054 14.9081 4.3803 14.9627 4.51748 14.8074C4.29797 14.6236 4.23525 14.5859 4.0752 14.3408C4.32598 14.3022 4.76227 14.5011 5.0224 14.5951C5.8122 15.4477 5.74588 15.6197 6.89735 15.7615C7.55306 16.333 7.81405 16.3892 8.40147 16.8189Z" fill="#00FFF3"/>
<path d="M0.086222 11.8203C0.225367 12.3263 0.278318 12.8567 0.340351 13.377C0.563978 15.2558 1.5954 16.053 3.00914 17.1658C2.71645 17.0491 2.41177 16.9342 2.14333 16.7705C1.71801 16.5104 1.06521 15.85 0.635008 15.6998C0.0371281 14.4544 -0.0500961 13.168 0.086222 11.8203Z" fill="#04848D"/>
<path d="M7.78809 17.7969C9.32734 18.1384 10.1828 18.1988 11.6376 18.4455L11.4153 18.6251C10.1475 18.6402 8.90048 18.422 7.78809 17.7969Z" fill="#00FFF3"/>
<path d="M4.44674 9.35505C4.67808 9.31561 4.593 9.32073 4.83025 9.36235C4.20366 10.3779 3.81818 11.1978 3.50853 12.3332C3.50339 11.943 3.492 11.5528 3.47435 11.1618L3.38935 11.1551C2.53143 12.2879 3.12263 14.5201 4.15971 15.449C4.36354 15.6001 4.35463 15.5883 4.49292 15.7981L4.447 15.8695C3.52447 15.4809 2.76363 14.505 2.49082 13.5727C2.02274 11.9741 2.75549 10.7598 3.51625 9.42428L4.44674 9.35505Z" fill="#00FFF3"/>
<path d="M3.20982 9.39062L3.29919 9.48294C2.43904 10.2127 2.16966 10.8738 2.00464 11.9354L1.92375 11.8473C1.73063 10.8747 2.33536 9.84142 3.20982 9.39062Z" fill="#00FFF3"/>
<path d="M81.5657 10.264C81.384 9.74087 80.6498 7.82373 80.6489 7.27055C80.7277 6.99665 81.3626 6.72417 81.5674 6.66291C85.2174 5.56957 90.3942 5.12935 91.9673 9.3969C92.089 10.0381 92.1987 10.5216 92.2055 11.1722C92.3786 12.0248 92.3649 18.7205 92.149 19.3524C91.7171 19.6654 88.3919 19.5664 87.7595 19.5252C87.7458 18.9865 87.7244 18.4603 87.7527 17.9216C86.4178 20.2285 82.5433 20.4013 80.684 18.6617C80.3105 18.5233 80.1348 18.525 79.9035 18.2522L79.9686 18.0215C79.954 17.883 79.9686 17.9443 79.9198 17.8083C79.5393 16.7543 79.4022 16.2995 79.4871 15.1935C79.6867 12.2967 82.4362 11.2175 85.0083 11.2545C86.0836 11.2696 86.9867 11.5566 88.0003 11.8561C87.9403 11.6497 87.8778 11.4508 87.8109 11.2469C86.9173 8.49245 83.4995 9.55945 81.5657 10.264ZM84.0401 14.6321C84.0153 14.8704 83.9759 15.384 83.9305 15.5971C84.0393 16.0889 84.0324 16.2685 84.4411 16.5714C84.6485 16.6629 84.8952 16.7392 85.0426 16.8861C85.8317 16.9381 86.3381 16.6813 87.0124 16.3415C87.2189 16.062 87.4974 15.7482 87.7244 15.478C87.7647 14.956 87.793 14.4332 87.8075 13.9104C87.2352 13.7921 86.4272 13.6939 85.8411 13.7082C85.5078 13.714 85.1386 13.6284 84.8627 13.7552C84.5851 14.1118 84.5148 14.1949 84.1095 14.4022L84.0401 14.6321ZM83.7968 18.3269C84.0573 18.7364 84.7719 18.5619 85.2148 18.5224C84.8147 18.342 84.2543 18.3554 83.7968 18.3269ZM85.5447 17.7294L85.5087 17.8175C86.4469 17.841 86.8368 17.4894 87.673 17.1471C88.3893 16.8542 90.8886 16.3717 90.9923 15.5459C90.7746 15.5468 90.216 16.0729 89.8484 16.2382C89.2375 16.5126 88.6446 16.683 88.0089 16.8802C89.3918 16.0444 91.0488 15.4503 91.4695 13.6813L91.3967 13.6503C90.7112 14.6312 88.6618 17.1529 87.2934 16.7073C86.9413 16.9205 85.8609 17.6019 85.5447 17.7294Z" fill="#43DDCB"/>
<path d="M87.2935 16.7055C88.6618 17.1511 90.7113 14.6294 91.3968 13.6484L91.4696 13.6795C91.0489 15.4484 89.3918 16.0426 88.009 16.8784C88.6447 16.6812 89.2376 16.5108 89.8485 16.2364C90.2161 16.0711 90.7747 15.5449 90.9924 15.5441C90.8887 16.3698 88.3894 16.8524 87.6731 17.1452C86.8368 17.4876 86.447 17.8392 85.5088 17.8157L85.5448 17.7276C85.8609 17.6 86.9414 16.9187 87.2935 16.7055Z" fill="#24ABAB" fill-opacity="0.0431373"/>
<path d="M87.0118 16.3359L87.2406 16.4585L87.2928 16.7018C86.9407 16.915 85.8602 17.5963 85.5441 17.7239C85.2236 17.431 85.0874 17.2842 85.042 16.8806C85.8311 16.9326 86.3375 16.6758 87.0118 16.3359Z" fill="#FF562F"/>
<path d="M90.6881 10.5312C91.3701 10.7089 91.5792 10.7942 92.2055 11.1652C92.3786 12.0177 92.3649 18.7134 92.149 19.3453C91.7171 19.6583 88.3919 19.5593 87.7595 19.5182C87.7458 18.9794 87.7244 18.4533 87.7527 17.9145C86.4178 20.2214 82.5433 20.3942 80.684 18.6547C80.3105 18.5162 80.1348 18.5179 79.9035 18.2451L79.9686 18.0144C79.954 17.8759 79.9686 17.9372 79.9198 17.8012C79.5393 16.7473 79.4022 16.2924 79.4871 15.1864C80.4664 15.3408 81.9075 15.5934 82.8603 15.3492L84.0401 14.625C84.0153 14.8633 83.9759 15.3769 83.9305 15.5901C84.0393 16.0818 84.0324 16.2614 84.4411 16.5643C84.6485 16.6558 84.8952 16.7321 85.0426 16.879C85.088 17.2826 85.2242 17.4295 85.5447 17.7224L85.5087 17.8105C86.4469 17.834 86.8368 17.4824 87.673 17.14C88.3893 16.8471 90.8886 16.3646 90.9923 15.5389C90.7746 15.5397 90.216 16.0658 89.8484 16.2312C89.2375 16.5056 88.6446 16.6759 88.0089 16.8731C89.3918 16.0373 91.0488 15.4432 91.4695 13.6742L91.3967 13.6432C90.7112 14.6242 88.6618 17.1459 87.2934 16.7003L87.2412 16.4569L87.0124 16.3344C87.2189 16.0549 87.4974 15.7411 87.7244 15.4709C89.0705 14.9229 90.3145 14.4605 90.533 12.7998C90.7018 11.5176 90.228 11.6099 89.8878 10.8496L90.6881 10.5312ZM85.2148 18.5154C84.8147 18.3349 84.2543 18.3484 83.7968 18.3198C84.0573 18.7293 84.7719 18.5548 85.2148 18.5154Z" fill="#18C2BB"/>
<path d="M83.7969 18.3203C84.2544 18.3488 84.8148 18.3354 85.2149 18.5158C84.7719 18.5553 84.0573 18.7298 83.7969 18.3203Z" fill="#94E7E3" fill-opacity="0.956863"/>
<path d="M84.0401 14.625C84.0153 14.8633 83.9759 15.3769 83.9305 15.59C84.0393 16.0818 84.0324 16.2614 84.4411 16.5643C84.6485 16.6558 84.8952 16.7321 85.0426 16.879C85.088 17.2826 85.2243 17.4295 85.5447 17.7223L85.5087 17.8105C84.9501 17.9338 84.3015 18.0555 83.7968 18.3198C82.6093 18.5321 81.9058 18.6362 80.684 18.6546C80.3105 18.5162 80.1348 18.5179 79.9035 18.2451L79.9686 18.0144C79.954 17.8759 79.9686 17.9372 79.9198 17.8012C79.5393 16.7472 79.4022 16.2924 79.4871 15.1864C80.4664 15.3408 81.9075 15.5934 82.8603 15.3492L84.0401 14.625Z" fill="#FF562F"/>
<path d="M79.4871 15.1875C80.4664 15.3419 81.9075 15.5945 82.8603 15.3503C82.8586 15.7497 82.8312 16.7399 82.8817 17.0865C81.6171 17.3274 80.9145 17.7864 79.9686 18.0155C79.954 17.877 79.9686 17.9383 79.9198 17.8023C79.5393 16.7483 79.4022 16.2935 79.4871 15.1875Z" fill="#02E6D5"/>
<path d="M84.0397 14.625C84.0149 14.8633 83.9755 15.3769 83.93 15.59C84.0389 16.0818 84.032 16.2614 84.4407 16.5643C83.9343 16.6113 83.6833 16.7405 83.2592 17.0183C83.1632 17.3699 83.1015 17.6317 82.71 17.7593L82.6191 17.6435C82.6825 17.4001 82.7562 17.2994 82.8813 17.0854C82.8308 16.7388 82.8582 15.7486 82.8599 15.3492L84.0397 14.625Z" fill="#0E4953"/>
<path d="M83.2589 17.023C83.2495 16.5724 83.1818 16.0663 83.408 15.6912C83.7259 15.5301 83.5597 15.5671 83.9298 15.5947C84.0386 16.0865 84.0318 16.2661 84.4405 16.569C83.9341 16.616 83.683 16.7452 83.2589 17.023Z" fill="#02E6D5"/>
<path d="M88.3799 10.1555C89.4089 8.85218 90.5219 8.85755 91.9673 9.39352C92.089 10.0347 92.1987 10.5182 92.2055 11.1688C91.5792 10.7979 91.3701 10.7126 90.6881 10.5349L89.8879 10.8533C89.7645 10.8827 89.6128 10.9012 89.4877 10.9196C89.3584 10.8088 89.2675 10.7356 89.1296 10.6356L88.8614 10.8072C88.6883 10.4889 88.6566 10.3744 88.3799 10.1555Z" fill="#CBF2F4"/>
<path d="M83.0747 13.1008C82.9385 12.6602 82.7028 12.0183 83.2264 11.7422C84.1903 11.9562 83.4517 12.4085 84.0617 12.6502C84.8466 12.9606 85.2339 13.1 85.8413 13.7033C85.508 13.7092 85.1387 13.6236 84.8629 13.7503C84.5852 14.1069 84.515 14.19 84.1097 14.3973C83.1193 13.0588 82.0722 14.2387 80.5488 14.4737C81.2634 14.0406 82.2684 13.569 83.0747 13.1008Z" fill="#0E4953"/>
<path d="M88.3795 10.1562C88.6563 10.3752 88.688 10.4896 88.8611 10.8079C88.616 11.0127 88.5166 11.1109 88.233 11.0966L88.1465 10.9347C88.1499 10.5719 88.2159 10.4969 88.3795 10.1562Z" fill="#E2F2F5"/>
<path d="M45.4236 6.05469C45.9111 6.06039 46.1763 6.04521 46.6565 6.15169C47.1627 6.09883 47.4042 6.10403 47.8997 6.12098C48.4348 6.1162 49.5071 5.99234 49.9753 6.25852C50.1649 6.36635 50.0163 6.65276 49.956 6.81472L49.7234 7.27357C49.633 7.58482 49.5365 7.95581 49.4325 8.25732L48.2681 11.181C48.2193 11.661 48.1428 11.8138 47.8971 12.2384C47.7529 12.637 47.6087 13.0658 47.4398 13.4518C46.7656 15.3987 46.0159 17.3195 45.364 19.2672C45.2009 19.6322 45.0351 20.0224 44.8646 20.3816C44.1753 21.7998 43.5762 23.0082 41.9341 23.5947C40.4568 24.1217 37.5366 23.8305 36.502 22.6129C36.8868 21.4238 37.2446 20.6073 37.8096 19.4896C38.9479 20.0526 39.6503 20.3161 40.6905 19.4233C40.2658 18.3701 39.4411 16.4669 39.1525 15.4591C39.097 15.1838 38.5703 13.8613 38.4218 13.3788C39.025 12.9517 39.4964 12.5782 40.2859 12.762L40.8391 12.887C40.9359 11.5066 40.8335 11.7257 41.7088 10.7799C41.9188 11.4219 42.5209 13.5827 42.8813 13.9368L43.1073 14.0224L43.1688 13.6213C43.1941 13.3654 43.3262 12.9231 43.3953 12.6613C43.6653 11.7131 43.8837 10.988 44.2278 10.0592L45.104 7.2974L45.4236 6.05469Z" fill="#07555C"/>
<path d="M45.4235 6.05469C45.911 6.06039 46.1761 6.04521 46.6564 6.15169C47.1626 6.09883 47.4041 6.10403 47.8996 6.12098C48.4347 6.1162 49.507 5.99234 49.9751 6.25852C50.1648 6.36635 50.0162 6.65276 49.9559 6.81472L49.7233 7.27357C49.6328 7.58482 49.5364 7.95581 49.4324 8.25732L48.268 11.181C48.2192 11.661 48.1427 11.8138 47.897 12.2384C47.7528 12.637 47.6085 13.0658 47.4397 13.4518C46.7654 15.3987 46.0158 17.3195 45.3639 19.2672C45.0213 19.2236 44.6116 19.1296 44.2676 19.0599C43.9669 17.7777 43.0484 15.2191 42.0459 14.2968C42.0522 14.2498 42.0426 14.2868 42.112 14.15C42.6601 14.2893 43.6134 15.4154 44.0061 15.8703C43.8773 15.0596 43.914 14.4244 43.1071 14.0224L43.1687 13.6213C43.194 13.3654 43.3261 12.9231 43.3952 12.6613C43.6652 11.7131 43.8836 10.988 44.2277 10.0592L45.1038 7.2974L45.4235 6.05469Z" fill="#0E4953"/>
<path d="M44.2277 10.0625L44.4848 10.0748C44.4396 10.7252 44.4068 10.7991 44.5815 11.4302C44.7059 11.9848 44.8537 12.5706 45.1767 13.0497L45.2994 13.0565C45.4353 12.8433 45.7394 11.5904 45.8565 11.2011C46.1185 10.9275 46.1449 10.8318 46.4999 10.7346C46.7125 10.857 46.8692 11.0542 46.938 11.2858L47.0204 11.3127C47.2262 12.0125 47.3665 12.73 47.4397 13.4551C46.7654 15.4019 46.0158 17.3227 45.3639 19.2704C45.0213 19.2268 44.6116 19.1328 44.2676 19.0632C43.9669 17.7809 43.0484 15.2223 42.0459 14.3001C42.0522 14.2531 42.0426 14.29 42.112 14.1532C42.6601 14.2925 43.6134 15.4187 44.0061 15.8735C43.8773 15.0629 43.914 14.4276 43.1071 14.0257L43.1687 13.6246C43.194 13.3686 43.3261 12.9264 43.3952 12.6646C43.6652 11.7163 43.8836 10.9913 44.2277 10.0625Z" fill="#FF752A"/>
<path d="M43.3955 12.6641C43.704 12.7933 44.155 12.9401 44.3669 13.1709C44.2496 13.3388 43.4838 13.473 43.1689 13.6241C43.1943 13.3681 43.3263 12.9259 43.3955 12.6641Z" fill="#1F3B41"/>
<path d="M47.8999 6.11884C48.435 6.11406 49.5073 5.9902 49.9754 6.25639C50.1651 6.36422 50.0165 6.65062 49.9562 6.81258C49.1913 6.71977 48.9355 6.74368 48.169 6.98008C47.5672 7.22788 47.3422 7.4793 46.8652 7.90937C47.1848 7.1537 47.3684 6.74704 47.8999 6.11884Z" fill="#FF2030"/>
<path d="M45.4232 6.05469C45.9106 6.06039 46.1758 6.04521 46.6561 6.15169L46.6043 6.25265C46.4415 6.5748 46.3377 6.79928 46.2586 7.15189C46.1986 7.41942 46.2739 7.71262 46.0765 7.87071C45.6595 7.66772 45.4835 7.47522 45.1035 7.2974L45.4232 6.05469Z" fill="#FF2030"/>
<path d="M47.0684 9.67188C47.6644 10.203 47.941 10.4311 48.268 11.178C48.2191 11.658 48.1426 11.8107 47.897 12.2353L47.0684 9.67188Z" fill="#FF6441"/>
<path d="M48.1689 6.98357C48.9355 6.74718 49.1913 6.72327 49.9562 6.81608L49.7236 7.27493L49.3699 7.46802C49.0119 7.27241 48.9136 7.33518 48.5282 7.41733C48.2469 7.31311 48.3387 7.35138 48.1689 6.98357Z" fill="#2F3448"/>
<path d="M49.3695 7.46653L49.7232 7.27344C49.6327 7.58468 49.5362 7.95567 49.4323 8.25718C48.8741 8.37005 48.2635 8.3103 47.5576 8.43039C48.164 8.09011 48.7852 7.83995 49.3695 7.46653Z" fill="#FF2C49"/>
<path d="M45.8565 11.1976L45.7969 10.8477C46.3224 10.1415 46.3138 10.3606 46.4646 9.39062C46.6361 9.87113 46.9907 10.8107 47.0204 11.3092L46.938 11.2823C46.8692 11.0507 46.7125 10.8535 46.4999 10.7311C46.1448 10.8284 46.1184 10.924 45.8565 11.1976Z" fill="#FF6441"/>
<path d="M44.4851 10.0696C44.8622 9.82786 45.1131 9.74361 45.526 9.57812C45.036 10.2503 44.7583 10.5912 44.5819 11.425C44.4072 10.7939 44.44 10.72 44.4851 10.0696Z" fill="#FF6441"/>
<path d="M38.4219 13.3801C39.0251 12.953 39.4965 12.5796 40.2859 12.7633L40.8392 12.8884C40.936 11.508 40.8335 11.727 41.7088 10.7812C41.9188 11.4232 42.521 13.584 42.8814 13.9382L43.1073 14.0238C43.9142 14.4257 43.8775 15.061 44.0063 15.8716C43.6136 15.4168 42.6602 14.2906 42.1121 14.1513C42.0427 14.2881 42.0524 14.2512 42.0461 14.2982L41.7493 14.3191C42.741 15.718 43.4061 17.6204 43.6402 19.2937C43.1277 19.3155 41.0578 19.3608 40.6906 19.4246C40.2659 18.3715 39.4412 16.4682 39.1526 15.4604C39.097 15.1852 38.5704 13.8627 38.4219 13.3801Z" fill="#FF6F00"/>
<path d="M38.4219 13.3801C39.0251 12.953 39.4965 12.5796 40.2859 12.7633L40.8392 12.8884C40.936 11.508 40.8335 11.727 41.7088 10.7812C41.9188 11.4232 42.521 13.584 42.8814 13.9382L43.1073 14.0238C43.9142 14.4257 43.8775 15.061 44.0063 15.8716C43.6136 15.4168 42.6602 14.2906 42.1121 14.1513C42.0427 14.2881 42.0524 14.2512 42.0461 14.2982L41.7493 14.3191L41.54 14.2319C41.1332 14.5818 41.3885 16.0646 41.4562 16.5908C41.1338 16.7359 40.8505 16.3743 40.7606 16.0965C40.497 15.28 40.4771 14.9435 40.7677 14.1303C40.0958 14.5734 39.7189 14.8797 39.1526 15.4604C39.097 15.1852 38.5704 13.8627 38.4219 13.3801Z" fill="#0E4953"/>
<path d="M40.6905 19.4278C41.0578 19.364 43.1276 19.3187 43.6401 19.2969L43.7183 20.371C41.6449 20.6555 40.8291 21.3025 38.9218 22.0636C38.0802 22.3993 37.3304 22.4337 36.502 22.6174C36.8868 21.4283 37.2446 20.6118 37.8096 19.4941C38.9479 20.0572 39.6503 20.3206 40.6905 19.4278Z" fill="#43DDCB"/>
<path d="M44.2676 19.0625C44.6116 19.1322 45.0213 19.2261 45.3639 19.2698C45.2007 19.6348 45.0349 20.025 44.8644 20.3842C44.6436 20.3154 44.6536 20.312 44.4667 20.1727C44.2779 19.8144 44.2961 19.472 44.2676 19.0625Z" fill="#00FFF3"/>
<path d="M93.9967 9.82238C95.2031 6.58859 98.6191 5.56683 101.847 6.05178C103.337 6.27072 104.606 7.12138 105.491 8.29973C105.604 8.45044 105.714 8.6035 105.821 8.75874C105.118 9.3621 103.574 10.6273 102.81 11.1485C101.387 9.66303 99.8846 9.30051 98.297 10.8288L98.2096 10.9144C97.3725 12.3359 97.5781 14.741 99.1418 15.5986C99.8898 16.0098 100.394 15.9821 101.21 15.941C102.102 15.4156 102.264 15.2637 102.956 14.4951C103.818 15.1815 105.078 16.0954 105.827 16.8321C105.882 17.0428 105.889 16.9933 105.76 17.1905C103.847 20.0881 99.2592 20.6226 96.3974 18.8008C95.9493 18.5163 95.5406 18.1773 95.1808 17.7913C94.7824 17.3038 94.5836 17.1259 94.2931 16.5594C94.0147 16.1684 93.8553 15.706 93.6771 15.2612C93.0019 13.3437 93.0259 11.6419 93.9967 9.82238ZM103.585 10.1716C103.583 9.72697 103.578 9.21584 103.17 8.93807C103.177 9.34272 103.148 9.73562 103.292 10.1064C103.456 10.1614 103.416 10.16 103.585 10.1716Z" fill="#18C2BB"/>
<path d="M93.9971 9.82239C95.2035 6.58859 98.6195 5.56683 101.847 6.05178C103.337 6.27072 104.606 7.12138 105.491 8.29973C105.604 8.45044 105.715 8.6035 105.821 8.75874C105.118 9.3621 103.574 10.6273 102.81 11.1485C101.387 9.66303 99.885 9.30051 98.2974 10.8288L98.21 10.9144C97.9958 10.2629 98.5244 9.4623 99.1131 9.16767C99.9279 8.76001 100.204 8.74549 101.052 8.84225C100.677 8.49232 99.927 7.83231 99.401 7.88342C99.3538 7.92059 98.9982 8.19793 98.9691 8.19424C97.7876 8.04546 96.7817 6.87953 96.2599 8.62465L96.1905 8.69623C95.1503 8.86758 94.7965 9.18672 93.9971 9.82239ZM103.586 10.1716C103.583 9.72697 103.579 9.21584 103.17 8.93808C103.178 9.34272 103.149 9.73562 103.293 10.1064C103.456 10.1614 103.417 10.16 103.586 10.1716Z" fill="#CBF2F4"/>
<path d="M101.847 6.04688C103.337 6.26581 104.606 7.11647 105.491 8.29482C105.604 8.44553 105.715 8.59859 105.821 8.75384C105.118 9.3572 103.574 10.6224 102.81 11.1436C101.387 9.65812 99.8848 9.2956 98.2971 10.8239L98.2097 10.9095C97.9955 10.258 98.5242 9.4574 99.1128 9.16277C99.9276 8.7551 100.204 8.74059 101.052 8.83734C101.586 9.25382 102.5 9.89174 102.965 9.11913C103.707 7.88523 102.807 6.66903 101.847 6.04688ZM103.585 10.1667C103.583 9.72207 103.578 9.21093 103.17 8.93317C103.178 9.33781 103.148 9.73071 103.292 10.1015C103.456 10.1565 103.417 10.1551 103.585 10.1667Z" fill="#FF6F00"/>
<path d="M102.956 14.4922C103.818 15.1786 105.078 16.0925 105.826 16.8293C104.208 16.9686 102.685 16.5439 101.21 15.9381C102.102 15.4128 102.264 15.2609 102.956 14.4922Z" fill="#FF6F00"/>
<path d="M96.2597 8.61891L96.6932 8.57812L96.7729 8.6534C96.2948 9.60644 95.6008 10.8784 95.5091 11.9601L96.1766 11.8955L96.132 12.8127C95.7841 12.686 95.7961 12.6205 95.5305 12.7112L95.4963 12.8983L95.5545 13.3196C95.0096 12.8547 95.0379 11.6379 95.157 10.9951C95.3275 10.0749 95.6925 9.45849 96.1903 8.69049L96.2597 8.61891Z" fill="#04848D"/>
<path d="M95.5094 11.963L96.1768 11.8984L96.1323 12.8156C95.7844 12.6889 95.7964 12.6235 95.5308 12.7141L95.4965 12.9012C95.4263 12.6361 95.488 12.2551 95.5094 11.963Z" fill="#02E6D5"/>
<path d="M93.6777 15.2578C94.0102 15.5154 95.884 16.9621 95.9303 17.135L95.8934 17.2156C95.5987 17.6041 95.6167 17.6175 95.1814 17.7879C94.783 17.3003 94.5842 17.1224 94.2938 16.556C94.0153 16.165 93.856 15.7026 93.6777 15.2578Z" fill="#04848D"/>
<path d="M94.293 16.5573L94.4155 16.5078C94.8773 16.7 95.5079 17.0894 95.8926 17.2169C95.5979 17.6054 95.6159 17.6189 95.1806 17.7892C94.7822 17.3017 94.5834 17.1238 94.293 16.5573Z" fill="#02E6D5"/>
<path d="M95.4961 12.9012L95.5304 12.714C95.796 12.6234 95.784 12.6889 96.1318 12.8156C96.167 13.4777 96.2458 13.8939 96.514 14.5216L96.5362 14.6684L96.4369 14.7314C96.0539 14.5199 95.7351 13.7236 95.5544 13.3224L95.4961 12.9012Z" fill="#00FFF3"/>
<path d="M96.1764 11.8984C96.3435 12.2475 96.9372 13.9997 96.8953 14.3144L96.514 14.5217C96.2458 13.894 96.167 13.4777 96.1318 12.8156L96.1764 11.8984Z" fill="#04848D"/>
<path d="M98.7012 16.4141C99.2367 16.5811 99.8793 17.1567 100.434 17.3825C101.47 17.802 102.535 18.131 103.57 18.5531C101.725 18.6555 99.8467 17.8289 98.7012 16.4141Z" fill="#00FFF3"/>
<path d="M96.5625 14.9141C96.8581 15.0441 97.3927 15.5602 97.5555 15.8615C97.0723 15.6911 96.7861 15.3496 96.5625 14.9141Z" fill="#00FFF3"/>
<path d="M30.1572 13.6436C30.0862 9.81931 30.1675 5.94314 30.1983 2.11833C30.2176 -0.285445 32.9508 0.100233 34.6881 0.101744C34.7686 1.01232 34.8626 2.96178 34.7288 3.83366C34.7358 4.22648 34.768 5.03274 34.731 5.39786C34.7397 7.60921 34.8003 9.79607 34.7865 12.0207L34.7939 13.2945C34.7975 14.3334 34.9165 18.64 34.6432 19.3365C33.9463 19.5463 30.9052 19.5933 30.3 19.3356C30.0707 18.8389 30.1519 17.4736 30.1606 16.8593C30.1572 16.2643 30.1627 15.6694 30.1772 15.0744C30.2027 14.6263 30.171 14.0984 30.1572 13.6436Z" fill="#FF562F"/>
<path d="M34.794 13.2969C34.7976 14.3358 34.9166 18.6423 34.6432 19.3388C33.9463 19.5486 30.9052 19.5956 30.3 19.338C30.0707 18.8412 30.1519 17.4759 30.1607 16.8616C30.1573 16.2667 30.1627 15.6717 30.1772 15.0767C30.5043 15.0104 30.8694 14.9559 31.2015 14.8988C32.6072 14.4876 33.5043 14.0001 34.794 13.2969Z" fill="#43DDCB"/>
<path d="M30.1777 15.0685C30.5047 15.0022 30.8699 14.9477 31.202 14.8906C31.807 15.1373 32.9112 15.0559 33.2735 15.6014C33.0082 16.36 30.9098 16.7443 30.1611 16.8534C30.1577 16.2585 30.1632 15.6635 30.1777 15.0685Z" fill="#02E6D5"/>
<path d="M34.7865 12.0156L34.7939 13.2895C33.5043 13.9927 32.6072 14.4802 31.2015 14.8914C30.8694 14.9485 30.5042 15.003 30.1772 15.0693C30.2027 14.6212 30.171 14.0934 30.1572 13.6386C30.8403 13.5513 31.1828 13.4825 31.7359 13.0772L32.245 12.9588C32.6991 12.6911 32.7929 12.5309 33.3512 12.2783L33.6966 12.28C34.1069 12.2363 34.3946 12.1331 34.7865 12.0156Z" fill="#0E4953"/>
<path d="M32.1381 9.06897C32.1835 8.84726 32.2692 8.66911 32.3535 8.45697C32.7071 8.16175 33.1786 8.60332 33.4224 8.89342C33.228 9.07971 33.1515 9.10421 32.9192 9.24284C32.7818 9.4742 32.8132 9.59068 32.8226 9.85963L32.8268 9.95957L32.5529 10.1814L32.4103 10.2398C32.3421 10.5214 32.3379 10.3869 32.4132 10.6588C33.1426 11.1975 33.6677 11.3284 33.6969 12.2817L33.3515 12.28C32.7933 12.5326 32.6994 12.6929 32.2453 12.9606L31.7362 13.0789C32.3917 11.7967 31.3501 12.2272 31.2027 10.4351L31.0625 10.176C31.3914 9.67325 31.6859 9.43761 32.1381 9.06897Z" fill="#0E4953"/>
<path d="M32.2451 12.9631C32.3578 12.5662 32.3454 11.7992 32.6489 11.6406C32.9544 11.8043 33.2717 11.941 33.3513 12.2826C32.793 12.5352 32.6992 12.6954 32.2451 12.9631Z" fill="#FBCAAA"/>
<path d="M30.7021 5.25008C32.2809 4.63716 33.1869 4.34404 34.7292 3.82812C34.7363 4.22094 34.7685 5.0272 34.7315 5.39232C33.6952 5.21811 31.7907 5.25151 30.7021 5.25008Z" fill="#FE5D52"/>
<path d="M31.0623 10.1797L31.2025 10.4388C30.9907 10.7858 30.9153 11.5377 30.6387 11.7441C30.6842 11.004 30.7268 10.8446 31.0623 10.1797Z" fill="#17211B"/>
<path d="M32.8267 9.96094C33.2979 10.299 33.7208 10.6974 34.0842 11.1452C33.5724 10.8481 33.0018 10.4319 32.5527 10.1827L32.8267 9.96094Z" fill="#26473C"/>
<path d="M50.8757 5.29063C50.8851 4.53522 50.771 1.99256 51.0381 1.51063C51.6211 1.24889 55.1736 1.05429 55.2752 1.59169C55.4634 2.58693 55.492 5.06221 55.3305 6.04478C55.3938 6.45925 55.4959 6.70185 55.3025 7.03063C55.0511 7.13871 55.0653 7.14241 54.7942 7.15827L54.644 7.32341C54.7993 7.58767 54.9228 7.60142 55.1411 7.79141C55.962 8.50587 56.2185 8.7384 56.4063 9.7835C56.5775 9.91063 56.5343 9.84761 56.628 10.021C55.3798 10.9516 55.2176 12.0786 55.3846 13.527L55.5802 14.0137C55.7886 14.5432 55.9527 14.941 56.2032 15.452C56.5256 15.661 56.7762 15.8145 57.1142 15.9975L56.9281 16.6982C56.4982 16.5169 56.6358 16.574 56.1054 16.699C56.0121 17.3511 55.9295 17.821 55.9458 18.4772C55.7949 18.2154 55.7237 18.0794 55.6051 17.8025L55.4806 17.7706C55.3009 18.1231 55.1618 18.4126 55.2482 18.7952C55.3978 19.0252 55.3515 19.1292 55.2222 19.3231C54.5535 19.621 51.7046 19.527 50.92 19.428C50.8452 18.0694 50.8811 16.5564 50.8869 15.1835L50.9112 14.5071C50.8731 13.3885 50.9061 12.1264 50.9126 10.9961C50.8799 10.4493 50.8562 10.0635 50.8843 9.51479C50.9141 7.96218 50.9794 6.84593 50.8757 5.29063Z" fill="#FF752A"/>
<path d="M54.3477 13.0312C54.872 13.0791 54.9114 13.1244 55.2572 13.5339L55.3844 13.5289L55.58 14.0156C55.7884 14.5451 55.9525 14.9429 56.203 15.4539C56.5254 15.6629 56.776 15.8164 57.1141 15.9994L56.9279 16.7001C56.498 16.5188 56.6356 16.5759 56.1052 16.7009C56.0119 17.3529 55.9293 17.8229 55.9456 18.4791C55.7947 18.2173 55.7235 18.0813 55.6049 17.8044L55.4804 17.7725C55.3007 18.125 55.1616 18.4145 55.248 18.7971C55.3976 19.0271 55.3513 19.1311 55.222 19.325C54.5533 19.6229 51.7044 19.5289 50.9198 19.4299C50.845 18.0713 50.881 16.5582 50.8867 15.1854C51.6959 15.2131 52.3032 15.0696 52.8253 15.7065C52.9049 15.354 52.628 14.6685 52.326 14.4469L52.7092 14.1247L52.9285 14.1146C53.3197 14.0827 53.1469 14.0441 53.4736 14.1952C53.6378 14.2061 53.6591 14.1666 53.8378 14.0953L53.9212 14.2774C54.2107 13.8326 54.2378 13.5431 54.3477 13.0312Z" fill="#FF2C49"/>
<path d="M54.348 13.0312C54.8724 13.0791 54.9117 13.1244 55.2575 13.5339L55.3848 13.5289L55.5804 14.0156C55.7887 14.5451 55.9528 14.9429 56.2033 15.4539C56.5258 15.6629 56.7764 15.8164 57.1144 15.9994L56.9282 16.7001C56.4983 16.5188 56.636 16.5759 56.1055 16.7009C56.0123 17.3529 55.9296 17.8229 55.946 18.4791C55.7951 18.2173 55.7239 18.0813 55.6052 17.8044L55.4807 17.7725C55.301 18.125 55.1619 18.4145 55.2483 18.7971C54.8919 18.6402 54.994 18.7627 54.8736 18.4656C54.8923 18.041 55.1449 17.603 55.3306 17.2019C54.9967 16.7546 54.9394 16.518 54.8498 15.9817C54.5436 16.1076 54.3887 16.0808 54.0594 16.0782C53.4912 15.5462 53.6142 14.9068 53.9215 14.2774C54.211 13.8326 54.2382 13.5431 54.348 13.0312Z" fill="#0E4953"/>
<path d="M54.348 13.0312C54.8724 13.0791 54.9117 13.1244 55.2575 13.5339L55.3848 13.5289L55.5804 14.0156C55.2212 14.118 55.1518 14.071 54.9571 14.3001L54.9114 14.5518L54.7087 14.8992L55.0254 15.0058C54.972 15.3322 54.9135 15.6578 54.8498 15.9817C54.5436 16.1076 54.3887 16.0808 54.0594 16.0782C53.4912 15.5462 53.6142 14.9068 53.9215 14.2774C54.211 13.8326 54.2382 13.5431 54.348 13.0312Z" fill="#FF6F00"/>
<path d="M55.3845 13.5312L55.5801 14.018C55.2209 14.1203 55.1515 14.0734 54.9568 14.3024L54.9111 14.5542C54.8305 14.2806 54.7984 14.164 54.7578 13.8837C54.9289 13.6026 54.8771 13.6907 55.2572 13.5363L55.3845 13.5312Z" fill="#0A5050"/>
<path d="M55.0247 15.005C54.7812 15.2878 54.854 15.3684 54.4793 15.6436L54.3525 15.6218C54.3701 15.3147 54.5267 15.1577 54.708 14.8984L55.0247 15.005Z" fill="#26473C"/>
<path d="M56.1056 16.7001C56.0753 16.2428 55.9858 15.8333 56.2035 15.4531C56.5259 15.6621 56.7765 15.8156 57.1145 15.9986L56.9283 16.6993C56.4985 16.518 56.6361 16.5751 56.1056 16.7001Z" fill="#FF562F"/>
<path d="M52.9287 14.1152C53.3199 14.0833 53.1471 14.0447 53.4739 14.1958C53.638 14.2067 53.6593 14.1672 53.838 14.0959L53.9214 14.278C53.614 14.9074 53.4911 15.5468 54.0593 16.0788C54.2432 16.7619 54.2882 18.0811 53.7739 18.6324C53.7418 17.8612 54.0478 17.6808 53.5571 17.0732L53.4038 17.0447C53.137 17.4106 53.2789 17.5222 52.9269 17.998L52.811 17.7437C52.9695 17.1983 52.4572 16.6998 52.8255 15.7071C52.9051 15.3546 52.6282 14.6691 52.3262 14.4475L52.7094 14.1253L52.9287 14.1152Z" fill="#0E4953"/>
<path d="M52.8112 17.7422L52.927 17.9965C52.7811 18.2264 52.6689 18.4823 52.4318 18.5839L52.3672 18.4697C52.4514 18.0972 52.543 18.0426 52.8112 17.7422Z" fill="#1F3B41"/>
<path d="M50.8757 5.29063C50.8851 4.53522 50.771 1.99256 51.0381 1.51063C51.6211 1.24889 55.1736 1.05429 55.2752 1.59169C55.4634 2.58693 55.492 5.06221 55.3305 6.04478C54.6656 6.36409 54.5964 6.10948 53.9456 6.3019C53.9322 6.30593 53.3414 6.63278 53.2591 6.67474L53.2579 6.57681L53.2539 6.41384C53.233 5.04752 52.6984 4.47597 51.4865 3.94092C52.0661 4.9777 52.1118 5.41088 52.4913 6.48643C51.9612 5.7447 51.74 5.5694 50.8757 5.29063Z" fill="#FF2C49"/>
<path d="M51.4867 3.94531C52.6987 4.48036 53.2332 5.05191 53.2541 6.41823L53.2582 6.5812L53.2594 6.67913C53.3416 6.63717 53.9324 6.31032 53.9458 6.30629C54.5967 6.11387 54.6658 6.36848 55.3308 6.04918C55.394 6.46364 55.4961 6.70624 55.3028 7.03502C55.0514 7.14311 55.0655 7.1468 54.7944 7.16266L54.6442 7.32781C54.7996 7.59206 54.923 7.60582 55.1413 7.7958C55.9622 8.51026 56.2187 8.7428 56.4065 9.78789L56.2641 9.7706C55.8151 9.34145 54.1364 8.4026 53.503 8.02959L53.6836 8.27941C54.2972 9.12 54.729 11.3235 53.509 11.6995L53.4027 11.6408C53.3791 11.4108 53.4082 11.2849 53.4402 11.0609C52.9654 10.6001 53.3708 10.1182 53.2363 9.52489C53.2299 9.4967 52.7579 8.49432 52.6967 8.37373L52.5951 8.38641L52.3013 8.27933C52.1287 8.57522 51.971 8.79499 51.7716 9.07552L51.5255 8.86355L50.8845 9.51919C50.9144 7.96657 50.9797 6.85032 50.876 5.29502C51.7402 5.57379 51.9615 5.74909 52.4915 6.49083C52.112 5.41527 52.0663 4.9821 51.4867 3.94531Z" fill="#0E4953"/>
<path d="M51.5254 8.86547C51.7871 8.63781 51.9871 8.43473 52.3011 8.28125C52.1286 8.57714 51.9708 8.79691 51.7715 9.07744L51.5254 8.86547Z" fill="#FBCAAA"/>
<path d="M52.3013 8.28125L52.5951 8.38833C51.8559 9.64648 51.4762 11.2399 51.2623 12.6673C51.2 13.0835 51.0712 14.1887 50.9115 14.5134C50.8733 13.3948 50.9063 12.1327 50.9128 11.0024C50.8801 10.4556 50.8565 10.0698 50.8846 9.52111L51.5255 8.86547L51.7716 9.07744C51.971 8.79691 52.1287 8.57714 52.3013 8.28125Z" fill="#1F3B41"/>
<path d="M50.8846 9.51501L51.5255 8.85938L51.7716 9.07135C51.5985 9.48027 51.1129 10.6794 50.9128 10.9963C50.8801 10.4495 50.8565 10.0637 50.8846 9.51501Z" fill="#FF6F00"/>
<path d="M52.9283 14.1115C52.7793 13.8522 52.6742 13.7406 52.7133 13.4494C52.9007 13.2346 52.7857 13.29 53.0644 13.2656C53.3582 13.4091 53.3407 13.4116 53.4868 13.6827C53.4921 13.8883 53.4935 13.9881 53.4735 14.1921C53.1467 14.041 53.3195 14.0796 52.9283 14.1115Z" fill="#0A5050"/>
<path d="M52.3263 14.4522C51.8181 14.1434 51.4934 12.8334 52.0195 12.6094L52.0778 12.6857C51.937 13.4754 51.8771 13.6164 52.6073 14.0678L52.7095 14.1299L52.3263 14.4522Z" fill="#26473C"/>
<path d="M53.8379 14.1006C54.0605 13.5022 54.047 13.1859 54.2186 12.6094C54.3605 12.7403 54.3175 12.789 54.3478 13.0365C54.2379 13.5484 54.2108 13.8379 53.9213 14.2827L53.8379 14.1006Z" fill="#3C3B28"/>
<path d="M121.467 9.30867C123.434 4.93513 131.035 4.57421 133.143 9.18305C133.303 9.5866 133.478 10.009 133.629 10.4136C133.776 11.0246 133.904 11.4559 133.933 12.0819L133.942 12.2439C134.038 12.7558 134.017 13.6209 133.997 14.1614C132.074 14.1907 130.019 14.1068 128.062 14.106C127.275 14.1798 126.256 14.2209 125.473 14.1186C125.225 14.0439 125.199 14.0548 124.999 13.9012C125.15 13.5891 125.367 13.7653 125.526 13.5043C125.109 13.0369 123.861 13.2131 123.313 12.765C123.173 12.6509 123.213 12.4914 123.19 12.2573L122.916 12.233C122.167 12.2498 121.372 12.2128 120.619 12.191C120.649 11.6657 120.846 10.9314 120.971 10.4009C121.14 9.96985 121.257 9.71969 121.467 9.30867ZM128.545 13.7779C129.061 13.7183 131.033 13.7863 131.255 13.48L130.994 13.3944C130.32 13.4472 129.198 13.4128 128.491 13.4128L128.545 13.7779ZM125.039 11.5642L127.772 11.5658L129.547 11.565C129.138 10.173 128.815 9.3664 127.164 9.24867C125.733 9.53088 125.377 10.2663 125.039 11.5642Z" fill="#FF562F"/>
<path d="M121.466 9.30867C123.433 4.93513 131.035 4.57421 133.142 9.18305C132.431 9.36666 131.737 9.50965 131.081 9.82945C130.732 8.95354 129.97 8.23245 129.099 7.85197C127.99 7.37206 126.731 7.3499 125.606 7.79055C124.48 8.22498 123.846 8.85099 123.281 9.86403C122.697 9.51443 122.126 9.43186 121.466 9.30867Z" fill="#FF4046"/>
<path d="M123.19 12.2565C125.906 12.2019 128.618 12.2741 131.322 12.2397C132.187 12.2389 133.078 12.2263 133.942 12.243C134.038 12.7549 134.017 13.6201 133.997 14.1605C132.074 14.1899 130.019 14.106 128.062 14.1052C127.275 14.179 126.256 14.2201 125.473 14.1177C125.225 14.043 125.199 14.054 124.999 13.9004C125.15 13.5882 125.367 13.7644 125.526 13.5035C125.109 13.0361 123.861 13.2123 123.313 12.7642C123.173 12.65 123.213 12.4906 123.19 12.2565ZM128.545 13.777C129.061 13.7175 131.033 13.7854 131.255 13.4791L130.994 13.3935C130.32 13.4464 129.198 13.412 128.491 13.412L128.545 13.777Z" fill="#00FFF3"/>
<path d="M131.321 12.2397C132.186 12.2389 133.077 12.2263 133.941 12.243C134.038 12.7549 134.016 13.6201 133.997 14.1605C132.073 14.1899 130.018 14.106 128.062 14.1052C128.221 13.9935 128.382 13.8845 128.545 13.777C129.061 13.7175 131.032 13.7854 131.254 13.4791L130.994 13.3935C130.983 13.0805 131.036 13.2098 130.862 12.9798C131.383 12.7902 130.942 12.8699 130.967 12.4436L131.321 12.2397Z" fill="#43DDCB"/>
<path d="M130.862 12.9766C131.037 13.2065 130.984 13.0773 130.994 13.3903C130.32 13.4431 129.198 13.4087 128.49 13.4087L128.581 13.2015C128.939 13.0445 130.391 13.0076 130.862 12.9766Z" fill="#02E6D5"/>
<path d="M131.082 9.82609C131.738 9.50629 132.432 9.3633 133.143 9.17969C133.303 9.58324 133.478 10.0056 133.629 10.4102C133.776 11.0212 133.904 11.4526 133.933 12.0786L133.942 12.2405C133.078 12.2237 132.187 12.2363 131.322 12.2372C128.618 12.2716 125.906 12.1994 123.19 12.254L122.916 12.2296C122.167 12.2464 121.372 12.2095 120.619 12.1877C120.649 11.6623 120.846 10.9281 120.971 10.3976L123.141 10.4017L123.005 12.2313C123.652 12.0761 130.168 12.1591 131.342 12.1566C131.347 11.5767 131.307 10.9675 131.278 10.3856C130.945 10.3562 130.861 10.4071 130.641 10.2397C130.768 9.97068 130.788 10.0235 131.082 9.82609Z" fill="#FF6F00"/>
<path d="M131.081 9.82609C131.737 9.50629 132.431 9.3633 133.142 9.17969C133.303 9.58324 133.478 10.0056 133.628 10.4102C132.843 10.428 132.061 10.4035 131.277 10.3856C130.944 10.3562 130.86 10.4071 130.641 10.2397C130.767 9.97068 130.787 10.0235 131.081 9.82609Z" fill="#FBCAAA"/>
<path d="M121.466 9.30469C122.126 9.42788 122.697 9.51045 123.281 9.86004L124.53 10.3882L123.14 10.401L120.971 10.3969C121.139 9.96586 121.256 9.71571 121.466 9.30469Z" fill="#FBCAAA"/>
<path d="M66.3928 9.3814C68.8329 4.72884 76.4911 4.64786 78.1636 9.36428C78.3795 9.67771 78.4258 9.90755 78.5372 10.264C78.8105 11.0487 78.8319 11.3601 78.9279 12.1875C78.927 12.8319 78.9407 13.5318 78.903 14.1696C76.9067 14.115 74.9095 14.0966 72.9131 14.1142C71.9123 14.1738 70.9167 14.1394 69.9137 14.1326C69.9654 13.8272 69.9126 13.8347 70.0916 13.635L70.5695 13.4974C70.5579 13.4403 70.4992 13.317 70.4735 13.2566C69.8226 12.7917 69.2981 12.9528 68.4449 12.8949C68.2044 12.7447 68.1723 12.5324 68.0381 12.2361C67.1731 12.2437 66.4733 12.2345 65.6055 12.1891C65.699 11.5698 65.7719 10.9178 65.9867 10.3314C66.0866 10.0251 66.257 9.67938 66.3928 9.3814ZM73.3424 13.4705L73.3766 13.7114C73.9267 13.7282 75.9008 13.7433 76.3078 13.5117L76.1767 13.4705C75.3199 13.3774 74.2052 13.4152 73.3424 13.4705ZM70.0045 11.5799L72.764 11.5665L74.4502 11.5799C74.1341 9.9767 73.6028 9.31695 71.8901 9.24814C70.5644 9.76984 70.3196 10.1903 70.0045 11.5799Z" fill="#FF562F"/>
<path d="M66.3936 9.3814C68.8337 4.72884 76.4919 4.64786 78.1644 9.36428C77.1859 9.40011 76.9109 9.37502 76.0249 9.80996C74.3336 6.67208 69.5876 6.72495 68.2457 9.87936C67.8338 9.46733 66.9569 9.41505 66.3936 9.3814Z" fill="#FF4E55"/>
<path d="M78.9278 12.1875C78.927 12.832 78.9407 13.5318 78.903 14.1696C76.9066 14.1151 74.9094 14.0966 72.9131 14.1142C71.9123 14.1738 70.9167 14.1394 69.9136 14.1327C69.9654 13.8272 69.9126 13.8348 70.0916 13.6351L70.5694 13.4974C70.5579 13.4404 70.4992 13.317 70.4735 13.2566C69.8226 12.7917 69.2981 12.9528 68.4449 12.8949C68.2044 12.7447 68.1723 12.5324 68.0381 12.2362L68.2611 12.2051C70.6213 12.185 73.1641 12.2874 75.4741 12.2278L76.294 12.2076L76.5973 12.2051L78.9278 12.1875ZM73.3423 13.4706L73.3766 13.7114C73.9267 13.7282 75.9007 13.7433 76.3077 13.5117L76.1766 13.4706C75.3198 13.3774 74.2051 13.4152 73.3423 13.4706Z" fill="#00FFF3"/>
<path d="M78.9279 12.1875C78.927 12.832 78.9407 13.5318 78.903 14.1696C76.9067 14.1151 74.9094 14.0966 72.9131 14.1142C73.1256 13.9741 73.201 13.8868 73.3766 13.7114C73.9267 13.7282 75.9008 13.7433 76.3078 13.5117L76.1767 13.4706C76.1552 13.2776 76.1458 13.2574 76.0824 13.072L75.8237 12.9721L76.1835 12.8664L76.2264 12.8278C76.2701 12.4107 76.2426 12.3797 76.5974 12.2051L78.9279 12.1875Z" fill="#43DDCB"/>
<path d="M73.3428 13.4672L73.455 13.2784C73.8423 12.999 75.2526 13.004 75.8241 12.9688L76.0828 13.0686C76.1462 13.2541 76.1557 13.2742 76.1771 13.4672C75.3203 13.3741 74.2056 13.4118 73.3428 13.4672Z" fill="#02E6D5"/>
<path d="M78.1639 9.35938C78.3798 9.6728 78.4261 9.90265 78.5375 10.2591C78.8108 11.0438 78.8322 11.3551 78.9282 12.1826L76.5977 12.2002L76.2943 12.2027C76.2721 11.6027 76.2643 10.991 76.2515 10.3897C75.9088 10.3947 75.6252 10.4693 75.4238 10.1802C75.5558 9.9462 75.7606 9.90969 76.0245 9.80505C76.9104 9.37011 77.1854 9.39521 78.1639 9.35938Z" fill="#FF6F00"/>
<path d="M78.1639 9.35938C78.3798 9.6728 78.4261 9.90265 78.5375 10.2591C78.2581 10.5089 76.7527 10.3996 76.2515 10.3897C75.9088 10.3947 75.6252 10.4693 75.4238 10.1802C75.5558 9.9462 75.7606 9.90969 76.0245 9.80505C76.9104 9.37011 77.1854 9.39521 78.1639 9.35938Z" fill="#FBCAAA"/>
<path d="M65.9867 10.3281C66.4053 10.4512 67.4708 10.3788 67.9707 10.397C67.9472 10.8449 67.8137 11.8384 68.0952 12.1548L68.2611 12.2018L68.0381 12.2329C67.1731 12.2404 66.4733 12.2312 65.6055 12.1859C65.699 11.5666 65.7719 10.9145 65.9867 10.3281Z" fill="#FF6F00"/>
<path d="M66.3934 9.38281C66.9568 9.41646 67.8337 9.46874 68.2456 9.88077C68.7134 10.0705 69.1443 10.2226 69.6205 10.3883L67.9713 10.4017C67.4715 10.3835 66.4059 10.4559 65.9873 10.3328C66.0872 10.0265 66.2576 9.6808 66.3934 9.38281Z" fill="#FBCAAA"/>
<path d="M106.66 5.29671C106.623 0.834724 105.782 1.33797 110.451 1.28913C110.671 1.28678 110.839 1.34275 111.016 1.45176C111.326 2.1721 111.189 5.25048 111.153 6.20133C111.17 6.5526 111.201 6.96841 111.06 7.30206C110.591 7.18667 110.205 7.22066 109.722 7.22779C111.349 7.81654 112.033 8.20223 112.291 9.94995L112.317 10.0665C111.679 10.5588 111.432 10.8045 111.309 11.6059C111.249 11.9936 111.262 13.223 111.164 13.4865C111.158 14.6554 111.184 16.077 111.123 17.2233C111.117 17.611 111.094 17.9777 111.07 18.3637C111.047 18.1472 111.023 17.9668 110.99 17.7528C110.871 18.0784 110.89 18.1883 110.883 18.5433C111.011 18.769 111.035 18.8227 111.125 19.0669C111.104 19.2868 111.129 19.312 110.986 19.4722C110.481 19.5578 107.139 19.6115 106.765 19.3556C106.52 18.6339 106.56 16.0543 106.646 15.258L106.681 14.7243C106.654 13.5947 106.643 12.4636 106.649 11.3332C106.583 10.9329 106.644 9.87677 106.659 9.41901L106.654 7.71811C106.648 7.36407 106.627 7.08337 106.695 6.73193C106.875 6.75937 106.968 6.80175 107.139 6.86619L107.114 6.70927L106.736 6.47548C106.625 6.20183 106.66 5.61819 106.66 5.29671Z" fill="#FF6F00"/>
<path d="M106.66 5.29671C106.623 0.834724 105.782 1.33797 110.451 1.28913C110.671 1.28678 110.839 1.34275 111.016 1.45176C111.326 2.1721 111.189 5.25047 111.153 6.20133C110.262 6.19042 109.808 6.13982 109.08 6.70382L109.003 6.51249C108.789 6.5166 108.575 6.51685 108.36 6.51333L108.353 6.61184L108.246 6.38636C107.723 5.75758 107.427 5.56029 106.66 5.29671Z" fill="#FF2C49"/>
<path d="M107.302 3.95312C108.749 4.56798 109.14 5.13634 109.08 6.70716L109.003 6.51584C108.789 6.51995 108.575 6.5202 108.361 6.51668L108.354 6.61519L108.247 6.38971C108.029 5.423 107.849 4.80647 107.302 3.95312Z" fill="#0E4953"/>
<path d="M108.715 15.4516C108.309 14.3506 107.288 14.1576 107.683 12.6094L107.8 12.6732C107.919 13.154 107.935 14.5109 108.74 14.2206L108.87 13.9403L108.997 14.046L109.21 14.0057C109.254 14.0166 109.38 14.0519 109.42 14.0511L109.806 14.0829C109.213 14.8566 109.544 15.6706 109.947 16.4729C110.042 16.2622 110.082 16.1045 110.273 15.9778C110.444 16.0264 110.579 16.0734 110.746 16.133C110.837 16.6038 110.866 16.8077 111.123 17.218C111.117 17.6057 111.094 17.9724 111.07 18.3585C111.048 18.142 111.024 17.9615 110.99 17.7476C110.871 18.0732 110.89 18.1831 110.883 18.538C111.012 18.7638 111.036 18.8175 111.126 19.0617C111.104 19.2815 111.129 19.3067 110.986 19.467C110.481 19.5526 107.139 19.6063 106.765 19.3504C106.52 18.6287 106.561 16.0491 106.646 15.2527C107.16 15.267 108.512 15.4911 108.715 15.4516Z" fill="#FF2C49"/>
<path d="M108.715 15.4594C108.309 14.3585 107.288 14.1654 107.683 12.6172L107.799 12.681C107.919 13.1618 107.935 14.5187 108.739 14.2284L108.87 13.9481L108.996 14.0538L109.21 14.0135C109.254 14.0245 109.38 14.0597 109.42 14.0589L109.806 14.0908C109.213 14.8645 109.544 15.6784 109.947 16.4807C109.961 17.5288 109.987 18.0256 109.798 19.0636C109.641 18.5341 109.639 17.5783 109.457 16.7912C108.996 17.7638 108.734 18.2303 107.95 18.9713C108.198 18.4426 108.414 18.0868 108.716 17.5875C108.465 16.4463 108.562 16.5361 108.715 15.4594Z" fill="#1F3B41"/>
<path d="M106.66 5.29688C107.428 5.56046 107.723 5.75775 108.247 6.38653L108.354 6.61201L108.361 6.51349C108.575 6.51702 108.789 6.51677 109.003 6.51265L109.081 6.70398C109.809 6.13998 110.262 6.19058 111.153 6.20149C111.17 6.55277 111.201 6.96857 111.061 7.30222C110.592 7.18684 110.206 7.22082 109.722 7.22795C111.349 7.81671 112.033 8.20239 112.291 9.95011C110.996 8.74885 110.857 8.93321 109.382 8.06527C109.931 8.92364 110.79 11.4819 109.219 11.6841L109.17 11.549C109.38 10.8685 109.122 9.64037 108.781 9.02644C108.611 8.71956 108.612 8.78812 108.54 8.39246L108.421 8.32641C108.202 8.38742 108.151 8.39598 107.95 8.49702L107.616 8.56499C107.448 8.83495 106.932 9.20267 106.659 9.41917L106.654 7.71828C106.648 7.36424 106.628 7.08353 106.695 6.73209C106.875 6.75953 106.969 6.80191 107.14 6.86636L107.114 6.70944L106.736 6.47564C106.626 6.20199 106.66 5.61836 106.66 5.29688Z" fill="#0E4953"/>
<path d="M106.653 7.72177C106.871 7.74753 106.969 7.75131 107.185 7.71875C107.524 7.90236 107.579 8.18381 107.616 8.56848C107.448 8.83844 106.931 9.20616 106.658 9.42267L106.653 7.72177Z" fill="#0E4953"/>
<path d="M107.949 8.49873C108.15 8.39769 108.201 8.38913 108.42 8.32812C107.437 10.6993 107.094 12.2196 106.681 14.7261C106.654 13.5966 106.643 12.4654 106.649 11.3351C106.583 10.9348 106.644 9.87865 106.659 9.42088C106.931 9.20438 107.448 8.83666 107.616 8.5667L107.949 8.49873Z" fill="#1F3B41"/>
<path d="M107.616 8.56797L107.949 8.5C107.431 9.1313 107.134 10.5039 106.649 11.3364C106.583 10.9361 106.644 9.87992 106.659 9.42215C106.931 9.20565 107.448 8.83793 107.616 8.56797Z" fill="#FF752A"/>
<path d="M110.649 14.6978C110.642 14.1255 110.537 13.6849 111.164 13.4844C111.158 14.6533 111.183 16.0749 111.122 17.2212C110.865 16.8108 110.836 16.6069 110.745 16.1361L110.711 15.7249C110.598 15.6326 110.531 15.5823 110.409 15.4967L110.294 15.417C110.294 15.1358 110.47 14.9705 110.649 14.6978Z" fill="#0E4953"/>
<path d="M109.42 14.0526L109.502 13.9746C110.412 13.0843 109.734 13.07 110 12.5312L110.16 12.5472C110.383 12.9869 110.057 13.6985 109.806 14.0845L109.42 14.0526Z" fill="#17211B"/>
<path d="M108.869 13.9441C108.784 13.6487 108.69 13.4775 108.81 13.2031C109.112 13.2661 109.157 13.7503 109.21 14.0096L108.996 14.0498L108.869 13.9441Z" fill="#26473C"/>
<path d="M20.1584 8.02109C20.9971 6.8513 21.5503 6.27589 23.078 5.91538C25.2301 5.40761 28.0826 6.82696 28.3586 9.1235L28.5063 10.0104C28.6342 11.2251 28.5275 12.6575 28.5866 13.8995L28.2139 13.9415C27.8004 13.9524 27.6826 13.9507 27.2772 13.8802C26.2784 13.8173 25.0069 13.9003 23.9834 13.9331C23.9603 13.0125 24.0843 11.1857 23.4305 10.4979C22.8409 9.87749 21.3818 9.73449 20.7914 10.4361C20.0672 11.2696 20.208 12.8749 20.2112 13.9314C19.1671 13.8978 17.8847 13.9398 16.8226 13.9473C16.4453 13.9784 16.0595 14.0136 15.6822 14.0329C15.5854 12.4855 15.6724 10.0503 15.6772 8.44646L15.6565 8.38982C15.6391 8.07438 15.6643 7.7341 15.677 7.41589C15.6664 7.00965 15.6202 6.67256 15.7564 6.29444C16.1673 6.01038 19.4513 6.13013 20.1225 6.13482C20.1388 6.72836 20.1761 7.43762 20.1584 8.02109Z" fill="#FE5D0C"/>
<path d="M16.8227 13.952C16.2961 11.3732 18.6735 8.47039 21.3944 8.38983C23.604 8.32446 24.3529 8.70208 25.9943 10.1009L26.3062 9.98247C26.8432 10.0791 27.9195 10.0264 28.5064 10.015C28.6343 11.2297 28.5276 12.6622 28.5867 13.9041L28.2139 13.9461C27.8005 13.957 27.6827 13.9553 27.2773 13.8848C26.2785 13.8219 25.007 13.905 23.9835 13.9377C23.9604 13.0171 24.0844 11.1903 23.4306 10.5025C22.841 9.88211 21.3818 9.73912 20.7915 10.4407C20.0673 11.2742 20.2081 12.8795 20.2113 13.936C19.1672 13.9024 17.8848 13.9444 16.8227 13.952Z" fill="#FF562F"/>
<path d="M25.9941 10.1028L26.3061 9.98438C26.8431 10.081 27.9194 10.0283 28.5062 10.0169C28.6341 11.2316 28.5275 12.6641 28.5866 13.906L28.2138 13.948C27.8004 13.9589 27.6826 13.9572 27.2771 13.8867C27.3015 12.435 26.9204 11.2341 25.9941 10.1028Z" fill="#FF6F00"/>
<path d="M15.6779 7.42188C16.0023 7.53659 16.1506 7.51519 16.2667 7.73656L16.1937 7.88753L16.3321 8.0197C16.7771 7.65802 17.2487 7.93838 17.7928 7.96901C18.0456 7.98319 18.1979 8.09405 18.3324 8.28714C18.0475 8.57807 16.1585 8.46185 15.678 8.45245L15.6573 8.39581C15.6399 8.08037 15.6651 7.74008 15.6779 7.42188Z" fill="#FBCAAA"/>
<path d="M15.6779 7.42188C16.0023 7.53659 16.1506 7.51519 16.2667 7.73656L16.1937 7.88753C16.1413 8.07248 16.1341 8.14297 16.148 8.33446C15.9496 8.37021 15.8582 8.38339 15.6573 8.39581C15.6399 8.08037 15.6651 7.74008 15.6779 7.42188Z" fill="#FF9771"/>
<path d="M28.359 9.125L28.5068 10.0119C27.9199 10.0232 26.8436 10.0759 26.3066 9.97935C26.6737 9.71435 27.745 9.48861 28.359 9.125Z" fill="#FBCAAA"/>
<path d="M139.978 10.6797L140.679 10.9366C141.813 11.1791 143.25 11.5517 144.221 12.2129C145.988 13.0235 146.446 15.8263 145.55 17.367C143.423 21.03 136.866 20.1044 134.145 17.743C134.707 16.7368 135.259 15.8683 135.883 14.8966C136.687 15.3136 137.536 15.7793 138.401 16.0445C139.259 16.3374 141.086 16.9147 141.587 15.8549C141.555 15.0023 140.553 14.8596 139.847 14.6742L139.208 14.503C139.274 14.263 139.25 14.2319 139.442 14.0842L139.907 13.5111L140.434 12.5477L140.127 12.2926L140.076 12.1827C139.891 11.5752 139.751 11.2873 139.978 10.6797Z" fill="#43DDCB"/>
<path d="M139.977 10.6797L140.678 10.9366C140.821 11.6255 141.279 11.8219 141.877 12.2356C142.236 12.8373 142.481 13.1058 142.504 13.7905L142.47 13.8468C142.326 13.5564 142.189 13.0168 142.021 12.8222C141.925 13.1452 141.951 13.5195 141.879 13.7998C141.792 14.1371 141.386 14.6431 141.191 14.9855C142.009 14.7421 145.102 13.6504 145.497 14.8001C145.126 16.3651 137.567 18.6073 136.654 17.7623C136.609 16.9777 137.78 16.4096 138.401 16.0445C139.258 16.3374 141.086 16.9147 141.586 15.8549C141.555 15.0023 140.553 14.8596 139.846 14.6742L139.208 14.503C139.274 14.263 139.25 14.2319 139.442 14.0842L139.906 13.5111L140.434 12.5477L140.126 12.2926L140.076 12.1827C139.891 11.5752 139.751 11.2873 139.977 10.6797Z" fill="#0E4953"/>
<path d="M140.434 12.5469C140.752 12.7785 140.829 12.8616 141.102 13.1485C140.928 13.3172 140.515 13.7427 140.336 13.8551C140.066 14.2126 140.008 14.2688 139.846 14.6733L139.208 14.5021C139.274 14.2621 139.25 14.2311 139.442 14.0834L139.906 13.5102L140.434 12.5469Z" fill="#00FFF3"/>
<path d="M140.679 10.9375C141.813 11.18 143.25 11.5526 144.221 12.2139C143.654 12.2835 142.479 12.2651 141.877 12.2365C141.28 11.8228 140.822 11.6265 140.679 10.9375Z" fill="#FF6F00"/>
<path d="M136.254 7.17615C138.971 5.26454 142.74 5.43287 145.4 7.4576C145.65 7.64767 144.291 10.0089 144.123 10.3232C143.108 9.90661 139.925 8.34728 139.084 9.51111C139.002 9.82873 139.012 9.81581 139.077 10.118C139.299 10.3898 139.642 10.5747 139.977 10.6798C139.751 11.2874 139.891 11.5753 140.076 12.1828L140.126 12.2928L140.434 12.5479L139.906 13.5112L139.442 14.0844C139.25 14.2321 139.274 14.2631 139.208 14.5031C137.764 14.0701 136.173 13.5532 135.296 12.2617C134.591 10.9551 134.494 9.45287 135.379 8.19799C135.638 7.73201 135.856 7.5265 136.254 7.17615Z" fill="#FF5038"/>
<path d="M135.296 12.2664C136.7 12.2672 138.703 12.3167 140.076 12.1875L140.127 12.2974L140.434 12.5525L139.906 13.5159L139.442 14.089C139.25 14.2367 139.274 14.2678 139.208 14.5078C137.764 14.0748 136.173 13.5579 135.296 12.2664Z" fill="#43DDCB"/>
<path d="M140.126 12.2969L140.434 12.552L139.906 13.5153L139.442 14.0885C139.433 13.8359 139.974 12.7391 140.126 12.2969Z" fill="#1F3B41"/>
<path d="M136.254 7.17188C137.403 7.37311 138.491 7.58784 139.564 8.05576C138.854 8.18851 135.938 8.46342 135.379 8.19372C135.639 7.72773 135.856 7.52222 136.254 7.17188Z" fill="#FE5D52"/>
<path d="M143.753 6.71875C144.167 6.86451 144.622 6.96412 144.849 7.32689L144.779 7.47676C144.436 7.62739 144.289 7.59542 143.9 7.59324C143.546 7.58677 143.035 7.61724 142.735 7.47517L142.717 7.34502C143.015 7.02404 143.335 6.94113 143.753 6.71875Z" fill="#FF9771"/>
<path d="M120.619 12.1875C121.372 12.2093 122.167 12.2462 122.916 12.2295L123.19 12.2538C123.213 12.4879 123.173 12.6474 123.313 12.7615C123.861 13.2096 125.109 13.0334 125.526 13.5008C125.367 13.7618 125.15 13.5855 124.999 13.8977C125.199 14.0513 125.225 14.0404 125.473 14.115C124.448 14.0672 123.792 14.0672 122.77 14.1503C123.509 14.3441 124.238 14.3366 124.997 14.3366C126.275 17.136 128.86 16.6971 130.934 15.0088C131.698 15.5676 132.824 16.4479 133.501 17.0781C133.301 17.3223 133.087 17.5858 132.868 17.8166C130.316 20.5011 125.337 20.4935 122.698 17.9425C121 16.3011 120.627 14.4239 120.619 12.1875Z" fill="#43DDCB"/>
<path d="M65.6063 12.1875C66.4742 12.2328 67.1739 12.242 68.039 12.2345C68.1731 12.5307 68.2053 12.743 68.4458 12.8932C69.299 12.9511 69.8234 12.79 70.4743 13.2549C70.5001 13.3153 70.5587 13.4387 70.5703 13.4957C69.8573 13.3724 69.0143 13.4286 68.2931 13.4848C68.6675 13.6191 69.6635 13.6225 70.0925 13.6334C69.9135 13.8331 69.9663 13.8255 69.9145 14.131C69.6515 14.0907 68.4703 14.0655 68.3147 14.2233C68.9387 14.3257 69.3086 14.2955 69.9402 14.2737C69.9535 14.3047 69.9667 14.3366 69.98 14.3685L70.0469 14.5204C70.7969 16.2499 72.4958 16.7215 74.2454 16.0971C74.9197 15.8563 75.3567 15.4661 75.9033 15.0281C76.7079 15.6289 77.6435 16.4211 78.4369 17.0639C74.6747 22.3951 64.9669 19.7911 65.6063 12.1875Z" fill="#43DDCB"/>
<path d="M60.1016 11.1797C60.6314 11.2804 61.169 11.5565 61.665 11.7797L61.8321 11.8082C62.5584 12.0868 64.2133 12.6012 64.9702 12.4795C64.9681 13.693 64.8361 15.4124 64.16 16.4765C63.7529 17.2619 63.5517 17.7184 62.8463 18.2907L62.6137 18.5291L62.2682 18.832C60.3361 19.959 57.5838 20.267 55.9454 18.4804C55.9291 17.8242 56.0118 17.3542 56.105 16.7022C56.6354 16.5772 56.4978 16.5201 56.9277 16.7014L56.9749 16.9993L57.5986 16.9724L57.78 17.1721C57.9212 17.11 58.0674 17.1193 58.2608 17.0773C58.3468 16.6636 58.2802 16.1727 58.4293 15.853L59.0577 16.025C59.1905 15.7816 59.2084 15.4905 59.2515 15.2119C59.5176 14.4616 59.5951 14.1914 60.1671 13.5982C60.2984 12.6247 60.2641 12.1439 60.1016 11.1797Z" fill="#FF6F00"/>
<path d="M60.1671 13.5938C60.6916 14.4807 59.8641 14.0419 60.4234 15.0581L60.6276 15.2049L60.6734 15.3812C61.0455 15.5247 61.3069 15.4231 61.7096 15.5045L61.7193 15.554C61.9797 16.0458 61.573 16.4696 61.3859 16.9705C61.4296 17.2399 61.4782 17.6125 61.5483 17.8684C61.6812 18.2779 61.7004 18.4919 62.0349 18.7663L62.2682 18.8276C60.3361 19.9546 57.5838 20.2626 55.9454 18.476C55.9291 17.8198 56.0118 17.3498 56.105 16.6978C56.6354 16.5728 56.4978 16.5157 56.9277 16.697L56.9749 16.9949L57.5986 16.968L57.78 17.1677C57.9212 17.1056 58.0674 17.1149 58.2608 17.0729C58.3468 16.6592 58.2802 16.1683 58.4293 15.8486L59.0577 16.0206C59.1905 15.7772 59.2084 15.4861 59.2515 15.2075C59.5176 14.4572 59.5951 14.187 60.1671 13.5938Z" fill="#FF2C49"/>
<path d="M60.1675 13.5938C60.6921 14.4807 59.8646 14.0419 60.4238 15.0581L60.628 15.2049L60.6738 15.3812C61.0459 15.5247 61.3073 15.4231 61.71 15.5045L61.7197 15.554C61.9801 16.0458 61.5734 16.4696 61.3863 16.9705C60.9041 16.6122 60.7489 16.5778 60.1891 16.3881L60.1058 16.1305L60.0258 15.5112C59.9202 15.4877 59.3776 15.2578 59.252 15.2075C59.518 14.4572 59.5955 14.187 60.1675 13.5938Z" fill="#FF6F00"/>
<path d="M60.1675 13.5938C60.6921 14.4807 59.8646 14.0419 60.4238 15.0581L60.628 15.2049L60.6738 15.3812C61.0459 15.5247 61.3073 15.4231 61.71 15.5045L61.7197 15.554C61.1221 15.7185 60.6476 15.5968 60.0258 15.5112C59.9202 15.4877 59.3776 15.2578 59.252 15.2075C59.518 14.4572 59.5955 14.187 60.1675 13.5938Z" fill="#0E4953"/>
<path d="M59.252 15.2109C59.3777 15.2613 59.9202 15.4912 60.0259 15.5147L60.1058 16.134L59.9679 16.4797C59.741 16.5377 59.6611 16.489 59.4685 16.5956L59.3875 16.6325L58.9854 16.4982L59.0582 16.0241C59.191 15.7807 59.2089 15.4895 59.252 15.2109Z" fill="#0E4953"/>
<path d="M60.106 16.1328L60.1894 16.3904C60.0133 16.8327 59.9941 17.1239 59.9519 17.5913C60.1404 17.8397 60.3645 18.078 60.4181 18.3734C60.1417 18.2718 59.953 18.0016 59.7336 17.7683C59.6931 17.4268 59.679 16.8226 59.4688 16.5944C59.6614 16.4878 59.7412 16.5364 59.9681 16.4785L60.106 16.1328Z" fill="#1F3B41"/>
<path d="M59.2287 19.1467C58.8631 17.9752 58.7244 17.6883 58.9847 16.5L59.3868 16.6343C59.1097 17.46 59.2027 18.2782 59.2287 19.1467Z" fill="#1F3B41"/>
<path d="M56.9756 16.9956L57.5993 16.9688C57.3713 17.6342 57.6747 18.1637 57.4509 18.5783L57.3128 18.5749C57.1748 18.1318 57.0004 17.4487 56.9756 16.9956Z" fill="#1F3B41"/>
<path d="M57.5986 16.9688L57.78 17.1685C57.8406 17.5771 57.915 18.2023 57.9986 18.5908L57.4502 18.5783C57.674 18.1637 57.3705 17.6342 57.5986 16.9688Z" fill="#FF2030"/>
<path d="M57.7803 17.173C57.9215 17.1109 58.0676 17.1201 58.261 17.0781C58.2402 17.4314 58.2521 18.4703 58.0494 18.6608L57.9988 18.5953C57.9153 18.2068 57.8409 17.5816 57.7803 17.173Z" fill="#1F3B41"/>
<path d="M61.7094 15.5095C61.8228 14.5696 62.4065 14.2986 61.8681 13.6793C61.8389 13.3193 61.8014 13.4787 61.9466 13.1766C62.3303 13.0214 62.6243 13.1791 62.7738 13.5459L62.6963 13.6793C62.6069 13.8362 62.5962 13.8547 62.5715 14.0376C63.2668 14.7308 64.0008 14.9196 62.8479 15.7226C62.7571 15.9929 62.876 16.1607 62.9778 16.4804C63.5227 16.3948 63.6106 16.4032 64.1598 16.477C63.7528 17.2625 63.5515 17.719 62.8462 18.2913L62.6135 18.5296L62.2681 18.8326L62.0347 18.7713C61.7003 18.4969 61.6811 18.2829 61.5481 17.8734C61.478 17.6175 61.4294 17.2449 61.3857 16.9755C61.5728 16.4745 61.9795 16.0508 61.7191 15.559L61.7094 15.5095Z" fill="#0E4953"/>
<path d="M62.9783 16.4834C63.5233 16.3978 63.6112 16.4062 64.1604 16.48C63.7533 17.2655 63.552 17.722 62.8467 18.2943L62.6141 18.5326C62.5141 18.1625 62.4086 17.7933 62.2979 17.4257L62.6116 17.0548C62.7597 16.8677 62.8561 16.6873 62.9783 16.4834Z" fill="#FF4440"/>
<path d="M62.2979 17.4178L62.6116 17.0469C62.6518 17.5512 62.6752 17.7879 62.8467 18.2863L62.6141 18.5246C62.5141 18.1546 62.4086 17.7853 62.2979 17.4178Z" fill="#1F3B41"/>
<path d="M61.8761 17.6501C61.865 17.4135 61.8351 17.301 61.9499 17.0938L62.0871 17.1164L62.298 17.4269C62.4088 17.7944 62.5143 18.1637 62.6143 18.5338L62.2688 18.8367L62.0354 18.7754C61.701 18.501 61.6818 18.287 61.5488 17.8775L61.8761 17.6501Z" fill="#FF2030"/>
<path d="M61.8761 17.6484C61.9585 18.0663 62.0206 18.3416 62.0354 18.7737C61.701 18.4993 61.6818 18.2854 61.5488 17.8758L61.8761 17.6484Z" fill="#1F3B41"/>
<path d="M60.1016 11.1797C60.6314 11.2804 61.169 11.5565 61.665 11.7797C61.4382 12.5744 60.8901 14.3895 60.4234 15.0625C59.8641 14.0463 60.6916 14.4851 60.1671 13.5982C60.2984 12.6247 60.2641 12.1439 60.1016 11.1797Z" fill="#FF752A"/>
<path d="M61.6654 11.7812L61.8326 11.8098C61.6019 12.6196 61.0715 14.5496 60.628 15.2109L60.4238 15.064C60.8905 14.391 61.4386 12.5759 61.6654 11.7812Z" fill="#3C3B28"/>
<path d="M54.7938 7.16407C55.2054 7.39089 56.1287 8.02051 56.4422 7.49226C56.1644 7.2719 56.1826 7.35783 56.1298 7.08963C56.392 6.58076 56.9993 6.27162 57.5306 6.09086C59.1666 5.534 61.5474 5.95853 62.7189 7.26519C62.9858 7.54538 63.1607 7.73528 63.3952 8.04065C64.1509 8.71374 64.7691 10.5069 64.7998 11.4886C64.9415 11.9317 64.9507 12.0164 64.9701 12.4822C64.2132 12.6038 62.5584 12.0894 61.8321 11.8108L61.6649 11.7823C61.1689 11.5591 60.6314 11.283 60.1015 11.1823C59.5534 10.8861 58.9324 10.9163 58.6817 10.4206C58.8221 10.099 58.8321 10.1697 59.1703 9.92776C57.7628 9.56717 57.9079 9.627 56.6276 10.0268C56.5338 9.85341 56.577 9.91643 56.4058 9.7893C56.218 8.74421 55.9616 8.51167 55.1407 7.79721C54.9224 7.60723 54.7989 7.59347 54.6436 7.32921L54.7938 7.16407Z" fill="#FF562F"/>
<path d="M59.1703 9.92243C61.6858 9.0017 63.1441 9.39191 64.7998 11.4833C64.9415 11.9263 64.9506 12.0111 64.9701 12.4768C64.2132 12.5985 62.5584 12.0841 61.832 11.8055L61.6649 11.777C61.1689 11.5538 60.6313 11.2777 60.1015 11.177C59.5534 10.8807 58.9323 10.911 58.6816 10.4153C58.8221 10.0937 58.832 10.1644 59.1703 9.92243Z" fill="#0E4953"/>
<path d="M61.8646 6.89844L62.7196 7.26499C62.9865 7.54518 63.1615 7.73508 63.396 8.04045C63.1321 8.14409 59.9225 8.04431 59.46 8.00479C60.5601 7.51363 60.7648 7.62742 61.8646 6.89844Z" fill="#FE5D52"/>
<path d="M114.651 10.5938C115.525 10.8195 116.44 11.3993 117.428 11.6947L117.636 11.8089C118.067 11.8508 119.141 12.22 119.619 12.3551L119.611 15.9896C119.586 20.5722 120.054 19.3764 115.279 19.514C115.214 19.4981 115.15 19.4821 115.086 19.4662C114.968 18.549 115.004 17.8391 115.04 16.9269C115.051 16.2052 115.03 14.8911 115.17 14.2366C115.207 13.6559 114.883 11.2005 114.651 10.5938Z" fill="#FF2030"/>
<path d="M114.651 10.5938C115.525 10.8195 116.44 11.3993 117.428 11.6947L117.636 11.8089C118.067 11.8508 119.141 12.22 119.619 12.3551L119.611 15.9896C119.337 15.7756 119.231 15.8603 119.05 15.5809C119.239 15.2704 119.323 15.1957 119.315 14.8525C119.168 14.4967 118.859 14.3826 118.506 14.2173C118.422 13.8002 118.675 13.6508 118.49 13.2069C118.283 13.0131 118.295 13.0298 118.011 12.9736L117.864 13.0189C117.707 13.3143 117.712 13.4779 117.81 13.817C117.954 14.3062 117.601 15.0984 117.379 15.5742L117.636 15.695C117.689 16.1012 117.422 16.3882 117.255 16.8094C116.964 16.2967 116.538 15.9585 115.948 15.8368C115.981 15.6891 116.039 15.5398 116.089 15.3954L116.202 15.3442L116.438 15.6186L116.62 15.6178C116.628 15.4147 116.58 15.2964 116.526 15.0975L116.284 15.0614L116.158 14.9364C116.183 14.4724 116.283 13.9697 115.938 13.5971L115.756 13.6735C115.548 14.01 115.528 14.0645 115.17 14.2366C115.207 13.6559 114.883 11.2005 114.651 10.5938Z" fill="#FF6F00"/>
<path d="M114.651 10.5938C115.525 10.8195 116.44 11.3993 117.428 11.6947L117.636 11.8089C117.505 12.6178 116.85 14.3314 116.526 15.0975L116.284 15.0614L116.158 14.9364C116.183 14.4724 116.283 13.9697 115.938 13.5971L115.756 13.6735C115.548 14.01 115.528 14.0645 115.17 14.2366C115.207 13.6559 114.883 11.2005 114.651 10.5938Z" fill="#FF6F00"/>
<path d="M117.428 11.6953L117.635 11.8094C117.504 12.6184 116.85 14.332 116.526 15.0981L116.283 15.062C116.685 14.4931 117.344 12.4262 117.428 11.6953Z" fill="#281F17"/>
<path d="M117.379 15.5693C117.601 15.0935 117.953 14.3013 117.81 13.8121C117.712 13.4731 117.707 13.3095 117.863 13.0141L118.011 12.9688C118.294 13.025 118.283 13.0082 118.49 13.202C118.675 13.646 118.422 13.7953 118.506 14.2124C118.859 14.3777 119.167 14.4918 119.315 14.8476C119.322 15.1908 119.239 15.2655 119.05 15.576L118.957 15.5232L118.996 15.2295L118.874 15.1027L118.757 15.143C118.618 16.0938 118.796 16.4202 118.341 17.2711C118.49 17.8451 118.604 18.2571 118.675 18.8454L118.598 18.733C118.294 18.2832 117.924 17.3274 117.761 17.1881C117.636 17.6722 117.888 18.0516 117.755 18.5458L117.638 18.6037C117.291 18.2647 117.198 17.2762 117.255 16.8046C117.422 16.3833 117.689 16.0963 117.635 15.6902L117.379 15.5693Z" fill="#0E4953"/>
<path d="M115.169 14.2332C115.527 14.0612 115.548 14.0066 115.755 13.6701L115.938 13.5938C116.282 13.9663 116.183 14.469 116.158 14.933L116.283 15.0581L116.526 15.0942C116.58 15.2931 116.628 15.4114 116.62 15.6144L116.437 15.6153L116.202 15.3409L116.089 15.3921C116.038 15.5364 115.981 15.6858 115.947 15.8335C116.42 16.7473 115.383 16.8807 115.901 17.7493C116.018 17.9448 116.123 18.2326 116.203 18.4508L116.15 18.5238C115.887 18.2771 115.656 17.8735 115.498 17.5521C115.518 17.26 115.575 17.0385 115.365 16.8463L115.039 16.9235C115.05 16.2019 115.03 14.8877 115.169 14.2332Z" fill="#0E4953"/>
<path d="M115.039 16.9288L115.365 16.8516C115.575 17.0437 115.518 17.2653 115.499 17.5573C115.26 17.8275 115.227 18.9461 115.086 19.4681C114.968 18.5509 115.003 17.8409 115.039 16.9288Z" fill="#FF2C49"/>
<path d="M111.06 7.30472L111.173 7.35977C111.587 7.19278 111.793 7.17179 112.23 7.10273C112.493 6.70472 112.096 7.03384 112.379 6.56416C112.942 6.20214 113.584 5.9728 114.252 5.89417C115.81 5.69705 116.885 6.07963 118.08 7.01151C118.347 7.36791 118.582 7.68217 118.826 8.05744C119.296 8.73003 119.502 9.45104 119.558 10.2597C119.659 10.8559 119.623 11.7328 119.619 12.358C119.141 12.2229 118.067 11.8536 117.635 11.8117L117.428 11.6976C116.44 11.4022 115.525 10.8223 114.651 10.5966L114.393 10.3308C113.57 9.9829 113.184 9.88438 112.317 10.0692L112.29 9.95261C112.032 8.20489 111.349 7.81921 109.722 7.23045C110.205 7.22332 110.591 7.18933 111.06 7.30472Z" fill="#FF573D"/>
<path d="M114.394 10.3271C116.1 9.07751 117.84 9.1866 119.558 10.256C119.659 10.8522 119.624 11.7291 119.619 12.3543C119.141 12.2192 118.068 11.8499 117.636 11.808L117.428 11.6938C116.44 11.3985 115.525 10.8186 114.651 10.5929L114.394 10.3271Z" fill="#0E4953"/>
<path d="M118.08 7.00781C118.347 7.3642 118.582 7.67847 118.826 8.05374C117.855 8.10703 116.306 8.07699 115.341 8.02152C115.904 7.7649 117.504 7.18865 118.08 7.00781Z" fill="#FF9771"/>
<path d="M35.8388 6.87171C35.7107 6.61627 35.6391 6.5347 35.6738 6.25216C35.983 6.02827 39.5509 6.13333 40.1993 6.13829C40.5583 6.97182 41.5174 9.86853 41.7087 10.7811C40.8334 11.7268 40.9358 11.5078 40.839 12.8882L40.2858 12.7632C39.4963 12.5794 39.0249 12.9529 38.4217 13.38C37.7953 12.3579 36.7995 9.60285 36.3603 8.39546C36.1785 7.8902 36.0047 7.38226 35.8388 6.87171Z" fill="#FF562F"/>
<path d="M35.8389 6.86625C36.3858 6.75481 39.1964 8.03092 39.8808 8.32773C38.8038 8.32866 37.4062 8.29668 36.3604 8.39C36.1786 7.88474 36.0047 7.37679 35.8389 6.86625Z" fill="#FE5D52"/>
<path d="M27.2773 13.8823C27.6828 13.9528 27.8006 13.9545 28.214 13.9436L28.5868 13.9016C28.5841 15.0043 28.5904 16.1061 28.6055 17.2087C28.6221 17.9052 28.736 18.8375 28.3857 19.4124C27.7971 19.4871 24.6958 19.5408 24.1694 19.4266C23.9855 19.2118 24.0018 19.1329 23.9736 18.856C24.0106 18.0781 23.9885 17.0854 23.9918 16.2899L23.9816 15.8703L23.9927 15.5573L23.9836 13.9352C25.007 13.9024 26.2785 13.8194 27.2773 13.8823Z" fill="#02E6D5"/>
<path d="M23.9736 18.8582C24.6215 18.6711 26.0544 18.4772 26.4941 18.1139C26.4283 17.7933 26.235 17.9989 26.0624 17.6784C26.4073 17.4249 28.0879 17.2739 28.6055 17.2109C28.6221 17.9074 28.736 18.8397 28.3857 19.4146C27.7971 19.4893 24.6958 19.543 24.1694 19.4288C23.9855 19.214 24.0018 19.1351 23.9736 18.8582Z" fill="#43DDCB"/>
<path d="M27.2771 13.8823C27.6826 13.9528 27.8004 13.9545 28.2138 13.9436C27.8815 14.025 27.7461 14.0585 27.4311 14.1878C26.4989 14.5704 25.1083 14.5276 24.2356 14.9237C25.2655 14.9044 26.3099 14.844 27.3226 15.0303C26.0638 15.4775 25.2669 15.3693 23.9925 15.5573L23.9834 13.9352C25.0069 13.9024 26.2784 13.8194 27.2771 13.8823Z" fill="#00FFF3"/>
<path d="M23.9814 15.875C24.9484 15.9388 25.5523 15.9472 26.4695 16.2661L23.9916 16.2946L23.9814 15.875Z" fill="#CBF2F4"/>
<path d="M16.8232 13.9507C17.8853 13.9431 19.1676 13.9012 20.2118 13.9347C20.2165 14.669 20.232 15.4276 20.2226 16.1602L20.2096 16.3238L20.2264 17.1688C20.2349 17.7411 20.3033 18.8774 20.125 19.3893C19.744 19.62 16.1585 19.6251 15.7967 19.3062C15.5525 18.6567 15.6658 16.5487 15.6812 15.723L15.6611 15.587L15.6896 14.0833L15.6828 14.0363C16.0601 14.017 16.4458 13.9817 16.8232 13.9507Z" fill="#02E6D5"/>
<path d="M16.8232 13.9507C17.8853 13.9431 19.1677 13.9012 20.2118 13.9347C20.2165 14.669 20.232 15.4276 20.2227 16.1602C18.9785 15.8547 17.0873 15.9848 15.6813 15.723L15.6611 15.587L15.6897 14.0833L15.6828 14.0363C16.0601 14.017 16.4459 13.9817 16.8232 13.9507Z" fill="#43DDCB"/>
<path d="M15.6897 14.0781C16.42 14.1377 17.5488 14.3928 18.3218 14.5304C17.7123 14.6294 16.8679 14.7427 16.2904 14.8988C17.2099 15.0306 18.421 14.9987 19.1935 15.1757C17.9902 15.4283 16.637 15.3419 15.6611 15.5819L15.6897 14.0781Z" fill="#02E6D5"/>
<path d="M20.209 16.3203L20.2257 17.1653C19.8383 17.146 18.1656 17.1209 17.9932 16.8414C18.4039 16.5704 19.7005 16.4026 20.209 16.3203Z" fill="#00FFF3"/>
<path d="M57.1141 16.0032C57.685 14.6765 56.5761 14.1268 56.7368 12.5324C57.0191 13.0258 56.7402 13.8247 57.4839 14.1637C57.7381 14.2376 57.6192 14.2485 57.8518 14.1923C59.1088 13.9682 58.5767 12.9898 58.8397 12.5156L58.9843 12.5383C59.303 13.1702 58.5763 14.2426 58.1699 14.7352C58.1805 15.1363 58.1521 15.4342 58.3129 15.7993L58.4296 15.8555C58.2804 16.1752 58.3471 16.6661 58.2611 17.0798C58.0677 17.1218 57.9215 17.1126 57.7803 17.1746L57.5989 16.9749L56.9752 17.0018L56.928 16.7039L57.1141 16.0032Z" fill="#0E4953"/>
<path d="M57.4839 14.16C57.4319 13.7723 57.3924 13.8856 57.536 13.5684C57.7953 13.4031 57.6587 13.4366 57.9557 13.4484C58.1368 13.6464 58.0925 13.5331 58.0883 13.8025C57.9662 13.9603 57.8754 14.0207 57.8519 14.1885C57.6192 14.2448 57.7382 14.2338 57.4839 14.16Z" fill="#0E4953"/>
<path d="M70.0923 13.6333C69.6634 13.6224 68.6674 13.6191 68.293 13.4848C69.0142 13.4286 69.8572 13.3723 70.5702 13.4957L70.0923 13.6333Z" fill="#70E6D8" fill-opacity="0.0980392"/>
</g>
<path d="M0.76 36V29H1.91V36H0.76ZM1.55 36V34.95H5.47V36H1.55ZM1.55 32.93V31.92H5.13V32.93H1.55ZM1.55 30.05V29H5.42V30.05H1.55ZM9.99844 36V33.23C9.99844 32.91 9.8951 32.6467 9.68844 32.44C9.48844 32.2333 9.22844 32.13 8.90844 32.13C8.6951 32.13 8.5051 32.1767 8.33844 32.27C8.17177 32.3633 8.04177 32.4933 7.94844 32.66C7.8551 32.8267 7.80844 33.0167 7.80844 33.23L7.37844 32.99C7.37844 32.6233 7.45844 32.3 7.61844 32.02C7.77844 31.7333 7.99844 31.51 8.27844 31.35C8.5651 31.1833 8.8851 31.1 9.23844 31.1C9.59844 31.1 9.91844 31.1933 10.1984 31.38C10.4784 31.56 10.6984 31.7967 10.8584 32.09C11.0184 32.3767 11.0984 32.6767 11.0984 32.99V36H9.99844ZM6.70844 36V31.2H7.80844V36H6.70844ZM14.4262 36.1C13.9929 36.1 13.5996 35.99 13.2462 35.77C12.8996 35.55 12.6229 35.2533 12.4162 34.88C12.2162 34.5 12.1162 34.0767 12.1162 33.61C12.1162 33.1367 12.2162 32.7133 12.4162 32.34C12.6229 31.96 12.8996 31.66 13.2462 31.44C13.5996 31.2133 13.9929 31.1 14.4262 31.1C14.7929 31.1 15.1162 31.18 15.3962 31.34C15.6829 31.4933 15.9096 31.7067 16.0762 31.98C16.2429 32.2533 16.3262 32.5633 16.3262 32.91V34.29C16.3262 34.6367 16.2429 34.9467 16.0762 35.22C15.9162 35.4933 15.6929 35.71 15.4062 35.87C15.1196 36.0233 14.7929 36.1 14.4262 36.1ZM14.6062 35.06C14.8796 35.06 15.1162 35 15.3162 34.88C15.5229 34.7533 15.6829 34.58 15.7962 34.36C15.9096 34.14 15.9662 33.8867 15.9662 33.6C15.9662 33.3133 15.9096 33.06 15.7962 32.84C15.6829 32.62 15.5229 32.45 15.3162 32.33C15.1162 32.2033 14.8829 32.14 14.6162 32.14C14.3429 32.14 14.1029 32.2033 13.8962 32.33C13.6962 32.45 13.5362 32.62 13.4162 32.84C13.3029 33.06 13.2462 33.3133 13.2462 33.6C13.2462 33.8867 13.3029 34.14 13.4162 34.36C13.5362 34.58 13.6962 34.7533 13.8962 34.88C14.1029 35 14.3396 35.06 14.6062 35.06ZM16.9963 36H15.8962V34.71L16.0862 33.54L15.8962 32.38V28.8H16.9963V36ZM18.417 36V28.8H19.517V36H18.417ZM23.1712 36.1C22.6912 36.1 22.2579 35.9933 21.8712 35.78C21.4912 35.56 21.1879 35.26 20.9612 34.88C20.7412 34.5 20.6312 34.0733 20.6312 33.6C20.6312 33.1267 20.7412 32.7033 20.9612 32.33C21.1812 31.95 21.4779 31.65 21.8512 31.43C22.2312 31.21 22.6512 31.1 23.1112 31.1C23.5579 31.1 23.9512 31.2033 24.2912 31.41C24.6379 31.6167 24.9079 31.9 25.1012 32.26C25.3012 32.62 25.4012 33.03 25.4012 33.49C25.4012 33.57 25.3946 33.6533 25.3812 33.74C25.3746 33.82 25.3612 33.91 25.3412 34.01H21.4012V33.11H24.7712L24.3612 33.47C24.3479 33.1767 24.2912 32.93 24.1912 32.73C24.0912 32.53 23.9479 32.3767 23.7612 32.27C23.5812 32.1633 23.3579 32.11 23.0912 32.11C22.8112 32.11 22.5679 32.17 22.3612 32.29C22.1546 32.41 21.9946 32.58 21.8812 32.8C21.7679 33.0133 21.7112 33.27 21.7112 33.57C21.7112 33.87 21.7712 34.1333 21.8912 34.36C22.0112 34.5867 22.1812 34.7633 22.4012 34.89C22.6212 35.01 22.8746 35.07 23.1612 35.07C23.4079 35.07 23.6346 35.0267 23.8412 34.94C24.0546 34.8533 24.2346 34.7267 24.3812 34.56L25.0812 35.27C24.8479 35.5433 24.5646 35.75 24.2312 35.89C23.8979 36.03 23.5446 36.1 23.1712 36.1ZM28.053 36.1C27.7864 36.1 27.5297 36.0667 27.283 36C27.0364 35.9267 26.8097 35.8267 26.603 35.7C26.3964 35.5667 26.2164 35.4067 26.063 35.22L26.763 34.52C26.9297 34.7133 27.1197 34.86 27.333 34.96C27.553 35.0533 27.7997 35.1 28.073 35.1C28.3197 35.1 28.5064 35.0633 28.633 34.99C28.7597 34.9167 28.823 34.81 28.823 34.67C28.823 34.5233 28.763 34.41 28.643 34.33C28.523 34.25 28.3664 34.1833 28.173 34.13C27.9864 34.07 27.7864 34.01 27.573 33.95C27.3664 33.89 27.1664 33.81 26.973 33.71C26.7864 33.6033 26.633 33.46 26.513 33.28C26.393 33.1 26.333 32.8667 26.333 32.58C26.333 32.2733 26.403 32.01 26.543 31.79C26.6897 31.57 26.893 31.4 27.153 31.28C27.4197 31.16 27.7364 31.1 28.103 31.1C28.4897 31.1 28.8297 31.17 29.123 31.31C29.423 31.4433 29.673 31.6467 29.873 31.92L29.173 32.62C29.033 32.4467 28.873 32.3167 28.693 32.23C28.513 32.1433 28.3064 32.1 28.073 32.1C27.853 32.1 27.683 32.1333 27.563 32.2C27.443 32.2667 27.383 32.3633 27.383 32.49C27.383 32.6233 27.443 32.7267 27.563 32.8C27.683 32.8733 27.8364 32.9367 28.023 32.99C28.2164 33.0433 28.4164 33.1033 28.623 33.17C28.8364 33.23 29.0364 33.3167 29.223 33.43C29.4164 33.5367 29.573 33.6833 29.693 33.87C29.813 34.05 29.873 34.2867 29.873 34.58C29.873 35.0467 29.7097 35.4167 29.383 35.69C29.0564 35.9633 28.613 36.1 28.053 36.1ZM32.5499 36.1C32.2833 36.1 32.0266 36.0667 31.7799 36C31.5333 35.9267 31.3066 35.8267 31.0999 35.7C30.8933 35.5667 30.7133 35.4067 30.5599 35.22L31.2599 34.52C31.4266 34.7133 31.6166 34.86 31.8299 34.96C32.0499 35.0533 32.2966 35.1 32.5699 35.1C32.8166 35.1 33.0033 35.0633 33.1299 34.99C33.2566 34.9167 33.3199 34.81 33.3199 34.67C33.3199 34.5233 33.2599 34.41 33.1399 34.33C33.0199 34.25 32.8633 34.1833 32.6699 34.13C32.4833 34.07 32.2833 34.01 32.0699 33.95C31.8633 33.89 31.6633 33.81 31.4699 33.71C31.2833 33.6033 31.1299 33.46 31.0099 33.28C30.8899 33.1 30.8299 32.8667 30.8299 32.58C30.8299 32.2733 30.8999 32.01 31.0399 31.79C31.1866 31.57 31.3899 31.4 31.6499 31.28C31.9166 31.16 32.2333 31.1 32.5999 31.1C32.9866 31.1 33.3266 31.17 33.6199 31.31C33.9199 31.4433 34.1699 31.6467 34.3699 31.92L33.6699 32.62C33.5299 32.4467 33.3699 32.3167 33.1899 32.23C33.0099 32.1433 32.8033 32.1 32.5699 32.1C32.3499 32.1 32.1799 32.1333 32.0599 32.2C31.9399 32.2667 31.8799 32.3633 31.8799 32.49C31.8799 32.6233 31.9399 32.7267 32.0599 32.8C32.1799 32.8733 32.3333 32.9367 32.5199 32.99C32.7133 33.0433 32.9133 33.1033 33.1199 33.17C33.3333 33.23 33.5333 33.3167 33.7199 33.43C33.9133 33.5367 34.0699 33.6833 34.1899 33.87C34.3099 34.05 34.3699 34.2867 34.3699 34.58C34.3699 35.0467 34.2066 35.4167 33.8799 35.69C33.5533 35.9633 33.1099 36.1 32.5499 36.1ZM38.6187 36V35H40.6287C40.9821 35 41.2554 34.89 41.4487 34.67C41.6421 34.45 41.7387 34.1967 41.7387 33.91C41.7387 33.7167 41.6954 33.5367 41.6087 33.37C41.5221 33.2033 41.3954 33.07 41.2287 32.97C41.0621 32.87 40.8621 32.82 40.6287 32.82H38.6187V31.82H40.4587C40.7587 31.82 40.9987 31.7433 41.1787 31.59C41.3587 31.4367 41.4487 31.21 41.4487 30.91C41.4487 30.61 41.3587 30.3833 41.1787 30.23C40.9987 30.0767 40.7587 30 40.4587 30H38.6187V29H40.4887C40.9621 29 41.3554 29.0867 41.6687 29.26C41.9821 29.4333 42.2154 29.6567 42.3687 29.93C42.5221 30.2033 42.5987 30.4967 42.5987 30.81C42.5987 31.1767 42.4954 31.5 42.2887 31.78C42.0887 32.06 41.7921 32.2867 41.3987 32.46L41.4887 32.1C41.9287 32.28 42.2721 32.5333 42.5187 32.86C42.7654 33.1867 42.8887 33.57 42.8887 34.01C42.8887 34.37 42.7987 34.7 42.6187 35C42.4454 35.3 42.1854 35.5433 41.8387 35.73C41.4987 35.91 41.0787 36 40.5787 36H38.6187ZM37.8287 36V29H38.9787V36H37.8287ZM46.3295 36.1C45.8495 36.1 45.4161 35.9933 45.0295 35.78C44.6495 35.56 44.3461 35.26 44.1195 34.88C43.8995 34.5 43.7895 34.0733 43.7895 33.6C43.7895 33.1267 43.8995 32.7033 44.1195 32.33C44.3395 31.95 44.6361 31.65 45.0095 31.43C45.3895 31.21 45.8095 31.1 46.2695 31.1C46.7161 31.1 47.1095 31.2033 47.4495 31.41C47.7961 31.6167 48.0661 31.9 48.2595 32.26C48.4595 32.62 48.5595 33.03 48.5595 33.49C48.5595 33.57 48.5528 33.6533 48.5395 33.74C48.5328 33.82 48.5195 33.91 48.4995 34.01H44.5595V33.11H47.9295L47.5195 33.47C47.5061 33.1767 47.4495 32.93 47.3495 32.73C47.2495 32.53 47.1061 32.3767 46.9195 32.27C46.7395 32.1633 46.5161 32.11 46.2495 32.11C45.9695 32.11 45.7261 32.17 45.5195 32.29C45.3128 32.41 45.1528 32.58 45.0395 32.8C44.9261 33.0133 44.8695 33.27 44.8695 33.57C44.8695 33.87 44.9295 34.1333 45.0495 34.36C45.1695 34.5867 45.3395 34.7633 45.5595 34.89C45.7795 35.01 46.0328 35.07 46.3195 35.07C46.5661 35.07 46.7928 35.0267 46.9995 34.94C47.2128 34.8533 47.3928 34.7267 47.5395 34.56L48.2395 35.27C48.0061 35.5433 47.7228 35.75 47.3895 35.89C47.0561 36.03 46.7028 36.1 46.3295 36.1ZM51.6513 36.1C51.2179 36.1 50.8246 35.99 50.4713 35.77C50.1246 35.55 49.8479 35.2533 49.6413 34.88C49.4413 34.5 49.3413 34.0767 49.3413 33.61C49.3413 33.1367 49.4413 32.7133 49.6413 32.34C49.8479 31.96 50.1246 31.66 50.4713 31.44C50.8246 31.2133 51.2179 31.1 51.6513 31.1C52.0179 31.1 52.3413 31.18 52.6213 31.34C52.9079 31.4933 53.1346 31.7067 53.3013 31.98C53.4679 32.2533 53.5513 32.5633 53.5513 32.91V34.29C53.5513 34.6367 53.4679 34.9467 53.3013 35.22C53.1413 35.4933 52.9179 35.71 52.6313 35.87C52.3446 36.0233 52.0179 36.1 51.6513 36.1ZM51.8313 35.06C52.2379 35.06 52.5646 34.9233 52.8113 34.65C53.0646 34.3767 53.1913 34.0267 53.1913 33.6C53.1913 33.3133 53.1346 33.06 53.0213 32.84C52.9079 32.62 52.7479 32.45 52.5413 32.33C52.3413 32.2033 52.1046 32.14 51.8313 32.14C51.5646 32.14 51.3279 32.2033 51.1213 32.33C50.9213 32.45 50.7613 32.62 50.6413 32.84C50.5279 33.06 50.4713 33.3133 50.4713 33.6C50.4713 33.8867 50.5279 34.14 50.6413 34.36C50.7613 34.58 50.9213 34.7533 51.1213 34.88C51.3279 35 51.5646 35.06 51.8313 35.06ZM53.1213 36V34.71L53.3113 33.54L53.1213 32.38V31.2H54.2213V36H53.1213ZM57.852 36.1C57.3787 36.1 56.9487 35.99 56.562 35.77C56.182 35.55 55.882 35.25 55.662 34.87C55.442 34.49 55.332 34.0667 55.332 33.6C55.332 33.1267 55.442 32.7033 55.662 32.33C55.882 31.95 56.182 31.65 56.562 31.43C56.9487 31.21 57.3787 31.1 57.852 31.1C58.2254 31.1 58.572 31.1733 58.892 31.32C59.2187 31.46 59.4954 31.6633 59.722 31.93L59.002 32.66C58.862 32.4933 58.692 32.37 58.492 32.29C58.2987 32.2033 58.0854 32.16 57.852 32.16C57.5787 32.16 57.3354 32.2233 57.122 32.35C56.9154 32.47 56.752 32.6367 56.632 32.85C56.5187 33.0633 56.462 33.3133 56.462 33.6C56.462 33.88 56.5187 34.13 56.632 34.35C56.752 34.5633 56.9154 34.7333 57.122 34.86C57.3354 34.98 57.5787 35.04 57.852 35.04C58.0854 35.04 58.2987 35 58.492 34.92C58.692 34.8333 58.862 34.7067 59.002 34.54L59.722 35.27C59.4954 35.5367 59.2187 35.7433 58.892 35.89C58.572 36.03 58.2254 36.1 57.852 36.1ZM64.0051 36V33.23C64.0051 32.91 63.9017 32.6467 63.6951 32.44C63.4951 32.2333 63.2351 32.13 62.9151 32.13C62.7017 32.13 62.5117 32.1767 62.3451 32.27C62.1784 32.3633 62.0484 32.4933 61.9551 32.66C61.8617 32.8267 61.8151 33.0167 61.8151 33.23L61.3851 32.99C61.3851 32.6233 61.4651 32.3 61.6251 32.02C61.7851 31.7333 62.0051 31.51 62.2851 31.35C62.5717 31.1833 62.8917 31.1 63.2451 31.1C63.6051 31.1 63.9251 31.18 64.2051 31.34C64.4851 31.5 64.7051 31.7233 64.8651 32.01C65.0251 32.29 65.1051 32.6167 65.1051 32.99V36H64.0051ZM60.7151 36V28.8H61.8151V36H60.7151ZM68.6529 36.1C68.1729 36.1 67.7396 35.9933 67.3529 35.78C66.9729 35.56 66.6696 35.26 66.4429 34.88C66.2229 34.5 66.1129 34.0733 66.1129 33.6C66.1129 33.1267 66.2229 32.7033 66.4429 32.33C66.6629 31.95 66.9596 31.65 67.3329 31.43C67.7129 31.21 68.1329 31.1 68.5929 31.1C69.0396 31.1 69.4329 31.2033 69.7729 31.41C70.1196 31.6167 70.3896 31.9 70.5829 32.26C70.7829 32.62 70.8829 33.03 70.8829 33.49C70.8829 33.57 70.8762 33.6533 70.8629 33.74C70.8562 33.82 70.8429 33.91 70.8229 34.01H66.8829V33.11H70.2529L69.8429 33.47C69.8296 33.1767 69.7729 32.93 69.6729 32.73C69.5729 32.53 69.4296 32.3767 69.2429 32.27C69.0629 32.1633 68.8396 32.11 68.5729 32.11C68.2929 32.11 68.0496 32.17 67.8429 32.29C67.6362 32.41 67.4762 32.58 67.3629 32.8C67.2496 33.0133 67.1929 33.27 67.1929 33.57C67.1929 33.87 67.2529 34.1333 67.3729 34.36C67.4929 34.5867 67.6629 34.7633 67.8829 34.89C68.1029 35.01 68.3562 35.07 68.6429 35.07C68.8896 35.07 69.1162 35.0267 69.3229 34.94C69.5362 34.8533 69.7162 34.7267 69.8629 34.56L70.5629 35.27C70.3296 35.5433 70.0462 35.75 69.7129 35.89C69.3796 36.03 69.0262 36.1 68.6529 36.1ZM73.5347 36.1C73.268 36.1 73.0114 36.0667 72.7647 36C72.518 35.9267 72.2914 35.8267 72.0847 35.7C71.878 35.5667 71.698 35.4067 71.5447 35.22L72.2447 34.52C72.4114 34.7133 72.6014 34.86 72.8147 34.96C73.0347 35.0533 73.2814 35.1 73.5547 35.1C73.8014 35.1 73.988 35.0633 74.1147 34.99C74.2414 34.9167 74.3047 34.81 74.3047 34.67C74.3047 34.5233 74.2447 34.41 74.1247 34.33C74.0047 34.25 73.848 34.1833 73.6547 34.13C73.468 34.07 73.268 34.01 73.0547 33.95C72.848 33.89 72.648 33.81 72.4547 33.71C72.268 33.6033 72.1147 33.46 71.9947 33.28C71.8747 33.1 71.8147 32.8667 71.8147 32.58C71.8147 32.2733 71.8847 32.01 72.0247 31.79C72.1714 31.57 72.3747 31.4 72.6347 31.28C72.9014 31.16 73.218 31.1 73.5847 31.1C73.9714 31.1 74.3114 31.17 74.6047 31.31C74.9047 31.4433 75.1547 31.6467 75.3547 31.92L74.6547 32.62C74.5147 32.4467 74.3547 32.3167 74.1747 32.23C73.9947 32.1433 73.788 32.1 73.5547 32.1C73.3347 32.1 73.1647 32.1333 73.0447 32.2C72.9247 32.2667 72.8647 32.3633 72.8647 32.49C72.8647 32.6233 72.9247 32.7267 73.0447 32.8C73.1647 32.8733 73.318 32.9367 73.5047 32.99C73.698 33.0433 73.898 33.1033 74.1047 33.17C74.318 33.23 74.518 33.3167 74.7047 33.43C74.898 33.5367 75.0547 33.6833 75.1747 33.87C75.2947 34.05 75.3547 34.2867 75.3547 34.58C75.3547 35.0467 75.1914 35.4167 74.8647 35.69C74.538 35.9633 74.0947 36.1 73.5347 36.1ZM77.3016 36.1C77.0882 36.1 76.9116 36.03 76.7716 35.89C76.6382 35.7433 76.5716 35.5667 76.5716 35.36C76.5716 35.1467 76.6382 34.97 76.7716 34.83C76.9116 34.69 77.0882 34.62 77.3016 34.62C77.5149 34.62 77.6882 34.69 77.8216 34.83C77.9616 34.97 78.0316 35.1467 78.0316 35.36C78.0316 35.5667 77.9616 35.7433 77.8216 35.89C77.6882 36.03 77.5149 36.1 77.3016 36.1ZM81.9139 36V29H83.0639V36H81.9139ZM82.7039 36V34.95H86.6239V36H82.7039ZM82.7039 32.93V31.92H86.2839V32.93H82.7039ZM82.7039 30.05V29H86.5739V30.05H82.7039ZM91.1523 36V33.23C91.1523 32.91 91.049 32.6467 90.8423 32.44C90.6423 32.2333 90.3823 32.13 90.0623 32.13C89.849 32.13 89.659 32.1767 89.4923 32.27C89.3257 32.3633 89.1957 32.4933 89.1023 32.66C89.009 32.8267 88.9623 33.0167 88.9623 33.23L88.5323 32.99C88.5323 32.6233 88.6123 32.3 88.7723 32.02C88.9323 31.7333 89.1523 31.51 89.4323 31.35C89.719 31.1833 90.039 31.1 90.3923 31.1C90.7523 31.1 91.0723 31.1933 91.3523 31.38C91.6323 31.56 91.8523 31.7967 92.0123 32.09C92.1723 32.3767 92.2523 32.6767 92.2523 32.99V36H91.1523ZM87.8623 36V31.2H88.9623V36H87.8623ZM95.5802 36.1C95.1468 36.1 94.7535 35.99 94.4002 35.77C94.0535 35.55 93.7768 35.2533 93.5702 34.88C93.3702 34.5 93.2702 34.0767 93.2702 33.61C93.2702 33.1367 93.3702 32.7133 93.5702 32.34C93.7768 31.96 94.0535 31.66 94.4002 31.44C94.7535 31.2133 95.1468 31.1 95.5802 31.1C95.9468 31.1 96.2702 31.18 96.5502 31.34C96.8368 31.4933 97.0635 31.7067 97.2302 31.98C97.3968 32.2533 97.4802 32.5633 97.4802 32.91V34.29C97.4802 34.6367 97.3968 34.9467 97.2302 35.22C97.0702 35.4933 96.8468 35.71 96.5602 35.87C96.2735 36.0233 95.9468 36.1 95.5802 36.1ZM95.7602 35.06C96.0335 35.06 96.2702 35 96.4702 34.88C96.6768 34.7533 96.8368 34.58 96.9502 34.36C97.0635 34.14 97.1202 33.8867 97.1202 33.6C97.1202 33.3133 97.0635 33.06 96.9502 32.84C96.8368 32.62 96.6768 32.45 96.4702 32.33C96.2702 32.2033 96.0368 32.14 95.7702 32.14C95.4968 32.14 95.2568 32.2033 95.0502 32.33C94.8502 32.45 94.6902 32.62 94.5702 32.84C94.4568 33.06 94.4002 33.3133 94.4002 33.6C94.4002 33.8867 94.4568 34.14 94.5702 34.36C94.6902 34.58 94.8502 34.7533 95.0502 34.88C95.2568 35 95.4935 35.06 95.7602 35.06ZM98.1502 36H97.0502V34.71L97.2402 33.54L97.0502 32.38V28.8H98.1502V36ZM99.5709 36V28.8H100.671V36H99.5709ZM104.325 36.1C103.845 36.1 103.412 35.9933 103.025 35.78C102.645 35.56 102.342 35.26 102.115 34.88C101.895 34.5 101.785 34.0733 101.785 33.6C101.785 33.1267 101.895 32.7033 102.115 32.33C102.335 31.95 102.632 31.65 103.005 31.43C103.385 31.21 103.805 31.1 104.265 31.1C104.712 31.1 105.105 31.2033 105.445 31.41C105.792 31.6167 106.062 31.9 106.255 32.26C106.455 32.62 106.555 33.03 106.555 33.49C106.555 33.57 106.548 33.6533 106.535 33.74C106.528 33.82 106.515 33.91 106.495 34.01H102.555V33.11H105.925L105.515 33.47C105.502 33.1767 105.445 32.93 105.345 32.73C105.245 32.53 105.102 32.3767 104.915 32.27C104.735 32.1633 104.512 32.11 104.245 32.11C103.965 32.11 103.722 32.17 103.515 32.29C103.308 32.41 103.148 32.58 103.035 32.8C102.922 33.0133 102.865 33.27 102.865 33.57C102.865 33.87 102.925 34.1333 103.045 34.36C103.165 34.5867 103.335 34.7633 103.555 34.89C103.775 35.01 104.028 35.07 104.315 35.07C104.562 35.07 104.788 35.0267 104.995 34.94C105.208 34.8533 105.388 34.7267 105.535 34.56L106.235 35.27C106.002 35.5433 105.718 35.75 105.385 35.89C105.052 36.03 104.698 36.1 104.325 36.1ZM109.207 36.1C108.94 36.1 108.684 36.0667 108.437 36C108.19 35.9267 107.964 35.8267 107.757 35.7C107.55 35.5667 107.37 35.4067 107.217 35.22L107.917 34.52C108.084 34.7133 108.274 34.86 108.487 34.96C108.707 35.0533 108.954 35.1 109.227 35.1C109.474 35.1 109.66 35.0633 109.787 34.99C109.914 34.9167 109.977 34.81 109.977 34.67C109.977 34.5233 109.917 34.41 109.797 34.33C109.677 34.25 109.52 34.1833 109.327 34.13C109.14 34.07 108.94 34.01 108.727 33.95C108.52 33.89 108.32 33.81 108.127 33.71C107.94 33.6033 107.787 33.46 107.667 33.28C107.547 33.1 107.487 32.8667 107.487 32.58C107.487 32.2733 107.557 32.01 107.697 31.79C107.844 31.57 108.047 31.4 108.307 31.28C108.574 31.16 108.89 31.1 109.257 31.1C109.644 31.1 109.984 31.17 110.277 31.31C110.577 31.4433 110.827 31.6467 111.027 31.92L110.327 32.62C110.187 32.4467 110.027 32.3167 109.847 32.23C109.667 32.1433 109.46 32.1 109.227 32.1C109.007 32.1 108.837 32.1333 108.717 32.2C108.597 32.2667 108.537 32.3633 108.537 32.49C108.537 32.6233 108.597 32.7267 108.717 32.8C108.837 32.8733 108.99 32.9367 109.177 32.99C109.37 33.0433 109.57 33.1033 109.777 33.17C109.99 33.23 110.19 33.3167 110.377 33.43C110.57 33.5367 110.727 33.6833 110.847 33.87C110.967 34.05 111.027 34.2867 111.027 34.58C111.027 35.0467 110.864 35.4167 110.537 35.69C110.21 35.9633 109.767 36.1 109.207 36.1ZM113.704 36.1C113.437 36.1 113.18 36.0667 112.934 36C112.687 35.9267 112.46 35.8267 112.254 35.7C112.047 35.5667 111.867 35.4067 111.714 35.22L112.414 34.52C112.58 34.7133 112.77 34.86 112.984 34.96C113.204 35.0533 113.45 35.1 113.724 35.1C113.97 35.1 114.157 35.0633 114.284 34.99C114.41 34.9167 114.474 34.81 114.474 34.67C114.474 34.5233 114.414 34.41 114.294 34.33C114.174 34.25 114.017 34.1833 113.824 34.13C113.637 34.07 113.437 34.01 113.224 33.95C113.017 33.89 112.817 33.81 112.624 33.71C112.437 33.6033 112.284 33.46 112.164 33.28C112.044 33.1 111.984 32.8667 111.984 32.58C111.984 32.2733 112.054 32.01 112.194 31.79C112.34 31.57 112.544 31.4 112.804 31.28C113.07 31.16 113.387 31.1 113.754 31.1C114.14 31.1 114.48 31.17 114.774 31.31C115.074 31.4433 115.324 31.6467 115.524 31.92L114.824 32.62C114.684 32.4467 114.524 32.3167 114.344 32.23C114.164 32.1433 113.957 32.1 113.724 32.1C113.504 32.1 113.334 32.1333 113.214 32.2C113.094 32.2667 113.034 32.3633 113.034 32.49C113.034 32.6233 113.094 32.7267 113.214 32.8C113.334 32.8733 113.487 32.9367 113.674 32.99C113.867 33.0433 114.067 33.1033 114.274 33.17C114.487 33.23 114.687 33.3167 114.874 33.43C115.067 33.5367 115.224 33.6833 115.344 33.87C115.464 34.05 115.524 34.2867 115.524 34.58C115.524 35.0467 115.36 35.4167 115.034 35.69C114.707 35.9633 114.264 36.1 113.704 36.1ZM121.293 36L118.463 29H119.713L121.923 34.67H121.483L123.713 29H124.943L122.093 36H121.293ZM126.006 36V31.2H127.106V36H126.006ZM126.556 30.32C126.369 30.32 126.212 30.2567 126.086 30.13C125.966 30.0033 125.906 29.8467 125.906 29.66C125.906 29.4733 125.966 29.3167 126.086 29.19C126.212 29.0633 126.369 29 126.556 29C126.749 29 126.906 29.0633 127.026 29.19C127.146 29.3167 127.206 29.4733 127.206 29.66C127.206 29.8467 127.146 30.0033 127.026 30.13C126.906 30.2567 126.749 30.32 126.556 30.32ZM131.109 36.1C130.743 36.1 130.416 36.0233 130.129 35.87C129.843 35.71 129.616 35.4933 129.449 35.22C129.289 34.9467 129.209 34.6367 129.209 34.29V32.91C129.209 32.5633 129.293 32.2533 129.459 31.98C129.626 31.7067 129.853 31.4933 130.139 31.34C130.426 31.18 130.749 31.1 131.109 31.1C131.543 31.1 131.933 31.2133 132.279 31.44C132.633 31.66 132.909 31.96 133.109 32.34C133.316 32.7133 133.419 33.1367 133.419 33.61C133.419 34.0767 133.316 34.5 133.109 34.88C132.909 35.2533 132.633 35.55 132.279 35.77C131.933 35.99 131.543 36.1 131.109 36.1ZM128.539 36V28.8H129.639V32.38L129.449 33.54L129.639 34.71V36H128.539ZM130.929 35.06C131.196 35.06 131.429 35 131.629 34.88C131.836 34.7533 131.996 34.58 132.109 34.36C132.229 34.14 132.289 33.8867 132.289 33.6C132.289 33.3133 132.229 33.06 132.109 32.84C131.996 32.62 131.836 32.45 131.629 32.33C131.429 32.2033 131.196 32.14 130.929 32.14C130.663 32.14 130.426 32.2033 130.219 32.33C130.013 32.45 129.853 32.62 129.739 32.84C129.626 33.06 129.569 33.3133 129.569 33.6C129.569 33.8867 129.626 34.14 129.739 34.36C129.853 34.58 130.013 34.7533 130.219 34.88C130.426 35 130.663 35.06 130.929 35.06ZM136.77 36.1C136.29 36.1 135.857 35.9933 135.47 35.78C135.09 35.56 134.787 35.26 134.56 34.88C134.34 34.5 134.23 34.0733 134.23 33.6C134.23 33.1267 134.34 32.7033 134.56 32.33C134.78 31.95 135.077 31.65 135.45 31.43C135.83 31.21 136.25 31.1 136.71 31.1C137.157 31.1 137.55 31.2033 137.89 31.41C138.237 31.6167 138.507 31.9 138.7 32.26C138.9 32.62 139 33.03 139 33.49C139 33.57 138.993 33.6533 138.98 33.74C138.973 33.82 138.96 33.91 138.94 34.01H135V33.11H138.37L137.96 33.47C137.947 33.1767 137.89 32.93 137.79 32.73C137.69 32.53 137.547 32.3767 137.36 32.27C137.18 32.1633 136.957 32.11 136.69 32.11C136.41 32.11 136.167 32.17 135.96 32.29C135.753 32.41 135.593 32.58 135.48 32.8C135.367 33.0133 135.31 33.27 135.31 33.57C135.31 33.87 135.37 34.1333 135.49 34.36C135.61 34.5867 135.78 34.7633 136 34.89C136.22 35.01 136.473 35.07 136.76 35.07C137.007 35.07 137.233 35.0267 137.44 34.94C137.653 34.8533 137.833 34.7267 137.98 34.56L138.68 35.27C138.447 35.5433 138.163 35.75 137.83 35.89C137.497 36.03 137.143 36.1 136.77 36.1ZM141.652 36.1C141.385 36.1 141.129 36.0667 140.882 36C140.635 35.9267 140.409 35.8267 140.202 35.7C139.995 35.5667 139.815 35.4067 139.662 35.22L140.362 34.52C140.529 34.7133 140.719 34.86 140.932 34.96C141.152 35.0533 141.399 35.1 141.672 35.1C141.919 35.1 142.105 35.0633 142.232 34.99C142.359 34.9167 142.422 34.81 142.422 34.67C142.422 34.5233 142.362 34.41 142.242 34.33C142.122 34.25 141.965 34.1833 141.772 34.13C141.585 34.07 141.385 34.01 141.172 33.95C140.965 33.89 140.765 33.81 140.572 33.71C140.385 33.6033 140.232 33.46 140.112 33.28C139.992 33.1 139.932 32.8667 139.932 32.58C139.932 32.2733 140.002 32.01 140.142 31.79C140.289 31.57 140.492 31.4 140.752 31.28C141.019 31.16 141.335 31.1 141.702 31.1C142.089 31.1 142.429 31.17 142.722 31.31C143.022 31.4433 143.272 31.6467 143.472 31.92L142.772 32.62C142.632 32.4467 142.472 32.3167 142.292 32.23C142.112 32.1433 141.905 32.1 141.672 32.1C141.452 32.1 141.282 32.1333 141.162 32.2C141.042 32.2667 140.982 32.3633 140.982 32.49C140.982 32.6233 141.042 32.7267 141.162 32.8C141.282 32.8733 141.435 32.9367 141.622 32.99C141.815 33.0433 142.015 33.1033 142.222 33.17C142.435 33.23 142.635 33.3167 142.822 33.43C143.015 33.5367 143.172 33.6833 143.292 33.87C143.412 34.05 143.472 34.2867 143.472 34.58C143.472 35.0467 143.309 35.4167 142.982 35.69C142.655 35.9633 142.212 36.1 141.652 36.1ZM145.419 36.1C145.205 36.1 145.029 36.03 144.889 35.89C144.755 35.7433 144.689 35.5667 144.689 35.36C144.689 35.1467 144.755 34.97 144.889 34.83C145.029 34.69 145.205 34.62 145.419 34.62C145.632 34.62 145.805 34.69 145.939 34.83C146.079 34.97 146.149 35.1467 146.149 35.36C146.149 35.5667 146.079 35.7433 145.939 35.89C145.805 36.03 145.632 36.1 145.419 36.1Z" fill="#36243C"/>
<defs>
<clipPath id="clip0_494_6380">
<rect width="146" height="24" fill="white"/>
</clipPath>
</defs>
</svg>
