<svg width="24" height="24" viewBox="0 0 24 24" fill="none" xmlns="http://www.w3.org/2000/svg">
<g clip-path="url(#clip0_580_8752)">
<path d="M1.32494 7.03125C1.48743 7.08588 1.83829 7.26248 2.0047 7.34079L3.29825 7.94926L5.9031 9.17277C6.01848 9.22702 6.65801 9.51072 6.71566 9.5613C6.56529 9.96214 6.40118 10.553 6.36885 10.982C6.39208 11.0545 6.53267 11.1562 6.59841 11.2141C7.66374 12.1526 8.13684 13.5312 8.23142 14.9167C8.25391 15.246 8.28531 15.5422 8.27839 15.8762C8.42564 16.0052 8.59352 16.1198 8.75123 16.2364C8.80951 16.2796 8.8888 16.3257 8.94222 16.3693C9.13182 16.4868 9.74509 16.8381 9.96426 16.8844C10.1451 16.9443 10.3328 17.0126 10.5137 17.0624C11.5059 17.3355 12.5647 17.3293 13.5532 17.0433C13.7081 16.9984 13.8788 16.9281 14.0329 16.8878C14.3206 16.777 14.698 16.5921 14.9623 16.4303C15.826 15.8924 16.5344 15.1386 17.0176 14.2432C17.101 14.089 17.2468 13.7948 17.2876 13.629C17.4398 13.6889 17.6421 13.7925 17.7943 13.864L18.9515 14.4076C19.1199 14.4868 19.3753 14.6174 19.5417 14.6843L19.5512 14.696C20.4511 15.1344 21.3682 15.5443 22.2712 15.9771C22.4021 16.0398 22.54 16.1072 22.6737 16.162C22.4553 16.6724 22.2001 17.1661 21.9102 17.6394C21.796 17.828 21.6719 18.0087 21.5551 18.1948C21.6012 18.3258 21.5949 18.5065 21.6017 18.6461C21.716 20.9837 20.1528 22.7638 18.0083 23.5182C17.4785 23.703 16.9313 23.8331 16.3752 23.9067C16.2413 23.9248 16.1071 23.9398 15.9727 23.9516C15.8727 23.96 15.6459 23.9714 15.5581 23.9988H14.0783C13.9822 23.9625 13.6518 23.9486 13.5348 23.9375C13.3842 23.9232 13.2341 23.9033 13.0849 23.878C12.0104 23.7036 11.2998 23.5093 10.2985 23.0514C10.1185 23.0536 9.82504 22.9924 9.64463 22.9574C8.85898 22.8046 8.16524 22.5629 7.42777 22.2639C7.27852 22.1869 7.12218 22.1227 6.97057 22.0495C6.69552 21.9162 6.42531 21.773 6.16045 21.6204C4.49811 20.6554 3.10486 19.2881 2.10868 17.6443C1.87319 17.3128 1.49557 16.5364 1.33428 16.1579C1.31377 16.1167 1.29464 16.0747 1.27695 16.0322C0.308574 13.6843 0.132721 11.0845 0.776082 8.6276C0.928061 8.04805 1.09918 7.57905 1.32494 7.03125ZM16.5725 22.2659C15.7147 22.6331 14.815 22.8935 13.8938 23.0414C14.0729 23.0955 14.6809 23.0953 14.8885 23.0933C16.1841 23.0812 17.5184 22.8676 18.644 22.1924C19.4702 21.6967 20.18 20.9921 20.4826 20.0582C20.5673 19.8016 20.5988 19.579 20.663 19.3222L20.6545 19.3298C20.5474 19.4272 20.437 19.5611 20.3352 19.6683C19.2451 20.8161 18.0048 21.6075 16.5725 22.2659ZM6.71071 13.6328C6.83458 13.9555 7.09142 14.471 7.29157 14.7523C7.28168 14.6415 7.24253 14.433 7.22276 14.317C7.11916 13.7092 6.92451 13.127 6.58571 12.608C6.53716 12.5336 6.44082 12.3818 6.38293 12.3204C6.45289 12.7087 6.51175 13.0785 6.65471 13.4504C6.67503 13.5033 6.69932 13.578 6.71071 13.6328Z" fill="#FEDA41"/>
<path d="M1.32494 7.03125C1.48743 7.08588 1.83829 7.26248 2.0047 7.34079L3.29825 7.94926L5.9031 9.17277C6.01848 9.22702 6.65801 9.51072 6.71566 9.56131C6.56529 9.96214 6.40118 10.553 6.36885 10.982C6.31984 11.2325 6.2973 12.1121 6.38293 12.3204C6.45289 12.7088 6.51175 13.0785 6.65471 13.4504C6.67503 13.5033 6.69932 13.578 6.71071 13.6328C6.83458 13.9555 7.09142 14.471 7.29157 14.7523C7.2972 14.8 7.30219 14.8515 7.30916 14.8986C7.37718 15.5048 7.37028 16.1296 7.3857 16.7392C7.38729 16.8021 7.38511 16.8672 7.38914 16.9298L7.38994 16.9555C7.31407 16.9625 7.04215 17.0435 6.95423 17.0667C6.69493 17.1359 6.434 17.1988 6.17166 17.2554C5.28746 17.4423 4.38989 17.5591 3.48732 17.605C3.1787 17.618 2.86984 17.6243 2.56095 17.6239C2.45753 17.6239 2.17997 17.6 2.10868 17.6443C1.87319 17.3128 1.49557 16.5364 1.33428 16.1579C1.31377 16.1167 1.29464 16.0747 1.27695 16.0322C0.308574 13.6843 0.132721 11.0845 0.776082 8.6276C0.928061 8.04805 1.09918 7.57905 1.32494 7.03125Z" fill="#ECF0F2"/>
<path d="M6.71042 13.6328C6.83429 13.9555 7.09113 14.4711 7.29128 14.7523C7.29691 14.8 7.3019 14.8516 7.30887 14.8987C7.37689 15.5049 7.36998 16.1296 7.38541 16.7392C7.387 16.8021 7.38482 16.8672 7.38885 16.9299L7.38965 16.9555C7.31378 16.9626 7.04186 17.0436 6.95393 17.0668C6.69463 17.1359 6.4337 17.1988 6.17137 17.2554C5.28716 17.4423 4.3896 17.5592 3.48702 17.605C3.17841 17.618 2.86955 17.6243 2.56066 17.624C2.45724 17.624 2.17968 17.6001 2.10838 17.6444C1.87289 17.3129 1.49528 16.5365 1.33398 16.158C1.59388 16.0213 1.94218 15.8685 2.21375 15.7412L3.80453 14.9944L5.58161 14.1592C5.94136 13.9894 6.34761 13.7882 6.71042 13.6328Z" fill="#E05A59"/>
<path d="M14.0332 16.8916C14.3209 16.7808 14.6982 16.5959 14.9626 16.4341C15.8263 15.8962 16.5347 15.1424 17.0179 14.247C17.1013 14.0928 17.2471 13.7986 17.2879 13.6328C17.4401 13.6927 17.6423 13.7963 17.7946 13.8678L18.9518 14.4114C19.1202 14.4906 19.3755 14.6212 19.542 14.6881L19.5514 14.6998C20.4513 15.1382 21.3684 15.5481 22.2715 15.9809C22.4024 16.0436 22.5403 16.111 22.674 16.1658C22.4556 16.6762 22.2004 17.1699 21.9104 17.6432C21.7963 17.8318 21.6722 18.0125 21.5554 18.1986C21.4882 18.2552 21.1771 18.6972 21.0858 18.8042C21.0252 18.8752 20.6957 19.2704 20.6633 19.326L20.6548 19.3336C20.5477 19.431 20.4373 19.5648 20.3354 19.6721C19.2454 20.8199 18.005 21.6113 16.5728 22.2696C16.5104 22.1248 16.4414 21.9774 16.3729 21.8354C15.9342 20.9264 15.5262 19.9962 15.079 19.0921L15.073 19.0929C15.0279 18.9816 14.9486 18.826 14.8961 18.7144L14.5532 17.9859C14.4107 17.682 14.1913 17.1714 14.0332 16.8916Z" fill="#E05A59"/>
<path d="M14.0332 16.8916C14.3209 16.7808 14.6982 16.5959 14.9626 16.4341C15.8263 15.8962 16.5347 15.1424 17.0179 14.247C17.1013 14.0928 17.2471 13.7986 17.2879 13.6328C17.4401 13.6927 17.6423 13.7963 17.7946 13.8678L18.9518 14.4114C19.1202 14.4906 19.3755 14.6212 19.542 14.6881L19.5514 14.6998C19.4869 14.7672 19.3603 15.0052 19.3029 15.0959C19.1331 15.3674 18.9516 15.6314 18.7589 15.8874C17.8979 17.0314 16.835 18.0082 15.6227 18.77C15.5508 18.8153 15.1315 19.0771 15.079 19.0921L15.073 19.0929C15.0279 18.9816 14.9486 18.826 14.8961 18.7144L14.5532 17.9859C14.4107 17.682 14.1913 17.1714 14.0332 16.8916Z" fill="#E34C4B"/>
<path d="M9.96466 16.8828C10.1456 16.9427 10.3332 17.011 10.5141 17.0608C11.5063 17.334 12.5651 17.3278 13.5536 17.0417C13.7085 16.9968 13.8792 16.9265 14.0333 16.8862C14.1914 17.1661 14.4108 17.6766 14.5533 17.9805L14.8962 18.7091C14.9487 18.8206 15.028 18.9763 15.0731 19.0876L15.0791 19.0868C15.5263 19.9909 15.9343 20.9211 16.373 21.83C16.4415 21.972 16.5106 22.1195 16.5729 22.2643C15.7151 22.6316 14.8154 22.892 13.8942 23.0398C13.4153 23.0769 12.2402 22.8112 11.7721 22.6614C10.6054 22.288 9.50321 21.6787 8.91779 20.5563C8.81125 20.3611 8.65017 19.9998 8.60352 19.7782C8.94004 19.0258 9.31387 18.2837 9.65574 17.5332C9.75409 17.3172 9.85817 17.0945 9.96466 16.8828Z" fill="#D4D8DA"/>
<path d="M9.96466 16.8828C10.1456 16.9427 10.3332 17.011 10.5141 17.0608C11.5063 17.334 12.5651 17.3278 13.5536 17.0417C13.7085 16.9968 13.8792 16.9265 14.0333 16.8862C14.1914 17.1661 14.4108 17.6766 14.5533 17.9805L14.8962 18.7091C14.9487 18.8206 15.028 18.9763 15.0731 19.0876C14.9977 19.1464 14.5614 19.3554 14.4628 19.4027C13.1644 20.0284 11.7607 20.4065 10.3237 20.5177C10.0671 20.537 9.80994 20.5489 9.55263 20.5536C9.44962 20.5548 8.98755 20.5384 8.91779 20.5563C8.81125 20.3611 8.65017 19.9998 8.60352 19.7782C8.94004 19.0258 9.31387 18.2837 9.65574 17.5332C9.75409 17.3172 9.85817 17.0945 9.96466 16.8828Z" fill="#ECF0F2"/>
<path d="M2.1084 17.642C2.1797 17.5977 2.45725 17.6216 2.56067 17.6216C2.86957 17.6219 3.17843 17.6156 3.48704 17.6026C4.38962 17.5568 5.28718 17.4399 6.17138 17.253C6.43372 17.1964 6.69465 17.1335 6.95395 17.0643C7.04187 17.0411 7.3138 16.9602 7.38966 16.9531C7.40993 18.1646 7.44069 19.4062 7.90906 20.5422C7.93255 20.5992 8.06151 20.8729 8.0634 20.9088C7.9366 21.1678 7.81265 21.4282 7.69159 21.69C7.60603 21.872 7.50375 22.0779 7.42749 22.2615C7.27824 22.1845 7.1219 22.1203 6.9703 22.0471C6.69525 21.9138 6.42504 21.7706 6.16017 21.618C4.49783 20.653 3.10459 19.2857 2.1084 17.642Z" fill="#DD4847"/>
<path d="M8.94272 16.3672C9.13232 16.4846 9.7456 16.8359 9.96476 16.8822C9.85827 17.0939 9.75419 17.3166 9.65584 17.5326C9.31397 18.2831 8.94014 19.0252 8.60362 19.7776C8.56575 19.702 8.51644 19.4759 8.49522 19.382C8.28978 18.4725 8.3245 17.5672 8.28906 16.65L8.29591 16.6366C8.38836 16.621 8.88019 16.4352 8.94272 16.3672Z" fill="#E34C4B"/>
<path d="M8.06364 20.9141C8.12855 20.986 8.20751 21.1537 8.26202 21.2441C8.36639 21.4142 8.48219 21.5771 8.60859 21.7317C9.02029 22.2313 9.53447 22.617 10.0962 22.9293C10.1634 22.9667 10.2375 23.0084 10.2984 23.0543C10.1185 23.0565 9.825 22.9953 9.64459 22.9603C8.85895 22.8075 8.16521 22.5658 7.42773 22.2668C7.50399 22.0831 7.60627 21.8772 7.69183 21.6952C7.81289 21.4334 7.93684 21.173 8.06364 20.9141Z" fill="#D4D8DA"/>
<path d="M8.2787 15.875C8.42596 16.004 8.59383 16.1186 8.75154 16.2352C8.80983 16.2784 8.88912 16.3245 8.94253 16.3681C8.88 16.4361 8.38816 16.622 8.29571 16.6375C8.28206 16.5663 8.27966 16.0034 8.27637 15.8907L8.2787 15.875Z" fill="#E05A59"/>
<path d="M11.1966 0H12.7951C12.9203 0.034924 13.0997 0.0416619 13.2342 0.054641C13.4208 0.0734419 13.6069 0.0965858 13.7924 0.124054C14.5814 0.247363 15.3556 0.452018 16.1025 0.734747C16.2422 0.787941 16.4376 0.859003 16.566 0.925651C16.3794 1.31388 16.196 1.70366 16.0159 2.09495C15.4265 3.30803 14.8754 4.54474 14.2915 5.76103C14.2081 5.93446 14.1183 6.11892 14.0423 6.29536C14.1708 6.34096 14.3072 6.40492 14.4328 6.46045C14.3368 6.58444 14.1433 6.72247 14.0107 6.80557C13.0283 7.4211 12.1649 6.80543 11.633 5.92806L11.6232 5.93058L11.5998 5.93546C11.5343 5.94871 11.4475 5.95457 11.3795 5.96142C10.887 6.01113 10.4305 6.13519 9.96596 6.30579C8.58057 6.80945 7.42308 7.94624 6.82483 9.27853C6.80248 9.3283 6.72013 9.51178 6.71591 9.56248C6.65827 9.51189 6.01874 9.22819 5.90336 9.17394L3.2985 7.95043L2.00495 7.34196C1.83855 7.26366 1.48769 7.08705 1.3252 7.03242C1.44759 6.78646 1.57038 6.51312 1.68947 6.26227C1.64904 6.14227 1.66115 5.95331 1.66722 5.82511C1.69491 5.21173 1.81395 4.60591 2.02042 4.02766C2.3098 3.22365 2.83772 2.36623 3.4375 1.75553C3.88819 1.30521 4.41313 0.93595 4.98926 0.663949C5.86937 0.250943 7.07151 0.0352557 8.01893 0.259372C8.25657 0.315585 8.42999 0.386723 8.65423 0.467426L8.69134 0.473854C9.21701 0.293054 9.87 0.182818 10.4163 0.0957095C10.6188 0.0634229 11.0334 0.0476682 11.1966 0ZM7.05748 1.09928C6.87875 1.08386 6.55507 1.14638 6.37913 1.18205C4.62231 1.53823 3.44996 2.83671 2.84214 4.47237C2.8853 4.43707 3.02835 4.23267 3.08147 4.17121C3.27231 3.95043 3.47444 3.71217 3.67577 3.50157C4.41164 2.74637 5.24773 2.09579 6.1606 1.56806C6.39464 1.4307 6.80533 1.20652 7.05748 1.09928Z" fill="#E05A59"/>
<path d="M11.1966 0H12.7952C12.9203 0.034924 13.0997 0.0416619 13.2343 0.054641C13.4208 0.0734419 13.6069 0.0965858 13.7924 0.124054C14.5814 0.247363 15.3557 0.452018 16.1025 0.734747C16.2422 0.787941 16.4377 0.859003 16.566 0.925651C16.3795 1.31388 16.1961 1.70366 16.0159 2.09495C15.4266 3.30803 14.8755 4.54474 14.2915 5.76103C14.2082 5.93446 14.1183 6.11892 14.0424 6.29536C13.9899 6.2815 13.9209 6.25649 13.8692 6.23712C13.5557 6.1196 13.2296 6.07295 12.9064 5.99394C12.8593 5.98242 12.8208 5.95624 12.7814 5.92845C12.2385 5.34752 11.8391 4.39492 11.4605 3.68994C10.8684 2.56726 10.1858 1.39448 9.07903 0.707807C9.00226 0.660175 8.73743 0.534598 8.69141 0.473854C9.21707 0.293054 9.87007 0.182818 10.4164 0.0957095C10.6189 0.0634229 11.0335 0.0476682 11.1966 0Z" fill="#ECF0F2"/>
<path d="M1.68894 6.26493C1.64851 6.14493 1.66061 5.95597 1.66669 5.82777C1.69438 5.21439 1.81342 4.60858 2.01989 4.03033C2.30927 3.22631 2.83719 2.36889 3.43697 1.75819C3.88766 1.30787 4.4126 0.938612 4.98873 0.666611C5.86884 0.253605 7.07097 0.0379177 8.0184 0.262034C8.25603 0.318247 8.42946 0.389385 8.6537 0.470088L8.69081 0.476515C8.73683 0.53726 9.00166 0.662837 9.07843 0.710469C10.1852 1.39715 10.8678 2.56992 11.4599 3.6926C11.8385 4.39758 12.2379 5.35019 12.7809 5.93111C12.8202 5.9589 12.8587 5.98508 12.9058 5.9966C13.229 6.07561 13.5551 6.12226 13.8686 6.23978C13.9203 6.25915 13.9893 6.28416 14.0418 6.29802C14.1702 6.34362 14.3066 6.40758 14.4323 6.46311C14.3363 6.5871 14.1428 6.72513 14.0101 6.80823C13.0278 7.42376 12.1643 6.80809 11.6325 5.93072L11.6227 5.93324L11.5993 5.93813C11.5338 5.95137 11.4469 5.95723 11.379 5.96408C10.8865 6.01379 10.43 6.13785 9.96542 6.30845C9.86095 6.1049 9.74982 5.85126 9.6513 5.64165L9.02382 4.30589C8.52706 3.24824 8.01054 2.17601 7.52667 1.11468C7.44412 1.08798 7.23656 1.09182 7.14108 1.0918L7.05695 1.10194C6.87821 1.08652 6.55454 1.14904 6.37859 1.18471C4.62178 1.54089 3.44942 2.83937 2.84161 4.47503C2.56483 4.86278 2.32135 5.18878 2.07309 5.60117C2.00434 5.71539 1.7402 6.20467 1.68894 6.26493Z" fill="#FEDA41"/>
<path d="M7.52734 1.10938C7.77251 1.11441 8.21927 1.26265 8.44088 1.38414C9.87224 2.16885 10.4817 3.86093 11.2318 5.21641C11.2875 5.3171 11.6134 5.87524 11.6234 5.92794L11.6 5.93283C11.5344 5.94607 11.4476 5.95193 11.3797 5.95878C10.8871 6.0085 10.4306 6.13255 9.9661 6.30315C9.86162 6.0996 9.7505 5.84596 9.65198 5.63635L9.0245 4.30059C8.52774 3.24294 8.01121 2.17071 7.52734 1.10938Z" fill="#ECF0F2"/>
<path d="M16.5656 0.921875C16.9357 1.08248 17.2916 1.24871 17.6401 1.45174C17.6871 1.4791 17.7809 1.54343 17.8255 1.55789C17.8773 1.5136 17.9222 1.48179 17.9808 1.44628C18.5636 1.09307 19.7096 0.735672 20.2489 1.34858C20.4663 1.59724 20.5741 1.92314 20.5478 2.25236C20.5154 2.63455 20.3043 2.9674 20.0996 3.27662C20.1489 3.34772 20.2972 3.46929 20.3681 3.54388C21.3087 4.53361 22.1557 5.74774 22.6739 7.01536C23.9037 9.88216 23.9271 13.1233 22.7389 16.0077C22.7186 16.0589 22.6968 16.1095 22.6737 16.1594C22.54 16.1046 22.402 16.0372 22.2711 15.9745C21.3681 15.5417 20.451 15.1318 19.5511 14.6934L19.5416 14.6817C19.3752 14.6148 19.1198 14.4842 18.9514 14.405L17.7942 13.8614C17.642 13.7899 17.4397 13.6863 17.2875 13.6264C17.3445 13.4777 17.4676 13.132 17.4932 12.9842C17.2266 12.7415 16.8186 12.1683 16.644 11.8449C16.1982 11.011 16.0155 10.0617 16.1198 9.12192C16.1698 8.70936 16.2645 8.37493 16.3818 7.98154C15.8161 7.30802 15.2129 6.8522 14.4325 6.45668C14.3068 6.40114 14.1704 6.33718 14.042 6.29158C14.1179 6.11515 14.2078 5.93068 14.2911 5.75726C14.8751 4.54097 15.4262 3.30425 16.0155 2.09117C16.1957 1.69988 16.3791 1.31011 16.5656 0.921875ZM17.6745 11.7527C17.6946 11.0306 17.5574 10.2204 17.2862 9.5494C17.2615 9.44706 17.1264 9.12621 17.0678 9.04234C16.9695 9.75052 17.0447 10.4413 17.305 11.1086C17.3245 11.159 17.3746 11.2148 17.3971 11.2678C17.4531 11.3994 17.5744 11.6547 17.6745 11.7527ZM19.4055 2.65821C19.4115 2.64958 19.4173 2.64089 19.423 2.63212C19.5675 2.40993 19.6453 2.22184 19.5898 1.95963C19.2802 1.89136 18.9766 1.9942 18.694 2.12084C18.7385 2.16424 18.7963 2.18959 18.843 2.22576C18.9642 2.3195 19.3206 2.56264 19.4055 2.65821Z" fill="#E34C4B"/>
<path d="M22.6738 7.01562C23.9036 9.88243 23.927 13.1236 22.7389 16.0079C22.7185 16.0591 22.6967 16.1098 22.6736 16.1597C22.5399 16.1049 22.402 16.0375 22.2711 15.9748C21.368 15.542 20.4509 15.1321 19.551 14.6937L19.5415 14.682C19.3751 14.615 19.1198 14.4845 18.9514 14.4053L17.7941 13.8616C17.6419 13.7902 17.4396 13.6866 17.2874 13.6267C17.3444 13.478 17.4675 13.1323 17.4931 12.9845C17.5942 12.7915 17.695 11.9772 17.6744 11.753C17.6945 11.0309 17.5573 10.2207 17.2861 9.54966C17.4081 9.50553 17.6232 9.39693 17.7486 9.33747L18.5157 8.97638L21.0425 7.78734L21.0793 7.76348L22.1372 7.26445C22.302 7.18681 22.5075 7.08293 22.6738 7.01562Z" fill="#D4D8DA"/>
<path d="M17.2861 9.55139C17.4081 9.50725 17.6232 9.39866 17.7486 9.3392L18.5157 8.97811L21.0425 7.78906C21.0994 8.22548 21.1083 8.74508 21.0966 9.18429C21.0447 11.1184 20.5102 13.0088 19.5415 14.6837C19.3751 14.6168 19.1198 14.4862 18.9514 14.407L17.7941 13.8634C17.6419 13.7919 17.4396 13.6883 17.2874 13.6284C17.3444 13.4797 17.4675 13.134 17.4931 12.9862C17.5942 12.7932 17.695 11.9789 17.6744 11.7547C17.6945 11.0326 17.5573 10.2224 17.2861 9.55139Z" fill="#ECF0F2"/>
<path d="M20.1002 3.28125C20.1495 3.35235 20.2978 3.47392 20.3687 3.54851C21.3093 4.53824 22.1563 5.75237 22.6745 7.01999C22.5082 7.08729 22.3027 7.19118 22.1379 7.26881L21.0799 7.76784L21.0431 7.7917L18.5163 8.98075L17.7492 9.34184C17.6238 9.4013 17.4088 9.50989 17.2868 9.55403C17.2621 9.45169 17.127 9.13084 17.0684 9.04697C17.2777 7.47457 18.8565 4.83128 19.8439 3.6034C19.9271 3.49426 20.0126 3.38685 20.1002 3.28125Z" fill="#E34C4B"/>
<path d="M20.1 3.28125C20.1493 3.35235 20.2976 3.47392 20.3685 3.54851C21.3091 4.53824 22.1561 5.75237 22.6743 7.01999C22.508 7.08729 22.3025 7.19118 22.1377 7.26881L21.0797 7.76784C21.0334 7.70693 21.0198 7.46372 21.0084 7.37763C20.9775 7.14403 20.9416 6.91113 20.9004 6.67911C20.7306 5.78224 20.4561 4.90845 20.0822 4.0757C20.0389 3.97887 19.9032 3.66123 19.8438 3.6034C19.927 3.49426 20.0124 3.38685 20.1 3.28125Z" fill="#E05A59"/>
<path d="M17.826 1.56493C17.8778 1.52064 17.9227 1.48882 17.9813 1.45332C18.5641 1.10011 19.7102 0.742711 20.2495 1.35562C20.4669 1.60428 20.5747 1.93018 20.5483 2.2594C20.516 2.64159 20.3048 2.97443 20.1002 3.28366C20.0125 3.38925 19.9271 3.49667 19.8439 3.6058C18.8565 4.83368 17.2776 7.47698 17.0683 9.04938C16.97 9.75756 17.0452 10.4483 17.3055 11.1156C17.3251 11.166 17.3751 11.2219 17.3976 11.2748C17.4536 11.4065 17.5749 11.6618 17.675 11.7597C17.6956 11.9839 17.5948 12.7983 17.4937 12.9913C17.2271 12.7486 16.8192 12.1753 16.6445 11.852C16.1988 11.0181 16.0161 10.0687 16.1204 9.12896C16.1703 8.7164 16.265 8.38197 16.3823 7.98858C16.4165 7.91815 16.4463 7.83005 16.4717 7.75498C16.562 7.48826 16.6692 7.2318 16.7766 6.9717C17.2681 5.86657 17.8642 4.81103 18.5568 3.8195C18.8387 3.41419 19.1309 3.06747 19.4061 2.66525C19.412 2.65662 19.4178 2.64793 19.4235 2.63916C19.568 2.41697 19.6458 2.22888 19.5903 1.96667C19.2807 1.89839 18.9772 2.00124 18.6945 2.12788C18.6434 2.09589 18.5835 2.05483 18.5345 2.01896C18.3098 1.85451 18.0528 1.72274 17.826 1.56493Z" fill="#FEDA41"/>
<path d="M14.042 6.29416C14.1179 6.11772 14.2078 5.93326 14.2911 5.75983C14.8751 4.54354 15.4262 3.30683 16.0155 2.09375C16.0501 2.10703 16.058 2.10297 16.0738 2.14324C16.1357 2.30076 16.1917 2.46751 16.2462 2.62757C16.5721 3.57895 16.7508 4.5745 16.7761 5.57982C16.7837 5.8706 16.7803 6.16156 16.7659 6.45207C16.7585 6.6027 16.7385 6.75607 16.7384 6.90689C16.7384 6.92679 16.763 6.95312 16.7761 6.96724C16.6686 7.22734 16.5615 7.4838 16.4712 7.75052C16.4457 7.82559 16.416 7.91369 16.3818 7.98412C15.8161 7.3106 15.2129 6.85477 14.4325 6.45925C14.3068 6.40372 14.1704 6.33976 14.042 6.29416Z" fill="#E05A59"/>
</g>
<defs>
<clipPath id="clip0_580_8752">
<rect width="24" height="24" fill="white"/>
</clipPath>
</defs>
</svg>
