<svg width="16" height="16" viewBox="0 0 16 16" fill="none" xmlns="http://www.w3.org/2000/svg">
<path d="M7.69201 1.10232C7.89951 1.08247 8.3613 1.10048 8.57615 1.12206C9.63654 1.22853 10.8293 1.65123 11.5417 2.47698C11.8509 2.83544 12.05 3.29045 11.9991 3.76262C11.9407 4.30541 11.6176 4.70941 11.2171 5.04269C11.2915 4.6557 11.3327 4.29176 11.2368 3.90145C11.1141 3.40152 10.7768 2.99637 10.3337 2.73847C9.46982 2.23562 8.32482 2.24567 7.38194 2.47936C6.00402 2.82088 4.77806 3.68177 4.04619 4.90469C3.3579 6.05478 3.11064 7.57644 3.43954 8.88149C4.00113 11.1098 6.24344 12.5625 8.11513 13.6715C8.15044 13.6997 8.38896 13.837 8.44333 13.8697L9.0274 14.2212C9.15755 14.3002 9.30412 14.3865 9.42654 14.4756C9.34482 14.4624 9.21396 14.4276 9.12935 14.4075C8.93201 14.3612 8.7349 14.3138 8.53802 14.2655C7.1974 13.9409 5.89873 13.5454 4.6908 12.8595C4.79204 13.005 4.89866 13.1799 4.99464 13.3311L5.58751 14.2695C5.71983 14.4802 5.85435 14.703 5.99481 14.9067C5.90992 14.8777 5.7099 14.772 5.62765 14.7293C5.05662 14.4366 4.52083 14.0797 4.03065 13.6656C2.57852 12.4167 1.70543 10.7456 1.56475 8.82727C1.42573 6.78223 2.10188 4.7653 3.44543 3.21725C4.57354 1.9183 5.98296 1.22324 7.69201 1.10232Z" fill="#FB6E84"/>
<path d="M8.32593 7.20313C8.42124 7.2029 8.51608 7.20969 8.61132 7.21389C9.02483 7.23212 9.44827 7.21825 9.86038 7.25419C9.96351 7.34925 10.008 7.40772 10.0984 7.51401C10.4812 7.97322 10.3336 8.28666 10.1317 8.7733L9.93921 9.23932C9.91116 9.30705 9.85124 9.43869 9.8371 9.5026C9.86398 9.57994 9.93483 9.69596 9.97296 9.79408C9.99304 9.85807 10.0787 10.0376 10.1111 10.1053C10.1598 10.207 10.2351 10.3982 10.2893 10.4869C10.8672 10.8337 11.4312 11.2029 11.9801 11.5938C12.1442 11.7123 12.3699 11.8712 12.5216 12.0036C12.6476 12.0792 12.7666 12.1913 12.8815 12.2839C13.3363 12.6502 14.2439 13.4185 14.4275 13.9757C14.4593 14.0723 14.4726 14.184 14.423 14.277C14.378 14.3613 14.2921 14.4089 14.2032 14.4348C13.918 14.5178 13.5521 14.4442 13.2667 14.3807C12.7516 14.266 12.2514 14.0881 11.7615 13.894C10.7272 13.4844 9.74413 12.9771 8.77069 12.4416C7.63701 11.8125 6.55215 11.0992 5.5253 10.3077C5.35581 10.1744 5.18035 10.0365 5.01987 9.89205C4.95105 9.8301 4.90113 9.73736 4.87538 9.64869C4.87314 9.64135 4.8702 9.63252 4.86933 9.6251C4.82685 9.22158 5.12155 9.10705 5.45276 9.03002C5.7895 8.95166 6.13997 8.80549 6.47837 8.74182C6.52411 8.57565 6.53955 8.36643 6.59069 8.19869C6.61746 8.11088 6.63095 8.0626 6.70163 7.99994C6.82492 7.89072 6.99885 7.83588 7.14651 7.76197C7.4199 7.62515 7.71568 7.50308 7.98483 7.36034C8.09343 7.30271 8.21312 7.25211 8.32593 7.20313ZM7.70258 8.90408C7.75231 8.96424 7.84874 9.10854 7.9003 9.18307C7.99733 9.23252 8.0964 9.27783 8.19358 9.32713C8.33554 9.39916 8.47843 9.46963 8.61913 9.54401C8.7121 9.59322 8.80405 9.64424 8.89726 9.69315C8.90202 9.69197 8.90679 9.69072 8.91155 9.68955C8.89788 9.65174 8.87038 9.59518 8.85296 9.55682C8.82382 9.52151 8.76476 9.3715 8.75218 9.32502C8.77929 9.00971 8.8453 8.68861 8.8814 8.37377C8.88843 8.31268 8.89843 8.24268 8.91304 8.18346C8.63327 8.36424 8.33436 8.52775 8.05108 8.70385C7.94382 8.77049 7.81491 8.85049 7.70258 8.90408Z" fill="#E33F65"/>
<path d="M4.87598 9.64844C4.9106 9.65234 4.92733 9.65781 4.95705 9.67672C5.11965 9.77992 5.27745 9.8918 5.43876 9.99773C5.75491 10.2062 6.07552 10.408 6.4004 10.6027C7.28187 11.131 8.19387 11.6286 9.12863 12.0574C9.21441 12.0967 9.54535 12.2606 9.61348 12.2666C9.5977 12.382 9.54746 12.5848 9.54504 12.688C9.58082 12.7718 9.65809 12.8577 9.75496 12.812C9.88449 12.7508 9.95301 12.5636 10.039 12.4579L10.384 11.9418C10.63 11.5736 10.7579 11.4863 10.5408 11.0611C10.4828 10.9473 10.3157 10.5986 10.2899 10.4866C10.8678 10.8334 11.4318 11.2027 11.9807 11.5936C12.1448 11.712 12.3705 11.8709 12.5221 12.0034C12.6482 12.0789 12.7671 12.1911 12.8821 12.2837C13.3369 12.6499 14.2445 13.4182 14.4281 13.9755C14.4599 14.072 14.4732 14.1838 14.4236 14.2767C14.3786 14.361 14.2927 14.4087 14.2038 14.4345C13.9186 14.5175 13.5527 14.444 13.2673 14.3805C12.7521 14.2658 12.252 14.0878 11.7621 13.8938C10.7278 13.4841 9.74473 12.9768 8.77129 12.4413C7.6376 11.8123 6.55275 11.0989 5.5259 10.3074C5.35641 10.1741 5.18094 10.0363 5.02046 9.8918C4.95165 9.82984 4.90173 9.73711 4.87598 9.64844Z" fill="#FB6E84"/>
<path d="M10.2899 10.4844C10.8678 10.8312 11.4318 11.2004 11.9808 11.5913C12.1448 11.7098 12.3705 11.8687 12.5222 12.0011L12.4921 12.0027C12.4841 12.0184 12.4846 12.0196 12.49 12.0359C12.5144 12.1088 12.5942 12.1899 12.6402 12.2528C12.7514 12.4051 12.9088 12.6827 12.8177 12.8748C12.7795 12.9555 12.7059 13.0055 12.623 13.0328C12.1078 13.2021 10.9905 12.8102 10.4932 12.6291C10.3415 12.5738 10.1923 12.5059 10.0391 12.4556L10.3841 11.9395C10.6301 11.5713 10.758 11.4841 10.5409 11.0588C10.4828 10.9451 10.3158 10.5963 10.2899 10.4844Z" fill="#E33F65"/>
<path d="M8.32596 7.20313C8.42127 7.2029 8.51612 7.20969 8.61135 7.21389C9.02487 7.23212 9.4483 7.21825 9.86041 7.25419C9.96354 7.34925 10.0081 7.40772 10.0985 7.51401C10.4813 7.97322 10.3336 8.28666 10.1317 8.7733L9.93924 9.23932C9.91119 9.30705 9.85127 9.43869 9.83713 9.5026L9.16369 9.38854C9.0351 9.36666 8.88026 9.33658 8.75221 9.32502C8.77932 9.00971 8.84533 8.68861 8.88143 8.37377C8.88846 8.31268 8.89846 8.24268 8.91307 8.18346C8.6333 8.36424 8.3344 8.52775 8.05111 8.70385C7.94385 8.77049 7.81494 8.85049 7.70261 8.90408C7.42535 8.89565 7.13638 8.8644 6.85834 8.8526C6.77185 8.84893 6.55183 8.82674 6.47551 8.84315C6.47276 8.82018 6.47706 8.76713 6.4784 8.74182C6.52414 8.57565 6.53958 8.36643 6.59072 8.19869C6.61749 8.11088 6.63098 8.0626 6.70166 7.99994C6.82495 7.89072 6.99888 7.83588 7.14654 7.76197C7.41994 7.62515 7.71571 7.50308 7.98487 7.36034C8.09346 7.30271 8.21315 7.25211 8.32596 7.20313Z" fill="#77C1FE"/>
<path d="M8.32645 7.20313C8.42176 7.2029 8.5166 7.20969 8.61184 7.21389C9.02535 7.23212 9.44879 7.21825 9.8609 7.25419C9.96402 7.34925 10.0086 7.40772 10.0989 7.51401C10.0061 7.52667 9.84129 7.51111 9.74285 7.50492L9.25824 7.47479L8.4959 7.42865C8.36098 7.42086 8.2248 7.41377 8.08996 7.40481C8.03871 7.40141 8.0452 7.36468 7.98535 7.36034C8.09395 7.30271 8.21363 7.25211 8.32645 7.20313Z" fill="#5EB7FD"/>
<path d="M8.75195 9.32812C8.88 9.33969 9.03484 9.36977 9.16344 9.39164L9.83687 9.5057C9.86375 9.58305 9.93461 9.69906 9.97273 9.79719C9.99281 9.86117 10.0784 10.0407 10.1109 10.1084C10.1596 10.2101 10.2348 10.4013 10.2891 10.49C10.3149 10.602 10.482 10.9507 10.54 11.0645C10.7571 11.4897 10.6292 11.577 10.3832 11.9452L10.0382 12.4613C9.95219 12.567 9.88367 12.7541 9.75414 12.8153C9.65726 12.8611 9.58 12.7752 9.54422 12.6913C9.54664 12.5882 9.59687 12.3853 9.61266 12.2699C9.65883 12.0625 9.69148 11.8284 9.73562 11.6155L9.0993 10.1275C9.07109 10.0608 8.91922 9.72883 8.91133 9.69266C8.89766 9.65484 8.87016 9.59828 8.85273 9.55992C8.82359 9.52461 8.76453 9.37461 8.75195 9.32812Z" fill="#FDD4A9"/>
<path d="M8.75195 9.32812C8.88 9.33969 9.03484 9.36977 9.16344 9.39164L9.83687 9.5057C9.86375 9.58305 9.93461 9.69906 9.97273 9.79719C9.97023 9.7957 9.96031 9.78937 9.95414 9.78797C9.59641 9.7057 9.23476 9.61875 8.8743 9.55117C8.86711 9.55406 8.85992 9.55703 8.85273 9.55992C8.82359 9.52461 8.76453 9.37461 8.75195 9.32812Z" fill="#E8BC8F"/>
<path d="M6.47559 8.84191C6.5519 8.82551 6.77192 8.84769 6.85841 8.85137C7.13645 8.86316 7.42542 8.89441 7.70269 8.90285C7.75241 8.96301 7.84884 9.1073 7.90041 9.18183C7.91041 9.2198 7.91556 9.23113 7.93275 9.26668C8.00978 9.38785 8.49658 10.1111 8.49908 10.1953C8.50002 10.2276 8.48431 10.26 8.46423 10.2846C8.44244 10.3113 8.41525 10.3165 8.38298 10.3239C8.19595 10.367 7.92634 10.3883 7.72786 10.4148C7.38755 10.4602 7.04491 10.5166 6.70323 10.5486C6.59134 10.5079 6.54235 10.3975 6.64565 10.317C6.73585 10.2467 6.84002 10.1875 6.93749 10.127L7.44784 9.80855C7.17662 9.54472 6.9104 9.26918 6.63953 9.00308C6.59153 8.96637 6.51902 8.88793 6.47559 8.84191Z" fill="#FDD4A9"/>
<path d="M6.47559 8.84191C6.5519 8.82551 6.77192 8.84769 6.85841 8.85137C7.13645 8.86316 7.42542 8.89441 7.70269 8.90285C7.75241 8.96301 7.84884 9.1073 7.90041 9.18183C7.91041 9.2198 7.91556 9.23113 7.93275 9.26668C7.90095 9.26777 7.73562 9.2273 7.69486 9.21816L7.06055 9.07668C6.97635 9.0573 6.70402 8.98098 6.63953 9.00308C6.59153 8.96637 6.51902 8.88793 6.47559 8.84191Z" fill="#E8BC8F"/>
<path d="M8.15644 4.98639C8.04105 4.62339 8.19792 4.2294 8.53128 4.0451C8.86464 3.86081 9.28175 3.93745 9.52777 4.22821C9.77386 4.51898 9.78042 4.943 9.54355 5.24127C9.60566 5.26067 9.92722 5.35656 9.9512 5.38895C10.0112 5.39541 10.4099 5.55701 10.4837 5.58656C11.3189 5.92088 12.1066 6.38859 12.7303 7.04415C12.8214 7.13981 12.9197 7.26001 13.0068 7.36196C12.5712 7.25058 12.1073 7.11803 11.6735 6.99442C11.1446 6.84367 10.5865 6.70486 10.0631 6.54464C10.0068 6.78331 9.92777 7.02065 9.86042 7.25636C9.44831 7.22042 9.02488 7.2343 8.61136 7.21606C8.51613 7.21187 8.42128 7.20508 8.32597 7.20531C8.22128 7.02989 8.10894 6.81576 8.01198 6.63506C7.88261 6.39397 7.72841 6.13322 7.60981 5.88991C7.47671 5.89992 7.28979 5.89417 7.15296 5.89406L6.35173 5.89413L5.12744 5.89335C5.06173 5.89288 4.73463 5.90404 4.70508 5.88269C4.7303 5.83638 5.0059 5.69603 5.0641 5.66577C5.86075 5.25115 6.74065 5.02152 7.63831 4.99394C7.69002 4.97495 8.07894 4.97726 8.15644 4.98639Z" fill="#FDD4A9"/>
<path d="M8.15679 4.98639C8.04139 4.62339 8.19827 4.2294 8.53163 4.0451C8.86499 3.86081 9.2821 3.93745 9.52811 4.22821C9.77421 4.51898 9.78077 4.943 9.54389 5.24127C9.3603 5.47242 9.06421 5.5835 8.77382 5.53015C8.4835 5.4768 8.24624 5.26771 8.15679 4.98639Z" fill="#FDD4A9"/>
<path d="M7.63867 4.99098C7.69038 4.97198 8.0793 4.9743 8.1568 4.98343C8.24625 5.26475 8.48352 5.47384 8.77383 5.52719C9.06422 5.58054 9.36031 5.46945 9.54391 5.2383C9.60602 5.25771 9.92758 5.35359 9.95156 5.38598C9.93992 5.38622 9.91531 5.38315 9.90906 5.39296C9.77039 5.61098 9.56055 5.76016 9.31094 5.83548C9.02391 5.9236 8.71352 5.8923 8.44992 5.74864C8.1332 5.57794 7.98188 5.32692 7.88203 4.99451C7.80424 4.99496 7.71529 4.99776 7.63867 4.99098Z" fill="#E8BC8F"/>
</svg>
