<svg width="24" height="24" viewBox="0 0 24 24" fill="none" xmlns="http://www.w3.org/2000/svg">
<g clip-path="url(#clip0_580_8801)">
<path d="M13.7084 10.367C13.7015 10.4216 13.708 10.642 13.7083 10.7053L13.71 11.3974L13.7075 13.7126C13.7076 13.7246 13.7115 13.7794 13.7149 13.7798C13.8223 13.7916 14.1561 13.7861 14.2432 13.7861L17.1576 13.7858L17.988 13.7855C18.6741 13.7854 19.188 13.8036 19.7125 14.3225C20.0874 14.6935 20.2256 15.2132 20.4039 15.6965L20.9302 17.1109L21.6486 19.0344C21.7814 19.39 21.9266 19.7511 22.045 20.1107C22.2905 20.8563 21.7239 21.6063 20.9355 21.5896C20.6035 21.5813 20.2917 21.4287 20.0813 21.1718C19.8961 20.9429 19.7742 20.5248 19.6657 20.2387L18.8885 18.1715C18.7034 17.6777 18.5111 17.0034 18.148 16.6278C17.8941 16.3628 17.5671 16.1794 17.2085 16.1013C16.9759 16.0505 16.6482 16.0604 16.4037 16.0607L15.5511 16.0621C14.3546 16.0626 13.1579 16.061 11.9603 16.0621C11.3951 16.0682 10.9272 15.9008 10.5239 15.4988C9.92646 14.9032 9.98883 14.217 9.9949 13.4477L9.99686 12.1792L9.99664 9.03764C9.99653 8.50242 9.99495 7.96668 9.99685 7.43142C9.99877 6.88587 10.1685 6.40557 10.567 6.02193C10.9222 5.67809 11.4016 5.49293 11.8958 5.50875C12.3764 5.52007 12.8513 5.71985 13.1853 6.06866C13.763 6.6721 13.7254 7.32441 13.7069 8.09464C13.8541 8.08273 14.1317 8.09186 14.2892 8.0919L15.4551 8.09209L17.172 8.09159C17.4618 8.09152 17.7532 8.09012 18.043 8.09286C18.5838 8.09797 18.9211 8.33516 19.1574 8.81024C19.2621 9.1411 19.2676 9.4449 19.1039 9.76164C18.9686 10.0238 18.734 10.2208 18.4524 10.3088C18.2045 10.3865 17.8231 10.3651 17.5544 10.3647L16.7533 10.3638C15.7602 10.3635 14.6948 10.3459 13.7084 10.367Z" fill="#79B0FA"/>
<path d="M19.1579 8.80469C19.2625 9.13555 19.2681 9.43935 19.1043 9.75609C18.9691 10.0182 18.7345 10.2153 18.4529 10.3032C18.2049 10.3809 17.8236 10.3595 17.5549 10.3591L16.7538 10.3583C15.7606 10.3579 14.6953 10.3404 13.7089 10.3614C13.7189 10.1506 13.6922 9.89187 13.7027 9.64418C13.7525 9.56267 13.8041 9.49513 13.9047 9.4883C14.2094 9.46762 14.5312 9.4783 14.8364 9.47839L17.0865 9.47874C17.4495 9.47874 17.913 9.49601 18.2673 9.45794C18.7156 9.40974 18.9165 9.13089 19.1579 8.80469Z" fill="#60A2F9"/>
<path d="M9.57627 24.0015C9.41908 23.9499 9.09279 23.9255 8.91605 23.8972C8.57504 23.8395 8.23764 23.7622 7.90553 23.6656C5.77036 23.0274 3.97497 21.5694 2.91231 19.6105C1.84994 17.6562 1.61043 15.3591 2.24684 13.2277C2.87621 11.0909 4.33079 9.2927 6.28899 8.23079C6.66879 8.02589 6.9982 7.87078 7.43708 8.00097C7.74022 8.0909 7.97649 8.28455 8.1235 8.56511C8.26128 8.8333 8.2864 9.14537 8.19331 9.43215C8.01849 9.97255 7.66952 10.056 7.22379 10.3148C5.13481 11.5276 3.96134 13.848 4.20905 16.2422C4.27801 16.9617 4.47792 17.6624 4.79892 18.31C6.82212 22.34 12.2423 22.9574 15.0943 19.414C15.2467 19.2247 15.3828 19.0298 15.6023 18.911C15.8751 18.7552 16.2152 18.7242 16.5136 18.8215C16.8046 18.9149 17.0453 19.1221 17.1809 19.3961C17.3157 19.6584 17.3391 19.9639 17.2457 20.2437C17.1571 20.5122 16.958 20.7471 16.7795 20.9634C16.0184 21.8818 15.0717 22.629 14.0018 23.1562C13.4181 23.4415 12.8033 23.6585 12.1698 23.8022C12.0239 23.8361 11.8769 23.8656 11.7294 23.8907C11.6255 23.9077 11.0765 23.9738 11.0245 24.0015H9.57627Z" fill="#79B0FA"/>
<path d="M11.5923 0H12.1009C12.1447 0.021027 12.235 0.0336682 12.2875 0.0460662C12.4134 0.0757807 12.5276 0.10661 12.647 0.1593C13.1296 0.372395 13.5052 0.772013 13.688 1.26687C14.0729 2.29342 13.5643 3.42536 12.5306 3.80081C12.0379 3.97836 11.4952 3.95508 11.0196 3.73598C10.5439 3.51434 10.1765 3.11166 9.99935 2.61763C9.8244 2.12089 9.8542 1.57498 10.0822 1.10024C10.3898 0.457365 10.9019 0.136496 11.5833 0.00335112C11.5863 0.00223407 11.5893 0.00111704 11.5923 0Z" fill="#79B0FA"/>
</g>
<defs>
<clipPath id="clip0_580_8801">
<rect width="24" height="24" fill="white"/>
</clipPath>
</defs>
</svg>
