<svg width="20" height="20" viewBox="0 0 20 20" fill="none" xmlns="http://www.w3.org/2000/svg">
<g clip-path="url(#clip0_580_8561)">
<path d="M8.43838 16.0521C7.74396 15.9106 6.79693 15.4204 6.23993 14.9984C4.89793 13.9908 4.01605 12.4872 3.79171 10.8241C3.57157 9.15958 4.02503 7.47608 5.0514 6.14732C6.06212 4.84283 7.54989 3.99358 9.18707 3.78656C10.8332 3.57322 12.4969 4.01936 13.8154 5.0277C15.1314 6.04305 15.9921 7.5379 16.2096 9.18577C16.3392 10.2249 16.2115 11.2798 15.8377 12.258C15.7924 12.3771 15.6545 12.7112 15.5816 12.8049C15.2826 12.8069 14.9836 12.807 14.6846 12.805C14.7462 12.9408 14.8076 13.1259 14.8606 13.2709C14.9086 13.4018 14.9834 13.5922 15.0189 13.7234C14.7582 14.1268 14.2715 14.5822 13.9009 14.8886C13.8135 14.961 13.4742 15.1868 13.4385 15.2422C13.4415 15.6649 13.4423 16.0876 13.4408 16.5102C13.4408 16.7558 13.4517 17.1369 13.433 17.3732C13.3836 17.9505 13.1349 18.4925 12.7294 18.9064C12.2766 19.3749 11.6274 19.6724 10.973 19.6793C10.3083 19.6806 9.66977 19.4205 9.19523 18.955C8.70581 18.4755 8.4207 17.8005 8.43568 17.1202C8.4432 16.7786 8.42142 16.3876 8.43838 16.0521ZM12.1883 15.8486C11.7766 16.0547 10.8675 16.2154 10.4035 16.2401C10.2086 16.2505 9.89989 16.2404 9.68793 16.2463C9.69564 16.5159 9.67384 17.2461 9.73274 17.4797C9.78222 17.6742 9.87802 17.854 10.0119 18.0036C10.4881 18.5285 11.2454 18.5604 11.7732 18.0925C12.1896 17.7235 12.1866 17.2559 12.1859 16.7432C12.1855 16.4513 12.1765 16.1388 12.1883 15.8486Z" fill="#FEAE3F"/>
<path d="M8.43661 12.8047L9.68857 12.8061C9.68435 13.0527 9.68791 13.3096 9.68787 13.557C9.77646 13.56 9.96669 13.6117 10.0637 13.6312C10.2351 13.6642 10.4077 13.6899 10.5812 13.7087C10.9495 13.7447 11.32 13.7505 11.6892 13.7259C11.8498 13.7144 12.0341 13.6857 12.1873 13.6778L12.1868 12.8049L13.4386 12.8061L13.4358 14.4424C13.4358 14.6747 13.425 15.0245 13.4384 15.2438C13.4414 15.6666 13.4422 16.0893 13.4407 16.5119C13.4407 16.7575 13.4517 17.1386 13.4329 17.3749C13.3835 17.9521 13.1348 18.4942 12.7293 18.9081C12.2765 19.3766 11.6273 19.6741 10.9729 19.681C10.3082 19.6823 9.66967 19.4222 9.19513 18.9567C8.70572 18.4772 8.42061 17.8022 8.43559 17.1219C8.44311 16.7803 8.42132 16.3893 8.43828 16.0538C8.44569 15.9875 8.43996 15.7961 8.43978 15.7191L8.43865 15.0454L8.43661 12.8047ZM12.1882 15.8503C11.7765 16.0564 10.8674 16.2171 10.4034 16.2418C10.2085 16.2521 9.8998 16.2421 9.68783 16.2479C9.69555 16.5176 9.67374 17.2478 9.73264 17.4813C9.78212 17.6759 9.87792 17.8557 10.0118 18.0053C10.488 18.5302 11.2453 18.5621 11.7731 18.0942C12.1895 17.7252 12.1865 17.2576 12.1858 16.7449C12.1854 16.453 12.1764 16.1405 12.1882 15.8503Z" fill="#FEDC79"/>
<path d="M9.68754 13.5625C9.77612 13.5654 9.96636 13.6172 10.0633 13.6366C10.2347 13.6696 10.4074 13.6954 10.5809 13.7142C10.9492 13.7502 11.3197 13.756 11.6888 13.7313C11.8495 13.7198 12.0337 13.6912 12.187 13.6833L12.1878 15.8558C11.7761 16.0619 10.867 16.2226 10.4031 16.2473C10.2082 16.2576 9.89946 16.2476 9.6875 16.2534L9.68754 13.5625Z" fill="#FDA125"/>
<path d="M15.5816 12.8107C15.6977 12.8068 15.8137 12.805 15.9298 12.8054C15.9776 12.8829 16.0444 13.1278 16.0744 13.2241L16.3683 14.1828C16.6371 15.0715 16.9403 15.9779 17.1887 16.8698C17.2645 16.5423 17.4261 16.0599 17.5303 15.7247L18.0364 14.0823L18.302 13.2175C18.3363 13.1058 18.3889 12.9039 18.4321 12.8092C18.8454 12.8007 19.2849 12.8063 19.6996 12.8087C19.6421 12.9425 19.5869 13.1112 19.5362 13.2513L19.2583 14.0175L17.948 17.6201C17.8763 17.8175 17.2329 19.6224 17.1918 19.6478L17.1727 19.6404C17.0367 19.3041 16.9135 18.9469 16.7895 18.6049L16.2222 17.0446L15.4639 14.9596C15.3169 14.5558 15.1562 14.1347 15.0189 13.7292C14.9834 13.5979 14.9086 13.4076 14.8606 13.2766C14.8076 13.1317 14.7462 12.9465 14.6846 12.8108C14.9836 12.8128 15.2826 12.8127 15.5816 12.8107Z" fill="#FEDC79"/>
<path d="M4.86265 14.7665C5.01317 14.758 5.15087 14.8115 5.2153 14.9576C5.24882 15.0338 5.24846 15.1205 5.21432 15.1964C5.1623 15.313 4.22729 16.2185 4.07684 16.3688L3.62228 16.8234C3.48073 16.9651 3.38727 17.0946 3.196 17.1651C3.13019 17.1744 3.08127 17.1675 3.01987 17.1387C2.9392 17.1 2.87682 17.0313 2.84602 16.9473C2.82105 16.8774 2.82448 16.766 2.86295 16.7076C2.98218 16.5266 3.18199 16.3463 3.33592 16.1927L3.95746 15.572L4.38934 15.1373C4.52234 15.0034 4.67807 14.8139 4.86265 14.7665Z" fill="#FEDC79"/>
<path d="M16.823 2.8364C17.0607 2.82328 17.2532 3.09292 17.1299 3.30279C17.0745 3.39704 16.8628 3.58696 16.7763 3.67318L16.1065 4.34218L15.5841 4.86507C15.4451 5.00408 15.3116 5.17805 15.1224 5.2353C15.0354 5.23911 14.9676 5.22416 14.8956 5.17123C14.8249 5.11961 14.7788 5.04103 14.7682 4.95417C14.7415 4.72693 15.0477 4.48355 15.2007 4.33084L15.7839 3.74851L16.287 3.24288C16.4028 3.12592 16.5181 3.00426 16.6462 2.9C16.6973 2.85841 16.7599 2.84538 16.823 2.8364Z" fill="#FEDC79"/>
<path d="M3.11325 2.8361C3.33718 2.82982 3.46081 3.00886 3.60622 3.15479L4.03873 3.5877L4.7077 4.2562C4.82985 4.37794 4.95432 4.49986 5.07459 4.62378C5.11481 4.67521 5.20096 4.75045 5.21913 4.81416C5.28306 5.03834 5.16191 5.16555 4.96671 5.23635C4.73376 5.24046 4.61685 5.06746 4.46381 4.91316L4.01924 4.46623L3.32588 3.77341C3.20356 3.65139 2.89734 3.38153 2.84151 3.22417C2.78179 3.05585 2.93071 2.87694 3.11325 2.8361Z" fill="#FEDC79"/>
<path d="M9.9425 0.313353C10.0648 0.306165 10.2148 0.343322 10.2771 0.465342C10.2952 0.500938 10.3134 0.623075 10.3136 0.664609C10.3175 1.36527 10.3148 2.0664 10.3146 2.76709C10.3145 2.96597 10.2522 3.05545 10.0604 3.12338C9.92082 3.13257 9.74597 3.08216 9.71218 2.93377C9.67158 2.75547 9.68464 2.53671 9.68454 2.3539L9.68443 1.65499L9.68464 1.00461C9.68467 0.877862 9.68348 0.753136 9.68819 0.626361C9.69481 0.449005 9.76584 0.355418 9.9425 0.313353Z" fill="#FEDC79"/>
<path d="M0.59713 9.6846C0.660967 9.68091 0.723367 9.68001 0.78726 9.68019C1.45549 9.68217 2.12416 9.67637 2.79228 9.68287C3.18688 9.6867 3.27561 10.2021 2.84892 10.3064C2.44675 10.3208 1.97655 10.3079 1.56919 10.3085L0.981022 10.3093C0.867968 10.3094 0.752027 10.3039 0.64055 10.3048C0.238829 10.3077 0.170097 9.74955 0.59713 9.6846Z" fill="#FEDC79"/>
<path d="M17.1596 9.68424C17.7601 9.64962 18.4073 9.70099 19.0129 9.67951C19.1283 9.67542 19.4229 9.67053 19.5173 9.71501C19.5936 9.75077 19.6509 9.8176 19.6748 9.89846C19.7397 10.1117 19.612 10.2571 19.411 10.3061C19.0087 10.3205 18.5365 10.3076 18.1291 10.3082L17.5493 10.309C17.4368 10.3091 17.3165 10.3031 17.206 10.3046C16.7996 10.3103 16.7334 9.74604 17.1596 9.68424Z" fill="#FEDC79"/>
</g>
<defs>
<clipPath id="clip0_580_8561">
<rect width="20" height="20" fill="white"/>
</clipPath>
</defs>
</svg>
