<svg width="20" height="20" viewBox="0 0 20 20" fill="none" xmlns="http://www.w3.org/2000/svg">
<g clip-path="url(#clip0_580_8573)">
<path d="M12.6736 10.3359C12.7905 10.3843 12.9554 10.4798 13.0677 10.5424C13.6001 10.8391 14.0413 11.1943 14.4676 11.6286C15.5926 12.783 16.2188 14.3334 16.211 15.9453C16.1093 16.0509 15.9285 16.1929 15.8118 16.2892C15.3237 16.6919 14.7541 17.0521 14.1936 17.3456C13.9504 17.4729 13.5655 17.6327 13.3051 17.7431C13.0593 17.8178 12.8347 17.909 12.5715 17.9847C11.7402 18.2242 10.8791 18.3445 10.0139 18.3419C8.1433 18.3486 6.31551 17.7819 4.77677 16.7182C4.53107 16.5499 4.31419 16.392 4.08905 16.1958C3.99202 16.1112 3.89568 16.0407 3.8029 15.9475C3.76383 15.1402 4.01082 14.1395 4.33729 13.4031C4.82608 12.3008 5.68079 11.3168 6.70613 10.6811C6.87287 10.5777 7.15676 10.4123 7.33498 10.3422C7.38447 10.3554 7.69386 10.6506 7.7612 10.7042C8.25835 11.1066 8.84793 11.3788 9.47666 11.4962C10.5827 11.6949 11.6495 11.2407 12.4547 10.5192C12.5209 10.46 12.6004 10.3844 12.6736 10.3359Z" fill="#1DA6C5"/>
<path d="M9.8256 2.54097C10.6134 2.47133 11.5299 2.78196 12.1434 3.27545C12.827 3.81663 13.2853 4.62347 13.408 5.48539C13.6729 7.34671 12.2239 10.2111 10.2079 10.4447L10.0937 10.4508C9.40666 10.4833 8.76855 10.1572 8.26865 9.70775C7.31501 8.85022 6.62608 7.39018 6.57322 6.10555C6.53587 5.19736 6.85977 4.31136 7.47404 3.64137C8.0801 2.9761 8.92648 2.58004 9.8256 2.54097Z" fill="#F6CA9D"/>
<path d="M14.4192 1.65722C15 1.60595 15.6646 1.78317 16.1601 2.08579C16.8464 2.50973 17.3353 3.18996 17.5183 3.97566C17.8928 5.5532 16.7429 7.99478 15.0975 8.48118C15.0508 8.49499 14.997 8.50641 14.9491 8.51771C14.3595 8.61694 13.9674 8.47886 13.4658 8.20061C13.5086 8.12635 13.5893 7.91041 13.6233 7.81838C13.9034 7.06221 14.0471 6.26604 13.9481 5.45887C13.8492 4.65181 13.5041 3.91168 12.9621 3.30449C12.7485 3.06522 12.5532 2.91262 12.3086 2.71665C12.3418 2.66993 12.3853 2.61998 12.4241 2.57777C12.9369 2.02172 13.6695 1.69621 14.4192 1.65722Z" fill="#F6CA9D"/>
<path d="M5.23962 1.64869C6.08187 1.57985 7.00773 1.95724 7.57687 2.57314C7.61743 2.61703 7.65795 2.66066 7.69914 2.70405C7.57424 2.80924 7.43815 2.90424 7.31652 3.01665C6.85174 3.44441 6.48964 3.98622 6.2663 4.57626C5.8296 5.72993 6.02325 7.1001 6.53543 8.20176C6.45543 8.23293 6.32886 8.30834 6.24363 8.34815C5.95044 8.48508 5.72037 8.53392 5.40207 8.5421C4.84335 8.53382 4.30246 8.2755 3.90065 7.90162C2.53889 6.63446 1.77006 4.22775 3.13406 2.68141C3.7012 2.03846 4.39359 1.69742 5.23962 1.64869Z" fill="#F6CA9D"/>
<path d="M0 12.9483C0.0344362 12.8591 0.0327966 12.6621 0.0491567 12.56C0.0910463 12.2929 0.150732 12.0288 0.227817 11.7697C0.626147 10.3954 1.67745 9.14104 2.95954 8.5126C2.99603 8.49472 3.03282 8.47584 3.07059 8.46094C3.18788 8.52028 3.2628 8.61894 3.36227 8.70052C3.45879 8.77968 3.56219 8.85528 3.66212 8.93043C4.44501 9.46987 5.34649 9.65412 6.26329 9.36648C6.54643 9.27765 6.72163 9.16726 6.97767 9.04426C7.086 9.19268 7.34743 9.57592 7.46519 9.67877C7.29851 9.73624 7.0153 9.88635 6.85462 9.97072C5.57569 10.6458 4.54603 11.712 3.91593 13.0137C3.62561 13.6141 3.42624 14.2544 3.32434 14.9136C3.31248 14.9896 3.2927 15.0883 3.28528 15.1625L3.27269 15.1566C3.15632 15.1029 3.00274 15.0673 2.87614 15.0253C1.8589 14.6875 0.903956 14.1487 0.0999385 13.4386C0.0683078 13.4107 0.0285777 13.3813 0 13.3541V12.9483Z" fill="#F07F71"/>
<path d="M16.9107 8.45312C16.9505 8.47025 16.9897 8.48854 17.0284 8.50797C18.624 9.31276 19.7155 10.8394 19.958 12.6049C19.9727 12.7117 19.9597 12.8453 19.9995 12.9429V13.3488C19.868 13.4603 19.7504 13.5691 19.6132 13.6775C19.0005 14.1645 18.3208 14.5607 17.5951 14.854C17.2807 14.9789 17.0113 15.0494 16.7079 15.1599C16.6371 14.5877 16.5369 14.1374 16.3345 13.5897C15.8362 12.2589 14.9334 11.1177 13.7529 10.3267C13.3589 10.0624 12.9838 9.87431 12.5527 9.67565C12.7075 9.4482 12.8631 9.28409 13.0178 9.03413C13.3914 9.28872 13.9482 9.45578 14.3966 9.48975C15.2442 9.55395 15.9804 9.22589 16.6289 8.7053C16.7205 8.63176 16.8189 8.53336 16.9107 8.45312Z" fill="#F07F71"/>
</g>
<defs>
<clipPath id="clip0_580_8573">
<rect width="20" height="20" fill="white"/>
</clipPath>
</defs>
</svg>
