<svg width="24" height="24" viewBox="0 0 24 24" fill="none" xmlns="http://www.w3.org/2000/svg">
<path d="M2.69286 7.50781C2.74026 7.50325 2.81685 7.50233 2.86579 7.50217C3.86683 7.49878 4.86931 7.50044 5.87023 7.5002L6.87157 7.50015C7.69673 7.50031 8.25674 7.49211 8.88956 8.11774C9.69909 8.91811 9.49515 9.83431 9.39969 10.8385L9.21093 12.9171L8.97246 15.5286C8.93846 15.8933 8.91905 16.2744 8.86496 16.6347C8.84501 16.7677 8.74982 16.9552 8.65126 17.0484C8.41375 17.2728 8.13266 17.256 7.83404 17.256L7.37729 17.2546C7.37978 17.2852 7.38153 17.3207 7.38186 17.3516C7.38607 17.7552 7.38433 18.1604 7.3844 18.5641L7.38468 20.8284L7.38471 21.9554C7.38471 22.3251 7.44792 22.7409 7.17154 23.0262C6.75091 23.4604 5.972 23.2423 5.88009 22.6327C5.85752 22.4831 5.86512 22.308 5.86539 22.1557L5.86633 21.4637L5.86623 18.9112L5.86565 17.8769C5.86537 17.6821 5.85908 17.4441 5.87033 17.2542L4.37725 17.2546C4.39333 17.4375 4.38432 17.7499 4.38436 17.9415L4.38437 19.2131L4.38478 21.3087C4.38487 21.6793 4.38528 22.0487 4.38336 22.421C4.38202 22.6805 4.33669 22.8644 4.14322 23.054C3.99744 23.1969 3.78937 23.2599 3.58571 23.2519C3.38265 23.2456 3.19116 23.1559 3.05642 23.0039C2.80121 22.7212 2.86516 22.2716 2.86551 21.9093L2.86617 20.5644L2.86606 18.4037C2.86587 18.0638 2.85099 17.5853 2.8703 17.2543L2.4209 17.2562C2.14128 17.257 1.8741 17.276 1.64424 17.0872C1.50159 16.97 1.4171 16.8275 1.38396 16.6463C1.34034 16.408 1.32348 16.1223 1.30335 15.8797L1.20709 14.8156L0.804959 10.425C0.729137 9.61024 0.654043 8.95542 1.21741 8.26016C1.59172 7.79822 2.10349 7.56021 2.69286 7.50781Z" fill="#41A5F5"/>
<path d="M17.8307 7.50214C17.9809 7.48583 18.357 7.49414 18.522 7.49558C18.8669 7.4986 19.2412 7.48615 19.5825 7.49829C20.2676 7.52696 20.913 7.82768 21.3755 8.33379C21.9508 8.95564 21.9831 9.42858 22.1322 10.2148L22.5025 12.2495L22.9806 14.879L23.1401 15.747C23.2239 16.197 23.3964 16.7342 22.9998 17.0682C22.8252 17.2151 22.6099 17.2621 22.3875 17.2541C21.9353 17.2377 21.45 17.2812 21.0022 17.2502C21.0028 17.2668 21.0032 17.2834 21.0034 17.3001C21.0163 18.4879 21.0041 19.6993 21.0041 20.889L21.0045 21.9756C21.0045 22.3398 21.0686 22.7485 20.7944 23.0253C20.6519 23.1684 20.4588 23.2496 20.2569 23.2514C20.051 23.251 19.8538 23.1686 19.7086 23.0227C19.4383 22.7508 19.4967 22.3792 19.4972 22.0241L19.4983 21.0073L19.498 17.4085L19.5004 17.25L18.5969 17.2547C18.4097 17.2557 18.1862 17.2626 18.0022 17.2502C18.0028 17.2668 18.0032 17.2834 18.0034 17.3001C18.0162 18.4852 18.0041 19.6934 18.0041 20.8802L18.0045 21.9779C18.0045 22.3416 18.0683 22.7488 17.7944 23.0253C17.6519 23.1684 17.4588 23.2497 17.2569 23.2516C17.049 23.2507 16.8501 23.1668 16.7045 23.0185C16.437 22.7468 16.497 22.3581 16.4972 22.0036L16.4981 20.9269C16.4981 19.7066 16.4867 18.4688 16.5004 17.25L15.5173 17.2557C15.1736 17.2567 14.7836 17.3023 14.5028 17.067C14.3578 16.9456 14.268 16.7709 14.2535 16.5824C14.2331 16.3414 14.4155 15.4679 14.4676 15.1807L14.9391 12.5879L15.3167 10.5116C15.4556 9.7464 15.5069 9.0341 16.0487 8.42158C16.5288 7.87883 17.103 7.56045 17.8307 7.50214Z" fill="#EC407A"/>
<path d="M11.9349 0.753087C12.1086 0.737286 12.2824 0.782476 12.4264 0.880892C12.8324 1.16427 12.7541 1.60527 12.7538 2.0406L12.7536 3.2153V7.66322V17.5188L12.7538 20.788C12.7539 21.3646 12.758 21.9422 12.7514 22.5186C12.7467 22.929 12.4499 23.1927 12.0616 23.2453C11.8737 23.2622 11.6834 23.2025 11.5342 23.0879C11.3823 22.9711 11.2838 22.7981 11.2605 22.6078C11.2378 22.4345 11.2487 22.0183 11.2487 21.8292L11.2488 20.3724L11.2488 15.4697L11.2491 6.16316L11.2486 3.13513C11.2484 2.60427 11.2469 2.07347 11.2506 1.54263C11.2537 1.10238 11.496 0.809861 11.9349 0.753087Z" fill="#78909B"/>
<path d="M4.87904 0.752188C6.5332 0.618045 7.98342 1.84906 8.11972 3.50304C8.25603 5.15702 7.02691 6.60885 5.37312 6.74733C3.71625 6.88605 2.26114 5.65417 2.12458 3.99711C1.98803 2.34007 3.22182 0.88658 4.87904 0.752188Z" fill="#41A5F5"/>
<path d="M18.519 0.751316C20.1735 0.623155 21.619 1.85948 21.7489 3.5138C21.8788 5.16811 20.6441 6.61494 18.9899 6.74664C17.3332 6.87853 15.8837 5.64148 15.7535 3.98467C15.6234 2.32785 16.862 0.879672 18.519 0.751316Z" fill="#EC407A"/>
</svg>
