<svg width="24" height="24" viewBox="0 0 24 24" fill="none" xmlns="http://www.w3.org/2000/svg">
<g clip-path="url(#clip0_580_8728)">
<path d="M10.6584 16.8624C10.8318 16.8403 11.0213 16.942 11.0792 17.1099C11.0968 17.1769 11.0863 17.2897 11.0727 17.3581C10.934 18.0545 10.7788 18.7481 10.6335 19.4433C10.6147 19.5333 10.595 19.6326 10.5584 19.7151C10.5026 19.8407 10.4085 19.8822 10.2959 19.9163C10.0238 19.9528 9.82918 19.7436 9.87885 19.4761C9.93435 19.1772 10.002 18.8821 10.0642 18.5845L10.2563 17.6768C10.2979 17.4804 10.3405 17.2234 10.4144 17.0391C10.4557 16.9364 10.5599 16.8938 10.6584 16.8624Z" fill="#85F8F4"/>
<path d="M6.46011 15.9484C6.74763 15.9188 6.95032 16.1051 6.89827 16.3971C6.85806 16.6228 6.80902 16.8448 6.76125 17.0689L6.50254 18.2872L6.29974 19.2438C6.23867 19.5294 6.24123 19.8266 5.9369 19.9404C5.77271 19.9869 5.56809 19.8744 5.50895 19.7189C5.48299 19.6507 5.49926 19.5054 5.51179 19.4324C5.55254 19.1953 5.6082 18.9598 5.65813 18.7243L5.93744 17.4095L6.08502 16.7146C6.12234 16.5343 6.1595 16.3124 6.22686 16.1413C6.26629 16.0411 6.36229 15.9834 6.46011 15.9484Z" fill="#85F8F4"/>
<path d="M7.85323 16.5C8.01742 16.5018 8.19039 16.5872 8.23167 16.7589C8.24506 16.8145 8.2532 16.862 8.24403 16.9196C8.20767 17.1482 8.15536 17.3739 8.10819 17.6002C7.98362 18.1695 7.87123 18.7418 7.74228 19.31C7.69082 19.5368 7.63861 19.6253 7.40691 19.6856C7.21644 19.6936 7.05667 19.5948 7.00673 19.4026C7.00131 19.3386 7.00835 19.2444 7.021 19.1835C7.18153 18.4087 7.34858 17.6354 7.51373 16.8618C7.55938 16.6479 7.6316 16.5456 7.85323 16.5Z" fill="#85F8F4"/>
<path d="M3.56139 16.0706C3.86064 16.0618 4.00508 16.2728 3.94855 16.5548C3.82594 17.1663 3.69371 17.7755 3.5646 18.3857C3.51783 18.6066 3.47932 18.8402 3.39834 19.051C3.36016 19.15 3.22225 19.212 3.12768 19.2407C3.05123 19.2458 2.98454 19.2305 2.91675 19.1942C2.83209 19.1487 2.75351 19.0625 2.73204 18.9665C2.71457 18.8885 2.73673 18.7751 2.74954 18.6969C2.79749 18.4039 3.23119 16.3293 3.2919 16.2412C3.36436 16.136 3.43999 16.0961 3.56139 16.0706Z" fill="#85F8F4"/>
<path d="M15.2487 0H16.389C16.4971 0.0448195 16.8369 0.0718219 16.9758 0.0954032C17.2296 0.140925 17.4803 0.202596 17.7263 0.280038C19.4384 0.807912 20.8555 2.02111 21.641 3.63138C22.0911 4.552 22.3166 5.56618 22.2991 6.5908C22.2789 7.40869 22.0912 8.13823 21.922 8.93309L21.4073 11.3537L19.6813 19.4803L19.0793 22.3084L18.8925 23.1891C18.8623 23.331 18.8164 23.5161 18.7944 23.6538C18.5419 23.6497 18.2892 23.6489 18.0366 23.6514C17.9171 23.6515 17.7312 23.6556 17.6143 23.6419C17.3373 23.6243 16.8703 23.6265 16.5948 23.652C16.6089 23.5241 16.6455 23.3723 16.6725 23.2448L16.8258 22.5313L17.3101 20.2474L19.1829 11.4339L19.7821 8.61176L19.9662 7.74968C20.0238 7.48139 20.0761 7.2478 20.108 6.97417C20.2423 5.82402 19.9246 4.6926 19.2038 3.78486C18.4856 2.88035 17.4356 2.28899 16.2807 2.16754C15.1334 2.04648 13.9853 2.3887 13.0915 3.11815C12.3545 3.71422 11.8343 4.53654 11.6115 5.45791C11.5851 5.56522 11.5319 5.765 11.5213 5.86669C11.5416 5.91928 11.9109 6.08249 11.9964 6.12734C12.2059 6.22848 12.4736 6.41142 12.6616 6.54916C13.6744 7.29049 14.4352 8.32485 14.8411 9.51245C15.0298 10.0526 15.1366 10.6189 15.1644 11.1889C15.1719 11.3423 15.1911 11.5645 15.1677 11.7136L15.2644 11.7233C15.5946 11.8304 15.8271 11.9661 15.9919 12.2897C16.1264 12.5487 16.1487 12.8515 16.0533 13.1273C15.9623 13.3983 15.7664 13.6214 15.5095 13.7467C15.114 13.9399 14.8441 13.8341 14.4404 13.757C14.076 13.6873 13.7037 13.5868 13.3399 13.5252C13.146 13.4769 12.8454 13.4092 12.6509 13.3775L12.6355 13.3898L12.6306 13.3804C12.5714 13.3461 12.055 13.25 11.9433 13.223C11.7333 13.1944 11.4769 13.1114 11.2561 13.0843L11.242 13.0972C11.2416 13.0963 11.2413 13.0954 11.2406 13.0946C11.1979 13.0467 10.6463 12.9497 10.5503 12.9291C10.3354 12.8967 10.0889 12.8237 9.84885 12.7869C9.61643 12.7269 9.38039 12.6879 9.14885 12.6288C8.94796 12.5933 8.63565 12.506 8.4459 12.4894C8.40918 12.4658 7.83517 12.3517 7.75375 12.3395C7.68667 12.3122 7.09194 12.1877 7.05704 12.1975C7.00884 12.1691 6.43252 12.0498 6.36009 12.0455C6.27071 12.0095 5.77586 11.912 5.66663 11.8973C5.56368 11.8711 5.03695 11.7479 4.96539 11.7514C4.88511 11.7183 4.30944 11.5856 4.25474 11.6104C4.23982 11.5723 3.97477 11.5311 3.92329 11.5203L3.24611 11.3784C3.03744 11.3352 2.74092 11.2857 2.55638 11.1975C2.38359 11.1167 2.23588 10.9907 2.12891 10.8329C1.96686 10.5936 1.91074 10.3247 1.96362 10.0416C2.066 9.59995 2.33513 9.28809 2.78692 9.18608C2.98866 9.14053 3.12698 9.16076 3.32693 9.19233C3.37648 9.0964 3.41988 8.97827 3.46772 8.87916C3.57232 8.66244 3.69256 8.41931 3.83251 8.22327C5.1042 6.29378 7.11164 5.24925 9.43173 5.37898C9.43743 5.28994 9.48734 5.08355 9.50907 4.98991C9.6875 4.23526 10.0007 3.51902 10.4335 2.87562C11.243 1.67088 12.4316 0.770897 13.8107 0.318401C14.1255 0.215285 14.4191 0.150354 14.7423 0.0871113C14.9041 0.0500988 15.1216 0.0434381 15.2487 0Z" fill="#8C9BA8"/>
<path d="M15.2486 0H16.3889C16.497 0.0448195 16.8368 0.0718219 16.9757 0.0954032C17.2295 0.140925 17.4802 0.202596 17.7261 0.280038C19.4382 0.807912 20.8554 2.02111 21.6409 3.63138C22.091 4.552 22.3165 5.56618 22.299 6.5908C22.2787 7.40869 22.0911 8.13823 21.9219 8.93309L21.4072 11.3537L19.6812 19.4803L19.0792 22.3084L18.8924 23.1891C18.8621 23.331 18.8163 23.5161 18.7943 23.6538C18.5418 23.6497 18.2891 23.6489 18.0364 23.6514C17.917 23.6515 17.7311 23.6556 17.6142 23.6419C17.6482 23.6392 17.657 23.6416 17.6861 23.6242C17.7244 23.5621 18.1284 21.5657 18.1863 21.293L20.0456 12.5455L20.7571 9.1958C20.8806 8.61604 21.0618 7.86933 21.1485 7.29833C21.2389 6.7213 21.2348 6.13338 21.1363 5.55769C20.7273 3.14808 18.715 1.30018 16.2987 1.09453C15.9026 1.06083 15.4781 1.13083 15.1418 0.880907C14.9389 0.730233 14.8046 0.518698 14.7639 0.26772C14.7536 0.205395 14.752 0.147722 14.7422 0.0871113C14.904 0.0500988 15.1215 0.0434381 15.2486 0Z" fill="#6C7A88"/>
<path d="M1.96362 10.0383C2.066 9.59674 2.33513 9.28488 2.78692 9.18287C2.98866 9.13732 3.12698 9.15754 3.32693 9.18911C3.50517 9.23858 3.7149 9.27879 3.8988 9.31843L4.93727 9.53836L7.76215 10.1388L13.1822 11.2907C13.8415 11.4295 14.5082 11.5788 15.1677 11.7104L15.2644 11.7201C15.5946 11.8272 15.8271 11.9629 15.9919 12.2865C16.1264 12.5455 16.1487 12.8483 16.0533 13.1241C15.9623 13.3951 15.7664 13.6182 15.5095 13.7435C15.114 13.9367 14.8441 13.8309 14.4404 13.7538C14.076 13.6841 13.7037 13.5836 13.3399 13.522C13.146 13.4737 12.8454 13.406 12.6509 13.3743L12.6355 13.3866L12.6306 13.3771C12.5714 13.3429 12.055 13.2468 11.9433 13.2198C11.7333 13.1912 11.4769 13.1082 11.2561 13.0811L11.242 13.094C11.2416 13.0931 11.2413 13.0921 11.2406 13.0914C11.1979 13.0435 10.6463 12.9465 10.5503 12.9258C10.3354 12.8935 10.0889 12.8205 9.84885 12.7837C9.61643 12.7237 9.38039 12.6847 9.14885 12.6256C8.94796 12.5901 8.63565 12.5028 8.4459 12.4862C8.40918 12.4626 7.83517 12.3485 7.75375 12.3363C7.68667 12.309 7.09194 12.1845 7.05704 12.1942C7.00884 12.1659 6.43252 12.0466 6.36009 12.0423C6.27071 12.0063 5.77586 11.9088 5.66663 11.8941C5.56368 11.8679 5.03695 11.7447 4.96539 11.7482C4.88511 11.7151 4.30944 11.5824 4.25474 11.6072C4.23982 11.5691 3.97477 11.5279 3.92329 11.5171L3.24611 11.3752C3.03744 11.332 2.74092 11.2824 2.55638 11.1943C2.38359 11.1135 2.23588 10.9875 2.12891 10.8296C1.96686 10.5904 1.91074 10.3214 1.96362 10.0383Z" fill="#6C7A88"/>
<path d="M1.96387 10.0383C2.06625 9.59674 2.33538 9.28488 2.78717 9.18287C2.98891 9.13732 3.12723 9.15754 3.32718 9.18911C3.50542 9.23858 3.71515 9.27879 3.89905 9.31843L4.93752 9.53836L7.7624 10.1388L13.1824 11.2907C13.8417 11.4295 14.5084 11.5788 15.1679 11.7104L15.2646 11.7201C15.2391 11.7672 15.2208 11.8367 15.2002 11.8887C15.1 12.1426 14.9135 12.3585 14.6633 12.4728C14.5294 12.5313 14.3488 12.586 14.201 12.5756C13.881 12.5528 13.5424 12.4651 13.2284 12.3985L11.5942 12.0532L5.03925 10.6722L3.04661 10.2528C2.75698 10.1917 2.23737 10.0638 1.96387 10.0383Z" fill="#8C9BA8"/>
<path d="M11.9966 6.125C12.2061 6.22614 12.4738 6.40909 12.6619 6.54683C13.6746 7.28816 14.4354 8.32251 14.8413 9.51011C15.03 10.0502 15.1369 10.6166 15.1646 11.1866C15.1721 11.34 15.1914 11.5622 15.1679 11.7113C14.5084 11.5796 13.8417 11.4304 13.1824 11.2915L7.76237 10.1397L4.93749 9.53923L3.89902 9.31931C3.71512 9.27966 3.50539 9.23946 3.32715 9.18999C3.3767 9.09406 3.4201 8.97594 3.46794 8.87682C3.57254 8.6601 3.69277 8.41698 3.83273 8.22093C4.09236 8.27606 4.36086 8.32142 4.62364 8.37733L5.86636 8.6418L9.85899 9.49057L11.0011 9.73385C11.4715 9.83516 11.958 10.0224 12.3684 9.67624C12.5051 9.56221 12.6019 9.40761 12.6446 9.23486C12.6842 9.07289 12.6735 8.891 12.6647 8.72545C12.6329 8.12029 12.521 7.50541 12.3125 6.9353C12.2668 6.81041 11.9844 6.20867 11.9927 6.14784C11.9937 6.14019 11.9953 6.13261 11.9966 6.125Z" fill="#6C7A88"/>
<path d="M9.84926 12.7891C10.0893 12.8259 10.3358 12.8989 10.5507 12.9312C10.4147 13.7016 10.2179 14.5369 10.0541 15.3085L9.14602 19.5836L8.55216 22.3776L8.37094 23.2336C8.33591 23.3989 8.30335 23.5654 8.25899 23.7283C8.21958 23.873 8.14491 23.9397 8.0164 24.0021H7.79086C7.52126 23.8457 7.52726 23.6977 7.58168 23.4139C7.63605 23.1304 7.69914 22.8476 7.76021 22.5654L8.03455 21.2772L8.97031 16.8736L9.5512 14.1393L9.7204 13.3397C9.75726 13.1639 9.79439 12.9577 9.84926 12.7891Z" fill="#85F8F4"/>
<path d="M3.40994 23.9977C3.33227 23.951 3.28513 23.917 3.22887 23.8406C3.1497 23.733 3.1578 23.6475 3.18107 23.5232C3.22297 23.2998 3.27327 23.0777 3.32077 22.855L3.58184 21.6281L3.85075 20.3629C3.9023 20.1159 4.12217 18.9365 4.21311 18.7923C4.25954 18.7185 4.33606 18.65 4.42392 18.6331C4.52617 18.6135 4.64795 18.628 4.7329 18.6917C4.81377 18.7524 4.85934 18.8498 4.8698 18.9489C4.89255 19.1642 4.69628 19.9143 4.63961 20.1771L4.33394 21.6247L4.07533 22.8423C4.0226 23.0949 3.97359 23.349 3.91376 23.6C3.8646 23.8062 3.83545 23.8962 3.63968 23.9977H3.40994Z" fill="#85F8F4"/>
<path d="M12.6358 13.3873L12.6512 13.375C12.8457 13.4066 13.1463 13.4744 13.3402 13.5227C13.3394 13.5348 13.339 13.547 13.3367 13.5591C13.2832 13.8443 13.2221 14.1285 13.1621 14.4123L12.8159 16.0374L12.528 17.395C12.4753 17.6461 12.4269 17.9042 12.3609 18.1523C12.3277 18.2571 12.3145 18.3189 12.2184 18.3838C12.0179 18.5193 11.8095 18.4595 11.6833 18.2646C11.6461 18.2071 11.6334 18.1177 11.6445 18.0496C11.6904 17.7695 11.7552 17.4909 11.8148 17.2132L12.1306 15.7268L12.4537 14.2118C12.5065 13.9621 12.5654 13.6266 12.6358 13.3873Z" fill="#85F8F4"/>
<path d="M5.66662 11.8984C5.77585 11.9131 6.27071 12.0106 6.36009 12.0466C6.30411 12.3989 6.21024 12.8 6.13489 13.1527L5.78139 14.8152L5.52758 16.0152C5.47832 16.2482 5.43282 16.4784 5.37021 16.7085C5.31678 16.9048 5.09593 17.0289 4.9042 16.9551C4.79561 16.912 4.71037 16.8249 4.66962 16.7154C4.62652 16.5971 4.84693 15.6801 4.88458 15.5021L5.30844 13.5044L5.51408 12.5349C5.54008 12.4113 5.62195 11.9855 5.66662 11.8984Z" fill="#85F8F4"/>
<path d="M10.7103 23.9973C10.4596 23.8462 10.4371 23.7451 10.4878 23.4697C10.5265 23.2596 10.5746 23.0519 10.6192 22.8431L10.8464 21.7708C10.8957 21.5399 11.1763 20.0741 11.2639 19.9371C11.3101 19.8649 11.3911 19.803 11.4763 19.7891C11.5805 19.7721 11.6962 19.7797 11.7848 19.8424C11.8644 19.8987 11.9112 19.9966 11.923 20.0917C11.9482 20.2962 11.8022 20.8019 11.7555 21.0232C11.655 21.5122 11.5515 22.0005 11.4453 22.4883C11.3634 22.8709 11.2868 23.2582 11.1989 23.6396C11.1581 23.8166 11.1054 23.9153 10.9348 23.9973H10.7103Z" fill="#85F8F4"/>
<path d="M6.32171 23.9971C6.12383 23.8686 6.05441 23.7547 6.10262 23.5135C6.25664 22.7432 6.42625 21.9817 6.58875 21.2119C6.6555 20.8956 6.89597 20.6989 7.20371 20.9269C7.43118 21.0953 7.27227 21.5168 7.21988 21.7665C7.16504 22.0372 7.10843 22.3076 7.05004 22.5774C6.97075 22.9506 6.89496 23.3286 6.80545 23.6995C6.768 23.8547 6.70207 23.9286 6.56011 23.9971H6.32171Z" fill="#85F8F4"/>
<path d="M1.94959 24.0003C1.83593 23.9284 1.73975 23.8409 1.70989 23.7037C1.69898 23.6536 1.70892 23.6032 1.71699 23.5533C1.76326 23.2668 2.18958 21.2216 2.25319 21.1236C2.3085 21.0382 2.40596 20.9724 2.50661 20.957C2.61375 20.9406 2.71874 20.9771 2.8021 21.0442C2.87633 21.104 2.91579 21.1866 2.92295 21.2811C2.93736 21.4714 2.70712 22.4153 2.65262 22.6737C2.58531 22.9927 2.52548 23.3747 2.43533 23.6815C2.41287 23.7579 2.38519 23.8384 2.3311 23.8986C2.2894 23.945 2.23695 23.9702 2.18228 23.9975C2.18072 23.9982 2.17935 23.9993 2.17789 24.0003H1.94959Z" fill="#85F8F4"/>
<path d="M9.2485 23.9981C9.1646 23.9448 9.01138 23.8314 9.0127 23.73C9.02243 23.3099 9.16256 22.878 9.24036 22.4631C9.32264 22.0766 9.40144 21.6884 9.48818 21.303C9.52644 21.133 9.5995 20.9831 9.79011 20.9567C9.9849 20.9296 10.2107 21.0601 10.2148 21.272C10.2186 21.4676 10.1567 21.6778 10.1168 21.8697C10.0596 22.1482 10.0008 22.4263 9.94027 22.7042C9.88484 22.9629 9.8315 23.2215 9.77602 23.4809C9.74877 23.6083 9.71941 23.7768 9.63752 23.8822C9.59603 23.9356 9.53815 23.9678 9.47836 23.9981H9.2485Z" fill="#85F8F4"/>
<path d="M8.44567 12.4922C8.63542 12.5088 8.94773 12.5961 9.14862 12.6316C9.1461 12.6619 9.14255 12.6949 9.13687 12.7248C9.03808 13.2437 8.92225 13.7707 8.81234 14.2866C8.77616 14.4564 8.67291 15.0013 8.61873 15.1342C8.5898 15.2044 8.54057 15.2644 8.47734 15.3063C8.23062 15.4688 7.88089 15.2641 7.93536 14.9371C8.02826 14.3793 8.16096 13.8285 8.27513 13.2742C8.32791 13.018 8.38024 12.7446 8.44567 12.4922Z" fill="#85F8F4"/>
<path d="M11.2426 13.0988L11.2567 13.0859C11.4775 13.113 11.7339 13.196 11.9439 13.2246C11.9389 13.2914 11.9222 13.3708 11.9086 13.4367C11.7675 14.116 11.6273 14.7958 11.4761 15.4729C11.4505 15.588 11.3997 15.7298 11.2861 15.7865C11.1949 15.8321 11.0929 15.8519 10.9912 15.8205C10.7912 15.7427 10.7202 15.5829 10.7526 15.3821C10.7802 15.2115 10.8124 15.0641 10.8475 14.9022L11.0014 14.1841L11.1434 13.5061C11.1683 13.3877 11.2011 13.2089 11.2426 13.0988Z" fill="#85F8F4"/>
<path d="M4.25545 11.6124C4.31015 11.5877 4.88582 11.7204 4.9661 11.7535C4.86734 12.2591 4.76299 12.7634 4.65304 13.2668C4.5936 13.5491 4.54339 13.8432 4.45782 14.1175C4.33905 14.4982 3.72008 14.3688 3.76394 13.9857C3.79687 13.6981 3.87434 13.3737 3.93856 13.089C4.04844 12.6019 4.13717 12.096 4.25545 11.6124Z" fill="#85F8F4"/>
<path d="M4.86577 23.9999C4.75394 23.9287 4.66513 23.8475 4.63297 23.713C4.62554 23.6819 4.62296 23.6533 4.6267 23.6215C4.65181 23.4083 4.93912 22.0123 5.01467 21.8878C5.06333 21.8076 5.15314 21.7437 5.24492 21.7252C5.34519 21.7049 5.44818 21.7337 5.53039 21.7925C5.60881 21.8486 5.66227 21.9275 5.67623 22.0237C5.6829 22.0696 5.68098 22.1166 5.67458 22.1624C5.63809 22.4235 5.56733 22.6871 5.51304 22.9455C5.46172 23.1896 5.42343 23.4501 5.35218 23.6887C5.33139 23.7583 5.30354 23.8327 5.25957 23.8908C5.22042 23.9426 5.15519 23.9712 5.09857 23.9999H4.86577Z" fill="#85F8F4"/>
<path d="M7.05708 12.1959C7.09197 12.1861 7.6867 12.3106 7.75378 12.3379C7.74902 12.4621 7.64339 12.9115 7.61454 13.0526C7.54644 13.3415 7.50589 13.6371 7.42118 13.9218C7.32737 14.237 6.86342 14.2698 6.74716 13.9557C6.72635 13.8994 6.71262 13.8168 6.7215 13.7571C6.76471 13.4675 6.83724 13.1812 6.89858 12.8948C6.93583 12.7308 7.00103 12.3246 7.05708 12.1959Z" fill="#85F8F4"/>
</g>
<defs>
<clipPath id="clip0_580_8728">
<rect width="24" height="24" fill="white"/>
</clipPath>
</defs>
</svg>
