<svg width="24" height="24" viewBox="0 0 24 24" fill="none" xmlns="http://www.w3.org/2000/svg">
<g clip-path="url(#clip0_580_8776)">
<path d="M12.6348 0H13.3565C13.4224 0.0346636 13.589 0.04036 13.6699 0.0542013C14.3318 0.167435 14.9567 0.435114 15.5307 0.778512C15.6529 0.851639 15.8579 1.02103 15.9748 1.07249C16.0715 0.972357 16.1719 0.908962 16.2878 0.832998C16.7914 0.502847 17.4079 0.291517 18.0119 0.283482C18.653 0.27065 19.2721 0.5168 19.7295 0.96628C19.9401 1.17338 20.113 1.35157 20.2936 1.58755C21.0329 2.56102 21.3605 3.84077 21.3488 5.05774C21.34 5.97612 21.1275 7.23962 20.5021 7.95163C20.2675 8.21875 19.943 8.21071 19.6487 8.04873C19.6653 8.19032 19.6362 8.43807 19.6201 8.58033C19.5302 9.37078 19.2458 10.1564 18.7453 10.7814C18.436 11.1677 17.933 11.6046 17.4912 11.8317C17.3727 11.908 17.1955 11.9907 17.0657 12.05C15.7763 12.6388 14.3251 12.7949 12.9223 12.79C11.3545 12.7846 9.89585 12.5701 8.50284 11.8327C7.89023 11.4511 7.4829 11.1338 7.06339 10.5187C6.65517 9.92007 6.44601 9.21274 6.36514 8.49777C6.35113 8.37397 6.32897 8.16281 6.35075 8.04766C6.19956 8.12523 6.04273 8.19771 5.86969 8.16063C5.35887 8.04418 5.06432 7.32664 4.92656 6.87455C4.28641 4.77366 4.73331 2.07811 6.58112 0.710648C7.52944 0.00883792 8.86368 0.249395 9.77753 0.878181C9.85974 0.934744 9.97529 1.00015 10.033 1.0809C10.5435 0.656331 11.3744 0.271311 12.0216 0.115964C12.1415 0.0871829 12.5786 0.0306267 12.6348 0Z" fill="#D88845"/>
<path d="M11.9815 6.60662C12.0331 6.35137 12.1106 6.17823 12.3342 6.03295C12.6041 5.85763 12.973 5.81504 13.2829 5.88093C13.6923 5.96796 13.9484 6.19794 14.0137 6.61244C14.1029 6.63007 14.2479 6.71073 14.3272 6.75764C14.7693 7.02146 15.1469 7.38074 15.4323 7.80922C16.0706 8.76198 16.278 10.0875 15.1871 10.786C14.8499 11.0019 14.5813 11.0738 14.2086 11.1791C14.1363 11.3683 14.0822 11.4636 13.9578 11.6257C13.6936 11.8797 13.4761 12.0165 13.0959 12.0497C12.8257 12.0732 12.536 11.9997 12.307 11.8541C12.2349 11.8082 12.1017 11.6875 12.0321 11.6273C11.912 11.4508 11.8677 11.3657 11.7824 11.1752C11.5203 11.1157 11.2934 11.0387 11.0498 10.923C9.89644 10.3751 9.82117 9.20745 10.3596 8.15453C10.6476 7.5923 11.0841 7.11966 11.6216 6.78788C11.7127 6.73236 11.8815 6.63906 11.9815 6.60662Z" fill="#1C1C1D"/>
<path d="M14.0143 6.60938C14.1034 6.62701 14.2484 6.70767 14.3277 6.75458C14.7699 7.01839 15.1475 7.37768 15.4328 7.80616C16.0711 8.75892 16.2786 10.0844 15.1877 10.7829C14.8504 10.9988 14.5818 11.0707 14.2091 11.1761C14.2662 10.9448 14.273 10.8051 14.2611 10.5662C14.2696 10.4008 14.2635 10.2371 14.2728 10.0714C14.4849 10.033 14.9185 9.9415 14.9863 9.70988C15.0476 9.50068 14.8906 9.37675 14.7133 9.33291C14.4898 9.38273 14.3552 9.5141 14.0641 9.51343C13.7083 9.51262 13.5416 9.45421 13.287 9.21865C13.2756 8.76282 13.2945 8.29184 13.2838 7.83288C13.7712 7.55321 13.9789 7.15864 14.0143 6.60938Z" fill="#A24F16"/>
<path d="M11.7824 11.178C11.5203 11.1185 11.2934 11.0415 11.0498 10.9258C9.89644 10.3778 9.82117 9.2102 10.3596 8.15728C10.6476 7.59505 11.0841 7.12241 11.6216 6.79063C11.7127 6.73512 11.8815 6.64181 11.9815 6.60938C12.0049 7.11281 12.2395 7.60928 12.7128 7.83526C12.7116 8.24325 12.7283 8.8182 12.7108 9.2175C12.4166 9.51754 12.0591 9.57976 11.6542 9.47242C11.468 9.42307 11.2569 9.25283 11.0845 9.43148C11.0392 9.47701 10.9913 9.563 10.9946 9.62875C10.9987 9.71104 11.0351 9.78839 11.096 9.84395C11.2378 9.97364 11.5385 10.0448 11.7224 10.0768L11.7317 10.5699C11.727 10.829 11.7239 10.924 11.7824 11.178Z" fill="#A24F16"/>
<path d="M13.0019 9.73438C13.1038 9.82885 13.1801 9.87262 13.3009 9.94352C13.6261 10.0774 13.9202 10.1309 14.2725 10.0772C14.2633 10.2429 14.2694 10.4066 14.2608 10.5719C14.2728 10.8109 14.266 10.9505 14.2089 11.1819C14.1366 11.371 14.0825 11.4663 13.9581 11.6284C13.6939 11.8824 13.4764 12.0192 13.0962 12.0524C12.826 12.076 12.5363 12.0024 12.3073 11.8568C12.2352 11.8109 12.102 11.6902 12.0324 11.63C11.9123 11.4535 11.868 11.3684 11.7827 11.1779C11.7242 10.924 11.7273 10.829 11.732 10.5698L11.7227 10.0768C12.0837 10.1256 12.3584 10.083 12.6919 9.94366C12.7995 9.88099 12.9066 9.81453 13.0019 9.73438Z" fill="#F76596"/>
<path d="M11.7318 10.5703C11.739 10.6621 11.7617 10.6613 11.802 10.7327C11.8281 10.7789 11.8491 10.8447 11.8752 10.8942C12.1187 11.3558 12.6005 11.6117 13.1169 11.5658C13.4529 11.5346 13.7628 11.3715 13.9786 11.1123C14.0686 11.0033 14.2503 10.7076 14.2606 10.5724C14.2725 10.8114 14.2657 10.951 14.2087 11.1823C14.1364 11.3715 14.0822 11.4668 13.9579 11.6289C13.6936 11.8829 13.4761 12.0197 13.096 12.0529C12.8257 12.0765 12.536 12.0029 12.3071 11.8573C12.235 11.8114 12.1017 11.6907 12.0321 11.6305C11.912 11.454 11.8677 11.3689 11.7824 11.1784C11.7239 10.9245 11.7271 10.8295 11.7318 10.5703Z" fill="#E45686"/>
<path d="M13.0023 9.73438C13.1043 9.82885 13.1806 9.87262 13.3014 9.94352C13.2339 10.1515 13.3516 10.5912 13.2568 10.8114C13.159 11.0384 12.8362 11.0407 12.7379 10.8116C12.6528 10.6132 12.76 10.1072 12.6924 9.94366C12.8 9.88099 12.9071 9.81453 13.0023 9.73438Z" fill="#E45686"/>
<path d="M15.9746 1.07074C16.0713 0.970603 16.1717 0.907208 16.2876 0.831243C16.7912 0.501092 17.4077 0.289762 18.0117 0.281728C18.6528 0.268896 19.2719 0.515046 19.7293 0.964525C19.9399 1.17162 20.1127 1.34982 20.2933 1.5858C21.0327 2.55926 21.3603 3.83902 21.3486 5.05599C21.3398 5.97436 21.1272 7.23787 20.5019 7.94987C20.2673 8.21699 19.9428 8.20895 19.6484 8.04698C19.6337 8.03876 19.5429 7.96759 19.5239 7.95328C19.4593 7.88055 19.3912 7.81353 19.3329 7.7351C19.0508 7.35632 18.8475 6.87587 18.6804 6.4378C18.2404 5.28495 17.8715 4.11508 17.3241 3.00578C17.0592 2.46188 16.732 1.95065 16.3489 1.48238C16.235 1.34335 16.0793 1.21162 15.9746 1.07074Z" fill="#A24F16"/>
<path d="M6.35075 8.04497C6.19956 8.12253 6.04273 8.19502 5.86969 8.15794C5.35887 8.04149 5.06432 7.32395 4.92656 6.87185C4.28641 4.77096 4.73331 2.07541 6.58112 0.707953C7.52944 0.00614214 8.86368 0.246699 9.77753 0.875485C9.85974 0.932048 9.97529 0.997458 10.033 1.07821C8.73817 2.35372 8.2293 3.97493 7.61186 5.63891C7.34867 6.34821 7.00649 7.4287 6.46696 7.95218C6.44603 7.97009 6.37151 8.0359 6.35075 8.04497Z" fill="#A24F16"/>
<path d="M6.34996 8.04591C6.37073 8.03684 6.44525 7.97103 6.46618 7.95312L6.46956 7.96208C6.50083 8.04703 6.52825 8.17104 6.55478 8.26176C6.60216 8.42252 6.65866 8.58045 6.72398 8.7348C7.60083 10.8045 9.96741 11.5132 12.0321 11.6253C12.1017 11.6855 12.235 11.8062 12.307 11.8521C12.536 11.9977 12.8257 12.0713 13.0959 12.0477C13.4761 12.0145 13.6936 11.8777 13.9578 11.6237C14.0194 11.6227 14.0846 11.6171 14.1465 11.6121C15.7646 11.4802 17.5326 11.0341 18.637 9.75791C19.1011 9.22168 19.3593 8.62972 19.5233 7.95329C19.5423 7.9676 19.6331 8.03877 19.6479 8.04698C19.6645 8.18857 19.6355 8.43632 19.6193 8.57858C19.5294 9.36903 19.245 10.1547 18.7445 10.7797C18.4352 11.1659 17.9323 11.6029 17.4905 11.83C17.3719 11.9063 17.1947 11.989 17.065 12.0483C15.7755 12.637 14.3243 12.7931 12.9216 12.7882C11.3537 12.7828 9.89506 12.5684 8.50205 11.8309C7.88944 11.4493 7.48211 11.132 7.0626 10.5169C6.65438 9.91832 6.44522 9.21099 6.36435 8.49602C6.35035 8.37222 6.32819 8.16106 6.34996 8.04591Z" fill="#C57C40"/>
<path d="M15.4732 3.60014C15.8128 3.5515 16.1282 3.78563 16.1799 4.12478C16.2315 4.46394 16.0002 4.78141 15.6615 4.83616C15.3185 4.89161 14.9961 4.65672 14.9438 4.31321C14.8914 3.96971 15.1291 3.64941 15.4732 3.60014Z" fill="#1C1C1D"/>
<path d="M10.3446 3.60023C10.6874 3.55082 11.0051 3.78951 11.053 4.13251C11.1009 4.47552 10.8608 4.7921 10.5176 4.83849C10.1765 4.8846 9.86228 4.64632 9.81468 4.30545C9.76708 3.96457 10.004 3.64934 10.3446 3.60023Z" fill="#1C1C1D"/>
<path d="M8.50223 11.8291C9.89524 12.5665 11.3539 12.781 12.9217 12.7864C14.3245 12.7913 15.7757 12.6352 17.0651 12.0464C17.1949 11.9871 17.3721 11.9044 17.4906 11.8281C17.5761 11.9254 17.9162 12.6483 17.9346 12.7754C18.0783 13.1266 18.3691 13.9346 18.3868 14.3105C18.4421 14.3228 18.4987 14.3346 18.5533 14.3493C20.077 14.755 21.0847 16.3616 20.7391 17.8996C20.6622 18.2294 20.5462 18.5487 20.3934 18.8509C20.2679 19.1049 20.1318 19.3537 19.9859 19.5965C19.8221 19.8725 19.617 20.1854 19.5105 20.4843C19.4378 20.7721 19.4239 20.8785 19.7101 20.9884C19.9351 21.075 20.2264 21.2009 20.4263 21.3277C20.9534 21.6619 21.4093 22.5592 21.3257 23.1822C21.2947 23.4137 21.1176 23.6834 20.9307 23.8082C20.7865 23.9174 20.6511 23.927 20.5187 23.9964H17.5358H14.7458H11.2382H8.46727H5.4738C5.45566 23.9864 5.45727 23.986 5.43935 23.9808C4.87745 23.8202 4.54663 23.3289 4.68942 22.7423C4.84898 22.108 5.15386 21.5204 5.7617 21.2189C5.95304 21.1241 6.33102 20.9853 6.48799 20.8772C6.51628 20.8118 6.51977 20.7913 6.52897 20.7207C6.55515 20.5198 6.20756 19.8641 6.0812 19.7308C6.06122 19.6355 5.85363 19.3124 5.79602 19.2061C5.47468 18.6129 5.20709 18.0036 5.19575 17.3168C5.18674 16.7712 5.32389 16.2917 5.59145 15.8208C5.61669 15.7764 5.69755 15.631 5.72659 15.6004C5.78715 15.5376 5.89678 15.3419 5.98913 15.2407C6.32801 14.8698 6.73688 14.5896 7.21005 14.4179C7.33979 14.3709 7.47553 14.3426 7.60584 14.303C7.66986 13.8338 7.88974 13.2105 8.05523 12.7704C8.13415 12.5613 8.37695 12.0107 8.50223 11.8291Z" fill="#D88845"/>
<path d="M18.3868 14.3125C18.4421 14.3248 18.4987 14.3366 18.5533 14.3513C20.077 14.757 21.0847 16.3636 20.7391 17.9016C20.6622 18.2314 20.5462 18.5507 20.3934 18.8529C20.2679 19.1069 20.1318 19.3557 19.9859 19.5985C19.8221 19.8745 19.617 20.1873 19.5105 20.4863C19.4378 20.7741 19.4239 20.8805 19.7101 20.9904C19.9351 21.077 20.2264 21.2029 20.4263 21.3297C20.9534 21.6639 21.4093 22.5612 21.3257 23.1842C21.2947 23.4157 21.1176 23.6854 20.9307 23.8102C20.7865 23.9194 20.6511 23.929 20.5187 23.9984H17.5358C17.5831 23.9573 17.7603 23.89 17.8276 23.8514C18.3221 23.5682 18.4169 22.9335 18.1551 22.4518C18.0714 22.2775 17.9587 22.1186 17.8217 21.982C17.5622 21.7199 16.9151 21.3271 16.8129 21.0067C16.7653 20.8572 16.7682 20.7041 16.8222 20.5563C16.9553 20.1918 17.2229 19.8586 17.4284 19.5306C17.7768 18.9753 18.0414 18.3715 18.2137 17.7388C18.441 16.9047 18.5402 15.9283 18.4812 15.0634C18.4644 14.8165 18.424 14.5578 18.3868 14.3125Z" fill="#C77335"/>
<path d="M7.60584 14.3047C7.57527 14.448 7.55671 14.615 7.54241 14.7591C7.37223 16.4738 7.70934 18.2721 8.68472 19.7137C8.90111 20.0336 9.28148 20.5299 9.20571 20.9299C9.11432 21.3384 8.5048 21.6377 8.21895 21.94C8.0512 22.1175 7.94966 22.2154 7.84327 22.4423C7.71326 22.7042 7.65086 23.0497 7.74681 23.3302C7.83307 23.5825 8.01271 23.7834 8.25496 23.8926C8.29791 23.912 8.43434 23.9739 8.46727 23.9981H5.4738C5.45566 23.9881 5.45727 23.9877 5.43935 23.9825C4.87745 23.8218 4.54663 23.3306 4.68942 22.7439C4.84898 22.1097 5.15386 21.522 5.7617 21.2206C5.95304 21.1258 6.33102 20.987 6.48799 20.8789C6.51628 20.8135 6.51977 20.793 6.52897 20.7223C6.55515 20.5215 6.20756 19.8658 6.0812 19.7325C6.06122 19.6372 5.85363 19.3141 5.79602 19.2078C5.47468 18.6146 5.20709 18.0052 5.19575 17.3185C5.18674 16.7729 5.32389 16.2934 5.59145 15.8225C5.61669 15.7781 5.69755 15.6327 5.72659 15.6021C5.78715 15.5393 5.89678 15.3436 5.98913 15.2424C6.32801 14.8715 6.73688 14.5913 7.21005 14.4195C7.33979 14.3725 7.47553 14.3443 7.60584 14.3047Z" fill="#C77335"/>
<path d="M11.245 18.6534C11.2681 18.6281 11.2923 18.6038 11.3176 18.5807C12.0363 17.9214 14.0793 17.9182 14.7481 18.6529C14.7138 19.0441 14.6438 19.4704 14.5952 19.8632C14.4846 20.7569 14.3354 21.6613 14.2292 22.5543C14.2122 22.6717 14.1958 22.7893 14.1801 22.9069C14.1377 23.2009 14.0965 23.4336 14.2867 23.6951C14.3706 23.8108 14.4858 23.8886 14.6169 23.9409C14.6451 23.9521 14.7249 23.9834 14.7459 23.9968H11.2383C11.2533 23.987 11.2529 23.9856 11.2679 23.9812C11.5165 23.907 11.7108 23.7668 11.8037 23.5171C11.879 23.3147 11.8421 23.1182 11.8188 22.9081C11.7983 22.8057 11.7838 22.6783 11.7692 22.5732C11.5994 21.2759 11.3901 19.9509 11.245 18.6534Z" fill="#FEF6B8"/>
<path d="M11.8188 22.9126C12.5965 22.9063 13.4027 22.9028 14.1801 22.9114C14.1377 23.2054 14.0965 23.4381 14.2867 23.6996C14.3706 23.8153 14.4858 23.8931 14.6169 23.9454C14.6451 23.9566 14.7249 23.9879 14.7459 24.0013H11.2383C11.2533 23.9915 11.2529 23.9901 11.2679 23.9857C11.5165 23.9115 11.7108 23.7713 11.8037 23.5216C11.879 23.3192 11.8421 23.1227 11.8188 22.9126Z" fill="#E7DFA7"/>
<path d="M8.50266 11.8291C9.89567 12.5665 11.3543 12.781 12.9222 12.7864C14.3249 12.7913 15.7762 12.6352 17.0656 12.0464C17.1953 11.9871 17.3725 11.9044 17.4911 11.8281C17.5765 11.9254 17.9166 12.6483 17.935 12.7754C17.8347 12.8134 17.7073 12.9002 17.6124 12.9561C17.4495 13.054 17.2812 13.1426 17.1083 13.2214C15.9929 13.7174 15.0394 13.89 13.8279 13.9843L13.8217 13.9798C13.7195 13.7407 13.5772 13.5634 13.33 13.4628C13.1134 13.3741 12.8703 13.3762 12.6552 13.4685C12.4113 13.5729 12.2719 13.7488 12.1725 13.9874L12.1687 13.9872C11.9241 13.9505 11.6231 13.9379 11.363 13.9035C10.5958 13.81 9.84428 13.6158 9.12775 13.3261C8.90669 13.2341 8.69117 13.1293 8.48226 13.0123C8.37955 12.9539 8.15282 12.8015 8.05566 12.7704C8.13458 12.5613 8.37738 12.0107 8.50266 11.8291Z" fill="#EE201F"/>
<path d="M18.1554 22.4531C18.4172 22.9349 18.3224 23.5696 17.8278 23.8528C17.7606 23.8914 17.5834 23.9586 17.536 23.9998H14.746C14.7251 23.9864 14.6453 23.9551 14.617 23.9439C14.486 23.8916 14.3708 23.8138 14.2869 23.6981C14.0967 23.4366 14.1378 23.2039 14.1803 22.9099C14.196 22.7923 14.2124 22.6747 14.2294 22.5573C14.3699 22.667 14.4975 22.8308 14.6865 22.8693C14.8806 22.9086 15.0969 22.899 15.2957 22.8989L15.9825 22.8993C16.4269 22.8996 16.8821 22.9049 17.326 22.8941C17.7037 22.885 17.9144 22.7252 18.1554 22.4531Z" fill="#C57C40"/>
<path d="M7.84318 22.4453C8.19023 22.9349 8.57979 22.9001 9.11938 22.9004L9.97393 22.9007H10.7002C10.8699 22.9009 11.0763 22.9068 11.2422 22.8829C11.3462 22.8679 11.445 22.8278 11.5301 22.7662C11.606 22.7118 11.6987 22.615 11.769 22.5775C11.7836 22.6826 11.7981 22.81 11.8186 22.9124C11.8419 23.1225 11.8788 23.3191 11.8035 23.5214C11.7106 23.7712 11.5163 23.9113 11.2677 23.9855C11.2527 23.99 11.2531 23.9914 11.2381 24.0011H8.46718C8.43425 23.977 8.29782 23.915 8.25487 23.8956C8.01262 23.7864 7.83299 23.5855 7.74673 23.3332C7.65077 23.0527 7.71318 22.7072 7.84318 22.4453Z" fill="#C57C40"/>
<path d="M12.1719 13.9881C12.2712 13.7495 12.4107 13.5737 12.6546 13.4692C12.8696 13.3769 13.1128 13.3748 13.3293 13.4635C13.5766 13.5642 13.7189 13.7415 13.8211 13.9805C13.8264 14.0431 13.7872 14.0893 13.7591 14.1422C13.6148 14.4128 13.3488 14.5804 13.0423 14.5967C12.8073 14.6077 12.5776 14.524 12.4048 14.3643C12.3229 14.289 12.1761 14.0941 12.1719 13.9881Z" fill="#FED832"/>
<path d="M13.8217 13.9844L13.828 13.9888C13.8471 14.1307 13.8816 14.2036 13.8634 14.3634C13.8376 14.5974 13.7182 14.811 13.5321 14.9553C13.3436 15.1008 13.104 15.1632 12.8685 15.1278C12.6394 15.0948 12.4332 14.9714 12.2959 14.7852C12.0866 14.5001 12.1238 14.2976 12.1687 13.9918L12.1726 13.992C12.1768 14.0979 12.3236 14.2928 12.4055 14.3682C12.5783 14.5279 12.808 14.6116 13.043 14.6005C13.3495 14.5843 13.6155 14.4167 13.7598 14.1461C13.7879 14.0931 13.8271 14.047 13.8217 13.9844Z" fill="#E8C42E"/>
<path d="M6.08102 19.7353C5.92321 19.6908 5.67654 19.5924 5.52475 19.527C4.37871 19.0334 3.49421 18.2049 3.03558 17.0296C2.57586 15.8516 2.49773 14.4872 3.00978 13.3109C3.23453 12.8285 3.55694 12.3446 4.07079 12.1442C4.46847 11.9869 4.88322 12.109 5.05008 12.5266C5.22699 12.9692 5.26593 13.4562 5.34195 13.9232C5.43336 14.4848 5.53213 15.0687 5.72641 15.6049C5.69737 15.6355 5.61651 15.781 5.59127 15.8254C5.3237 16.2962 5.18656 16.7758 5.19557 17.3214C5.2069 18.0081 5.4745 18.6175 5.79584 19.2107C5.85345 19.317 6.06104 19.6401 6.08102 19.7353Z" fill="#A24F16"/>
</g>
<defs>
<clipPath id="clip0_580_8776">
<rect width="24" height="24" fill="white"/>
</clipPath>
</defs>
</svg>
