<svg width="20" height="20" viewBox="0 0 20 20" fill="none" xmlns="http://www.w3.org/2000/svg">
<g clip-path="url(#clip0_580_8550)">
<path d="M8.97295 0H9.48438C9.54893 0.0258254 9.63359 0.0337995 9.70283 0.0468886C10.4756 0.193089 11.1053 0.705126 11.4363 1.41107C11.6949 1.96253 11.668 2.39031 11.6658 2.97528L11.6646 4.10608V7.7932L11.6648 10.8336L11.6649 11.7809C11.6649 11.9194 11.6705 12.1795 11.6576 12.3115C11.8701 12.4852 12.0196 12.5883 12.2216 12.7881C12.9161 13.4815 13.3463 14.396 13.4376 15.3731C13.5466 16.4816 13.2111 17.588 12.5048 18.4492C11.9461 19.1312 11.189 19.6222 10.3385 19.8544C10.2086 19.8907 10.0769 19.9202 9.94385 19.9429C9.87549 19.9546 9.67451 19.9785 9.62158 20H8.83643C8.76182 19.9751 8.46436 19.9315 8.36582 19.9119C7.28135 19.6845 6.3289 19.042 5.7119 18.1217C4.90276 16.9102 4.77135 15.3484 5.37941 14.0243C5.68364 13.3618 6.18153 12.7295 6.79121 12.3234C6.80225 12.2428 6.79356 11.897 6.79336 11.7946L6.79297 10.6216L6.79307 4.95515V3.19043C6.79268 2.55398 6.73867 2.03743 7.00908 1.43768C7.28779 0.807144 7.82285 0.325965 8.4794 0.115593C8.62637 0.066894 8.86221 0.0469334 8.97295 0Z" fill="#D8D8D7"/>
<path d="M10.2406 4.28125C10.2582 4.32273 10.2484 6.01067 10.2484 6.2119L10.2489 12.9572C10.9395 13.1963 11.5328 13.7543 11.8523 14.4078C12.1945 15.1066 12.244 15.9128 11.99 16.6481C11.7333 17.3862 11.1927 17.9911 10.488 18.3288C9.79477 18.6612 8.99828 18.7062 8.27201 18.4539C8.16977 18.4188 8.06996 18.3766 7.97348 18.3277C7.34096 18.0469 6.7848 17.4256 6.52589 16.79C6.23533 16.0721 6.24173 15.2681 6.54367 14.5549C6.8683 13.7876 7.44642 13.2706 8.20941 12.9625C8.19887 12.8274 8.20346 12.6449 8.20346 12.5076L8.20365 11.7729V9.42422V6.06638C8.20355 5.50439 8.18676 4.83665 8.20795 4.28149L10.2406 4.28125Z" fill="#E6394A"/>
<path d="M8.20941 12.9609C8.81283 13.2751 9.24926 13.9101 9.44857 14.5425C9.86615 15.868 9.51166 17.3295 8.31059 18.1225C8.23666 18.1713 8.02719 18.275 7.97348 18.3261C7.34096 18.0453 6.7848 17.424 6.52589 16.7884C6.23533 16.0705 6.24173 15.2665 6.54367 14.5533C6.8683 13.786 7.44643 13.269 8.20941 12.9609Z" fill="#FD4F50"/>
<path d="M8.20833 4.28202L8.20979 3.06629C8.20979 3.01138 8.2094 2.95601 8.20979 2.90114C8.21252 2.438 8.15569 2.05346 8.51506 1.69907C8.70979 1.50755 8.97317 1.40212 9.24631 1.40637C9.51292 1.41063 9.76731 1.51931 9.95481 1.70907C10.0842 1.84298 10.1746 2.00967 10.2162 2.19117C10.2553 2.36008 10.2495 2.57876 10.2489 2.75354C10.247 3.23679 10.2493 3.71998 10.2493 4.20322C10.2493 4.23367 10.2489 4.25265 10.2409 4.28177L8.20833 4.28202Z" fill="#F2E8D7"/>
<path d="M13.2921 6.43096C13.8465 6.4041 14.468 6.44616 15.0273 6.43809C15.3674 6.43318 15.4929 6.99476 15.0012 7.04463C14.4316 7.05144 13.8522 7.04409 13.282 7.04316C13.1197 7.04289 12.9864 6.94325 12.9635 6.77478C12.9526 6.69304 12.9767 6.61053 13.0296 6.54729C13.1047 6.45845 13.1857 6.44082 13.2921 6.43096Z" fill="#0C6E9B"/>
<path d="M13.2011 1.54367C13.5578 1.51334 13.9692 1.54934 14.3309 1.53968C14.6943 1.52997 14.7875 2.02956 14.4177 2.13824C14.2567 2.16231 13.2402 2.16772 13.1326 2.1169C13.0568 2.08116 13.0007 2.0099 12.9751 1.93104C12.9476 1.84664 12.9584 1.77013 13.0006 1.69294C13.0455 1.61084 13.1137 1.57007 13.2011 1.54367Z" fill="#0C6E9B"/>
<path d="M13.2242 11.3233C13.5824 11.299 13.9856 11.3233 14.3477 11.3224C14.6939 11.3213 14.8 11.8293 14.3834 11.9248C14.1792 11.9358 13.9552 11.9237 13.7481 11.9271C13.5851 11.9272 13.425 11.9332 13.2621 11.9243C12.8762 11.9033 12.856 11.3925 13.2242 11.3233Z" fill="#0C6E9B"/>
<path d="M13.2531 8.87317C13.3864 8.86509 13.5469 8.87007 13.6829 8.86987C13.824 8.86966 14.1119 8.84983 14.2296 8.92126C14.3003 8.9638 14.3496 9.03439 14.3651 9.11543C14.3818 9.1994 14.363 9.28654 14.3132 9.35613C14.2561 9.43531 14.19 9.46233 14.0978 9.47658C13.9621 9.49144 13.7881 9.48785 13.6506 9.48575C13.4223 9.48226 13.0127 9.54365 12.9638 9.23389C12.9507 9.15069 12.9716 9.0657 13.0219 8.99812C13.0878 8.90929 13.1512 8.88581 13.2531 8.87317Z" fill="#0C6E9B"/>
<path d="M13.2796 3.98062C13.5045 3.96959 13.7327 3.98548 13.9656 3.97709C14.2642 3.96632 14.4951 4.17281 14.307 4.46862C14.2509 4.55674 14.1531 4.57879 14.0532 4.59003L13.5553 4.59253C13.3368 4.59306 12.9781 4.62394 12.9614 4.31123C12.957 4.22515 12.9877 4.14098 13.0465 4.078C13.1198 3.99845 13.1805 3.98678 13.2796 3.98062Z" fill="#0C6E9B"/>
</g>
<defs>
<clipPath id="clip0_580_8550">
<rect width="20" height="20" fill="white"/>
</clipPath>
</defs>
</svg>
