<svg width="20" height="20" viewBox="0 0 20 20" fill="none" xmlns="http://www.w3.org/2000/svg">
<g clip-path="url(#clip0_580_8581)">
<path d="M9.99915 13.3148C10.5761 13.3231 11.1541 13.3104 11.7308 13.3169C12.0365 13.3204 12.3863 13.2997 12.6882 13.3261C13.9957 13.4405 15.1118 14.5066 15.2911 15.8065C15.4233 16.7623 15.117 17.7043 14.4174 18.3726C13.8335 18.9303 13.0826 19.2127 12.2792 19.1798C11.4947 19.1562 10.799 18.8411 10.2546 18.2743C10.162 18.178 10.0306 18.0361 9.97601 17.9187C9.74373 17.6326 9.54544 17.1045 9.48705 16.7442C9.40868 16.2606 9.38761 15.7447 9.99671 15.6595C10.0061 15.6595 10.0155 15.6596 10.0248 15.6597C10.4355 15.6649 10.6463 15.9453 10.6447 16.3409C10.6444 16.4123 10.6692 16.5807 10.6863 16.6528C10.7613 16.9577 10.916 17.237 11.1348 17.4623C11.4616 17.7992 11.9097 17.9909 12.3789 17.9945C12.8409 17.9965 13.2883 17.8002 13.6138 17.4753C13.9397 17.1529 14.123 16.7135 14.1228 16.2551C14.1221 15.7559 13.9512 15.3635 13.6048 15.0063C13.0154 14.3983 12.2196 14.4918 11.4467 14.4919L9.99915 14.4933V13.3148Z" fill="#00C0F0"/>
<path d="M9.97601 17.9154C9.74373 17.6293 9.54544 17.1013 9.48705 16.7409C9.40868 16.2573 9.38761 15.7414 9.99671 15.6562C10.0014 15.8959 10.0165 17.8337 9.97601 17.9154Z" fill="#4FFAFD"/>
<path d="M10.0004 14.4926C9.79976 14.4832 9.53909 14.4908 9.33507 14.4908H8.06714L4.17312 14.4907L2.83934 14.4915C2.62389 14.4917 2.38489 14.4975 2.17044 14.4845C2.03155 14.4703 1.91932 14.4276 1.81908 14.3301C1.46425 13.9847 1.65843 13.344 2.17793 13.3197C2.4494 13.3071 2.72795 13.3148 3.00246 13.315L4.62507 13.3152L10.0004 13.3141V14.4926Z" fill="#4FFAFD"/>
<path d="M9.99952 12.1438C9.65467 12.1278 9.17569 12.142 8.82115 12.142L6.50184 12.1418L5.73982 12.1431C5.4591 12.1436 5.15156 12.187 4.93572 11.9741C4.82525 11.8639 4.76331 11.7141 4.76367 11.558C4.76328 11.3916 4.81889 11.2455 4.9363 11.1264C5.14129 10.9185 5.5016 10.9654 5.77304 10.9657L6.70265 10.9663L9.99952 10.9653V12.1438Z" fill="#4FFAFD"/>
<path d="M10 10.9707C11.0478 10.9843 12.1196 10.9736 13.169 10.9732L13.983 10.972C14.131 10.9718 14.3232 10.9591 14.465 10.9851C14.7662 11.0404 14.9311 11.2892 14.9263 11.5808C14.9251 11.7358 14.8621 11.884 14.7514 11.9925C14.541 12.1964 14.2256 12.1492 13.9519 12.1491L13.1079 12.1486C12.08 12.1479 11.0261 12.1369 10 12.1492V10.9707Z" fill="#00C0F0"/>
<path d="M7.61961 8.63C8.11539 8.59602 8.656 8.64248 9.15592 8.62421C9.30848 8.62417 9.50006 8.64267 9.62181 8.74551C10.0356 9.09508 9.85771 9.71553 9.32883 9.79617C9.27316 9.80359 9.12792 9.80076 9.06625 9.80076L8.57144 9.80086L8.00571 9.80076C7.80868 9.80105 7.5632 9.82088 7.38947 9.71832C7.02505 9.5031 7.01099 8.9521 7.36345 8.71843C7.44897 8.66173 7.5207 8.64654 7.61961 8.63Z" fill="#4FFAFD"/>
<path d="M9.9831 0H10.6128L10.6204 0.00327623C10.7777 0.0691802 10.7872 0.0355117 10.9474 0.168527C11.1071 0.331231 11.135 0.537213 11.1304 0.758045C11.103 2.05859 10.7438 3.45625 9.78505 4.38533C8.94315 5.20121 7.52593 5.60337 6.37964 5.60268C6.25225 5.90111 6.19446 6.13037 6.30817 6.45429C6.40969 6.74346 6.68415 6.85752 6.70233 7.18631C6.72596 7.62785 6.25527 7.95021 5.85705 7.75913C5.54371 7.60877 5.29373 7.14972 5.17876 6.84273C5.11689 6.6775 5.01187 6.20041 5.05506 6.03212C5.06682 5.54435 5.24171 5.16947 5.5088 4.77881C5.53414 3.76978 5.74593 2.78564 6.27541 1.91583C6.49419 1.55645 6.72387 1.29508 7.04905 1.03036C7.77007 0.436801 8.68626 0.165111 9.59777 0.0408497C9.73084 0.0227091 9.84442 0.0355457 9.9831 0Z" fill="#00969B"/>
<path d="M9.9837 0H10.6134L10.621 0.00327623C10.7783 0.0691802 10.7878 0.0355117 10.948 0.168527C10.3785 0.699847 5.17385 5.99787 5.05566 6.03212C5.06742 5.54435 5.24231 5.16947 5.5094 4.77881C5.53475 3.76978 5.74653 2.78564 6.27602 1.91583C6.4948 1.55645 6.72447 1.29508 7.04966 1.03036C7.77067 0.436801 8.68687 0.165111 9.59838 0.0408497C9.73144 0.0227091 9.84503 0.0355457 9.9837 0Z" fill="#00CDB1"/>
<path d="M20.0003 7.17944C19.9815 7.23401 19.9572 7.41293 19.9419 7.48897C19.9055 7.6655 19.8516 7.83796 19.781 8.00376C19.4826 8.72178 18.9105 9.29125 18.1909 9.58603C17.9131 9.69972 17.6193 9.76963 17.3199 9.79317C17.0607 9.81368 16.6841 9.80176 16.4138 9.80176H14.8134L12.685 9.80186C12.3237 9.80186 11.9593 9.80381 11.598 9.8002C11.516 9.79942 11.4307 9.78389 11.3553 9.75071C11.2184 9.68926 11.1107 9.57704 11.0549 9.43772C10.9958 9.28615 10.9999 9.09639 11.0693 8.94901C11.1342 8.81089 11.2608 8.69686 11.4081 8.65559C11.6193 8.59651 12.3209 8.62663 12.576 8.62664L15.587 8.62684L16.5516 8.62673C16.9042 8.62643 17.3176 8.64375 17.648 8.51763C18.1035 8.34676 18.4722 8.00142 18.6724 7.55802C19.0584 6.68198 18.6378 5.63449 17.7579 5.26085C17.329 5.08087 16.8464 5.0779 16.4153 5.25261C15.8825 5.46984 15.4658 5.96135 15.358 6.53256C15.3169 6.73356 15.3481 6.91995 15.2655 7.11281C15.1415 7.42014 14.7532 7.5434 14.4624 7.40037C14.1953 7.26903 14.1331 7.02729 14.1392 6.75522C14.151 6.33254 14.2553 5.9176 14.4448 5.53961C14.7516 4.91411 15.3911 4.33478 16.0579 4.10933C16.83 3.84826 17.6573 3.87813 18.3928 4.24401C19.0516 4.57168 19.6218 5.20685 19.849 5.90961C19.8918 6.0453 19.9339 6.18374 19.9607 6.32369C19.977 6.40906 19.9673 6.4882 20.0003 6.57242V7.17944Z" fill="#00C0F0"/>
<path d="M3.85319 17.2655L3.51612 16.9346C3.31936 16.7408 3.12531 16.5859 3.12385 16.2884C3.12236 16.1286 3.18617 15.9751 3.30052 15.8635C3.4887 15.6783 3.81012 15.6508 4.03624 15.7952C4.12226 15.8501 4.23602 15.9742 4.31085 16.049L4.70129 16.4404C5.02441 16.7647 5.34878 17.0876 5.67294 17.4108C5.808 17.5456 5.86493 17.6908 5.86093 17.8795C5.85539 18.1406 5.68517 18.2785 5.51519 18.4486L5.13068 18.8332L4.46268 19.5009C4.34947 19.614 4.23531 19.7273 4.12214 19.8404C4.02612 19.9364 3.9371 19.9405 3.84417 19.9993H3.56807C3.53921 19.9814 3.48249 19.9562 3.45015 19.9408C3.23677 19.8395 3.11409 19.6255 3.1245 19.3893C3.12836 19.2928 3.15564 19.1984 3.20401 19.1147C3.29843 18.9489 3.69892 18.5797 3.8537 18.4378L1.68997 18.4396H0.974248C0.647233 18.4395 0.289866 18.4878 0.0974859 18.1762C0.0543183 18.1064 0.040756 18.0593 0.00726505 17.9901L0 17.9753V17.7256C0.0203431 17.6891 0.0303259 17.6522 0.0456492 17.6179C0.0993633 17.4972 0.242466 17.3259 0.378335 17.2975C0.644092 17.242 0.998838 17.2621 1.27208 17.262L2.49559 17.2619L3.39176 17.262C3.51558 17.262 3.73509 17.2556 3.85319 17.2655Z" fill="#00607F"/>
<path d="M0 11.4387C0.0210433 11.3888 0.0355276 11.3415 0.0578948 11.2913C0.234574 10.8946 0.677152 10.9658 1.04011 10.966L1.91223 10.9669L2.63219 10.9662C2.84167 10.9658 3.07333 10.9419 3.26819 11.0276C3.7264 11.229 3.6977 11.9353 3.22809 12.1027C3.05241 12.1653 2.77929 12.1437 2.58925 12.1427H1.86416L1.02932 12.1433C0.881727 12.1433 0.728262 12.1453 0.58136 12.1403C0.517864 12.1381 0.379128 12.1146 0.322823 12.0864C0.169928 12.0104 0.0656399 11.8697 0.0134095 11.7095C0.00794461 11.6928 0.00946728 11.6975 0 11.6811V11.4387Z" fill="#4FFAFD"/>
</g>
<defs>
<clipPath id="clip0_580_8581">
<rect width="20" height="20" fill="white"/>
</clipPath>
</defs>
</svg>
