<svg width="24" height="23" viewBox="0 0 24 23" fill="none" xmlns="http://www.w3.org/2000/svg">
<path d="M6.0797 3.31096C6.05319 3.21241 6.06569 2.92761 6.06521 2.8093C6.06266 2.17589 6.03778 1.69769 6.36704 1.11999C6.65419 0.608992 7.13516 0.235292 7.70126 0.0833142C8.08108 -0.0192115 8.47614 0.00343282 8.86825 0.00342463L9.85293 0.00367401L12.9496 0.00409542L15.0135 0.00418563C15.3963 0.00411305 15.8162 -0.012221 16.1927 0.0201415C17.0836 0.096684 17.8741 0.799317 18.0891 1.66144C18.1897 2.06508 18.1564 2.47181 18.1609 2.8826C18.1619 2.97716 18.1654 3.22736 18.1522 3.31252L19.4025 3.3096C19.6853 3.30947 20.0875 3.30151 20.366 3.32853C21.2932 3.41115 22.1622 3.81527 22.8228 4.47099C23.3185 4.9584 23.6949 5.63173 23.8685 6.30167C23.8973 6.41299 23.95 6.79316 23.9766 6.84646V18.6759C23.9476 18.741 23.9107 19.0235 23.8863 19.1312C23.8124 19.4583 23.6955 19.7743 23.5385 20.0706C23.0502 21.0055 22.2126 21.71 21.2079 22.031C20.4947 22.2544 19.8829 22.2102 19.1506 22.2099L17.198 22.2098L11.1287 22.2099L6.23067 22.2095L4.72664 22.2039C4.37528 22.2038 3.95205 22.2154 3.60964 22.1861C3.07482 22.1401 2.55503 21.9854 2.08216 21.7314C1.19232 21.2643 0.483632 20.4032 0.180362 19.4462C0.131017 19.2894 0.0912331 19.1296 0.0612304 18.9678C0.0430257 18.864 0.0330234 18.7262 0 18.6292V6.90768C0.0304099 6.8335 0.0329127 6.69772 0.0476995 6.61311C0.186734 5.81755 0.58763 5.03663 1.1631 4.46546C1.83068 3.80921 2.70784 3.40867 3.641 3.33397C3.98756 3.30388 4.40615 3.31586 4.75973 3.31716L6.0797 3.31096ZM17.0887 3.3116C17.0647 3.22164 17.071 3.06884 17.0714 2.97249L17.0735 2.46506C17.0748 2.10329 17.0852 1.88584 16.8807 1.57199C16.7431 1.36121 16.437 1.13344 16.18 1.10046C15.8171 1.05387 15.3806 1.07248 15.0097 1.07295L12.8832 1.07319L9.78768 1.07303L8.84284 1.07213C8.43039 1.07163 8.01188 1.02397 7.65313 1.27197C7.05484 1.68557 7.1564 2.2853 7.1535 2.92155C7.153 3.03166 7.16152 3.20389 7.13904 3.31201C7.44173 3.31818 7.76749 3.30992 8.07283 3.30972L9.98407 3.31037L17.0887 3.3116Z" fill="#EC434A"/>
</svg>
