<svg width="24" height="24" viewBox="0 0 24 24" fill="none" xmlns="http://www.w3.org/2000/svg">
<g clip-path="url(#clip0_777_19271)">
<path d="M10.8798 3.7498C11.0432 3.74383 11.2066 3.74137 11.3701 3.74242C13.6707 3.74549 15.8909 4.58931 17.6128 6.11508C17.9623 6.42675 18.3493 6.70788 18.3386 7.22437C18.3348 7.47329 18.2305 7.71009 18.0495 7.88101C17.7713 8.14059 17.3646 8.20283 17.0156 8.0601C16.8035 7.97332 16.6008 7.74098 16.4311 7.58876C16.3161 7.48572 16.2011 7.38527 16.0804 7.28927C14.8371 6.29031 13.3092 5.71126 11.716 5.63535C11.5225 5.62028 11.2335 5.62244 11.0397 5.6283C9.59698 5.67312 8.19678 6.12761 7.00274 6.93865C6.74018 7.1149 6.48996 7.30891 6.25386 7.5193C6.09324 7.66171 5.86159 7.90462 5.69078 8.00684C5.56396 8.08347 5.42061 8.12863 5.27276 8.13853C5.02865 8.15511 4.76985 8.07226 4.58697 7.9083C4.39804 7.74225 4.28375 7.50725 4.26979 7.25611C4.25671 6.98658 4.34736 6.73535 4.53501 6.54346C4.7842 6.28864 5.0645 6.03113 5.34105 5.80832C6.92128 4.55035 8.86157 3.82922 10.8798 3.7498Z" fill="#D7E29B"/>
<path d="M10.9868 7.12429C11.1574 7.11518 11.3614 7.11579 11.5324 7.12076C12.9107 7.16219 14.2339 7.67103 15.2847 8.56374C15.636 8.86493 15.9781 9.13045 15.9538 9.63953C15.9417 9.88931 15.8293 10.1236 15.6421 10.2894C15.3238 10.5738 14.8333 10.6044 14.4795 10.3658C14.3228 10.2601 14.2001 10.113 14.0557 9.99338C13.8726 9.84344 13.6788 9.7071 13.4759 9.58544C12.9423 9.26601 12.2669 9.05049 11.6453 9.01249C10.5448 8.90327 9.30665 9.30983 8.48458 10.053C8.21918 10.2929 8.05167 10.4932 7.6731 10.5253C7.42114 10.5476 7.17086 10.4671 6.97907 10.3022C6.48056 9.87024 6.58374 9.15599 7.06658 8.76788C7.16244 8.69083 7.25898 8.60121 7.3543 8.52145C8.38149 7.67397 9.65646 7.18359 10.9868 7.12429Z" fill="#B9CD52"/>
<path d="M11.1811 10.4909C11.8016 10.4244 12.3587 10.8732 12.4257 11.4937C12.4926 12.1141 12.0441 12.6715 11.4237 12.739C10.8027 12.8065 10.2446 12.3575 10.1775 11.7363C10.1105 11.1153 10.5599 10.5575 11.1811 10.4909Z" fill="#B9CD52"/>
<path d="M8.57251 23.9785C8.52815 23.954 8.41315 23.937 8.35887 23.9273C7.5615 23.7844 6.83979 23.4345 6.24016 22.8788C5.43719 22.1321 4.96374 21.097 4.9239 20.001C4.90717 19.5618 4.91927 19.0526 4.91926 18.608L4.91936 16.0566L4.9187 14.5912C4.9182 14.326 4.91007 14.0537 4.92911 13.7917C4.93871 13.6595 5.09238 13.5028 5.22428 13.4941C5.47324 13.478 5.73975 13.4867 5.9888 13.4869L7.55371 13.4851L17.3051 13.4865L20.1562 13.4873L20.996 13.4863C21.4275 13.4857 21.7832 13.4501 22.1082 13.7842C22.2146 13.8936 22.2972 14.0633 22.3346 14.2135C22.3795 14.4777 22.3632 14.8223 22.363 15.0946L22.3613 16.3441C22.3476 17.5857 21.841 18.771 20.9532 19.6391C20.0215 20.5474 18.8484 20.9985 17.5496 20.9812L17.5194 20.9807C17.3404 21.5667 17.1219 22.0041 16.7273 22.4828C16.6132 22.621 16.4659 22.7564 16.3642 22.8785C15.8251 23.3567 15.307 23.6604 14.6012 23.8531C14.5061 23.8791 14.0714 23.9559 14.0352 23.9785H8.57251ZM17.6733 19.1013C18.4624 19.0826 19.0938 18.8212 19.6588 18.268C20.1947 17.7047 20.4482 17.0993 20.4716 16.3213C20.4811 16.0029 20.4677 15.6775 20.4784 15.3621C19.5576 15.3628 18.5925 15.3776 17.6753 15.3623C17.686 15.6258 17.6803 15.916 17.6803 16.1813L17.68 17.5468V18.5252C17.6801 18.7024 17.6868 18.9298 17.6733 19.1013Z" fill="#ECEBEB"/>
<path d="M8.57251 23.9785C8.52815 23.954 8.41315 23.937 8.35887 23.9273C7.5615 23.7844 6.83979 23.4345 6.24016 22.8788C5.43719 22.1321 4.96374 21.097 4.9239 20.001C4.90717 19.5618 4.91927 19.0526 4.91926 18.608L4.91936 16.0566L4.9187 14.5912C4.9182 14.326 4.91007 14.0537 4.92911 13.7917C4.93871 13.6595 5.09238 13.5028 5.22428 13.4941C5.47324 13.478 5.73975 13.4867 5.9888 13.4869L7.55371 13.4851C7.53413 14.4787 7.5528 15.5348 7.55272 16.5353L7.55252 17.9834C7.55217 18.6238 7.52526 19.1408 7.68664 19.7664C7.86716 20.459 8.22455 21.0928 8.72379 21.6057C9.49069 22.395 10.5415 22.8446 11.6421 22.8545C12.7443 22.8714 13.8902 22.8569 14.9959 22.8565L15.7931 22.8556C15.9409 22.8555 16.2264 22.8498 16.3642 22.8785C15.8251 23.3567 15.307 23.6604 14.6012 23.8531C14.5061 23.8791 14.0714 23.9559 14.0352 23.9785H8.57251Z" fill="#CECCCE"/>
<path d="M10.6142 0H11.9848C12.0861 0.0364713 12.4459 0.0428162 12.5748 0.0540478C12.8306 0.0764654 13.0856 0.107103 13.3394 0.145913C14.6176 0.342537 15.8603 0.724233 17.0286 1.27899C18.1976 1.83642 19.2749 2.55762 20.2292 3.4305C20.4692 3.65004 20.8239 3.9308 20.9281 4.23921C21.0098 4.48076 21.0038 4.7362 20.8918 4.96614C20.7812 5.19273 20.5841 5.36544 20.3451 5.44558C20.1981 5.49587 20.099 5.50349 19.9494 5.49094C19.5069 5.45382 19.2715 5.0963 18.9629 4.82736C18.8191 4.702 18.6619 4.56314 18.5078 4.43815C17.8228 3.87932 17.0759 3.40089 16.2818 3.01223C12.6749 1.27441 8.42246 1.54592 5.06585 3.72832C4.71662 3.95707 4.37988 4.20434 4.05706 4.46908C3.90316 4.5971 3.75231 4.72876 3.60465 4.86393C3.3768 5.07506 3.14971 5.34645 2.856 5.44579C2.61413 5.52759 2.35879 5.50471 2.13137 5.38999C1.90705 5.27739 1.73775 5.07892 1.66193 4.83965C1.43376 4.13779 2.05745 3.70849 2.50937 3.30205C4.18001 1.82373 6.19982 0.795507 8.37813 0.31442C8.80397 0.217997 9.23457 0.143929 9.66815 0.0925173C9.80319 0.0767328 9.94206 0.0652767 10.0761 0.0509984C10.2118 0.0365447 10.4974 0.0446898 10.6142 0Z" fill="#D7E29B"/>
</g>
<defs>
<clipPath id="clip0_777_19271">
<rect width="23.9766" height="23.9766" fill="white"/>
</clipPath>
</defs>
</svg>
