<svg width="24" height="24" viewBox="0 0 24 24" fill="none" xmlns="http://www.w3.org/2000/svg">
<g clip-path="url(#clip0_777_19231)">
<path d="M13.4319 0H13.6372C14.0809 0.277419 14.5253 1.22375 14.6372 1.73292C14.8255 2.591 14.614 3.42635 14.1454 4.15794C13.787 4.71774 13.0016 5.4057 13.5659 6.09995C13.8056 6.3947 14.1077 6.6426 14.3692 6.91812C14.5098 7.06305 14.6283 7.24305 14.758 7.37768C14.8067 7.42761 14.8619 7.4708 14.9221 7.5061C15.2034 7.66867 15.671 7.55066 15.804 7.24478C15.9518 6.90509 15.8779 6.37233 15.8654 6.0055C15.8496 5.72388 15.7711 5.40954 16.1701 5.35451C16.3378 5.33607 16.6911 5.5962 16.8217 5.69865C17.6951 6.38338 18.0999 7.42422 18.2286 8.4992C18.2646 8.80038 18.2614 8.98994 18.2676 9.27945C18.2835 10.0208 18.1433 10.5554 17.6734 11.1416C17.4487 11.4218 17.0358 11.7559 17.0799 12.1348C17.1145 12.432 17.3174 12.6786 17.4586 12.9353C17.4799 12.974 17.5764 13.1531 17.5923 13.172C17.5968 13.093 17.6477 12.8684 17.6695 12.7871C17.7494 12.4884 17.7992 12.114 18.0323 11.8924C18.2075 11.7259 18.4494 11.6347 18.6885 11.6402C18.6557 11.9896 18.716 12.7072 19.2194 12.6508C19.4377 12.5677 19.4595 12.3875 19.5607 12.3539C19.6125 12.6438 19.4256 13.3049 19.3635 13.6212C19.2353 14.2846 19.1193 14.9504 19.0156 15.618C18.939 16.1367 18.8657 16.6559 18.7957 17.1755C18.7805 17.2916 18.7314 17.7804 18.7036 17.8662C19.013 18.2574 18.9783 18.962 18.9221 19.434C18.8561 19.9898 18.632 20.5481 18.3192 21.0101C18.2295 21.1426 18.0666 21.3139 18.0164 21.4595C17.9352 22.0113 18.0206 22.6609 17.9542 23.2279C17.9104 23.6011 18.0181 23.756 17.6168 23.9766H12.6641H10.3994C9.99013 23.7212 10.086 23.4951 10.0044 23.069C9.98038 22.9438 9.96496 22.8011 9.9594 22.674C9.92504 22.5937 9.80995 21.6993 9.79717 21.5696C9.59048 21.552 9.26512 21.465 9.05528 21.4222L7.83433 21.1809L6.98899 21.0103C6.68844 20.9497 6.41106 20.9118 6.14713 20.7427C5.80576 20.5237 5.70035 20.1999 5.54545 19.8482C5.45396 19.6401 5.35669 19.4346 5.25378 19.232C4.83545 18.4028 4.33685 17.5892 3.75016 16.8687C3.38676 16.4224 3.45998 15.9784 3.90677 15.6407C3.76972 15.5238 3.62313 15.3077 3.56734 15.1281C3.44464 14.7333 3.83906 13.9774 4.22134 13.8424C4.55171 13.7257 4.68259 14.252 4.804 14.4616C4.97705 14.7601 5.2156 15.0192 5.28726 15.3704C5.40606 15.4082 5.66027 15.4942 5.76706 15.5583C6.136 15.7797 6.4557 16.1838 6.74003 16.5058C6.82678 16.604 6.91579 16.7375 6.99799 16.8246C6.99893 16.8104 6.85653 16.3466 6.84007 16.2836C6.82936 16.1624 6.79298 16.0418 6.78054 15.9134C6.75555 15.6558 6.75737 15.3755 6.72687 15.1215C6.63948 14.3938 6.28356 13.8956 5.68869 13.488C5.5167 13.3702 5.32452 13.2421 5.15299 13.117C4.82141 12.875 4.57075 12.6197 4.51439 12.1943C4.48347 11.9609 4.52557 11.7074 4.56321 11.4728C4.68828 10.693 4.97103 9.90416 5.45639 9.27198C5.72443 8.96234 6.09162 8.541 6.49706 8.43754C6.64638 8.39944 6.84123 8.56215 6.85324 8.71956C6.86844 8.91883 6.84369 9.12446 6.84653 9.32894C6.85933 10.2482 7.0255 11.2665 7.69359 11.9508C7.699 11.9549 7.70441 11.9589 7.70982 11.963C7.63727 11.6788 7.81338 11.3086 8.03567 11.1307C8.22852 10.9765 8.51063 10.8914 8.75569 10.919C8.868 10.4458 8.80131 9.49686 8.64921 9.03687C8.48701 8.54633 8.11051 7.99302 7.77253 7.60217C7.45598 7.23611 7.05311 6.92428 6.80455 6.50119C6.54281 6.05526 6.53893 5.44239 6.65543 4.95084C6.70674 4.73442 6.89533 4.42775 7.05567 4.27424C7.90401 3.46987 8.9963 3.10395 10.0342 2.59887C11.0796 2.09014 12.4218 1.56136 13.0697 0.534681C13.2068 0.317362 13.1795 0.143205 13.4319 0Z" fill="#FE255E"/>
<path d="M3.90677 15.6432C3.76972 15.5262 3.62313 15.3101 3.56734 15.1305C3.44464 14.7357 3.83906 13.9798 4.22134 13.8448C4.55171 13.7281 4.68259 14.2545 4.804 14.464C4.97705 14.7626 5.2156 15.0216 5.28726 15.3729C5.40606 15.4107 5.66027 15.4966 5.76706 15.5608C6.136 15.7821 6.4557 16.1863 6.74003 16.5082C6.82678 16.6065 6.91579 16.7399 6.99799 16.827C6.99893 16.8129 6.85653 16.349 6.84007 16.286C6.92533 16.2742 7.13518 16.312 7.23301 16.3252C7.74203 16.3916 8.25602 16.4115 8.76863 16.3845C8.93947 16.3762 9.30119 16.333 9.44618 16.3357C9.47418 16.5455 9.48899 16.7471 9.51033 16.9571C9.51765 17.2073 9.58003 17.4907 9.63559 17.7348C10.1629 17.6897 10.784 17.7463 11.3042 17.8401C11.4413 17.8649 11.6911 17.9454 11.8015 17.9588C12.5583 18.2025 12.9987 18.4079 13.6492 18.8776C13.9112 18.7018 14.1865 18.5469 14.4728 18.4144C14.6238 18.3438 14.8004 18.2756 14.944 18.2051C15.0903 18.1605 15.2446 18.0988 15.3938 18.0515C15.7345 17.9414 16.0825 17.8554 16.4354 17.7942C16.7809 17.7343 17.0747 17.7325 17.3938 17.6847L17.4107 17.6725C17.4841 17.6904 17.5817 17.6625 17.6601 17.6701C18.0276 17.7059 18.3896 17.6424 18.7036 17.8686C19.013 18.2599 18.9783 18.9644 18.9222 19.4365C18.8561 19.9922 18.632 20.5505 18.3192 21.0125C18.2295 21.145 18.0666 21.3163 18.0164 21.4619C17.9352 22.0137 18.0206 22.6634 17.9542 23.2303C17.9104 23.6036 18.0181 23.7585 17.6168 23.979H12.6641H10.3994C9.99013 23.7237 10.086 23.4975 10.0044 23.0715C9.98038 22.9462 9.96496 22.8035 9.9594 22.6765C9.92504 22.5962 9.80995 21.7017 9.79717 21.572C9.59048 21.5544 9.26512 21.4675 9.05528 21.4246L7.83433 21.1833L6.98899 21.0127C6.68844 20.9521 6.41106 20.9143 6.14713 20.7451C5.80576 20.5262 5.70035 20.2024 5.54545 19.8507C5.45396 19.6425 5.35669 19.4371 5.25378 19.2344C4.83545 18.4053 4.33685 17.5916 3.75016 16.8712C3.38676 16.4249 3.45998 15.9808 3.90677 15.6432Z" fill="#FED0BD"/>
<path d="M17.4113 17.6679C17.4847 17.6858 17.5822 17.6578 17.6607 17.6654C18.0282 17.7012 18.3901 17.6378 18.7041 17.864C19.0136 18.2552 18.9789 18.9598 18.9227 19.4318C18.8567 19.9876 18.6326 20.5459 18.3198 21.0078C18.2301 21.1404 18.0671 21.3117 18.0169 21.4573C17.9358 22.0091 18.0211 22.6587 17.9547 23.2257C17.911 23.5989 18.0187 23.7538 17.6173 23.9744H12.6647H10.4C9.99069 23.719 10.0866 23.4928 10.0049 23.0668C9.98094 22.9415 9.96552 22.7988 9.95996 22.6718C9.9719 22.6978 9.98361 22.7396 10.0055 22.7438C10.1312 22.7678 10.2892 22.7856 10.4131 22.8006C11.3408 22.9181 12.2829 22.8327 13.1743 22.5502C14.7768 22.0328 16.1084 20.9004 16.8764 19.4018C17.113 18.9374 17.2948 18.4457 17.4074 17.9374C17.4212 17.8752 17.4646 17.7565 17.4431 17.7028C17.4359 17.6845 17.4221 17.6878 17.3943 17.68L17.4113 17.6679Z" fill="#FDAC98"/>
<path d="M12.6641 23.978C12.7958 23.9307 13.142 23.8928 13.299 23.8708C14.7891 23.662 16.1918 23.1452 17.3387 22.1456C17.4555 22.0434 17.5664 21.9347 17.6709 21.82C17.7638 21.7171 17.8982 21.5503 18.0022 21.4714L18.0163 21.4609C17.9352 22.0127 18.0205 22.6623 17.9541 23.2293C17.9103 23.6026 18.0181 23.7574 17.6167 23.978H12.6641Z" fill="#F89A7D"/>
<path d="M6.83984 16.2835C6.92511 16.2717 7.13495 16.3095 7.23279 16.3227C7.7418 16.3891 8.2558 16.409 8.7684 16.382C8.93925 16.3737 9.30097 16.3305 9.44595 16.3331C9.47395 16.5429 9.48877 16.7445 9.51011 16.9546C9.51742 17.2048 9.5798 17.4882 9.63536 17.7323C9.08516 17.7664 8.35349 17.8762 7.83459 18.0731C7.65004 17.7164 7.24135 17.1525 6.99776 16.8245C6.9987 16.8103 6.8563 16.3465 6.83984 16.2835Z" fill="#E11052"/>
<path d="M3.90716 15.6432C3.77011 15.5262 3.62353 15.3101 3.56773 15.1305C3.44504 14.7357 3.83946 13.9798 4.22174 13.8448C4.55211 13.7281 4.68298 14.2545 4.8044 14.464C4.97744 14.7626 5.21599 15.0216 5.28765 15.3729C4.73863 15.2995 4.38939 15.3423 3.90716 15.6432Z" fill="#E11052"/>
<path d="M16.17 5.35249C16.3377 5.33406 16.691 5.59419 16.8217 5.69664C17.695 6.38137 18.0999 7.42221 18.2285 8.49719C18.2645 8.79837 18.2613 8.98793 18.2675 9.27744C18.2834 10.0188 18.1432 10.5534 17.6734 11.1395C17.4486 11.4198 17.0357 11.7539 17.0798 12.1327C17.1145 12.43 17.3174 12.6765 17.4585 12.9333C17.4799 12.972 17.5763 13.151 17.5922 13.17C17.5967 13.091 17.6476 12.8664 17.6694 12.7851C17.7494 12.4864 17.7991 12.112 18.0322 11.8904C18.2075 11.7239 18.4493 11.6327 18.6884 11.6381C18.6556 11.9876 18.7159 12.7052 19.2193 12.6488C19.4377 12.5657 19.4594 12.3855 19.5606 12.3519C19.6125 12.6418 19.4255 13.3029 19.3634 13.6192C19.2352 14.2826 19.1192 14.9483 19.0155 15.616C18.9389 16.1347 18.8656 16.6539 18.7956 17.1734C18.7804 17.2896 18.7314 17.7784 18.7035 17.8642C18.3895 17.638 18.0275 17.7014 17.66 17.6656C17.5816 17.658 17.4841 17.686 17.4107 17.6681L17.3937 17.6803C17.0747 17.728 16.7808 17.7299 16.4353 17.7897C16.0825 17.8509 15.7344 17.937 15.3937 18.047C15.2446 18.0943 15.0903 18.156 14.9439 18.2006C14.9867 18.1281 15.1718 17.9139 15.2372 17.8233C15.5391 17.4055 15.7447 16.9533 15.8168 16.4416C15.918 15.7235 15.7503 15.0387 15.4164 14.4041C15.3177 14.2165 15.227 14.0426 15.0978 13.8713C15.0008 13.7091 14.8485 13.5253 14.7285 13.374C14.8287 13.3049 15.2047 12.7574 15.2839 12.6367C16.1702 11.29 16.6432 9.71356 16.645 8.1014C16.6468 7.27379 16.5258 6.45051 16.2859 5.65842C16.2648 5.58927 16.2112 5.39403 16.17 5.35249Z" fill="#DB0D50"/>
<path d="M18.6889 11.6409C18.6561 11.9903 18.7164 12.7079 19.2198 12.6515C19.4381 12.5684 19.4599 12.3882 19.5611 12.3546C19.6129 12.6445 19.426 13.3056 19.3639 13.6219C19.2357 14.2853 19.1197 14.9511 19.016 15.6187C18.9394 16.1374 18.8661 16.6566 18.7961 17.1762C18.7809 17.2923 18.7318 17.7811 18.704 17.8669C18.39 17.6407 18.028 17.7042 17.6605 17.6683C17.5821 17.6607 17.4845 17.6887 17.4111 17.6708C17.9222 16.9206 18.1202 16.2904 18.1232 15.377C18.1166 14.7726 18.0487 14.2242 17.8188 13.6592C17.7522 13.4955 17.6611 13.3369 17.5927 13.1727C17.5972 13.0937 17.6481 12.8692 17.6699 12.7878C17.7498 12.4891 17.7996 12.1147 18.0327 11.8931C18.2079 11.7266 18.4498 11.6354 18.6889 11.6409Z" fill="#F89A7D"/>
<path d="M18.6889 11.6409C18.6561 11.9903 18.7164 12.7079 19.2199 12.6515C19.211 12.7518 19.1774 12.9069 19.157 13.0109C19.0181 13.7199 18.7573 14.3993 18.3859 15.0189C18.3301 15.1123 18.2087 15.3223 18.1232 15.377C18.1167 14.7726 18.0488 14.2242 17.8188 13.6592C17.7522 13.4955 17.6611 13.3369 17.5928 13.1727C17.5972 13.0937 17.6482 12.8692 17.6699 12.7878C17.7499 12.4891 17.7996 12.1147 18.0327 11.8931C18.208 11.7266 18.4499 11.6354 18.6889 11.6409Z" fill="#FDAC98"/>
<path d="M13.8411 9.1166C13.9436 8.96204 14.1339 8.70533 14.3247 8.66246C14.3861 8.64868 14.4553 8.65759 14.5087 8.69166C14.7037 8.81595 14.9574 9.70526 15.0035 9.95475C15.1172 10.5704 15.0223 11.0791 14.6627 11.5967C14.4964 11.8362 14.0465 12.2595 14.0941 12.56C14.1257 12.7591 14.5798 13.2311 14.729 13.3769C14.849 13.5282 15.0013 13.712 15.0982 13.8742C15.2275 14.0455 15.3182 14.2194 15.4169 14.407C15.7508 15.0416 15.9185 15.7264 15.8173 16.4445C15.7452 16.9563 15.5396 17.4084 15.2377 17.8262C15.1722 17.9168 14.9871 18.131 14.9444 18.2036C14.8008 18.274 14.6242 18.3423 14.4732 18.4129C14.1869 18.5454 13.9116 18.7003 13.6496 18.876C12.9991 18.4063 12.5587 18.201 11.8019 17.9572C11.6915 17.9439 11.4417 17.8633 11.3046 17.8385C10.7845 17.7447 10.1633 17.6882 9.636 17.7333C9.58044 17.4892 9.51806 17.2057 9.51074 16.9556C9.55598 16.9524 9.67667 16.8916 9.72478 16.8689C11.4911 16.0452 12.8554 14.5503 13.5147 12.7162C13.87 11.7244 14.0063 10.6674 13.9144 9.61787C13.9046 9.50513 13.8833 9.2058 13.8411 9.1166Z" fill="#FA7C15"/>
<path d="M15.0981 13.875C15.2273 14.0463 15.3181 14.2202 15.4167 14.4078C15.7506 15.0425 15.9183 15.7272 15.8171 16.4453C15.745 16.9571 15.5394 17.4092 15.2375 17.827C15.1721 17.9177 14.987 18.1318 14.9442 18.2044C14.8006 18.2748 14.624 18.3431 14.473 18.4137C14.1868 18.5462 13.9114 18.7011 13.6494 18.8768C12.9989 18.4071 12.5585 18.2018 11.8018 17.958C11.8513 17.9298 12.1829 17.8451 12.2651 17.815C12.4899 17.7329 12.7564 17.6179 12.9614 17.4969C13.9733 16.9129 14.7007 15.9383 14.9727 14.802C15.0128 14.6268 15.0414 14.4494 15.0583 14.2706C15.0669 14.1749 15.0727 13.9544 15.0981 13.875Z" fill="#E96300"/>
<path d="M9.67743 13.346C9.61063 13.6076 9.50112 13.769 9.57933 14.0539C9.64448 14.2912 9.81854 14.5407 10.0333 14.6622C10.6566 15.0153 11.4182 14.3152 11.3874 13.6732C11.3819 13.3453 11.1663 13.0068 10.8987 12.8175C10.4113 12.4726 9.78737 12.2472 9.62401 11.5919C9.43681 10.8409 10.0077 10.0577 10.5271 9.56477C10.8308 9.27653 11.1816 9.04745 11.3924 8.67062C11.5533 8.39361 11.6277 8.09514 11.5525 7.77799C11.5191 7.63744 11.4015 7.46268 11.496 7.3223C11.6232 7.13346 11.887 7.2942 12.0266 7.38371C12.7715 7.89786 12.4246 8.87649 12.0021 9.48081C11.8311 9.73396 11.4655 10.0952 11.5479 10.4364C11.6784 10.977 12.5417 11.0658 12.9842 10.9694C13.24 10.9309 13.6139 10.7271 13.5673 10.4152C13.486 9.87134 13.532 9.5919 13.841 9.11446C13.8831 9.20366 13.9044 9.50299 13.9143 9.61574C14.0062 10.6653 13.8699 11.7222 13.5146 12.7141C12.8552 14.5482 11.491 16.0431 9.72464 16.8668C9.67653 16.8895 9.55584 16.9503 9.5106 16.9534C9.48926 16.7434 9.47445 16.5418 9.44645 16.332C9.38991 15.821 9.29619 15.4641 8.9273 15.1069C8.56269 14.7539 8.19118 14.1858 8.46004 13.6742C8.63058 13.3497 8.90389 13.1889 9.26435 13.1442C9.48296 13.1151 9.60271 13.1094 9.67743 13.346Z" fill="#FE993B"/>
<path d="M7.70993 11.9632C7.63738 11.679 7.81349 11.3088 8.03578 11.1309C8.22863 10.9767 8.51074 10.8916 8.7558 10.9192C8.68611 11.4128 8.41641 12.5213 7.70993 11.9632Z" fill="#FDAC98"/>
<path d="M9.95102 4.21375C10.2923 4.17472 10.3583 4.54995 10.3414 4.81118C10.313 5.25011 9.9812 5.52521 9.71864 5.83656C9.56208 6.02221 9.55542 6.25019 9.25215 6.21012C8.96888 6.0442 8.77068 5.49019 8.87301 5.17618C8.9758 4.86079 9.35775 4.68386 9.60403 4.49569C9.71088 4.41405 9.83767 4.27137 9.95102 4.21375Z" fill="#FE993B"/>
<path d="M9.31431 0.102597C9.428 0.095681 9.49589 0.122958 9.58513 0.19891C9.78096 0.365549 9.97535 0.705641 9.99729 0.96133C10.0337 1.38568 9.66436 1.65389 9.39662 1.91747C9.29495 2.01758 9.18044 2.16119 9.08891 2.27225C8.80264 2.49238 8.59137 2.18613 8.52298 1.92839C8.39155 1.43317 8.66917 1.0428 8.92734 0.652154C9.05262 0.462596 9.07306 0.170785 9.31431 0.102597Z" fill="#FE255E"/>
<path d="M18.689 11.6436C18.7164 11.5176 18.7403 11.403 18.7968 11.2843C18.95 10.9628 19.1958 10.7023 19.3246 10.3662C19.3987 10.1728 19.5085 9.94762 19.7658 9.99984C19.8557 10.0181 19.9384 10.0896 20.0048 10.1503C20.267 10.4047 20.527 10.8952 20.4391 11.2688C20.3539 11.6306 19.9804 11.9106 19.7293 12.1583C19.6782 12.2087 19.5842 12.291 19.5612 12.3573C19.46 12.3909 19.4382 12.5711 19.2199 12.6542C18.7165 12.7107 18.6562 11.993 18.689 11.6436Z" fill="#E11052"/>
</g>
<defs>
<clipPath id="clip0_777_19231">
<rect width="23.9766" height="23.9766" fill="white"/>
</clipPath>
</defs>
</svg>
