<svg width="24" height="24" viewBox="0 0 24 24" fill="none" xmlns="http://www.w3.org/2000/svg">
<path d="M12.2225 1.85622C12.9966 1.09722 14.0667 0.923813 14.8627 1.74409C15.1724 2.06329 15.386 2.4416 15.5455 2.85545C15.8721 3.74433 16.0025 4.77079 16.1285 5.70869C16.1926 6.18613 16.2573 6.74244 16.2874 7.22029C16.5374 7.2492 16.7849 7.26849 17.0342 7.29698C17.6691 7.36703 18.3016 7.45672 18.9309 7.56589C19.2513 7.62272 19.5706 7.68564 19.8885 7.75463C20.0139 7.78221 20.342 7.86483 20.4552 7.87425C20.4225 8.17094 20.4204 8.54423 20.4151 8.84206L20.4164 8.88107C20.415 9.17681 20.3926 9.51593 20.38 9.81433C20.3454 10.611 20.2986 11.4071 20.2399 12.2022C20.0694 14.5682 19.8243 16.9281 19.5048 19.2786C19.4355 19.7854 19.3633 20.292 19.2885 20.7982C19.265 20.9589 19.2099 21.3933 19.1683 21.5291C16.8464 22.3663 14.7099 22.7717 12.2307 22.77C10.6701 22.7766 9.11496 22.5884 7.60114 22.2097C6.98803 22.0575 6.38323 21.8735 5.78917 21.6588C5.62093 21.5983 5.45032 21.543 5.2845 21.4768C5.21089 21.4473 5.18001 21.3926 5.15866 21.3187C5.03029 20.8746 4.90325 20.4286 4.78402 19.982C4.24818 17.9647 3.88209 15.9062 3.68961 13.8279C3.64552 13.3391 3.58684 12.7061 3.58026 12.2183C3.57429 12.1231 3.57028 12.0393 3.56958 11.9442C3.56081 11.8858 3.56286 11.8345 3.56047 11.7765C3.54531 11.2515 3.52043 10.7169 3.54103 10.1919C3.56167 9.66633 3.52102 9.06511 3.59518 8.54614C3.60706 8.36973 3.60628 8.1976 3.62055 8.01814C3.61047 7.95526 3.6215 7.74999 3.62379 7.67605C3.71452 7.64623 3.81768 7.62116 3.91036 7.59696C4.59522 7.41823 5.30558 7.2445 6.00869 7.15321C6.12625 7.12696 6.50396 7.09177 6.63116 7.07924C7.13404 7.02972 7.66387 6.98228 8.16874 6.97798C8.32126 6.95577 8.57091 6.95107 8.7313 6.94388C8.77089 6.73309 8.79289 6.52186 8.83296 6.30871C9.11274 4.82076 9.66641 3.14544 10.9414 2.21485C11.3282 1.93252 11.7523 1.83356 12.2225 1.85622ZM17.0817 11.9714C17.0914 12.2877 17.0632 12.7334 17.0524 13.0574L16.9465 15.6841C16.964 15.6874 16.9816 15.6902 16.9993 15.6926C17.5688 15.7704 18.1326 15.3523 18.5579 15.0275C18.5332 14.9425 18.5726 14.4351 18.5821 14.243C18.626 13.348 18.6885 12.4091 18.7164 11.5099C18.7109 11.5035 18.7055 11.4972 18.7 11.4907C18.3756 11.5999 18.0488 11.7019 17.7199 11.7965C17.5215 11.8529 17.2712 11.9102 17.0817 11.9714ZM4.06372 14.5631C4.1906 14.435 4.30386 14.3612 4.45789 14.2716C4.40675 13.9725 4.3819 13.6198 4.35587 13.3143C4.31299 12.8303 4.27714 12.3458 4.24835 11.8609C4.23789 11.6868 4.19911 11.1749 4.22465 11.0261L3.64283 10.7633L3.60939 10.7578C3.57274 10.813 3.6204 11.4425 3.62033 11.5643C3.6267 11.6408 3.63032 11.6997 3.63076 11.7762C3.66772 12.0594 3.67045 12.5718 3.70002 12.8258C3.72161 13.0112 3.85491 14.6648 3.89984 14.7302C3.92842 14.7265 3.91477 14.7308 3.93871 14.7105C3.98112 14.6481 4.01176 14.6178 4.06372 14.5631ZM5.25658 8.36751C5.41141 8.43154 5.63561 8.49263 5.79963 8.54063C6.20833 8.6618 6.62146 8.76749 7.03815 8.85742C10.8954 9.70701 15.0367 9.25179 18.861 8.41311L19.7689 8.20858C19.9547 8.1654 20.1939 8.10197 20.3786 8.07103C20.373 8.16701 20.3548 8.39195 20.3599 8.47761C20.4323 8.51128 20.397 8.75489 20.4151 8.84206C20.4204 8.54423 20.4225 8.17094 20.4552 7.87425C20.342 7.86483 20.0139 7.78221 19.8885 7.75463C19.5706 7.68564 19.2513 7.62272 18.9309 7.56589C18.3016 7.45672 17.6691 7.36703 17.0342 7.29698C16.7849 7.26849 16.5374 7.2492 16.2874 7.22029C16.2573 6.74244 16.1926 6.18613 16.1285 5.70869C16.0025 4.77079 15.8721 3.74433 15.5455 2.85545C15.386 2.4416 15.1724 2.06329 14.8627 1.74409C14.0667 0.923813 12.9966 1.09722 12.2225 1.85622C11.7523 1.83356 11.3282 1.93252 10.9414 2.21485C9.66641 3.14544 9.11274 4.82076 8.83296 6.30871C8.79289 6.52186 8.77089 6.73309 8.7313 6.94388C8.57091 6.95107 8.32126 6.95577 8.16874 6.97798C7.66387 6.98228 7.13404 7.02972 6.63116 7.07924C6.50396 7.09177 6.12625 7.12696 6.00869 7.15321C5.30558 7.2445 4.59522 7.41823 3.91036 7.59696C3.81768 7.62116 3.71452 7.64623 3.62379 7.67605C3.6215 7.74999 3.61047 7.95526 3.62055 8.01814C3.66243 7.9557 3.59545 7.82732 3.65238 7.76751L3.7005 7.77259C4.13864 7.94537 4.81717 8.25487 5.25658 8.36751Z" fill="#687178"/>
<path d="M18.6998 11.4922C18.7053 11.4986 18.7107 11.505 18.7162 11.5114C18.6883 12.4106 18.6258 13.3495 18.5819 14.2444C18.5724 14.4365 18.533 14.9439 18.5577 15.0289C18.1324 15.3538 17.5687 15.7718 16.9991 15.694C16.9814 15.6916 16.9639 15.6888 16.9463 15.6856L17.0522 13.0588C17.063 12.7348 17.0912 12.2892 17.0815 11.9728C17.2711 11.9116 17.5214 11.8543 17.7197 11.7979C18.0487 11.7033 18.3754 11.6014 18.6998 11.4922Z" fill="#4EF4FD" fill-opacity="0.988235"/>
<path d="M3.6205 11.5644C3.62057 11.4425 3.57291 10.813 3.60956 10.7578L3.643 10.7633L4.22482 11.0262C4.19928 11.1749 4.23806 11.6868 4.24852 11.8609C4.27731 12.3458 4.31316 12.8304 4.35604 13.3143C4.38207 13.6198 4.40692 13.9725 4.45806 14.2716C4.30403 14.3612 4.19077 14.435 4.06389 14.5632C4.01193 14.6178 3.98129 14.6482 3.93888 14.7106C3.91494 14.7308 3.92859 14.7265 3.90001 14.7302C3.85508 14.6648 3.72178 13.0112 3.70019 12.8258C3.67062 12.5719 3.66789 12.0594 3.63093 11.7762C3.63049 11.6997 3.62687 11.6408 3.6205 11.5644Z" fill="#4EF4FD" fill-opacity="0.988235"/>
<path d="M3.7002 7.7742L3.74171 7.75C3.79291 7.76837 3.87924 7.81131 3.9407 7.83517C4.1377 7.90995 4.33532 7.9831 4.53353 8.05462C4.64418 8.09442 4.96107 8.18408 5.04274 8.23008L5.02693 8.24418C4.97826 8.23073 4.93652 8.21752 4.88625 8.21108L4.87792 8.21991C4.90149 8.22328 5.24053 8.33458 5.26126 8.34893L5.25627 8.36912C4.81686 8.25648 4.13834 7.94699 3.7002 7.7742Z" fill="#72645F" fill-opacity="0.988235"/>
<path d="M3.6749 10.7266C3.80392 10.779 4.08057 10.9008 4.20238 10.9366C4.2681 10.9644 4.33447 10.9906 4.40143 11.0152C4.63333 11.0836 5.01269 11.2277 5.25232 11.3164L5.27382 11.329C5.26977 11.3681 5.26618 11.4021 5.26485 11.4415L5.28932 11.4564C5.48237 11.5035 5.81486 11.6302 6.02659 11.6958C6.54218 11.8539 7.06378 11.9917 7.59019 12.1088C7.77717 12.15 8.06262 12.2159 8.24612 12.2389L8.2502 12.2458C8.33715 13.0938 8.41517 13.9426 8.48423 14.7921L8.55273 15.7027C8.55749 15.7668 8.57159 16.0334 8.58241 16.0806L8.57676 16.0904C8.5863 16.1354 8.5957 16.1707 8.59704 16.2167C9.08675 15.8951 9.44896 15.4609 9.92153 15.1496C10.8569 14.5335 11.3317 15.0433 11.9978 15.7069C12.1839 15.8924 12.4622 16.1203 12.7345 16.167C13.6187 16.3187 13.9665 15.1051 14.5666 14.7258C15.3766 14.2137 15.9024 15.2085 16.4738 15.5961C16.6358 15.7061 16.7602 15.7495 16.9461 15.7893C16.8816 16.6904 16.8482 17.594 16.7761 18.4949C16.7448 18.8862 16.7261 19.2949 16.6511 19.6801C16.6342 19.7666 16.6147 19.8645 16.5585 19.9344C16.4059 20.1239 16.1695 20.2648 15.9598 20.3829C14.8408 21.0133 13.4161 21.3157 12.1527 21.4712C10.4077 21.6858 8.44906 21.5777 6.7394 21.1638C6.50218 21.1064 6.03877 21.0026 5.85672 20.8519C5.37648 20.4543 4.52926 15.2814 4.4601 14.3825C4.3447 14.4454 4.27374 14.5011 4.16998 14.5813C4.10396 14.6497 4.04012 14.7202 3.97854 14.7925C3.96349 14.7649 3.95177 14.7404 3.93846 14.7121C3.98087 14.6497 4.01151 14.6194 4.06347 14.5647C4.19035 14.4365 4.30361 14.3628 4.45764 14.2732C4.4065 13.9741 4.38165 13.6213 4.35562 13.3159C4.31274 12.8319 4.27689 12.3473 4.2481 11.8624C4.23764 11.6883 4.19886 11.1765 4.2244 11.0277L3.64258 10.7649L3.6749 10.7266Z" fill="#FEEE72"/>
<path d="M3.6749 10.7266C3.80392 10.779 4.08057 10.9008 4.20238 10.9366C4.2681 10.9644 4.33447 10.9906 4.40143 11.0152C4.63333 11.0836 5.01269 11.2277 5.25232 11.3164L5.27382 11.329C5.26977 11.3681 5.26618 11.4021 5.26485 11.4415L5.28932 11.4564C5.48237 11.5035 5.81486 11.6302 6.02659 11.6958C6.54218 11.8539 7.06378 11.9917 7.59019 12.1088C7.77717 12.15 8.06262 12.2159 8.24612 12.2389L8.2502 12.2458C8.33715 13.0938 8.41517 13.9426 8.48423 14.7921L8.55273 15.7027C8.55749 15.7668 8.57159 16.0334 8.58241 16.0806L8.57676 16.0904C8.5863 16.1354 8.5957 16.1707 8.59704 16.2167L8.57626 16.2372C8.53337 16.2456 8.33251 16.3507 8.26886 16.3754C8.10235 16.4414 7.92246 16.4666 7.74424 16.4488C6.89533 16.3687 6.61457 15.283 6.11616 14.7327C5.9487 14.5479 5.81191 14.4431 5.5842 14.342L5.55509 14.3276L5.55641 14.2208L5.541 14.2129C5.1572 14.0812 4.82508 14.1105 4.45764 14.2732C4.4065 13.9741 4.38165 13.6213 4.35562 13.3159C4.31274 12.8319 4.27689 12.3473 4.2481 11.8624C4.23764 11.6883 4.19886 11.1765 4.2244 11.0277L3.64258 10.7649L3.6749 10.7266Z" fill="#86F9FD"/>
<path d="M3.6749 10.7266C3.80392 10.779 4.08057 10.9008 4.20238 10.9366C4.2681 10.9644 4.33447 10.9906 4.40143 11.0152C4.63333 11.0836 5.01269 11.2277 5.25232 11.3164L5.27382 11.329C5.26977 11.3681 5.26618 11.4021 5.26485 11.4415L5.28932 11.4564C5.27423 11.5858 5.32059 12.0247 5.33382 12.1715C5.37545 12.6231 5.42078 13.0741 5.4698 13.5248C5.49292 13.7431 5.52686 13.9977 5.541 14.2129C5.1572 14.0812 4.82508 14.1105 4.45764 14.2732C4.4065 13.9741 4.38165 13.6213 4.35562 13.3159C4.31274 12.8319 4.27689 12.3473 4.2481 11.8624C4.23764 11.6883 4.19886 11.1765 4.2244 11.0277L3.64258 10.7649L3.6749 10.7266Z" fill="#4EF4FD"/>
<path d="M3.6749 10.7266C3.80392 10.779 4.08057 10.9008 4.20238 10.9366C4.2681 10.9644 4.33447 10.9906 4.40143 11.0152C4.63333 11.0836 5.01269 11.2277 5.25232 11.3164L5.27382 11.329C5.26977 11.3681 5.26618 11.4021 5.26485 11.4415C5.06052 11.3746 4.5376 11.1752 4.35345 11.0745C4.33456 11.0723 4.24775 11.0367 4.2244 11.0277L3.64258 10.7649L3.6749 10.7266Z" fill="#687178"/>
<path d="M3.6749 10.7266C3.80392 10.779 4.08057 10.9008 4.20238 10.9366C4.2681 10.9644 4.33447 10.9906 4.40143 11.0152C4.46346 11.0781 4.74465 11.1609 4.7927 11.2169C4.78212 11.2361 4.78949 11.2275 4.7622 11.237C4.66143 11.1981 4.45304 11.068 4.35345 11.0745C4.33456 11.0723 4.24775 11.0367 4.2244 11.0277L3.64258 10.7649L3.6749 10.7266Z" fill="#72645F"/>
<path d="M5.55699 14.2188C5.80971 14.3198 5.96305 14.4266 6.15222 14.6272C6.77937 15.2924 7.09698 16.7444 8.30745 16.2288C8.40058 16.1883 8.49076 16.1414 8.57733 16.0884C8.58688 16.1334 8.59628 16.1687 8.59762 16.2147L8.57684 16.2352C8.53395 16.2436 8.33308 16.3487 8.26944 16.3734C8.10293 16.4394 7.92304 16.4646 7.74481 16.4468C6.89591 16.3667 6.61515 15.281 6.11674 14.7307C5.94928 14.5459 5.81249 14.4411 5.58478 14.34L5.55566 14.3256L5.55699 14.2188Z" fill="#9B9C9E"/>
<path d="M5.58411 14.3359C5.81182 14.437 5.94861 14.5418 6.11607 14.7266C6.61448 15.2769 6.89523 16.3626 7.74414 16.4427C7.92236 16.4605 8.10226 16.4353 8.26877 16.3693C8.33241 16.3446 8.53328 16.2395 8.57617 16.2311C8.61574 16.3039 8.62133 16.6848 8.62825 16.7948C8.68209 17.5915 8.71315 18.3896 8.72139 19.188C8.7227 19.3922 8.74508 20.39 8.59806 20.4208C8.04233 20.5818 6.65046 20.2046 6.36958 19.6806C6.21225 19.3869 6.04158 18.1099 5.98553 17.7201C5.8731 16.9319 5.77058 16.1425 5.67799 15.3518C5.65774 15.1852 5.55214 14.4448 5.58411 14.3359Z" fill="#FEF39B"/>
<path d="M4.45766 14.2681C4.82509 14.1054 5.15722 14.0761 5.54102 14.2078L5.55643 14.2157L5.5551 14.3225C5.19808 14.1968 4.79652 14.1791 4.46012 14.3774C4.34472 14.4403 4.27376 14.496 4.17 14.5762C4.10398 14.6446 4.04014 14.7151 3.97856 14.7874C3.96351 14.7598 3.95179 14.7353 3.93848 14.707C3.98089 14.6446 4.01153 14.6143 4.06349 14.5596C4.19037 14.4314 4.30363 14.3577 4.45766 14.2681Z" fill="#616674"/>
<path d="M12.2223 1.85622C12.9964 1.09722 14.0666 0.923813 14.8625 1.74409C15.1722 2.06329 15.3859 2.4416 15.5453 2.85545C15.8719 3.74433 16.0024 4.77079 16.1283 5.70869C16.1925 6.18613 16.2571 6.74244 16.2872 7.22029C16.5373 7.2492 16.7848 7.26849 17.034 7.29698C17.6689 7.36703 18.3014 7.45672 18.9307 7.56589C19.2511 7.62272 19.5704 7.68564 19.8884 7.75463C20.0138 7.78221 20.3418 7.86483 20.455 7.87425C20.4223 8.17094 20.4202 8.54423 20.415 8.84206C20.3968 8.75489 20.4322 8.51128 20.3597 8.47761C20.3547 8.39195 20.3728 8.16701 20.3784 8.07103C20.1937 8.10197 19.9545 8.1654 19.7687 8.20858L18.8608 8.4131C15.0365 9.25179 10.8953 9.70701 7.03799 8.85742C6.6213 8.76749 6.20818 8.6618 5.79947 8.54063C5.63545 8.49263 5.41125 8.43154 5.25642 8.3675L5.2614 8.34732C5.24067 8.33297 4.90164 8.22167 4.87806 8.21829L4.8864 8.20947C4.93667 8.21591 4.9784 8.22911 5.02707 8.24256L5.04289 8.22847C4.96122 8.18247 4.64432 8.0928 4.53368 8.05301C4.33546 7.98149 4.13784 7.90833 3.94084 7.83356C3.87938 7.8097 3.79305 7.76676 3.74185 7.74839L3.70034 7.77259L3.65222 7.7675C3.59529 7.82732 3.66227 7.9557 3.62039 8.01814C3.61031 7.95526 3.62134 7.74999 3.62363 7.67605C3.71436 7.64623 3.81752 7.62116 3.9102 7.59696C4.59506 7.41823 5.30542 7.2445 6.00853 7.15321C6.1261 7.12696 6.5038 7.09177 6.631 7.07924C7.13388 7.02972 7.66371 6.98228 8.16858 6.97798C8.3211 6.95577 8.57075 6.95107 8.73114 6.94388C8.77073 6.73309 8.79273 6.52186 8.8328 6.30871C9.11259 4.82076 9.66625 3.14544 10.9412 2.21485C11.328 1.93252 11.7521 1.83356 12.2223 1.85622ZM8.98543 9.03883C9.04089 9.04373 9.30267 9.07 9.3397 9.06554C9.43149 9.09915 10.3234 9.14898 10.4609 9.14623C10.6155 9.16426 11.2432 9.18308 11.3988 9.16797C12.0842 9.19994 13.0438 9.12887 13.7333 9.08296C13.7842 9.07081 13.779 9.08107 13.7998 9.0488C13.7979 9.00576 13.8001 8.98626 13.8046 8.94301C13.8088 8.9949 13.8089 9.00813 13.8238 9.05702C13.9103 9.07413 14.5011 9.00261 14.6206 8.98586C14.633 8.98412 14.6422 8.94554 14.6489 8.92745L14.6758 8.94163L14.6722 8.95252L14.6887 8.96061L14.6877 8.96505L14.6808 8.94868C14.7045 8.93532 14.6957 8.93858 14.7244 8.93438C14.7272 8.88794 14.7189 8.82072 14.7146 8.77267C14.6909 8.61939 14.6984 8.48687 14.686 8.34105C14.6656 8.09964 14.6588 7.74674 14.6217 7.51573C14.5961 7.59763 14.6092 7.6138 14.5478 7.6466C14.5222 7.43579 14.5099 7.20994 14.4877 6.99647C14.4351 6.53146 14.3741 6.06745 14.3046 5.60468C14.1463 4.54004 13.9354 3.24768 13.1379 2.45324C12.8547 2.17116 12.4562 1.96604 12.0496 1.96926C11.4995 1.95727 11.0097 2.22777 10.628 2.60543C9.10028 4.11711 8.68035 6.88251 8.65358 8.92463C8.65328 8.95003 8.65335 8.97542 8.65378 9.0008C8.76419 9.01466 8.87474 9.02734 8.98543 9.03883ZM14.5896 7.09495C14.7967 7.11551 15.0604 7.11136 15.2338 7.13371C15.275 7.13669 15.2767 7.14464 15.3 7.12531C15.2738 6.55785 15.2158 5.96553 15.1502 5.40106C15.0767 4.76727 14.9947 4.10272 14.7792 3.49978C14.5611 2.9065 14.0997 2.32953 13.4078 2.36827C13.3881 2.36931 13.3685 2.37071 13.3488 2.37247C13.3055 2.3851 13.2785 2.39263 13.2343 2.4005C14.2553 3.34178 14.4006 5.77869 14.5896 7.09495Z" fill="#687178"/>
<path d="M6.0081 7.1518C6.12567 7.12555 6.50337 7.09036 6.63057 7.07783C7.13346 7.02831 7.66328 6.98087 8.16815 6.97656C8.32722 6.99947 8.56574 6.99018 8.73614 7.00307C8.73737 7.21491 8.67899 7.44476 8.68396 7.66308C8.68628 7.76423 8.64955 7.89805 8.64886 8.00224C8.63977 8.20348 8.64584 8.39687 8.62375 8.59822C8.61445 8.64289 8.62139 8.64459 8.5955 8.67384C8.50188 8.69965 8.39257 8.65771 8.29809 8.64059C7.37302 8.47304 6.47646 8.06924 5.83823 7.36288C5.80427 7.3253 5.77466 7.29581 5.77754 7.24306C5.82241 7.18584 5.93826 7.19942 6.0081 7.1518Z" fill="#029DB7"/>
<path d="M3.62363 7.67128C3.71436 7.64146 3.81752 7.61639 3.9102 7.59219C4.59506 7.41346 5.30542 7.23973 6.00853 7.14844C5.93868 7.19606 5.82284 7.18248 5.77797 7.2397C5.77509 7.29245 5.80469 7.32194 5.83866 7.35952C6.47689 8.06588 7.37345 8.46968 8.29852 8.63723C8.39299 8.65435 8.50231 8.69629 8.59593 8.67048C8.62181 8.64123 8.61488 8.63953 8.62418 8.59486C8.62108 8.7175 8.62386 8.85196 8.62423 8.97558C8.57097 8.99538 8.28794 8.94612 8.21236 8.93493C7.13954 8.77762 6.08006 8.53986 5.04289 8.2237C4.96122 8.1777 4.64432 8.08803 4.53368 8.04824C4.33546 7.97672 4.13784 7.90356 3.94084 7.82879C3.87938 7.80493 3.79305 7.76198 3.74185 7.74361L3.70034 7.76781L3.65222 7.76273C3.59529 7.82254 3.66227 7.95093 3.62039 8.01336C3.61031 7.95048 3.62134 7.74522 3.62363 7.67128Z" fill="#00788D"/>
<path d="M8.6537 9.00068C8.65328 8.9753 8.65321 8.9499 8.6535 8.92451C8.68027 6.88239 9.1002 4.11698 10.6279 2.60531C11.0096 2.22764 11.4995 1.95714 12.0495 1.96913C12.4561 1.96591 12.8547 2.17104 13.1379 2.45311C13.9354 3.24756 14.1462 4.53992 14.3045 5.60456C14.374 6.06733 14.435 6.53133 14.4876 6.99635C14.5098 7.20982 14.5221 7.43567 14.5478 7.64648C14.6091 7.61368 14.596 7.59751 14.6216 7.5156C14.6588 7.74661 14.6655 8.09952 14.6859 8.34092C14.6983 8.48675 14.6908 8.61926 14.7145 8.77255C14.7188 8.8206 14.7271 8.88782 14.7243 8.93426C14.6956 8.93845 14.7044 8.9352 14.6808 8.94856L14.6877 8.96492L14.6886 8.96049L14.6721 8.9524L14.6757 8.94151L14.6488 8.92733C14.6421 8.94542 14.6329 8.98399 14.6205 8.98574C14.5011 9.00249 13.9102 9.07401 13.8237 9.0569C13.8088 9.00801 13.8087 8.99478 13.8045 8.94289C13.8 8.98614 13.7978 9.00564 13.7997 9.04868C13.7789 9.08094 13.7841 9.07069 13.7332 9.08284C13.0437 9.12874 12.0841 9.19982 11.3987 9.16785L11.3869 9.15496C11.2165 9.13331 11.0362 9.14076 10.8637 9.14042C10.7437 9.14017 10.577 9.13332 10.4608 9.1461C10.3233 9.14886 9.43141 9.09903 9.33962 9.06542C9.30259 9.06988 9.04081 9.04361 8.98535 9.0387C8.87466 9.02722 8.76411 9.01454 8.6537 9.00068ZM11.1025 6.958C11.2077 6.96371 11.5093 6.97326 11.5983 6.99L11.6096 6.99101C12.0171 6.96452 12.5581 7.0142 12.9688 7.03297C13.197 7.04339 13.385 7.01992 13.6225 7.04125C13.5525 6.40706 13.5044 5.78664 13.396 5.15433C13.2628 4.37814 13.0609 3.48798 12.2857 3.10759C11.7906 3.91676 11.6019 4.51763 11.3603 5.4206C11.2872 5.85103 11.17 6.27286 11.1363 6.71355C11.1306 6.78735 11.1183 6.88765 11.1025 6.958ZM9.59707 6.9329C9.8288 6.94258 10.0608 6.94402 10.2926 6.93723L10.296 6.91915C10.3195 6.79141 10.3259 6.64765 10.3392 6.51697C10.3596 6.33335 10.3836 6.15016 10.4114 5.96751C10.5653 4.96811 10.7961 4.13495 11.2281 3.22673C11.2223 3.21995 11.2172 3.21223 11.21 3.20689C11.0612 3.31921 10.9143 3.43066 10.7954 3.58457C10.1018 4.48198 9.76113 5.77727 9.57457 6.87779C9.5677 6.91834 9.56447 6.90754 9.58231 6.93129L9.59707 6.9329Z" fill="#FEE635"/>
<path d="M9.55211 6.98826C9.7025 6.99177 10.1354 6.96282 10.2858 7.02349C10.3097 7.03311 10.2883 7.20866 10.2898 7.2642L10.2903 7.2796C10.2906 7.46178 10.2785 7.59626 10.2709 7.77664C10.3515 7.98378 10.8539 7.94703 11.0254 7.94572C10.9968 7.63708 11.0557 7.30997 11.0823 7.00175C11.2455 6.99169 11.4544 7.00753 11.5985 6.99085L11.6098 6.99186C11.7682 7.02488 11.9823 7.01542 12.1469 7.03297C12.3798 7.05779 12.624 7.0362 12.8564 7.04968C13.1201 7.06496 13.3829 7.09976 13.647 7.12088C13.6589 7.32281 13.6951 7.52871 13.7037 7.71601C13.7122 8.0083 13.6901 8.30148 13.7051 8.5941C13.7075 8.64262 13.7119 8.71098 13.7096 8.75816C13.7242 8.85965 13.7277 8.97998 13.7334 9.08368C13.044 9.12959 12.0843 9.20066 11.3989 9.16869L11.3871 9.1558C11.2167 9.13415 11.0364 9.1416 10.8639 9.14126C10.7439 9.14102 10.5772 9.13417 10.461 9.14695C10.3235 9.1497 9.43164 9.09988 9.33984 9.06626C9.344 8.75066 9.37038 8.44974 9.37806 8.13997L9.39048 8.14516C9.39475 8.10193 9.41262 8.06075 9.41872 8.0037C9.4533 7.67961 9.48751 7.30561 9.55211 6.98826Z" fill="#029DB7"/>
<path d="M9.37806 8.14062L9.39048 8.14581C9.40883 8.34242 9.38172 8.59697 9.38904 8.80349C9.71506 8.80566 10.1072 8.84987 10.4438 8.86338C11.2619 8.89231 12.0804 8.90256 12.899 8.89413C13.0818 8.89081 13.2649 8.88871 13.4475 8.87854C13.5421 8.87327 13.6088 8.90841 13.6955 8.85667C13.7151 8.82396 13.7101 8.79764 13.7096 8.75882C13.7242 8.86031 13.7277 8.98064 13.7334 9.08434C13.044 9.13024 12.0843 9.20132 11.3989 9.16935L11.3871 9.15646C11.2167 9.13481 11.0364 9.14226 10.8639 9.14192C10.7439 9.14167 10.5772 9.13482 10.461 9.14761C10.3235 9.15036 9.43164 9.10053 9.33984 9.06692C9.344 8.75131 9.37038 8.4504 9.37806 8.14062Z" fill="#00788D"/>
<path d="M9.37793 8.13631C9.45021 6.77914 9.70072 5.32697 10.3437 4.11263C10.6225 3.5644 11.1918 2.87804 11.8771 2.91553C12.8966 2.97132 13.3263 4.13902 13.4573 4.99628C13.5626 5.68526 13.6581 6.33723 13.7021 7.02897C13.7133 7.20528 13.737 7.41815 13.7316 7.58917C13.6982 7.64085 13.702 7.64418 13.7035 7.71235C13.695 7.52504 13.6588 7.31915 13.6469 7.11722C13.3828 7.0961 13.1199 7.06129 12.8563 7.04602C12.6239 7.03254 12.3797 7.05413 12.1468 7.02931C11.9822 7.01176 11.7681 7.02122 11.6097 6.98819C12.0172 6.9617 12.5582 7.01139 12.9689 7.03015C13.1971 7.04057 13.3851 7.0171 13.6226 7.03843C13.5526 6.40424 13.5045 5.78383 13.3961 5.15152C13.2629 4.37532 13.061 3.48517 12.2858 3.10477C11.7907 3.91395 11.602 4.51481 11.3604 5.41779C11.2873 5.84822 11.1701 6.27004 11.1364 6.71073C11.1307 6.78453 11.1184 6.88483 11.1026 6.95518C11.2078 6.96089 11.5094 6.97045 11.5984 6.98719C11.4543 7.00387 11.2453 6.98803 11.0821 6.99809C11.0556 7.30631 10.9966 7.63342 11.0253 7.94206C10.8537 7.94337 10.3513 7.98012 10.2707 7.77298C10.2784 7.5926 10.2904 7.45811 10.2902 7.27594L10.2897 7.26054C10.2882 7.205 10.3096 7.02945 10.2857 7.01983C10.1353 6.95916 9.70237 6.98811 9.55198 6.9846C9.48738 7.30195 9.45317 7.67595 9.41859 8.00003C9.41249 8.05708 9.39462 8.09827 9.39035 8.14149L9.37793 8.13631ZM9.59717 6.93008C9.8289 6.93976 10.0609 6.9412 10.2927 6.93441L10.2961 6.91633C10.3196 6.7886 10.326 6.64483 10.3393 6.51415C10.3597 6.33054 10.3837 6.14734 10.4115 5.96469C10.5654 4.9653 10.7962 4.13214 11.2282 3.22392C11.2224 3.21714 11.2173 3.20941 11.2101 3.20407C11.0613 3.31639 10.9144 3.42785 10.7955 3.58175C10.1019 4.47916 9.76123 5.77445 9.57467 6.87497C9.5678 6.91553 9.56457 6.90472 9.58241 6.92848L9.59717 6.93008Z" fill="#687178"/>
<path d="M11.4144 3.10824C11.6486 2.99094 11.9494 2.99327 12.1962 3.06935C12.1391 3.20592 12.0101 3.38156 11.9373 3.52721C11.7171 3.96748 11.4337 4.6608 11.3476 5.14244C11.3833 5.25738 11.2703 5.40778 11.3127 5.5188C11.3254 5.48702 11.337 5.43628 11.3602 5.41646C11.2871 5.8469 11.1699 6.26872 11.1362 6.70941C11.1305 6.78321 11.1181 6.88351 11.1024 6.95386C11.2076 6.95957 11.5092 6.96912 11.5981 6.98586C11.4541 7.00255 11.2451 6.98671 11.0819 6.99676C11.0553 7.30498 10.9964 7.6321 11.025 7.94074C10.8535 7.94205 10.3511 7.9788 10.2705 7.77166C10.2782 7.59127 10.2902 7.45679 10.29 7.27461L10.3151 7.28824C10.3266 7.36433 10.3171 7.4676 10.3171 7.54957C10.3241 7.49614 10.3213 7.43917 10.326 7.38497C10.4342 6.11257 10.6224 4.83333 11.1413 3.65544C11.2215 3.47331 11.3095 3.27605 11.4144 3.10824Z" fill="#FEE635"/>
<path d="M11.3476 5.14844C11.3833 5.26338 11.2703 5.41377 11.3127 5.52479C11.3254 5.49302 11.337 5.44228 11.3602 5.42246C11.2871 5.85289 11.1699 6.27472 11.1362 6.7154C11.1305 6.78921 11.1181 6.8895 11.1024 6.95985C11.2076 6.96556 11.5092 6.97512 11.5981 6.99186C11.4541 7.00854 11.2451 6.9927 11.0819 7.00276C11.0553 7.31098 10.9964 7.63809 11.025 7.94673C10.8535 7.94804 10.3511 7.98479 10.2705 7.77765C10.2782 7.59727 10.2902 7.46279 10.29 7.28061L10.3151 7.29424C10.3266 7.37032 10.3171 7.47359 10.3171 7.55557C10.3149 7.6371 10.3134 7.68984 10.3208 7.77127C10.5597 7.89761 10.7127 7.93549 10.9808 7.88646C11.0128 7.57639 11.0136 7.22633 11.0466 6.91808C11.1054 6.37021 11.1967 5.67761 11.3476 5.14844Z" fill="#616674"/>
<path d="M8.6537 9.00068C8.65328 8.9753 8.65321 8.9499 8.6535 8.92451C8.68027 6.88239 9.1002 4.11698 10.6279 2.60531C11.0096 2.22764 11.4995 1.95714 12.0495 1.96913C11.8977 1.99679 11.8143 2.03883 11.676 2.08936C11.1555 2.27954 10.6892 2.73304 10.3799 3.1994C9.4254 4.63855 8.98353 6.56044 8.96703 8.27104C8.96528 8.45252 8.96533 8.86442 8.98535 9.0387C8.87466 9.02722 8.76411 9.01454 8.6537 9.00068Z" fill="#FEF39B"/>
<path d="M14.6217 7.51562C14.6588 7.74663 14.6656 8.09954 14.686 8.34094C14.6984 8.48677 14.6909 8.61929 14.7146 8.77257C14.7189 8.82062 14.7272 8.88784 14.7244 8.93428C14.6957 8.93847 14.7045 8.93522 14.6808 8.94858L14.6878 8.96494L14.6887 8.96051L14.6722 8.95242L14.6758 8.94153L14.6489 8.92735C14.6327 8.89934 14.5612 7.78601 14.5479 7.6465C14.6092 7.6137 14.5961 7.59753 14.6217 7.51562Z" fill="#616674"/>
<path d="M13.7032 7.71693C13.7016 7.64876 13.6978 7.64544 13.7313 7.59375C13.7655 8.08794 13.8084 8.44307 13.8042 8.94466C13.7998 8.9879 13.7975 9.00741 13.7994 9.05044C13.7787 9.08271 13.7838 9.07245 13.7329 9.08461C13.7272 8.9809 13.7237 8.86058 13.7091 8.75908C13.7114 8.7119 13.707 8.64355 13.7046 8.59502C13.6896 8.30241 13.7117 8.00922 13.7032 7.71693Z" fill="#616674"/>
<path d="M13.1642 2.30868C12.9704 2.15779 12.7755 2.00498 12.5372 1.9305C12.4772 1.91173 12.4183 1.90666 12.3887 1.84739C12.4265 1.79907 12.4946 1.75508 12.5443 1.71737C12.8201 1.50782 13.135 1.36808 13.4794 1.32312C13.8774 1.27119 14.3064 1.41349 14.616 1.6662C15.5252 2.40847 15.7626 3.80725 15.926 4.89662C15.9969 5.35875 16.0584 5.82225 16.1109 6.28683C16.1328 6.48456 16.288 8.0313 16.2446 8.10027C16.1964 8.17674 16.0069 8.18145 15.9272 8.20567L15.7536 8.20545C15.6596 8.21407 15.4284 8.18264 15.355 8.12609C15.3207 8.04465 15.3321 7.59581 15.3356 7.48513C15.3727 7.39265 15.3855 7.19344 15.3925 7.17861C15.3855 6.78839 15.3382 6.33127 15.2948 5.9417C15.2047 5.13465 15.1411 4.25814 14.8689 3.48873C14.604 2.74018 14.0084 2.12234 13.1642 2.30868Z" fill="#FEE635"/>
<path d="M15.3917 7.17969C15.399 7.39344 15.4161 7.60656 15.432 7.81983C15.4393 7.9158 15.4404 8.05542 15.4591 8.14622C15.5477 8.16396 15.6677 8.18421 15.7527 8.20653C15.6587 8.21515 15.4275 8.18372 15.3541 8.12717C15.3198 8.04572 15.3312 7.59689 15.3348 7.48621C15.3719 7.39373 15.3846 7.19452 15.3917 7.17969Z" fill="#616674"/>
<path d="M14.5947 7.17188C14.8297 7.18781 15.0805 7.19732 15.3129 7.22466C15.3274 7.30001 15.3314 7.4117 15.3353 7.48962C15.3318 7.6003 15.3203 8.04914 15.3546 8.13059C15.4281 8.18713 15.6593 8.21857 15.7533 8.20994L15.9269 8.21016C16.0689 8.22262 16.2033 8.19092 16.3371 8.14251C16.318 7.85069 16.3084 7.59858 16.2833 7.29982C16.7326 7.34552 17.2792 7.39862 17.7181 7.4723C18.0465 7.50661 20.1208 7.83507 20.2804 7.94807C20.1757 7.99806 19.4838 8.14076 19.3305 8.17433C17.9456 8.4885 16.5474 8.74081 15.1401 8.93051C15.0651 8.94032 14.7867 8.98917 14.7338 8.96916L14.7246 8.93535C14.7274 8.88891 14.7191 8.82168 14.7147 8.77364C14.6911 8.62035 14.6986 8.48784 14.6862 8.34201C14.6658 8.1006 14.659 7.7477 14.6219 7.51669C14.6205 7.43202 14.5988 7.27604 14.5947 7.17188Z" fill="#00788D"/>
<path d="M14.5947 7.17188C14.8297 7.18781 15.0805 7.19732 15.3129 7.22466C15.3274 7.30001 15.3314 7.4117 15.3353 7.48962C15.3318 7.6003 15.3203 8.04914 15.3546 8.13059C15.4281 8.18713 15.6593 8.21857 15.7533 8.20994L15.9269 8.21016C16.0689 8.22262 16.2033 8.19092 16.3371 8.14251C16.318 7.85069 16.3084 7.59858 16.2833 7.29982C16.7326 7.34552 17.2792 7.39862 17.7181 7.4723C17.7068 7.55968 17.406 7.80034 17.313 7.87207C16.5806 8.43769 15.6514 8.71821 14.7377 8.78555C14.7283 8.78624 14.7213 8.77877 14.7147 8.77364C14.6911 8.62035 14.6986 8.48784 14.6862 8.34201C14.6658 8.1006 14.659 7.7477 14.6219 7.51669C14.6205 7.43202 14.5988 7.27604 14.5947 7.17188Z" fill="#029DB7"/>
<path d="M10.4609 9.14837C10.5772 9.13558 10.7438 9.14243 10.8639 9.14268C11.0364 9.14302 11.2166 9.13557 11.387 9.15722L11.3989 9.17011C11.2433 9.18522 10.6156 9.16639 10.4609 9.14837Z" fill="#00788D" fill-opacity="0.968627"/>
<path d="M3.62055 8.01626C3.66243 7.95382 3.59545 7.82544 3.65238 7.76562L3.7005 7.77071C4.13864 7.94349 4.81717 8.25299 5.25658 8.36563C5.41141 8.42966 5.63561 8.49075 5.79963 8.53875C6.20833 8.65992 6.62146 8.76561 7.03815 8.85554C10.8954 9.70513 15.0367 9.24991 18.861 8.41123C18.8499 9.08694 18.7904 9.78454 18.7714 10.4611C18.7663 10.6421 18.723 11.1766 18.7503 11.3265C18.303 11.4875 17.5473 11.7416 17.0943 11.8328C16.9832 11.8733 16.7746 11.9185 16.6566 11.9451C16.383 12.0075 16.1082 12.0648 15.8325 12.1172C13.3217 12.5903 10.7442 12.5867 8.23466 12.1067C8.24124 12.1542 8.24414 12.1876 8.24637 12.2355C8.06287 12.2124 7.77742 12.1465 7.59044 12.1053C7.06403 11.9882 6.54243 11.8504 6.02684 11.6923C5.81511 11.6268 5.48262 11.5001 5.28957 11.4529L5.2651 11.438C5.26643 11.3987 5.27002 11.3647 5.27407 11.3255L5.25257 11.3129C5.01293 11.2243 4.63358 11.0801 4.40168 11.0118C4.33472 10.9871 4.26835 10.9609 4.20262 10.9332C4.08082 10.8974 3.80417 10.7756 3.67515 10.7231L3.64283 10.7614L3.60939 10.7559C3.57274 10.8111 3.6204 11.4406 3.62033 11.5625C3.61919 11.6076 3.61735 11.686 3.59973 11.7258C3.56351 11.8075 3.57751 11.8598 3.56958 11.9423C3.56081 11.8839 3.56286 11.8326 3.56047 11.7746C3.54531 11.2496 3.52043 10.715 3.54103 10.1901C3.56167 9.66445 3.52102 9.06323 3.59518 8.54426C3.60706 8.36785 3.60628 8.19572 3.62055 8.01626Z" fill="#4EF4FD"/>
<path d="M3.62055 8.01626C3.66243 7.95382 3.59545 7.82544 3.65238 7.76562L3.7005 7.77071C4.13864 7.94349 4.81717 8.25299 5.25658 8.36563C5.41141 8.42966 5.63561 8.49075 5.79963 8.53875C6.20833 8.65992 6.62146 8.76561 7.03815 8.85554C10.8954 9.70513 15.0367 9.24991 18.861 8.41123C18.8499 9.08694 18.7904 9.78454 18.7714 10.4611C18.7663 10.6421 18.723 11.1766 18.7503 11.3265C18.303 11.4875 17.5473 11.7416 17.0943 11.8328C17.0622 11.2746 17.1508 10.661 17.0769 10.0829C17.0034 10.0006 16.9081 9.93884 16.7979 9.92526C16.0513 9.83315 15.1994 9.91817 14.4527 9.98088C12.0436 10.1832 9.79191 10.2026 7.42591 9.61868C6.99306 9.50914 6.56365 9.38647 6.13827 9.25085C5.73356 9.12026 4.74532 8.73848 4.38066 8.73479C4.3423 8.73439 4.29306 8.7359 4.26533 8.76558C4.11219 8.92945 4.17998 10.623 4.20262 10.9332C4.08082 10.8974 3.80417 10.7756 3.67515 10.7231L3.64283 10.7614L3.60939 10.7559C3.57274 10.8111 3.6204 11.4406 3.62033 11.5625C3.61919 11.6076 3.61735 11.686 3.59973 11.7258C3.56351 11.8075 3.57751 11.8598 3.56958 11.9423C3.56081 11.8839 3.56286 11.8326 3.56047 11.7746C3.54531 11.2496 3.52043 10.715 3.54103 10.1901C3.56167 9.66445 3.52102 9.06323 3.59518 8.54426C3.60706 8.36785 3.60628 8.19572 3.62055 8.01626Z" fill="#09DAFE"/>
<path d="M3.59518 8.54688C3.62143 8.92837 3.50536 10.2398 3.60923 10.6912C3.61156 10.7013 3.65907 10.7193 3.67515 10.7257L3.64283 10.7641L3.60939 10.7585C3.57274 10.8138 3.6204 11.4432 3.62033 11.5651C3.61919 11.6102 3.61735 11.6887 3.59973 11.7284C3.56351 11.8101 3.57751 11.8624 3.56958 11.945C3.56081 11.8865 3.56286 11.8353 3.56047 11.7772C3.54531 11.2522 3.52043 10.7176 3.54103 10.1927C3.56167 9.66707 3.52102 9.06585 3.59518 8.54688Z" fill="#616674"/>
<path d="M5.2523 11.3165C5.24943 11.113 5.14535 9.95867 5.24892 9.85867C5.34621 9.76473 5.63242 9.80257 5.75505 9.81471C6.21627 9.86039 7.69751 10.2163 7.97276 10.5714C8.10859 10.7466 8.19013 11.8346 8.23439 12.1103C8.24097 12.1578 8.24387 12.1912 8.24609 12.2391C8.06259 12.216 7.77715 12.1501 7.59017 12.1089C7.06376 11.9918 6.54215 11.854 6.02656 11.6959C5.81484 11.6303 5.48235 11.5037 5.28929 11.4565L5.26483 11.4416C5.26616 11.4023 5.26974 11.3683 5.27379 11.3291L5.2523 11.3165Z" fill="#86F9FD"/>
<path d="M5.27362 11.3281C5.58004 11.4166 5.88762 11.529 6.19585 11.6169C6.85388 11.8047 7.56021 11.9951 8.23421 12.1093C8.24079 12.1569 8.24369 12.1902 8.24592 12.2381C8.06242 12.215 7.77697 12.1491 7.58999 12.1079C7.06358 11.9908 6.54198 11.853 6.02639 11.6949C5.81466 11.6294 5.48217 11.5027 5.28912 11.4555L5.26465 11.4406C5.26598 11.4013 5.26957 11.3673 5.27362 11.3281Z" fill="#9B9C9E"/>
<path d="M8.25 12.2416C11.0087 12.7293 13.7597 12.7264 16.4979 12.103C16.6925 12.0588 16.8866 12.0121 17.0813 11.9688C17.091 12.2851 17.0628 12.7308 17.052 13.0547L16.946 15.6815C16.7415 15.6203 16.6483 15.58 16.472 15.4559C15.9355 15.078 15.3935 14.1772 14.6349 14.5849C14.4294 14.6953 14.2416 14.8877 14.0937 15.0585C13.7571 15.4471 13.2857 16.2213 12.6623 16.0167C11.9873 15.7952 11.608 14.8503 10.8488 14.7492C10.5811 14.7135 10.3241 14.777 10.0869 14.9051C9.70769 15.1099 9.38586 15.4376 9.06112 15.7154C8.95274 15.8082 8.70162 16.0207 8.58221 16.0764C8.57139 16.0292 8.55728 15.7626 8.55253 15.6985L8.48403 14.7879C8.41497 13.9384 8.33695 13.0896 8.25 12.2416Z" fill="#4EF4FD"/>
<path d="M4.46013 14.3828C4.52928 15.2817 5.37651 20.4546 5.85675 20.8522C6.0388 21.0028 6.50221 21.1067 6.73943 21.164C8.44909 21.578 10.4078 21.6861 12.1527 21.4715C13.4162 21.316 14.8408 21.0136 15.9598 20.3832C16.1695 20.265 16.406 20.1242 16.5585 19.9347C16.6147 19.8648 16.6343 19.7669 16.6511 19.6804C16.7262 19.2952 16.7448 18.8865 16.7762 18.4951C16.8483 17.5942 16.8816 16.6907 16.9461 15.7896C17.5968 15.8556 18.0051 15.5442 18.5186 15.1906C18.5447 15.2819 18.4858 15.8833 18.4764 16.0309C18.3933 17.3459 18.3266 18.6692 18.1649 19.9774C18.1385 20.1915 18.1238 20.4872 18.0243 20.6801C17.7798 21.1539 15.5621 21.8216 14.9704 21.9906C14.3744 22.1607 13.7722 22.3087 13.165 22.4343C12.8043 22.51 12.495 22.5467 12.1371 22.646C11.7081 22.6623 11.1134 22.6261 10.6859 22.5913C8.86337 22.4458 7.06854 22.0565 5.34941 21.434C5.27783 21.2918 5.11648 20.6996 5.0593 20.5008C4.67303 19.1547 4.36489 17.7873 4.13641 16.4056C4.05837 15.9373 3.96379 15.3695 3.91699 14.8986C3.93376 14.8663 3.95962 14.8252 3.97857 14.7928C4.04015 14.7205 4.10399 14.65 4.17001 14.5816C4.27377 14.5014 4.34473 14.4457 4.46013 14.3828Z" fill="#FEE635"/>
<path d="M18.5181 15.1862C18.899 14.8605 19.4363 14.5228 19.9357 14.4531C19.7468 16.497 19.5024 18.5355 19.2026 20.566C19.1841 20.6894 19.1 21.3629 19.0375 21.422C18.9898 21.467 18.458 21.6367 18.354 21.6713C16.6554 22.2356 14.8861 22.5593 13.0977 22.6328C12.8012 22.6438 12.4294 22.6656 12.1367 22.6416C12.4946 22.5423 12.8039 22.5057 13.1646 22.4299C13.7718 22.3043 14.374 22.1563 14.97 21.9862C15.5617 21.8173 17.7794 21.1495 18.0239 20.6757C18.1234 20.4829 18.1381 20.1871 18.1645 19.973C18.3261 18.6648 18.3929 17.3416 18.476 16.0265C18.4854 15.879 18.5443 15.2776 18.5181 15.1862Z" fill="#CDB82B"/>
<path d="M18.6999 11.4919C19.226 11.2995 19.7011 11.1198 20.2108 10.8828C20.1683 11.6582 20.1138 12.433 20.0473 13.2067C20.0172 13.5713 19.9668 13.994 19.9529 14.3533C19.3452 14.3985 19.0261 14.6996 18.5578 15.0286C18.5331 14.9436 18.5726 14.4362 18.582 14.2441C18.6259 13.3492 18.6885 12.4103 18.7163 11.5111C18.7108 11.5047 18.7054 11.4983 18.6999 11.4919Z" fill="#09CCCA"/>
<path d="M18.8609 8.41239L19.7688 8.20786C19.9546 8.16469 20.1937 8.10125 20.3785 8.07031C20.3729 8.16629 20.3547 8.39123 20.3597 8.4769C20.4322 8.51057 20.3969 8.75417 20.415 8.84134L20.4163 8.88035L20.3953 8.88636L20.3814 8.88115L20.373 8.84966L20.3624 8.85626C20.3616 8.91648 20.3796 9.00678 20.3336 9.04867C20.2986 9.23948 20.2992 9.59912 20.2846 9.80547C20.2621 10.1208 20.2376 10.4461 20.2308 10.7616C19.8994 10.9099 19.5194 11.0447 19.1784 11.177C19.088 11.2121 18.8328 11.3079 18.7502 11.3277C18.7228 11.1778 18.7661 10.6432 18.7713 10.4623C18.7903 9.7857 18.8497 9.0881 18.8609 8.41239Z" fill="#029DB7"/>
<path d="M20.3601 8.47656C20.4326 8.51023 20.3972 8.75384 20.4154 8.84101L20.4166 8.88002L20.3957 8.88603L20.3818 8.88082L20.3733 8.84932L20.3628 8.85593C20.362 8.91615 20.38 9.00645 20.334 9.04834C20.3342 8.87899 20.3517 8.65022 20.3601 8.47656Z" fill="#72645F"/>
<path d="M3.62009 11.5625C3.62646 11.6389 3.63009 11.6978 3.63052 11.7744C3.62036 11.8861 3.65845 12.1459 3.58002 12.2164C3.57405 12.1213 3.57004 12.0374 3.56934 11.9424C3.57727 11.8598 3.56327 11.8075 3.59949 11.7258C3.61711 11.6861 3.61895 11.6076 3.62009 11.5625Z" fill="#6F6A73"/>
</svg>
