<svg width="16" height="16" viewBox="0 0 16 16" fill="none" xmlns="http://www.w3.org/2000/svg">
<g clip-path="url(#clip0_980_7845)">
<path d="M10.2435 0.562887C10.2976 0.561453 10.3437 0.562869 10.3939 0.587246C10.587 0.68111 10.8589 1.19546 10.9469 1.39749C10.9894 1.49527 11.0225 1.59924 11.0559 1.70052C11.105 1.84963 11.1293 2.00925 11.1439 2.16503C11.2001 2.7617 11.0639 3.35231 10.793 3.88418C10.6544 4.15634 10.3453 4.65727 10.1226 4.85273C10.0682 4.90049 10.0121 4.93576 9.94269 4.95835C9.72504 4.96918 9.55473 4.76112 9.65785 4.56131C9.71551 4.4496 9.83699 4.33801 9.91613 4.23668C10.5419 3.43554 10.8599 2.3817 10.3447 1.43545C10.302 1.3564 10.2559 1.27917 10.2068 1.20395C10.1468 1.11349 10.0332 0.986821 10.0092 0.887774C9.99207 0.816642 10.0057 0.741585 10.0469 0.681096C10.0989 0.604028 10.1589 0.57958 10.2435 0.562887Z" fill="#4A5568"/>
<path d="M12.6655 4.05879C13.1141 4.01402 13.5143 4.34073 13.5603 4.78923C13.6062 5.23773 13.2806 5.63886 12.8323 5.68605C12.3822 5.73342 11.9791 5.40628 11.933 4.95606C11.8869 4.50585 12.2151 4.10373 12.6655 4.05879Z" fill="#FE5364"/>
<path d="M15.1535 9.75889C15.4535 9.74014 15.712 9.9678 15.7312 10.2678C15.7505 10.5677 15.5232 10.8266 15.2232 10.8464C14.9226 10.8662 14.663 10.6382 14.6437 10.3376C14.6244 10.0369 14.8529 9.77764 15.1535 9.75889Z" fill="#965BA5"/>
<path d="M14.8555 5.42483C14.9216 5.41812 14.9757 5.42139 15.037 5.44995C15.0981 5.47823 15.1452 5.52983 15.1677 5.59316C15.1959 5.67041 15.1904 5.74663 15.1912 5.82642C15.1934 6.03602 15.1915 6.16034 14.973 6.23845C14.9109 6.24555 14.8681 6.24592 14.8083 6.21985C14.7376 6.18824 14.6831 6.12885 14.6576 6.0557C14.6245 5.96312 14.6201 5.66309 14.6719 5.57173C14.7213 5.48444 14.7666 5.45453 14.8555 5.42483Z" fill="#3A97D4"/>
<path d="M14.8596 6.78236C15.1643 6.7647 15.1959 6.96023 15.1907 7.20355C15.1867 7.39791 15.1871 7.53616 14.9643 7.59183C14.7062 7.60836 14.6312 7.44037 14.6339 7.20999C14.6361 7.01655 14.6353 6.84698 14.8596 6.78236Z" fill="#3A97D4"/>
<path d="M14.068 6.23428C14.2715 6.2231 14.5905 6.18969 14.6431 6.44905C14.6581 6.52215 14.6431 6.59822 14.6013 6.66008C14.5494 6.73652 14.4905 6.75979 14.4047 6.77516C14.2921 6.7863 14.0263 6.79512 13.9417 6.72924C13.7358 6.56889 13.8147 6.28502 14.068 6.23428Z" fill="#3A97D4"/>
<path d="M12.6798 2.17634C12.9754 2.13731 13.0338 2.36073 13.0236 2.5922C13.0153 2.78233 13.0177 2.92405 12.7987 2.98198C12.7519 2.99065 12.7048 2.98929 12.659 2.97356C12.4459 2.90041 12.4672 2.67413 12.4713 2.49336C12.4756 2.3051 12.5151 2.249 12.6798 2.17634Z" fill="#965BA5"/>
<path d="M12.7177 0.812775C12.8426 0.807619 12.9753 0.875002 13.0053 1.00199C13.0368 1.13575 13.0429 1.36899 12.9799 1.49555C12.9422 1.57117 12.8674 1.60003 12.7936 1.62285C12.4933 1.63089 12.4679 1.44596 12.4721 1.20275C12.4756 0.994604 12.4805 0.863604 12.7177 0.812775Z" fill="#965BA5"/>
<path d="M13.2904 1.626C13.4811 1.6054 13.7786 1.60187 13.8305 1.8377C13.8467 1.91063 13.8312 1.987 13.7879 2.04789C13.7298 2.13054 13.6644 2.15306 13.5722 2.16785C13.4291 2.16764 13.231 2.19374 13.1157 2.10851C13.0605 2.0674 13.0245 2.00554 13.0159 1.93724C13.0064 1.86301 13.0273 1.7881 13.0738 1.72948C13.1361 1.65063 13.1987 1.63503 13.2904 1.626Z" fill="#965BA5"/>
<path d="M11.9339 1.62548C12.1304 1.60654 12.4292 1.59895 12.4766 1.8479C12.4892 1.9171 12.4734 1.98846 12.4328 2.04588C12.3739 2.12991 12.3088 2.15245 12.2153 2.1667C12.1104 2.16848 12.0088 2.17434 11.9017 2.16308C11.6818 2.14066 11.5861 1.89844 11.719 1.72686C11.7778 1.6508 11.8454 1.6348 11.9339 1.62548Z" fill="#965BA5"/>
<path d="M3.84949 4.62391C3.9348 4.49209 4.0233 4.408 4.17972 4.37459C4.73305 4.25637 5.70584 4.85657 6.16311 5.1573C6.43119 5.3336 6.68469 5.5262 6.93654 5.72459C6.74102 5.94721 6.507 6.14977 6.30312 6.3652C6.21545 6.45784 6.09826 6.55251 6.03058 6.65794C5.8767 6.89765 6.18777 7.1848 6.41913 7.0049C6.51779 6.9282 6.59934 6.83726 6.6866 6.74971L7.16085 6.27336C7.1993 6.23473 7.32508 6.10508 7.36314 6.07892C7.50059 6.16781 7.74066 6.39226 7.86828 6.50749C8.50859 7.08668 9.10914 7.70834 9.66586 8.36828C9.42484 8.62453 9.15234 8.87008 8.91742 9.13196C8.83469 9.22406 8.86266 9.39711 8.95562 9.48141C9.01023 9.53094 9.08266 9.5561 9.15617 9.5511C9.19109 9.54844 9.24148 9.5386 9.26953 9.51789C9.37477 9.44016 9.47281 9.33328 9.56531 9.2407C9.71203 9.09305 9.85969 8.94633 10.0084 8.80071C10.4787 9.36406 11.4395 10.737 11.3713 11.4861C11.3597 11.614 11.3127 11.7275 11.2117 11.8109C11.1804 11.837 11.1395 11.8663 11.1017 11.8818C10.9554 11.999 10.6918 12.1409 10.5194 12.2314C10.2211 12.3881 9.91938 12.5381 9.61445 12.6814C9.44906 12.7594 9.24852 12.8428 9.08852 12.9248C8.9843 12.9802 8.84641 13.0372 8.73641 13.0858C8.5493 13.1698 8.36133 13.252 8.17266 13.3324C7.70194 13.5351 7.14369 13.7784 6.66377 13.952C6.43427 14.0295 6.14584 14.1533 5.90832 14.2434C5.44795 14.4181 4.98535 14.5869 4.52064 14.7496C4.15809 14.8758 3.79389 14.9972 3.42812 15.1137C3.28337 15.1598 3.1002 15.2076 2.96195 15.258C2.89216 15.2901 2.6138 15.3673 2.52835 15.3923C2.25583 15.4723 1.98213 15.5482 1.70734 15.62C1.44584 15.6884 1.19599 15.7697 0.928133 15.7295C0.502922 15.6656 0.144284 15.3602 0.0339609 14.9435C0.0243691 14.9073 0.0178568 14.8681 0 14.8351V14.4782C0.00795961 14.4673 0.0955414 14.1072 0.106952 14.0633C0.219865 13.6298 0.342348 13.199 0.474311 12.771C0.540412 12.601 0.62211 12.2989 0.683223 12.1108C0.825898 11.6738 0.974688 11.2387 1.12955 10.8058C1.26904 10.4147 1.41333 10.0254 1.5624 9.63781C1.62327 9.47875 1.73589 9.22227 1.77995 9.06985C1.81196 9.00852 1.85882 8.87961 1.88748 8.80875L2.11014 8.25875C2.32231 7.74017 2.57148 7.15642 2.80922 6.64913C2.99072 6.2439 3.1819 5.84307 3.38261 5.44701C3.50525 5.20486 3.69486 4.83949 3.84949 4.62391Z" fill="#F0C419"/>
<path d="M1.77995 9.07031C1.85648 9.15461 2.03605 9.4475 2.11405 9.56141C2.35718 9.91687 2.61566 10.2615 2.88876 10.5945C2.95203 10.6716 3.0962 10.8513 3.15929 10.9119C3.41407 11.2384 3.79202 11.6122 4.08785 11.9052C4.26002 12.0756 4.5223 12.3266 4.70714 12.4798C4.98323 12.7377 5.34416 13.0137 5.64601 13.243C5.80834 13.3662 6.06536 13.5549 6.23956 13.6644C6.30785 13.7114 6.6307 13.9126 6.66377 13.9525C6.43427 14.03 6.14584 14.1537 5.90832 14.2439C5.44795 14.4186 4.98535 14.5873 4.52064 14.7501C4.15809 14.8763 3.79389 14.9977 3.42813 15.1141C3.28337 15.1603 3.1002 15.208 2.96195 15.2584C2.89216 15.2905 2.6138 15.3677 2.52835 15.3927C2.25583 15.4727 1.98213 15.5487 1.70734 15.6205C1.44584 15.6888 1.19599 15.7702 0.928133 15.7299C0.502922 15.6661 0.144284 15.3607 0.0339609 14.944C0.0243691 14.9077 0.0178568 14.8686 0 14.8355V14.4787C0.00795961 14.4678 0.0955414 14.1077 0.106952 14.0638C0.219865 13.6303 0.342348 13.1995 0.474311 12.7715C0.540412 12.6015 0.62211 12.2994 0.683223 12.1112C0.825899 11.6742 0.974688 11.2391 1.12955 10.8063C1.26904 10.4152 1.41333 10.0259 1.5624 9.63828C1.62327 9.47922 1.73589 9.22273 1.77995 9.07031Z" fill="#F0C419"/>
<path d="M0.474311 12.7734C0.524327 12.8029 0.829195 13.1811 0.889773 13.2505C1.04308 13.4266 1.19982 13.5997 1.3599 13.7697C1.71954 14.1483 2.09734 14.5092 2.49198 14.8512C2.56212 14.9122 2.93985 15.2191 2.96195 15.2604C2.89216 15.2925 2.6138 15.3697 2.52835 15.3947C2.25583 15.4747 1.98213 15.5506 1.70734 15.6224C1.44584 15.6908 1.19599 15.7721 0.928133 15.7319C0.502922 15.668 0.144284 15.3627 0.0339609 14.9459C0.0243691 14.9097 0.0178568 14.8705 0 14.8375V14.4806C0.00795961 14.4698 0.0955414 14.1096 0.106952 14.0657C0.219865 13.6323 0.342348 13.2014 0.474311 12.7734Z" fill="#FE5364"/>
<path d="M2.76709 12.3845C3.06463 12.3609 3.32515 12.5827 3.34945 12.8802C3.37376 13.1776 3.15269 13.4387 2.85525 13.4637C2.55684 13.4888 2.29477 13.2668 2.27038 12.9683C2.24599 12.6698 2.46856 12.4083 2.76709 12.3845Z" fill="#965BA5"/>
<path d="M3.84958 4.62391C3.93489 4.49209 4.02339 4.408 4.17981 4.37459C4.73314 4.25637 5.70593 4.85657 6.1632 5.1573C6.43128 5.3336 6.68478 5.5262 6.93663 5.72459C6.7411 5.94721 6.50709 6.14977 6.30321 6.3652C6.21553 6.45784 6.09835 6.55251 6.03067 6.65794C5.87678 6.89765 6.18786 7.1848 6.41922 7.0049C6.51788 6.9282 6.59942 6.83726 6.68669 6.74971L7.16094 6.27336C7.19939 6.23473 7.32517 6.10508 7.36323 6.07892C7.50067 6.16781 7.74075 6.39226 7.86837 6.50749C8.50868 7.08668 9.10923 7.70834 9.66595 8.36828C9.42493 8.62453 9.15243 8.87008 8.91751 9.13196C8.83478 9.22406 8.86275 9.39711 8.95571 9.48141C9.01032 9.53094 9.08275 9.5561 9.15626 9.5511C9.19118 9.54844 9.24157 9.5386 9.26962 9.51789C9.37485 9.44016 9.4729 9.33328 9.5654 9.24071C9.71212 9.09305 9.85978 8.94633 10.0085 8.80071C10.4788 9.36406 11.4396 10.737 11.3714 11.4861C11.3598 11.614 11.3128 11.7275 11.2118 11.8109C11.1805 11.837 11.1396 11.8663 11.1018 11.8818C10.9763 11.8799 10.896 11.909 10.7422 11.8876C10.384 11.8379 9.96517 11.6488 9.65204 11.4684C8.01532 10.5254 6.49524 9.06157 5.30731 7.6033C4.76214 6.93404 4.03207 5.89808 3.85308 5.05098C3.82809 4.93272 3.83627 4.74417 3.84958 4.62391Z" fill="#D25728"/>
<path d="M1.78027 9.06915C1.81229 9.00782 1.85915 8.87891 1.8878 8.80805L2.11047 8.25806C2.32264 7.73948 2.5718 7.15573 2.80955 6.64844C2.8648 6.70459 2.9898 6.96027 3.03719 7.04666C3.26954 7.47029 3.53391 7.85852 3.80836 8.25532C3.99384 8.49126 4.16137 8.72821 4.35334 8.96532C4.64795 9.3293 4.93768 9.65016 5.257 9.99235C5.22026 10.0522 5.10312 10.3681 5.07774 10.4416C4.90342 10.9358 4.78873 11.4491 4.73612 11.9706C4.71903 12.1439 4.72248 12.324 4.70747 12.4787C4.52262 12.3255 4.26035 12.0745 4.08818 11.904C3.79234 11.611 3.4144 11.2373 3.15962 10.9107C3.09652 10.8502 2.95236 10.6704 2.88909 10.5933C2.61599 10.2603 2.35751 9.91571 2.11437 9.56024C2.03637 9.44634 1.85681 9.15345 1.78027 9.06915Z" fill="#B49ACA"/>
<path d="M1.78027 9.06915C1.81229 9.00782 1.85915 8.87891 1.8878 8.80805L2.11047 8.25806C2.32264 7.73948 2.5718 7.15573 2.80955 6.64844C2.8648 6.70459 2.9898 6.96027 3.03719 7.04666C3.26954 7.47029 3.53391 7.85852 3.80836 8.25532C3.77823 8.29759 3.70358 8.48016 3.68037 8.53649C3.44882 9.09985 3.29302 9.69149 3.21702 10.2959C3.20212 10.4218 3.19068 10.5481 3.18269 10.6747C3.17864 10.7316 3.17489 10.8624 3.15962 10.9107C3.09652 10.8502 2.95236 10.6704 2.88909 10.5933C2.61599 10.2603 2.35751 9.91571 2.11437 9.56024C2.03637 9.44634 1.85681 9.15345 1.78027 9.06915Z" fill="#FE5364"/>
<path d="M5.25656 9.99219C5.58155 10.3309 5.92115 10.6554 6.2744 10.9646C6.45731 11.1245 6.64898 11.2738 6.82807 11.4298C6.59734 11.9179 6.42482 12.5254 6.32884 13.0539C6.30904 13.1623 6.29289 13.2712 6.28042 13.3805C6.27287 13.4438 6.25795 13.6104 6.23945 13.663C6.06525 13.5536 5.80823 13.3649 5.6459 13.2416C5.34406 13.0123 4.98312 12.7364 4.70703 12.4785C4.72205 12.3238 4.71859 12.1437 4.73569 11.9704C4.7883 11.449 4.90298 10.9356 5.0773 10.4414C5.10268 10.368 5.21982 10.052 5.25656 9.99219Z" fill="#965BA5"/>
<path d="M6.82788 11.4297C7.29262 11.8067 7.78192 12.1524 8.29252 12.4645C8.45306 12.5621 8.61541 12.6565 8.77962 12.7477C8.84337 12.7832 9.05072 12.8894 9.08822 12.9238C8.984 12.9792 8.84611 13.0362 8.73611 13.0848C8.549 13.1688 8.36103 13.251 8.17236 13.3315C7.70164 13.5341 7.14339 13.7774 6.66348 13.9511C6.63041 13.9112 6.30755 13.71 6.23926 13.663C6.25777 13.6103 6.27268 13.4437 6.28023 13.3805C6.2927 13.2711 6.30885 13.1622 6.32865 13.0538C6.42463 12.5253 6.59716 11.9178 6.82788 11.4297Z" fill="#FE5364"/>
<path d="M6.9364 5.72665L6.94419 5.71979C7.10127 5.5799 7.32687 5.33564 7.48368 5.18027C7.93244 4.73568 8.54955 4.16651 8.59197 3.4963C8.61376 3.15243 8.44478 2.86593 8.21978 2.61876C7.95197 2.32463 7.68344 2.15823 7.27332 2.13467C6.94673 2.12123 6.60015 2.28408 6.35566 2.49073C6.25787 2.5734 6.2054 2.65614 6.05816 2.64993C5.91455 2.64387 5.78631 2.50637 5.79868 2.36294C5.81058 2.22479 5.93005 2.13032 6.02858 2.04836C6.42888 1.73022 6.91674 1.5355 7.43417 1.59737C8.02775 1.66835 8.42204 1.97681 8.78259 2.42939C9.05033 2.76551 9.19697 3.1984 9.13783 3.62825C9.01337 4.53343 8.27165 5.167 7.66589 5.77819C7.57766 5.86721 7.44112 5.99306 7.363 6.08097C7.32494 6.10714 7.19915 6.23679 7.16071 6.27542L6.68646 6.75177C6.59919 6.83932 6.51765 6.93026 6.41899 7.00696C6.18763 7.18686 5.87655 6.89971 6.03044 6.66C6.09812 6.55457 6.2153 6.4599 6.30298 6.36726C6.50686 6.15183 6.74087 5.94927 6.9364 5.72665Z" fill="#965BA5"/>
<path d="M9.66569 8.36912L10.3412 7.68812C10.5023 7.52672 10.6726 7.34112 10.8483 7.19738C11.1451 6.95463 11.5697 6.71398 11.9458 6.62836C12.3878 6.53815 12.8608 6.6245 13.2316 6.88493C13.2817 6.92208 13.3465 6.95558 13.3898 7.00004C13.4254 7.0367 13.454 7.07531 13.4923 7.11084C13.8508 7.44405 14.1237 7.8774 14.1528 8.37592C14.185 8.92623 13.9505 9.44342 13.5785 9.83693C13.3868 10.0397 13.0867 9.92217 13.0765 9.65475C13.0707 9.51139 13.3313 9.32162 13.3923 9.19779C13.6747 8.75139 13.6528 8.1692 13.3335 7.7481C13.2819 7.67566 13.2182 7.61695 13.1583 7.55216C12.9589 7.33526 12.7344 7.20095 12.4409 7.15701C12.0293 7.09534 11.6604 7.30861 11.3325 7.53028C11.114 7.67793 10.9426 7.87233 10.758 8.05748C10.5107 8.30811 10.2608 8.55615 10.0083 8.80154C9.85952 8.94717 9.71186 9.09389 9.56514 9.24154C9.47264 9.33412 9.37459 9.441 9.26936 9.51873C9.24131 9.53944 9.19092 9.54928 9.156 9.55194C9.08248 9.55694 9.01006 9.53178 8.95545 9.48225C8.86248 9.39795 8.83452 9.2249 8.91725 9.1328C9.15217 8.87092 9.42467 8.62537 9.66569 8.36912Z" fill="#FE5364"/>
<path d="M8.57039 0H8.78C8.80055 0.0111155 8.83445 0.0217059 8.85656 0.0293274C9.00344 0.0799586 9.10578 0.167555 9.17234 0.308195C9.23594 0.442813 9.24211 0.59747 9.18961 0.736755C9.14102 0.870563 9.03977 0.978656 8.90938 1.0359C8.77227 1.098 8.61594 1.10227 8.47555 1.04774C8.3425 0.996789 8.23563 0.894266 8.17914 0.763412C8.11922 0.624181 8.11734 0.466769 8.17399 0.326162C8.22867 0.191967 8.33094 0.0995312 8.46164 0.0415087C8.49406 0.0270917 8.525 0.0200149 8.55664 0.00613663L8.57039 0Z" fill="#3A97D4"/>
<path d="M16.0004 6.57858C15.8778 6.84086 15.7406 6.76354 15.5077 6.77946C15.1698 6.80258 15.0577 6.39635 15.3488 6.25801C15.4462 6.2117 15.7273 6.22082 15.8326 6.25759C15.9155 6.28655 15.968 6.35694 16.0004 6.43799V6.57858Z" fill="#3A97D4"/>
</g>
<defs>
<clipPath id="clip0_980_7845">
<rect width="16" height="16" fill="white"/>
</clipPath>
</defs>
</svg>
