<svg width="20" height="20" viewBox="0 0 20 20" fill="none" xmlns="http://www.w3.org/2000/svg">
<g clip-path="url(#clip0_580_8539)">
<path d="M0 9.32686C0.0183404 9.29443 0.071866 8.8705 0.0860226 8.79295C0.110574 8.66329 0.139072 8.53441 0.171475 8.4065C0.295826 7.92075 0.540202 7.30924 0.784471 6.86637C1.01325 6.44276 1.27304 6.03664 1.5617 5.65134C2.83897 3.95856 4.8135 2.47376 6.86503 1.88982C7.21793 1.79288 7.57955 1.73112 7.94462 1.70545C9.44317 1.58829 11.0155 2.02348 11.4748 3.63783C11.5182 3.66126 11.5611 3.68551 11.6036 3.71058C12.0039 3.94494 12.3118 4.23936 12.4479 4.70892C12.706 5.59266 11.6833 6.63788 10.8908 5.88735C10.8351 5.83454 10.5729 5.47109 10.5372 5.45957C10.3371 5.5147 10.1656 5.54856 9.96602 5.61857C9.33738 5.83899 8.75679 6.21422 8.42475 6.8079C8.09877 7.39077 8.02618 8.10473 8.21273 8.74598C8.52489 9.81901 9.38353 10.7123 10.2261 11.4063C10.4644 11.6027 10.6987 11.7635 10.947 11.9395C11.3695 12.2398 11.8067 12.5188 12.257 12.7755C13.8997 13.6927 15.6451 14.4125 17.4568 14.9197C18.0213 15.0761 18.6097 15.2122 19.1853 15.3175C19.6385 15.4005 19.8395 15.4419 20 15.9017V17.9291V18.0828C19.9483 18.1867 19.8809 18.299 19.7509 18.3125C19.6004 18.328 19.4424 18.3219 19.2906 18.3216L18.4282 18.3206H15.3771L9.51923 18.321H7.62083C7.33964 18.321 7.057 18.3227 6.77593 18.3199C5.32864 18.305 3.77601 17.6967 2.73496 16.6865C2.60023 16.5545 2.47187 16.4161 2.35027 16.2718C2.31896 16.2341 2.23095 16.1054 2.19756 16.0897C1.95402 16.1016 1.64392 16.0282 1.42272 15.9453C0.734414 15.6873 0.207657 15.0739 0.0533201 14.3561C0.0400642 14.2944 0.0261416 14.1673 0 14.1173V11.6416V10.485V9.32686Z" fill="#B0EDFD"/>
<path d="M1.7494 8.15668C2.25829 7.94305 2.77466 7.95869 3.30172 8.08313C3.57434 8.14749 3.76699 8.20661 4.05241 8.22159C4.01235 8.71063 4.00442 9.08036 4.07281 9.57309C4.09531 9.73041 4.12277 9.88699 4.15519 10.0426C4.17052 10.1144 4.21758 10.2478 4.20312 10.3154C4.18354 10.3301 4.19409 10.3245 4.17161 10.3322C4.79463 10.3358 5.39042 10.4494 5.95803 10.7115C6.40195 10.9166 7.03326 11.414 6.77016 11.9774C6.6082 12.3002 6.17096 12.3798 5.84665 12.3175C5.94005 12.5154 6.01477 12.7864 5.9487 13.0038C6.01074 13.034 6.58906 13.5881 6.71994 13.6934C9.03106 15.5538 11.8667 16.6493 14.7608 17.2026C15.8281 17.4047 16.9066 17.5413 17.9905 17.6116C18.3295 17.6345 18.6689 17.6499 19.0086 17.6574C19.2378 17.662 19.4983 17.6529 19.7247 17.6784C19.8467 17.6922 19.9279 17.7829 19.982 17.8896L20 17.925V18.0787C19.9483 18.1826 19.8809 18.2949 19.7509 18.3084C19.6004 18.3239 19.4424 18.3179 19.2906 18.3176L18.4282 18.3165H15.3771L9.51923 18.3169H7.62083C7.33964 18.3169 7.057 18.3186 6.77593 18.3158C5.32864 18.301 3.77601 17.6927 2.73496 16.6824C2.60023 16.5504 2.47187 16.412 2.35027 16.2678C2.31896 16.2301 2.23095 16.1013 2.19756 16.0856C1.95402 16.0975 1.64392 16.0241 1.42272 15.9412C0.734414 15.6832 0.207657 15.0698 0.0533201 14.352C0.0400642 14.2903 0.0261416 14.1632 0 14.1132V11.6375V10.4809C0.0219335 10.4217 0.0305087 10.3745 0.0400768 10.3125C0.116146 9.8199 0.2458 9.33947 0.538234 8.9243C0.757008 8.61259 1.05797 8.36766 1.40764 8.2168C1.48911 8.18146 1.57627 8.14385 1.66439 8.13032C1.71407 8.1227 1.71432 8.13043 1.7494 8.15668Z" fill="#00B3F5"/>
<path d="M1.7494 8.15668C2.25829 7.94305 2.77466 7.95869 3.30172 8.08313C3.57434 8.14749 3.76699 8.20661 4.05241 8.22159C4.01235 8.71063 4.00442 9.08036 4.07281 9.57309C4.09531 9.73041 4.12277 9.88699 4.15519 10.0426C4.17052 10.1144 4.21758 10.2478 4.20312 10.3154C4.18354 10.3301 4.19409 10.3245 4.17161 10.3322C4.79463 10.3358 5.39042 10.4494 5.95803 10.7115C6.40195 10.9166 7.03326 11.414 6.77016 11.9774C6.6082 12.3002 6.17096 12.3798 5.84665 12.3175C5.94005 12.5154 6.01477 12.7864 5.9487 13.0038C5.83408 13.4869 5.41521 13.9398 4.87076 13.8143C4.54113 13.7384 4.30842 13.402 4.04813 13.206C3.47232 12.7424 2.684 12.5489 2.15264 13.1856C1.52207 13.9411 1.74265 15.0165 2.10694 15.8389C2.12532 15.8804 2.16293 15.954 2.173 15.9958C2.19165 16.0345 2.20522 16.045 2.20162 16.0805L2.19756 16.0856C1.95402 16.0975 1.64392 16.0241 1.42272 15.9412C0.734414 15.6832 0.207657 15.0698 0.0533201 14.352C0.0400642 14.2903 0.0261416 14.1632 0 14.1132V11.6375V10.4809C0.0219335 10.4217 0.0305087 10.3745 0.0400768 10.3125C0.116146 9.8199 0.2458 9.33947 0.538234 8.9243C0.757008 8.61259 1.05797 8.36766 1.40764 8.2168C1.48911 8.18146 1.57627 8.14385 1.66439 8.13032C1.71407 8.1227 1.71432 8.13043 1.7494 8.15668Z" fill="#D9F6FD"/>
<path d="M1.74902 8.15668C2.25791 7.94305 2.77427 7.95869 3.30133 8.08313C3.57395 8.14749 3.76661 8.20661 4.05203 8.22159C4.01197 8.71063 4.00404 9.08036 4.07243 9.57309C4.09493 9.73041 4.12239 9.88699 4.1548 10.0426C4.17013 10.1144 4.21719 10.2478 4.20274 10.3154C4.18315 10.3301 4.19371 10.3245 4.17123 10.3322C3.09079 10.3543 1.99595 10.6846 1.37945 11.6434C1.17435 11.4758 1.01011 11.2508 0.891367 11.0153C0.618487 10.4674 0.572607 9.83396 0.763675 9.25238C0.941531 8.72636 1.26111 8.39812 1.74902 8.15668Z" fill="#00B3F5"/>
<path d="M0 11.6406C0.050169 11.7415 0.0790281 12.0942 0.101008 12.2231C0.135363 12.4228 0.178414 12.6206 0.230036 12.8164C0.507809 13.8615 1.0023 14.8095 1.72983 15.6086C1.83169 15.7205 1.98349 15.9019 2.11602 15.9912C2.12846 15.9996 2.15722 15.9993 2.173 15.9989C2.19165 16.0376 2.20522 16.0481 2.20162 16.0837L2.19756 16.0888C1.95402 16.1007 1.64392 16.0272 1.42272 15.9443C0.734414 15.6863 0.207657 15.0729 0.0533201 14.3552C0.0400642 14.2935 0.0261416 14.1663 0 14.1163V11.6406Z" fill="#FEFEFE"/>
<path d="M0 9.32686C0.0183404 9.29444 0.071866 8.8705 0.0860226 8.79295C0.110574 8.66329 0.139072 8.53442 0.171475 8.4065C0.295826 7.92075 0.540202 7.30924 0.784471 6.86637C1.01325 6.44276 1.27304 6.03664 1.5617 5.65134C2.83897 3.95856 4.8135 2.47376 6.86503 1.88982C7.21793 1.79288 7.57955 1.73112 7.94462 1.70545C9.44317 1.58829 11.0155 2.02348 11.4748 3.63783C11.5182 3.66126 11.5611 3.68551 11.6036 3.71058C12.0039 3.94494 12.3118 4.23936 12.4479 4.70892C12.706 5.59266 11.6833 6.63788 10.8908 5.88735C10.8351 5.83454 10.5729 5.4711 10.5372 5.45957C10.4999 5.36088 10.3548 5.21908 10.2786 5.14368C9.9832 4.85122 9.63103 4.61788 9.24819 4.45615C9.17699 4.42609 9.06099 4.37082 8.98713 4.35748L8.97726 4.35564C8.88044 4.33685 8.77627 4.30369 8.6788 4.28051C8.53522 4.24772 8.38975 4.22394 8.24321 4.20931C7.13377 4.09706 5.98728 4.48238 5.07498 5.09697C4.44924 5.51852 4.01457 5.95603 3.52369 6.5189C3.98748 6.49888 4.54365 6.52339 4.90919 6.85013C5.22825 7.13532 5.27684 7.58711 4.97385 7.90538C4.75793 8.13219 4.44762 8.21873 4.13955 8.22486C4.11051 8.22552 4.08146 8.22579 4.05241 8.22569C3.76699 8.2107 3.57434 8.15158 3.30172 8.08723C2.77466 7.96278 2.25829 7.94714 1.7494 8.16077C1.71432 8.13452 1.71407 8.1268 1.66439 8.13442C1.57627 8.14794 1.48911 8.18556 1.40764 8.22089C1.05797 8.37176 0.757008 8.61668 0.538234 8.9284C0.2458 9.34357 0.116146 9.824 0.0400768 10.3166C0.0305087 10.3786 0.0219335 10.4258 0 10.485V9.32686Z" fill="#E5F9FE"/>
<path d="M3.52344 6.51649C4.01432 5.95361 4.44898 5.5161 5.07473 5.09456C5.98702 4.47997 7.13352 4.09465 8.24296 4.20689C8.38949 4.22152 8.53497 4.2453 8.67854 4.2781C8.77602 4.30128 8.88019 4.33443 8.977 4.35322L8.98687 4.35507C8.97124 4.39623 8.86468 4.46341 8.82059 4.49612C8.64747 4.62643 8.4819 4.76647 8.32468 4.91555C7.43581 5.75848 6.7952 6.99232 6.94926 8.24607C6.98996 8.57731 7.0922 8.90028 7.22891 9.20395C8.40363 11.8133 12.6161 13.9934 15.2095 14.9728C15.4663 15.072 15.7249 15.1664 15.9852 15.2563C16.1148 15.3002 16.2388 15.3392 16.3746 15.3882C16.5519 15.4523 16.7098 15.4745 16.7896 15.6672C16.8728 15.8683 16.6523 16.1353 16.4518 16.0758C15.6113 15.8264 14.7972 15.4869 13.9863 15.1531C13.5398 14.9654 13.0995 14.7629 12.6664 14.5459C12.5096 14.4688 12.3533 14.3913 12.1988 14.3095C10.2681 13.2863 8.31954 12.0476 7.06447 10.2152C7.00393 10.1281 6.94747 10.0382 6.89528 9.9458C6.81416 9.80029 6.74162 9.61905 6.62474 9.49975C6.48098 9.35579 6.2079 9.4352 6.13953 9.61671C6.08858 9.74616 6.12702 9.8584 6.18373 9.97598C6.75156 11.1529 7.6776 12.1287 8.72502 12.8948C8.87831 13.0069 9.12598 13.1439 9.11367 13.3576C9.11162 13.3902 9.10474 13.4225 9.09324 13.453C9.03439 13.6128 8.84902 13.7053 8.68562 13.638C8.56292 13.5875 8.44289 13.4655 8.33187 13.3938C7.85009 13.0416 7.396 12.6453 6.98405 12.2134C6.9377 12.1648 6.79649 12.0283 6.7699 11.9791C7.03301 11.4157 6.4017 10.9183 5.95777 10.7132C5.39017 10.4511 4.79438 10.3375 4.17136 10.3339C4.19384 10.3262 4.18328 10.3317 4.20287 10.3171C4.21732 10.2495 4.17026 10.1161 4.15493 10.0442C4.12252 9.88867 4.09506 9.73209 4.07256 9.57478C4.00417 9.08204 4.0121 8.71231 4.05216 8.22327C4.08121 8.22338 4.11025 8.22311 4.1393 8.22245C4.44736 8.21632 4.75768 8.12978 4.97359 7.90297C5.27658 7.5847 5.228 7.13291 4.90894 6.84772C4.5434 6.52098 3.98723 6.49647 3.52344 6.51649Z" fill="#0DC2FD"/>
<path d="M17.7067 15.8289C17.8668 15.8187 18.2884 15.9136 18.4395 15.9788C18.7164 16.0982 18.7085 16.4664 18.3873 16.5763C18.2354 16.594 18.1263 16.5382 17.9733 16.5136C17.673 16.4655 17.3085 16.3168 17.532 15.9472C17.5654 15.8922 17.645 15.8546 17.7067 15.8289Z" fill="#0DC2FD"/>
<path d="M9.81162 13.6641C9.96279 13.6778 10.2087 13.8324 10.3461 13.9113C10.6527 14.0874 10.5785 14.4615 10.2266 14.5228C10.0454 14.4863 9.81953 14.3607 9.66279 14.2594C9.38611 14.0804 9.46293 13.7036 9.81162 13.6641Z" fill="#0DC2FD"/>
</g>
<defs>
<clipPath id="clip0_580_8539">
<rect width="20" height="20" fill="white"/>
</clipPath>
</defs>
</svg>
