<svg width="12" height="24" viewBox="0 0 12 24" fill="none" xmlns="http://www.w3.org/2000/svg">
<g clip-path="url(#clip0_777_19051)">
<path d="M9.25321 0H9.46629C10.0971 0.169766 9.97598 0.387918 9.85896 0.904383L9.68435 1.67443L9.44091 2.75118C9.40385 2.91499 9.35776 3.15118 9.31326 3.30812C9.31207 3.31235 9.31085 3.31657 9.30958 3.32079C9.76247 3.51464 9.74357 3.6849 9.88074 4.12924C10.001 4.52362 10.1086 4.92171 10.2036 5.32293C10.5705 6.90523 10.8445 8.50763 11.0242 10.1219C11.0689 10.5175 11.1059 10.9139 11.135 11.3109C11.1426 11.4231 11.1616 11.9013 11.1811 11.9936V12.8269C11.1569 12.9413 11.1548 13.057 11.1373 13.172C10.9395 14.4664 10.1335 15.5753 9.04775 16.281C8.54589 16.6084 7.98985 16.8442 7.40553 16.9772C7.28316 17.8339 7.14655 21.2872 7.55091 21.9577C7.55201 21.9595 7.55318 21.9613 7.55432 21.963C7.69567 22.0099 7.85635 22.0336 7.99953 22.0714C8.39154 22.1749 9.0989 22.357 9.28806 22.7434C9.35036 22.8698 9.35834 23.0162 9.31018 23.1488C9.09869 23.7411 7.9935 23.8991 7.44694 23.9569C7.32076 23.9702 7.08001 23.9707 6.97022 24H6.11251C6.06559 23.9876 6.00605 23.9885 5.95705 23.9851C5.3458 23.9427 4.03865 23.8286 3.74819 23.1902C3.68956 23.0639 3.68423 22.9193 3.73342 22.7891C3.8958 22.3655 4.6401 22.1776 5.04248 22.0732C5.14893 22.0455 5.40034 21.9988 5.4877 21.9591L5.4919 21.9572C5.8863 21.28 5.76545 17.8206 5.63402 16.976C4.38418 16.6773 3.27363 15.9517 2.5643 14.8707C2.22742 14.3625 2.00363 13.788 1.90805 13.1859C1.81358 12.5797 1.87691 11.562 1.93663 10.9355C2.06379 9.60189 2.25015 8.12215 2.52331 6.80932C2.5108 6.83195 2.49745 6.85411 2.48326 6.87574C2.24032 7.24154 1.84535 6.96213 1.58577 6.78422C0.851476 6.28329 0.326288 5.53062 0.109575 4.66862C0.0436572 4.4075 0.0449762 4.26008 0 4.01817V3.54171C0.0204907 3.46392 0.037781 3.2329 0.0576493 3.12779C0.137689 2.70424 0.290586 2.29777 0.509542 1.92646C0.997249 1.1039 1.7903 0.507389 2.71591 0.266877C3.6479 0.0227691 4.63875 0.159799 5.46949 0.647684C6.37624 1.17905 6.91548 1.97025 7.17676 2.97456C7.55296 2.99483 7.92798 3.03274 8.30062 3.08816L8.74589 1.11311C8.80934 0.831852 8.88654 0.426772 8.98265 0.153679C9.01415 0.0641282 9.1659 0.0239176 9.25321 0Z" fill="#061A22"/>
<path d="M2.43798 6.41377C2.19298 6.91298 2.24071 6.9329 1.73417 6.59411C0.990344 6.09385 0.47582 5.31854 0.303863 4.43886C0.130296 3.55461 0.315143 2.63763 0.817743 1.88966C1.32214 1.14109 2.10376 0.624044 2.99007 0.452666C3.87514 0.280987 4.79217 0.468955 5.5383 0.974995C6.32719 1.50826 6.80024 2.28436 6.97913 3.21095C7.32639 3.2214 7.67295 3.24859 8.01758 3.29244C8.17468 3.31215 8.33085 3.34111 8.48683 3.35981L8.33254 4.04032C8.53491 4.00691 8.73575 3.9648 8.9345 3.91413C8.95563 3.77906 9.00375 3.62689 9.02693 3.48351C9.18198 3.53341 9.34486 3.57604 9.46802 3.68622C9.54287 3.80252 9.74403 4.50303 9.78596 4.65698C10.0374 5.58024 10.2342 6.53401 10.3999 7.47574C10.6004 8.60198 10.7537 9.7361 10.8596 10.8751C10.9079 11.4202 10.9368 11.9477 10.9454 12.4932C10.9771 14.5024 9.43057 16.193 7.54551 16.6972C7.43616 16.7265 7.32677 16.7525 7.21616 16.7773C6.67539 16.8355 6.36773 16.8405 5.82821 16.777C5.56242 16.7084 5.38791 16.6748 5.11938 16.5776C4.137 16.2261 3.29734 15.5617 2.72968 14.6863C2.42552 14.2118 2.2249 13.6786 2.14093 13.1212C2.05415 12.5264 2.12002 11.6093 2.17221 10.9985C2.31885 9.37782 2.55934 7.76702 2.89246 6.17421C3.00263 5.6507 3.13958 5.16363 3.25308 4.65494C3.19383 4.74139 3.09421 4.98054 3.04524 5.08534C2.90478 5.38586 2.77459 5.6968 2.62998 5.99551L2.43798 6.41377Z" fill="#FEFEFE"/>
<path d="M2.43798 6.41377C2.19298 6.91298 2.24072 6.9329 1.73417 6.59411C0.990344 6.09385 0.47582 5.31854 0.303864 4.43886C0.130295 3.55461 0.315143 2.63763 0.817743 1.88966C1.32214 1.14109 2.10376 0.624044 2.99007 0.452666C3.87514 0.280987 4.79217 0.468955 5.5383 0.974995C6.32719 1.50826 6.80024 2.28436 6.97913 3.21095C7.03202 3.5861 7.03775 3.79547 7.00633 4.16977C6.9009 4.17339 6.79546 4.17609 6.69 4.17788C6.65588 4.20003 6.01809 4.16998 5.93348 4.16443C5.47403 4.15081 4.50215 4.05541 4.08203 3.88513C3.81798 3.88556 3.68804 3.65513 3.5682 3.71373C3.51298 3.77625 3.49593 3.91344 3.46568 3.97434C3.38594 4.20371 3.3286 4.4294 3.25308 4.65494C3.19383 4.74139 3.09422 4.98054 3.04524 5.08534C2.90478 5.38586 2.77459 5.6968 2.62998 5.99551L2.43798 6.41377Z" fill="#F8F1C9"/>
<path d="M2.43798 6.41377C2.19298 6.91298 2.24072 6.9329 1.73417 6.59411C0.990344 6.09385 0.47582 5.31854 0.303864 4.43886C0.130295 3.55461 0.315143 2.63763 0.817743 1.88966C1.32214 1.14109 2.10376 0.624044 2.99007 0.452666C3.87514 0.280987 4.79217 0.468955 5.5383 0.974995C6.32719 1.50826 6.80024 2.28436 6.97913 3.21095C7.03202 3.5861 7.03775 3.79547 7.00633 4.16977C6.9009 4.17339 6.79546 4.17609 6.69 4.17788C6.62677 4.17725 6.56352 4.17779 6.50031 4.17952C6.57467 3.32768 6.4078 2.59426 5.84563 1.924C5.35214 1.33686 4.64531 0.970119 3.88106 0.904673C3.11475 0.839546 2.354 1.08183 1.76653 1.5781C1.18314 2.07339 0.819173 2.77915 0.75392 3.54158C0.689727 4.31032 0.935027 5.07287 1.43538 5.66005C1.70967 5.98238 2.05211 6.23982 2.43798 6.41377Z" fill="#F87114"/>
<path d="M1.39746 4.72016C1.96928 4.51184 2.83793 4.17458 3.44006 3.96094C3.44998 3.96397 3.45846 3.96656 3.46549 3.96871C3.38576 4.19808 3.32841 4.42377 3.2529 4.64931C3.19364 4.73576 3.09403 4.9749 3.04505 5.0797C2.9046 5.38023 2.77441 5.69116 2.62979 5.98987C2.0515 5.7022 1.6544 5.32048 1.39746 4.72016Z" fill="#FEE440"/>
<path d="M3.89355 3.78733C4.1042 3.7248 4.3906 3.60859 4.60151 3.52971L5.84965 3.0625C5.96626 3.46193 5.98968 3.74459 5.93344 4.16078C5.47399 4.14716 4.50211 4.05176 4.08199 3.88148L3.89355 3.78733Z" fill="#FEE440"/>
<path d="M2.71612 1.64062C2.74762 1.66852 3.39785 3.43233 3.45623 3.58823C3.21721 3.49453 2.88722 3.33135 2.64634 3.22132L1.95474 2.90737C1.83113 2.85125 1.67361 2.78497 1.55762 2.72198C1.84927 2.19663 2.16908 1.89302 2.71612 1.64062Z" fill="#FEE440"/>
<path d="M4.68895 1.70312C5.22447 1.99309 5.52279 2.32179 5.779 2.86982C5.39003 3.01831 5.00025 3.1647 4.6097 3.30897L3.82129 3.60293C4.11527 2.97945 4.40194 2.33116 4.68895 1.70312Z" fill="#FEE440"/>
<path d="M1.47378 2.91406C1.66526 2.98989 1.93125 3.12084 2.12409 3.20873L3.36463 3.77539C3.15805 3.86297 2.91112 3.94827 2.69856 4.02744C2.30409 4.18981 1.82525 4.35433 1.4202 4.50714C1.24242 3.98701 1.27431 3.42276 1.47378 2.91406Z" fill="#FEE440"/>
<path d="M3.48766 1.4606C3.82875 1.42827 4.18726 1.504 4.50444 1.62626L3.7532 3.27632C3.71691 3.35681 3.67901 3.43656 3.63951 3.51552C3.42364 2.88497 3.15038 2.19916 2.91504 1.56995C3.11605 1.50565 3.2792 1.47783 3.48766 1.4606Z" fill="#FEE440"/>
<path d="M6.97852 3.21094C7.32577 3.22139 7.67233 3.24858 8.01696 3.29243C8.17406 3.31214 8.33023 3.3411 8.48621 3.3598L8.33192 4.04031C7.89274 4.1092 7.44991 4.15243 7.00571 4.16977C7.03713 3.79546 7.0314 3.58609 6.97852 3.21094Z" fill="#C0E2E4"/>
<path d="M8.93457 3.91499C8.9557 3.77992 9.00382 3.62775 9.02701 3.48438C9.18205 3.53427 9.34493 3.57691 9.4681 3.68709C9.35857 3.69146 9.36581 3.71922 9.2807 3.77498C9.1729 3.84559 9.05726 3.87941 8.93457 3.91499Z" fill="#C0E2E4"/>
<path d="M3.38384 7.63802C3.40005 7.62104 3.41691 7.60468 3.4344 7.589C3.55352 7.48407 3.88087 7.39945 4.04385 7.3673C5.20125 7.13904 6.44402 7.12173 7.61695 7.19456C7.5911 7.30418 7.51002 7.59748 7.52821 7.68936C7.57331 7.74223 7.71677 7.73977 7.77917 7.75323C8.2256 7.8496 8.08073 7.33545 8.19121 7.24606C8.51875 7.29559 9.41111 7.38394 9.6569 7.65175C9.68146 7.67852 9.69365 7.77211 9.69834 7.81241C9.74467 8.15332 9.82433 8.49506 9.88118 8.83519C10.0532 9.86454 10.3863 12.1063 10.2023 13.1181C10.0329 14.0489 9.44276 14.8532 8.67224 15.385C7.91796 15.9058 6.92324 16.2246 6.00853 16.0572C4.95945 15.865 3.98502 15.2822 3.3757 14.3982C3.09938 14.0011 2.91333 13.5484 2.83063 13.0719C2.7563 12.6225 2.79076 12.0428 2.82171 11.5877C2.90919 10.3018 3.1168 9.04253 3.34941 7.77695C3.35654 7.73249 3.37181 7.68202 3.38384 7.63802Z" fill="#FEC200"/>
<path d="M7.06529 12.0383C6.91046 12.0025 6.77729 11.8475 6.74312 11.6969C6.73122 11.6445 6.73685 11.5462 6.74554 11.4916C6.81252 11.0708 6.88494 10.6469 6.95219 10.2265C6.98222 10.0387 7.00302 9.81193 7.17175 9.6974C7.32495 9.58742 7.45284 9.60243 7.62462 9.62663C8.12517 9.73198 8.65085 9.78253 9.15536 9.88383C9.36454 9.91506 9.53711 10.0812 9.5531 10.2963C9.55759 10.3567 9.54396 10.4533 9.53369 10.5156C9.45764 10.981 9.3798 11.4565 9.29916 11.9199C9.24684 12.2205 9.01369 12.3726 8.72311 12.3161C8.18557 12.2114 7.59656 12.1579 7.06529 12.0383Z" fill="#FEE440"/>
<path d="M6.91798 12.6771C7.23226 12.4435 7.57252 11.9526 7.9867 12.4238C8.33222 12.8169 8.67125 13.2196 9.00484 13.6224C9.1106 13.7539 9.10382 14.0084 8.98957 14.1458C8.54903 14.5586 8.06975 14.9536 7.60529 15.3403C7.47407 15.4495 7.20784 15.4391 7.08382 15.3281C6.85659 15.1229 6.673 14.86 6.46553 14.6329C6.34648 14.4794 6.14693 14.26 6.01583 14.1075C5.72245 13.7548 5.93624 13.5177 6.21276 13.2856C6.41515 13.1131 6.73401 12.8568 6.91798 12.6771Z" fill="#FEE440"/>
<path d="M3.38403 7.63802C3.40024 7.62104 3.41711 7.60468 3.43459 7.589C3.55372 7.48407 3.88106 7.39945 4.04404 7.3673C5.20145 7.13904 6.44421 7.12173 7.61715 7.19456C7.59129 7.30418 7.51021 7.59748 7.5284 7.68936C7.5735 7.74223 7.71697 7.73977 7.77937 7.75323C8.2258 7.8496 8.08093 7.33545 8.1914 7.24606C8.51895 7.29559 9.41131 7.38394 9.65709 7.65175C9.68166 7.67852 9.69385 7.77211 9.69854 7.81241C9.64345 7.82232 9.60657 7.89781 9.55655 7.91944C9.06352 8.13264 8.4779 8.19322 7.94812 8.24717C7.75968 8.26782 7.55717 8.27601 7.36686 8.28912C7.21634 8.29538 7.06578 8.3007 6.9152 8.30507C6.034 8.327 5.12599 8.27441 4.25856 8.12408C3.94291 8.06937 3.5864 8.00191 3.34961 7.77695C3.35674 7.73249 3.37201 7.68202 3.38403 7.63802Z" fill="#FEE440"/>
<path d="M7.36691 8.29195C7.55723 8.27884 7.75973 8.27065 7.94818 8.25L7.73621 9.16342C7.70964 9.27775 7.6589 9.5261 7.62441 9.62906C7.45262 9.60486 7.32473 9.58985 7.17154 9.69983C7.0028 9.81436 6.98201 10.0412 6.95197 10.229C6.88472 10.6493 6.8123 11.0732 6.74532 11.494C6.73664 11.5486 6.73101 11.6469 6.74291 11.6993C6.77707 11.8499 6.91025 12.005 7.06507 12.0407C7.01721 12.2536 6.96826 12.4663 6.91823 12.6787C6.73426 12.8584 6.4154 13.1147 6.21301 13.2872C6.20783 13.2005 6.36977 12.5703 6.4009 12.4413C6.73374 11.0619 7.03092 9.66989 7.36691 8.29195Z" fill="#D9930A"/>
<path d="M6.46567 14.6348C6.42215 14.7879 6.39232 14.9671 6.35303 15.1239C6.32806 15.2382 6.29304 15.3632 6.18594 15.4288C6.01463 15.5337 5.75996 15.397 5.77612 15.19C5.7787 15.1549 5.78037 15.1145 5.78839 15.0804C5.864 14.7587 5.93105 14.4282 6.01597 14.1094C6.14707 14.262 6.34662 14.4813 6.46567 14.6348Z" fill="#D9930A"/>
<path d="M4.02286 11.0547C4.13173 11.053 4.60362 11.131 4.73116 11.1625C4.98822 11.226 5.76759 11.2955 5.94134 11.4028C6.04833 11.4678 6.12407 11.5738 6.15102 11.696C6.17091 11.7848 6.15415 11.8909 6.13844 11.9802C6.05474 12.4561 5.98354 12.9351 5.8904 13.4092C5.84697 13.6302 5.71437 13.7351 5.50053 13.7821C5.38196 13.7901 4.72677 13.6754 4.5792 13.646C4.34465 13.5992 3.89346 13.5439 3.67098 13.4855C3.62027 13.4722 3.5724 13.4499 3.52968 13.4196C3.43001 13.3501 3.36272 13.2432 3.34312 13.1233C3.31414 12.9439 3.56838 11.6923 3.60643 11.433C3.61328 11.3864 3.65477 11.276 3.68733 11.2359C3.7789 11.1232 3.88431 11.0756 4.02286 11.0547Z" fill="#FEE440"/>
<path d="M3.7041 3.97656C3.89025 4.06547 4.08849 4.09509 4.27782 4.17631C4.31365 4.17098 5.01648 4.27353 5.02565 4.27959C5.2704 4.31178 5.64586 4.35305 5.89088 4.35631C6.03922 4.36432 6.18775 4.36825 6.33631 4.36806C6.41446 4.36797 6.5536 4.36067 6.62493 4.36953C6.74219 4.37065 6.85946 4.36969 6.97668 4.36664C6.7871 5.30148 6.31386 6.07087 5.51422 6.60371C5.37642 6.69552 5.03719 6.91125 4.8684 6.90561C4.7636 6.90209 4.68833 6.57736 4.64451 6.48865C4.61446 6.45121 4.50044 6.11426 4.47977 6.05463C4.40917 5.83881 4.29979 5.56779 4.21893 5.35134L3.7041 3.97656Z" fill="#F8F1C9"/>
<path d="M3.7041 3.97656C3.89025 4.06547 4.08849 4.09509 4.27782 4.17631C4.74837 4.41311 5.31611 4.65039 5.80048 4.8757C5.49426 5.4338 5.10103 5.81201 4.48787 6.05235C4.48516 6.05311 4.48246 6.05387 4.47977 6.05463C4.40917 5.83881 4.29979 5.56779 4.21893 5.35134L3.7041 3.97656Z" fill="#FEE440"/>
<path d="M6.62495 4.37007C6.74221 4.3712 6.85949 4.37023 6.9767 4.36719C6.78712 5.30203 6.31389 6.07141 5.51424 6.60425C5.37645 6.69607 5.03722 6.9118 4.86842 6.90615C4.76362 6.90263 4.68835 6.57791 4.64453 6.4892C5.63464 6.07654 6.2007 5.41382 6.4639 4.37563C6.52411 4.37701 6.5656 4.37452 6.62495 4.37007Z" fill="#F87114"/>
<path d="M5.02553 4.28125C5.27029 4.31344 5.64574 4.35471 5.89077 4.35797C5.85857 4.46944 5.83233 4.54732 5.79198 4.65562C5.6265 4.57806 5.46046 4.50173 5.29387 4.4266C5.21964 4.39309 5.07155 4.33257 5.01074 4.29261L5.02553 4.28125Z" fill="#FEE440"/>
<path d="M8.28175 4.25059C8.47909 4.21805 8.68818 4.18425 8.88179 4.13281L8.40326 6.25359C8.37396 6.38313 8.17437 7.22401 8.192 7.25255C8.08153 7.34195 8.2264 7.85609 7.77996 7.75973C7.71757 7.74627 7.5741 7.74873 7.529 7.69585C7.51081 7.60398 7.59189 7.31068 7.61775 7.20105C7.75093 6.66478 7.86737 6.09227 7.99164 5.55111C8.08471 5.14579 8.20824 4.65453 8.28175 4.25059Z" fill="#F8F1C9"/>
<path d="M5.82818 16.7734C6.36769 16.837 6.67536 16.8319 7.21613 16.7737C7.18559 16.8748 7.17771 16.9166 7.16391 17.014C7.15607 17.0693 7.13072 17.3806 7.11935 17.4088C7.09867 17.6998 7.07412 17.9913 7.06267 18.2827C7.03501 18.9861 6.97424 21.6416 7.354 22.0895C7.39532 22.1383 7.4544 22.1726 7.51315 22.1962C7.64435 22.2488 7.79946 22.2686 7.93734 22.3023C8.24506 22.3776 9.12204 22.5918 9.10018 22.9885C9.09401 23.1004 9.01435 23.194 8.93345 23.265C8.34353 23.7824 6.61558 23.7896 5.86676 23.7378C5.34147 23.7016 4.39387 23.6063 4.03332 23.189C3.9773 23.1242 3.93241 23.0438 3.94037 22.9553C3.94975 22.8513 4.0168 22.7629 4.09577 22.6993C4.35889 22.4871 4.82158 22.37 5.15029 22.2927C5.27245 22.264 5.41062 22.2448 5.5265 22.1976C5.60226 22.1668 5.67164 22.1175 5.71746 22.0489C5.83961 21.8658 5.90709 21.3598 5.93293 21.1288C6.01738 20.374 5.99735 19.602 5.99277 18.8434C5.99152 18.6382 5.96534 18.357 5.9766 18.1666C5.9637 18.0934 5.95875 17.9414 5.95111 17.862C5.91644 17.5011 5.92091 17.1246 5.82818 16.7734Z" fill="#FEFEFE"/>
<path d="M5.82812 16.7734C6.36764 16.837 6.67531 16.8319 7.21608 16.7737C7.18554 16.8748 7.17766 16.9166 7.16385 17.014C7.15601 17.0693 7.13066 17.3806 7.11929 17.4088L7.10614 17.3821C7.04086 17.3786 6.11406 17.9568 5.98812 18.0489C5.97817 18.0961 5.97778 18.1179 5.97655 18.1666C5.96365 18.0934 5.9587 17.9414 5.95106 17.862C5.91639 17.5011 5.92086 17.1246 5.82812 16.7734Z" fill="#C0E2E4"/>
<path d="M9.18936 0.264278C9.39875 0.220162 9.56409 0.232428 9.72468 0.391191C9.61215 0.974586 9.4498 1.62454 9.31762 2.20859L9.13127 3.03228C9.0999 3.17093 9.06505 3.35027 9.02643 3.48194C9.00325 3.62532 8.95512 3.77749 8.93399 3.91256C8.73524 3.96323 8.5344 4.00533 8.33203 4.03874L8.48633 3.35824L8.95658 1.27449L9.10169 0.629627C9.12558 0.523421 9.15662 0.363576 9.18936 0.264278Z" fill="#F8F1C9"/>
</g>
<defs>
<clipPath id="clip0_777_19051">
<rect width="11.1811" height="24" fill="white"/>
</clipPath>
</defs>
</svg>
