<svg width="24" height="24" viewBox="0 0 24 24" fill="none" xmlns="http://www.w3.org/2000/svg">
<g clip-path="url(#clip0_580_8714)">
<path d="M3.61309 0H20.3647C20.4718 0.0347017 20.647 0.0378816 20.7633 0.0551852C21.9301 0.22894 22.9522 0.951013 23.5227 1.9866C23.7349 2.37229 23.8773 2.79244 23.9432 3.22768C23.966 3.37639 23.9725 3.55315 24 3.69274V20.3159C23.9479 20.603 23.9548 20.801 23.8775 21.1124C23.6493 22.0014 23.1104 22.7794 22.3584 23.3058C21.8591 23.6507 21.264 23.8804 20.6586 23.9626C20.5772 23.9738 20.5 23.9714 20.4218 24H3.59186C3.53836 23.9804 3.22443 23.9429 3.14441 23.9285C2.77547 23.8621 2.41842 23.7414 2.08487 23.5703C1.14065 23.0886 0.439822 22.2354 0.150902 21.2155C0.0910107 21.0005 0.052932 20.7923 0.0330386 20.5709C0.0274293 20.5084 0.02114 20.4341 0 20.3756V3.61709C0.0186691 3.57132 0.0511386 3.2342 0.0663301 3.14702C0.142508 2.71433 0.294064 2.29836 0.514096 1.91808C1.01735 1.03989 1.85044 0.399013 2.82833 0.137808C2.96559 0.100784 3.10513 0.0727439 3.24605 0.0538666C3.35677 0.0395999 3.50893 0.0313148 3.61309 0Z" fill="#0053A4"/>
<path d="M4.39088 1.1413C4.55017 1.12576 4.74285 1.13682 4.90471 1.13428C5.08569 1.13143 5.26937 1.1343 5.4506 1.13438L7.42997 1.13487L13.6269 1.13478L17.7659 1.13445L18.9303 1.13436C19.2655 1.13435 19.6247 1.12419 19.954 1.17644C20.6102 1.27862 21.2226 1.56941 21.7167 2.01339C22.3964 2.62134 22.8057 3.47516 22.854 4.3858C22.8741 4.75845 22.8622 5.20856 22.862 5.58917L22.8615 7.66638L22.8618 14.1139L22.862 17.9032V18.9643C22.862 19.2863 22.8696 19.6275 22.8199 19.945C22.7178 20.6062 22.4251 21.2232 21.9774 21.7203C21.3724 22.393 20.5264 22.7997 19.6232 22.8521C19.246 22.8718 18.7852 22.8607 18.4017 22.8607H16.3088H9.85787L6.11192 22.8608L5.03557 22.8609C4.71456 22.8611 4.39232 22.8696 4.07404 22.8226C3.41553 22.725 2.79923 22.4391 2.29926 21.9996C1.61881 21.4005 1.20376 20.5559 1.14515 19.6512C1.12384 19.2897 1.13657 18.8357 1.13673 18.465L1.13712 16.4173L1.13698 10.0453L1.13667 6.09598L1.13679 4.95383C1.13689 4.68554 1.12974 4.3456 1.16998 4.08245C1.26785 3.4127 1.56021 2.78641 2.01076 2.28129C2.62043 1.59917 3.47725 1.18878 4.39088 1.1413Z" fill="#FEFEFE"/>
<path d="M4.44312 1.88974C4.4557 1.88862 4.46892 1.88795 4.48152 1.88771C4.88005 1.88028 5.28169 1.88412 5.68049 1.88413L7.86881 1.88414L14.5376 1.88407L17.9885 1.88382L18.9845 1.88338C19.2589 1.88335 19.5541 1.87595 19.8242 1.91544C20.3657 1.99741 20.8691 2.24283 21.2673 2.61882C21.7891 3.10855 22.0941 3.80212 22.1068 4.51762C22.114 4.9325 22.1107 5.34693 22.1105 5.7619V7.93803L22.1109 14.6109V18.0662V19.0434C22.1109 19.218 22.1101 19.391 22.1026 19.5655C22.063 20.4732 21.526 21.3276 20.731 21.7654C20.3794 21.959 19.9677 22.0877 19.565 22.1004C19.1577 22.1164 18.7057 22.1074 18.2953 22.1074H16.1575L9.61681 22.1072H6.02354L5.00003 22.108C4.76566 22.1082 4.45014 22.1149 4.22079 22.0831C3.69948 22.0134 3.20999 21.7926 2.81283 21.4479C2.27383 20.9805 1.94379 20.3173 1.896 19.6056C1.87357 19.2658 1.88649 18.8141 1.88673 18.4686L1.88706 16.4918L1.88688 10.3101L1.88652 6.24162V5.05385C1.88654 4.78721 1.87795 4.45877 1.91424 4.19937C1.98738 3.6753 2.21375 3.18455 2.56492 2.78873C3.05626 2.23491 3.70856 1.93441 4.44312 1.88974Z" fill="#0053A4"/>
<path d="M7.66732 5.63397L7.7022 5.63384L10.5918 5.63281L11.607 5.63288C11.8883 5.63304 12.1802 5.63014 12.46 5.6573C13.485 5.76199 14.4427 6.21684 15.1714 6.9452C16.0182 7.78688 16.4929 8.93243 16.4896 10.1263C16.4924 11.3208 16.0179 12.467 15.1717 13.3099C14.4376 14.0417 13.4733 14.4972 12.4418 14.5992C12.0557 14.6368 11.5703 14.6243 11.1736 14.6237L9.75073 14.6252L9.75053 19.773L7.50174 19.7724L7.50098 5.63674L7.66732 5.63397Z" fill="#FEFEFE"/>
<path d="M9.75098 7.87728C10.277 7.88825 10.8212 7.8692 11.3486 7.87688C11.7304 7.88244 12.1686 7.85258 12.5377 7.94369C12.9193 8.03811 13.2692 8.2314 13.5523 8.50408C13.9829 8.91507 14.2302 9.48185 14.2387 10.077C14.2499 10.7208 14.0195 11.2645 13.5732 11.724C12.8555 12.4395 12.109 12.3705 11.1987 12.3702L9.75129 12.3712L9.75098 7.87728Z" fill="#0053A4"/>
</g>
<defs>
<clipPath id="clip0_580_8714">
<rect width="24" height="24" fill="white"/>
</clipPath>
</defs>
</svg>
