<svg width="24" height="24" viewBox="0 0 24 24" fill="none" xmlns="http://www.w3.org/2000/svg">
<g clip-path="url(#clip0_777_19204)">
<path d="M6.0797 4.19377C6.05319 4.09522 6.06569 3.81043 6.06521 3.69211C6.06266 3.0587 6.03778 2.5805 6.36704 2.0028C6.65419 1.4918 7.13516 1.1181 7.70126 0.966127C8.08108 0.863601 8.47614 0.886245 8.86825 0.886237L9.85293 0.886487L12.9496 0.886908L15.0135 0.886998C15.3963 0.886926 15.8162 0.870591 16.1927 0.902954C17.0836 0.979496 17.8741 1.68213 18.0891 2.54426C18.1897 2.94789 18.1564 3.35463 18.1609 3.76541C18.1619 3.85997 18.1654 4.11017 18.1522 4.19533L19.4025 4.19241C19.6853 4.19228 20.0875 4.18432 20.366 4.21134C21.2932 4.29396 22.1622 4.69809 22.8228 5.3538C23.3185 5.84121 23.6949 6.51455 23.8685 7.18449C23.8973 7.2958 23.95 7.67597 23.9766 7.72927V19.5587C23.9476 19.6238 23.9107 19.9063 23.8863 20.014C23.8124 20.3411 23.6955 20.6571 23.5385 20.9534C23.0502 21.8884 22.2126 22.5928 21.2079 22.9138C20.4947 23.1372 19.8829 23.093 19.1506 23.0927L17.198 23.0926L11.1287 23.0927L6.23067 23.0923L4.72664 23.0867C4.37528 23.0866 3.95205 23.0982 3.60964 23.0689C3.07482 23.0229 2.55503 22.8683 2.08216 22.6142C1.19232 22.1471 0.483632 21.286 0.180362 20.3291C0.131017 20.1722 0.0912331 20.0124 0.0612304 19.8506C0.0430257 19.7468 0.0330234 19.6091 0 19.512V7.79049C0.0304099 7.71631 0.0329127 7.58053 0.0476995 7.49592C0.186734 6.70037 0.58763 5.91944 1.1631 5.34828C1.83068 4.69202 2.70784 4.29148 3.641 4.21679C3.98756 4.18669 4.40615 4.19868 4.75973 4.19998L6.0797 4.19377ZM17.0887 4.19441C17.0647 4.10446 17.071 3.95165 17.0714 3.8553L17.0735 3.34787C17.0748 2.9861 17.0852 2.76865 16.8807 2.4548C16.7431 2.24402 16.437 2.01626 16.18 1.98328C15.8171 1.93668 15.3806 1.9553 15.0097 1.95576L12.8832 1.956L9.78768 1.95585L8.84284 1.95495C8.43039 1.95444 8.01188 1.90678 7.65313 2.15478C7.05484 2.56839 7.1564 3.16812 7.1535 3.80436C7.153 3.91447 7.16152 4.08671 7.13904 4.19482C7.44173 4.20099 7.76749 4.19273 8.07283 4.19253L9.98407 4.19319L17.0887 4.19441Z" fill="#EC434A"/>
<path d="M6.07953 4.19377C6.05301 4.09522 6.06551 3.81043 6.06503 3.69211C6.06248 3.0587 6.0376 2.5805 6.36686 2.0028C6.65402 1.4918 7.13499 1.1181 7.70108 0.966127C8.0809 0.863601 8.47597 0.886245 8.86807 0.886237L9.85275 0.886487L12.9494 0.886908L15.0133 0.886998C15.3961 0.886926 15.8161 0.870591 16.1926 0.902954C17.0834 0.979496 17.874 1.68213 18.0889 2.54426C18.1895 2.94789 18.1562 3.35463 18.1607 3.76541C18.1617 3.85997 18.1652 4.11017 18.152 4.19533C17.9888 4.20686 17.2362 4.21352 17.0885 4.19441C17.0645 4.10446 17.0708 3.95165 17.0712 3.8553L17.0733 3.34787C17.0746 2.9861 17.085 2.76865 16.8805 2.4548C16.7429 2.24402 16.4368 2.01626 16.1798 1.98328C15.8169 1.93668 15.3804 1.9553 15.0095 1.95576L12.883 1.956L9.7875 1.95585L8.84266 1.95495C8.43021 1.95444 8.0117 1.90678 7.65295 2.15478C7.05466 2.56839 7.15622 3.16812 7.15332 3.80436C7.15282 3.91447 7.16134 4.08671 7.13886 4.19482C6.99916 4.20942 6.21119 4.20993 6.07953 4.19377Z" fill="#C1373D"/>
<path d="M9.94285 7.84375L14.0328 7.84393L14.0335 11.6117C14.1633 11.5998 14.3777 11.606 14.5124 11.6062L15.3589 11.6064C16.1626 11.6061 16.9917 11.5953 17.7935 11.6092C17.7803 12.0958 17.7926 12.645 17.7926 13.1359L17.7941 15.6907L14.0336 15.6893C14.0244 16.1494 14.0316 16.6346 14.0316 17.0973L14.0334 19.4233L14.0324 19.4338C14.0262 19.4381 14.0199 19.4424 14.0137 19.4467C12.8986 19.451 10.9915 19.4525 9.94651 19.4488C9.94933 18.2025 9.93235 16.9349 9.94859 15.6909C8.70282 15.6774 7.43217 15.6899 6.18424 15.691L6.18262 11.6067L8.47898 11.6064C8.96109 11.6064 9.46804 11.5989 9.94824 11.6088C9.93185 11.2722 9.94969 10.8373 9.94644 10.4927C9.9381 9.61221 9.95715 8.72422 9.94285 7.84375Z" fill="#FEFEFF"/>
</g>
<defs>
<clipPath id="clip0_777_19204">
<rect width="23.9766" height="23.9766" fill="white"/>
</clipPath>
</defs>
</svg>
