<svg width="20" height="20" viewBox="0 0 20 20" fill="none" xmlns="http://www.w3.org/2000/svg">
<g clip-path="url(#clip0_580_8535)">
<path d="M9.98389 0H10.0128C10.1213 0.150601 10.25 0.304644 10.3644 0.454082C10.6491 0.827936 10.9318 1.20346 11.2122 1.58063C12.3855 3.15841 13.4867 4.7884 14.5128 6.46561C15.1464 7.51555 15.7372 8.57495 16.2371 9.69576C16.594 10.4958 16.9238 11.3068 17.0692 12.1775C17.2038 12.9727 17.1003 13.8826 16.9027 14.6591C16.5851 15.8853 15.9493 17.006 15.0597 17.9077C13.8846 19.0811 12.4013 19.7628 10.7798 19.9631C10.6638 19.9774 10.51 19.9688 10.4018 19.9985L10.3962 20H9.60346C9.51545 19.9743 9.3712 19.9779 9.27384 19.9666C7.64836 19.7781 6.13666 19.0953 4.96009 17.9205C4.06964 17.0258 3.43188 15.9113 3.11162 14.6902C2.9015 13.8816 2.79474 12.9697 2.93983 12.1414C3.03852 11.5779 3.21929 10.9971 3.42926 10.4648C3.97457 9.08253 4.69187 7.77232 5.45695 6.50088C6.48252 4.81937 7.58573 3.18646 8.76303 1.60745C9.04436 1.22952 9.32772 0.853105 9.61307 0.478204C9.73327 0.321323 9.87013 0.158609 9.98389 0Z" fill="#83DBFE"/>
<path d="M5.36727 12.2501C5.50916 12.2479 5.6619 12.3104 5.77011 12.4009C6.04809 12.6335 5.99311 12.9367 6.02453 13.2686C6.1905 14.9576 7.40565 16.3574 9.05461 16.7588C9.22129 16.7982 9.3902 16.8275 9.5604 16.8465C9.85623 16.8775 10.163 16.831 10.3988 17.0294C10.5266 17.1347 10.6065 17.2874 10.62 17.4526C10.6319 17.614 10.5789 17.7734 10.4726 17.8956C10.3465 18.0434 10.2035 18.1047 10.0145 18.121C9.78865 18.1277 9.46194 18.0979 9.23879 18.0643C8.30463 17.9284 7.42485 17.5416 6.69317 16.9451C5.62018 16.0757 4.93402 14.8177 4.78412 13.445C4.77317 13.3319 4.76496 13.2185 4.75949 13.1051C4.74695 12.8698 4.73544 12.6793 4.89635 12.4847C5.01994 12.3353 5.17819 12.2687 5.36727 12.2501Z" fill="#FEFEFE"/>
</g>
<defs>
<clipPath id="clip0_580_8535">
<rect width="20" height="20" fill="white"/>
</clipPath>
</defs>
</svg>
